solid OpenSCAD_Model
  facet normal 0 0.986763 -0.162167
    outer loop
      vertex 21.7263 23.1635 4.425
      vertex -22.2289 23.6811 7.575
      vertex 22.2289 23.6811 7.575
    endloop
  endfacet
  facet normal 0 0.986763 -0.162167
    outer loop
      vertex -22.2289 23.6811 7.575
      vertex 21.7263 23.1635 4.425
      vertex -21.7263 23.1635 4.425
    endloop
  endfacet
  facet normal 0 -0.986763 -0.162167
    outer loop
      vertex -21.7263 -21.1035 4.425
      vertex 22.2289 -21.6211 7.575
      vertex -22.2289 -21.6211 7.575
    endloop
  endfacet
  facet normal 0 -0.986763 -0.162167
    outer loop
      vertex 22.2289 -21.6211 7.575
      vertex -21.7263 -21.1035 4.425
      vertex 21.7263 -21.1035 4.425
    endloop
  endfacet
  facet normal 0 0 -1
    outer loop
      vertex -21.7263 -21.1035 4.425
      vertex 21.7263 23.1635 4.425
      vertex 21.7263 -21.1035 4.425
    endloop
  endfacet
  facet normal -0 0 -1
    outer loop
      vertex 21.7263 23.1635 4.425
      vertex -21.7263 -21.1035 4.425
      vertex -21.7263 23.1635 4.425
    endloop
  endfacet
  facet normal 0 0 1
    outer loop
      vertex 22.2289 23.6811 7.575
      vertex 20.4196 21.7548 7.575
      vertex 22.2289 -21.6211 7.575
    endloop
  endfacet
  facet normal 0 0 1
    outer loop
      vertex 22.2289 23.6811 7.575
      vertex -20.4196 21.7548 7.575
      vertex 20.4196 21.7548 7.575
    endloop
  endfacet
  facet normal 0 0 1
    outer loop
      vertex -22.2289 -21.6211 7.575
      vertex -20.4196 21.7548 7.575
      vertex -22.2289 23.6811 7.575
    endloop
  endfacet
  facet normal -0 0 1
    outer loop
      vertex -22.2289 23.6811 7.575
      vertex -20.4196 21.7548 7.575
      vertex 22.2289 23.6811 7.575
    endloop
  endfacet
  facet normal -0 0 1
    outer loop
      vertex 20.4196 -19.8596 7.575
      vertex 22.2289 -21.6211 7.575
      vertex 20.4196 21.7548 7.575
    endloop
  endfacet
  facet normal -0 0 1
    outer loop
      vertex -20.4196 -19.8596 7.575
      vertex 22.2289 -21.6211 7.575
      vertex 20.4196 -19.8596 7.575
    endloop
  endfacet
  facet normal 0 0 1
    outer loop
      vertex -20.4196 -19.8596 7.575
      vertex -22.2289 -21.6211 7.575
      vertex 22.2289 -21.6211 7.575
    endloop
  endfacet
  facet normal 0 0 1
    outer loop
      vertex -20.4196 21.7548 7.575
      vertex -22.2289 -21.6211 7.575
      vertex -20.4196 -19.8596 7.575
    endloop
  endfacet
  facet normal -0.987509 0 -0.157563
    outer loop
      vertex -21.7263 -21.1035 4.425
      vertex -22.2289 23.6811 7.575
      vertex -21.7263 23.1635 4.425
    endloop
  endfacet
  facet normal -0.987509 -0 -0.157563
    outer loop
      vertex -22.2289 23.6811 7.575
      vertex -21.7263 -21.1035 4.425
      vertex -22.2289 -21.6211 7.575
    endloop
  endfacet
  facet normal 0.987509 0 -0.157563
    outer loop
      vertex 22.2289 23.6811 7.575
      vertex 21.7263 -21.1035 4.425
      vertex 21.7263 23.1635 4.425
    endloop
  endfacet
  facet normal 0.987509 0 -0.157563
    outer loop
      vertex 21.7263 -21.1035 4.425
      vertex 22.2289 23.6811 7.575
      vertex 22.2289 -21.6211 7.575
    endloop
  endfacet
  facet normal 0 -0.986763 0.162167
    outer loop
      vertex -19.9882 21.3104 4.871
      vertex 20.4196 21.7548 7.575
      vertex -20.4196 21.7548 7.575
    endloop
  endfacet
  facet normal 0 -0.986763 0.162167
    outer loop
      vertex 20.4196 21.7548 7.575
      vertex -19.9882 21.3104 4.871
      vertex 19.9882 21.3104 4.871
    endloop
  endfacet
  facet normal 0 0.986763 0.162167
    outer loop
      vertex 19.9882 -19.4152 4.871
      vertex -20.4196 -19.8596 7.575
      vertex 20.4196 -19.8596 7.575
    endloop
  endfacet
  facet normal 0 0.986763 0.162167
    outer loop
      vertex -20.4196 -19.8596 7.575
      vertex 19.9882 -19.4152 4.871
      vertex -19.9882 -19.4152 4.871
    endloop
  endfacet
  facet normal -0 0 1
    outer loop
      vertex -19.9882 21.3104 4.871
      vertex 19.9882 -19.4152 4.871
      vertex 19.9882 21.3104 4.871
    endloop
  endfacet
  facet normal 0 0 1
    outer loop
      vertex 19.9882 -19.4152 4.871
      vertex -19.9882 21.3104 4.871
      vertex -19.9882 -19.4152 4.871
    endloop
  endfacet
  facet normal 0.987509 0 0.157563
    outer loop
      vertex -20.4196 21.7548 7.575
      vertex -19.9882 -19.4152 4.871
      vertex -19.9882 21.3104 4.871
    endloop
  endfacet
  facet normal 0.987509 0 0.157563
    outer loop
      vertex -19.9882 -19.4152 4.871
      vertex -20.4196 21.7548 7.575
      vertex -20.4196 -19.8596 7.575
    endloop
  endfacet
  facet normal -0.987509 0 0.157563
    outer loop
      vertex 19.9882 -19.4152 4.871
      vertex 20.4196 21.7548 7.575
      vertex 19.9882 21.3104 4.871
    endloop
  endfacet
  facet normal -0.987509 0 0.157563
    outer loop
      vertex 20.4196 21.7548 7.575
      vertex 19.9882 -19.4152 4.871
      vertex 20.4196 -19.8596 7.575
    endloop
  endfacet
endsolid OpenSCAD_Model
