solid OpenSCAD_Model
  facet normal 1 -0 0
    outer loop
      vertex -23.03 -5.61 8.11405
      vertex -23.03 24.15 8.1
      vertex -23.03 24.15 8.11405
    endloop
  endfacet
  facet normal 1 0 0
    outer loop
      vertex -23.03 24.15 8.1
      vertex -23.03 -5.61 8.11405
      vertex -23.03 -5.61 8.1
    endloop
  endfacet
  facet normal 0 0 1
    outer loop
      vertex 23.03 24.15 8.1
      vertex 20 20 8.1
      vertex 23.03 -5.61 8.1
    endloop
  endfacet
  facet normal 0 0 1
    outer loop
      vertex 23.03 24.15 8.1
      vertex -20 20 8.1
      vertex 20 20 8.1
    endloop
  endfacet
  facet normal -0 0 1
    outer loop
      vertex -23.03 24.15 8.1
      vertex -20 20 8.1
      vertex 23.03 24.15 8.1
    endloop
  endfacet
  facet normal 0 0 1
    outer loop
      vertex -23.03 -5.61 8.1
      vertex -20 20 8.1
      vertex -23.03 24.15 8.1
    endloop
  endfacet
  facet normal 0 0 1
    outer loop
      vertex -20 20 8.1
      vertex -23.03 -5.61 8.1
      vertex -20 -5.61 8.1
    endloop
  endfacet
  facet normal 0 0 1
    outer loop
      vertex 23.03 -5.61 8.1
      vertex 20 20 8.1
      vertex 20 -5.61 8.1
    endloop
  endfacet
  facet normal 0 -1 0
    outer loop
      vertex -2.7 24.15 14.5
      vertex -20.948 24.15 20.7
      vertex -12.7 24.15 14.5
    endloop
  endfacet
  facet normal 0 -1 0
    outer loop
      vertex -23.03 24.15 8.11405
      vertex -12.7 24.15 14.5
      vertex -20.948 24.15 20.7
    endloop
  endfacet
  facet normal 0 -1 0
    outer loop
      vertex -23.03 24.15 8.1
      vertex -12.7 24.15 9
      vertex -23.03 24.15 8.11405
    endloop
  endfacet
  facet normal 0 -1 -0
    outer loop
      vertex -12.7 24.15 14.5
      vertex -23.03 24.15 8.11405
      vertex -12.7 24.15 9
    endloop
  endfacet
  facet normal 0 -1 0
    outer loop
      vertex -20.948 24.15 20.7
      vertex -2.7 24.15 14.5
      vertex 20.948 24.15 20.7
    endloop
  endfacet
  facet normal 0 -1 0
    outer loop
      vertex 23.03 24.15 8.11405
      vertex -2.7 24.15 14.5
      vertex -2.7 24.15 9
    endloop
  endfacet
  facet normal 0 -1 0
    outer loop
      vertex -2.7 24.15 14.5
      vertex 23.03 24.15 8.11405
      vertex 20.948 24.15 20.7
    endloop
  endfacet
  facet normal 0 -1 -0
    outer loop
      vertex -12.7 24.15 9
      vertex -23.03 24.15 8.1
      vertex -2.7 24.15 9
    endloop
  endfacet
  facet normal 0 -1 0
    outer loop
      vertex 23.03 24.15 8.1
      vertex -2.7 24.15 9
      vertex -23.03 24.15 8.1
    endloop
  endfacet
  facet normal 0 -1 0
    outer loop
      vertex -2.7 24.15 9
      vertex 23.03 24.15 8.1
      vertex 23.03 24.15 8.11405
    endloop
  endfacet
  facet normal 0.986591 0 -0.163211
    outer loop
      vertex -20.948 0.410745 20.7
      vertex -21.9456 -1.02791 14.6695
      vertex -20.948 24.15 20.7
    endloop
  endfacet
  facet normal 0.986724 -0.000197964 -0.162407
    outer loop
      vertex -21.9456 -1.02791 14.6695
      vertex -21.9509 -1.08079 14.6374
      vertex -20.948 24.15 20.7
    endloop
  endfacet
  facet normal 0.986715 -0.000163327 -0.162462
    outer loop
      vertex -21.9509 -1.08079 14.6374
      vertex -21.9456 -1.02791 14.6695
      vertex -21.9479 -1.08533 14.6557
    endloop
  endfacet
  facet normal 0.986592 -9.31181e-007 -0.163205
    outer loop
      vertex -20.948 24.15 20.7
      vertex -22.015 -0.984166 14.2499
      vertex -23.03 24.15 8.11405
    endloop
  endfacet
  facet normal 0.986592 -9.74774e-007 -0.163205
    outer loop
      vertex -22.015 -0.984166 14.2499
      vertex -20.948 24.15 20.7
      vertex -21.9509 -1.08079 14.6374
    endloop
  endfacet
  facet normal 0.986592 -1.21928e-006 -0.163205
    outer loop
      vertex -22.8218 -5.61 9.37289
      vertex -22.015 -0.984166 14.2499
      vertex -22.2058 -5.61 13.0966
    endloop
  endfacet
  facet normal 0.986592 -9.30745e-007 -0.163205
    outer loop
      vertex -22.015 -0.984166 14.2499
      vertex -22.8218 -5.61 9.37289
      vertex -23.03 24.15 8.11405
    endloop
  endfacet
  facet normal 0.986596 0 -0.163184
    outer loop
      vertex -22.8218 -5.61 9.37289
      vertex -23.03 -5.61 8.11405
      vertex -23.03 24.15 8.11405
    endloop
  endfacet
  facet normal -1 0 0
    outer loop
      vertex 23.03 -5.61 8.1
      vertex 23.03 24.15 8.11405
      vertex 23.03 24.15 8.1
    endloop
  endfacet
  facet normal -1 -0 0
    outer loop
      vertex 23.03 24.15 8.11405
      vertex 23.03 -5.61 8.1
      vertex 23.03 -5.61 8.11405
    endloop
  endfacet
  facet normal 0 0.234557 -0.972102
    outer loop
      vertex -21.9376 -1.08533 14.6557
      vertex -21.9479 -1.08533 14.6557
      vertex -21.9456 -1.02791 14.6695
    endloop
  endfacet
  facet normal 0 0.234557 -0.972102
    outer loop
      vertex 21.8278 -1.08533 14.6557
      vertex 21.8041 -1.08533 14.6557
      vertex 21.9456 -1.02791 14.6695
    endloop
  endfacet
  facet normal 0 0.234557 -0.972102
    outer loop
      vertex 21.9323 -1.08533 14.6557
      vertex 21.8278 -1.08533 14.6557
      vertex 21.9456 -1.02791 14.6695
    endloop
  endfacet
  facet normal 0 0.234557 -0.972102
    outer loop
      vertex 21.9479 -1.08533 14.6557
      vertex 21.9323 -1.08533 14.6557
      vertex 21.9456 -1.02791 14.6695
    endloop
  endfacet
  facet normal 0 0.234557 -0.972102
    outer loop
      vertex -21.9456 -1.02791 14.6695
      vertex 21.8041 -1.08533 14.6557
      vertex -21.9376 -1.08533 14.6557
    endloop
  endfacet
  facet normal 0 0.234557 -0.972102
    outer loop
      vertex 21.8041 -1.08533 14.6557
      vertex -21.9456 -1.02791 14.6695
      vertex 21.9456 -1.02791 14.6695
    endloop
  endfacet
  facet normal -0.986556 7.51783e-005 -0.163425
    outer loop
      vertex 21.9479 -1.08533 14.6557
      vertex 21.9456 -1.02791 14.6695
      vertex 21.9487 -1.08418 14.651
    endloop
  endfacet
  facet normal -0.986592 -6.56322e-007 -0.163205
    outer loop
      vertex 22.4206 10 11.7982
      vertex 22.3775 9 12.0586
      vertex 21.5601 10 17
    endloop
  endfacet
  facet normal -0.986592 -8.30779e-007 -0.163205
    outer loop
      vertex 22.5067 12 11.2775
      vertex 22.4636 11 11.5379
      vertex 21.5601 12 17
    endloop
  endfacet
  facet normal -0.986592 -6.18824e-007 -0.163205
    outer loop
      vertex 22.5929 14 10.7568
      vertex 22.5498 13 11.0171
      vertex 21.5601 14 17
    endloop
  endfacet
  facet normal -0.986592 -6.43618e-007 -0.163205
    outer loop
      vertex 22.679 16 10.236
      vertex 22.6359 15 10.4964
      vertex 21.5601 16 17
    endloop
  endfacet
  facet normal -0.986592 -6.59305e-007 -0.163205
    outer loop
      vertex 22.7651 18 9.7153
      vertex 22.7221 17 9.97566
      vertex 21.5601 18 17
    endloop
  endfacet
  facet normal -0.986592 -6.1532e-007 -0.163205
    outer loop
      vertex 22.8513 20 9.19457
      vertex 22.8082 19 9.45493
      vertex 21.5601 20 17
    endloop
  endfacet
  facet normal -0.986592 -1.06736e-006 -0.163205
    outer loop
      vertex 21.5601 21 17
      vertex 23.03 24.15 8.11405
      vertex 22.8834 21 9
    endloop
  endfacet
  facet normal -0.986589 -7.44618e-006 -0.163227
    outer loop
      vertex 22.8834 21 9
      vertex 23.03 24.15 8.11405
      vertex 22.8834 20.7473 9
    endloop
  endfacet
  facet normal -0.986592 -1.45628e-006 -0.163205
    outer loop
      vertex 23.03 24.15 8.11405
      vertex 21.5601 21 17
      vertex 20.948 24.15 20.7
    endloop
  endfacet
  facet normal -0.986592 -1.88178e-006 -0.163205
    outer loop
      vertex 21.5601 20 17
      vertex 20.948 24.15 20.7
      vertex 21.5601 21 17
    endloop
  endfacet
  facet normal -0.986592 -1.88178e-006 -0.163205
    outer loop
      vertex 21.5601 19 17
      vertex 21.5601 20 17
      vertex 22.8082 19 9.45493
    endloop
  endfacet
  facet normal -0.986592 -1.88178e-006 -0.163205
    outer loop
      vertex 21.5601 19 17
      vertex 20.948 24.15 20.7
      vertex 21.5601 20 17
    endloop
  endfacet
  facet normal -0.986592 0 -0.163207
    outer loop
      vertex 21.5601 18 17
      vertex 20.948 24.15 20.7
      vertex 21.5601 19 17
    endloop
  endfacet
  facet normal -0.986592 -1.88178e-006 -0.163205
    outer loop
      vertex 21.5601 17 17
      vertex 21.5601 18 17
      vertex 22.7221 17 9.97566
    endloop
  endfacet
  facet normal -0.986592 -1.88178e-006 -0.163204
    outer loop
      vertex 21.5601 17 17
      vertex 20.948 24.15 20.7
      vertex 21.5601 18 17
    endloop
  endfacet
  facet normal -0.986592 -1.88178e-006 -0.163204
    outer loop
      vertex 21.5601 16 17
      vertex 20.948 24.15 20.7
      vertex 21.5601 17 17
    endloop
  endfacet
  facet normal -0.986592 -1.88178e-006 -0.163205
    outer loop
      vertex 21.5601 15 17
      vertex 21.5601 16 17
      vertex 22.6359 15 10.4964
    endloop
  endfacet
  facet normal -0.986592 -1.88178e-006 -0.163204
    outer loop
      vertex 21.5601 15 17
      vertex 20.948 24.15 20.7
      vertex 21.5601 16 17
    endloop
  endfacet
  facet normal -0.986592 -1.88178e-006 -0.163204
    outer loop
      vertex 21.5601 14 17
      vertex 20.948 24.15 20.7
      vertex 21.5601 15 17
    endloop
  endfacet
  facet normal -0.986592 -1.88178e-006 -0.163205
    outer loop
      vertex 21.5601 13 17
      vertex 21.5601 14 17
      vertex 22.5498 13 11.0171
    endloop
  endfacet
  facet normal -0.986592 -1.88178e-006 -0.163204
    outer loop
      vertex 21.5601 13 17
      vertex 20.948 24.15 20.7
      vertex 21.5601 14 17
    endloop
  endfacet
  facet normal -0.986591 0 -0.16321
    outer loop
      vertex 21.5601 12 17
      vertex 20.948 24.15 20.7
      vertex 21.5601 13 17
    endloop
  endfacet
  facet normal -0.986592 -1.88178e-006 -0.163205
    outer loop
      vertex 21.5601 11 17
      vertex 21.5601 12 17
      vertex 22.4636 11 11.5379
    endloop
  endfacet
  facet normal -0.986592 -1.88178e-006 -0.163204
    outer loop
      vertex 21.5601 11 17
      vertex 20.948 24.15 20.7
      vertex 21.5601 12 17
    endloop
  endfacet
  facet normal -0.986592 -1.88178e-006 -0.163204
    outer loop
      vertex 21.5601 10 17
      vertex 20.948 24.15 20.7
      vertex 21.5601 11 17
    endloop
  endfacet
  facet normal -0.986592 -1.88178e-006 -0.163205
    outer loop
      vertex 21.5601 9 17
      vertex 21.5601 10 17
      vertex 22.3775 9 12.0586
    endloop
  endfacet
  facet normal -0.986592 -1.88178e-006 -0.163204
    outer loop
      vertex 21.5601 9 17
      vertex 20.948 24.15 20.7
      vertex 21.5601 10 17
    endloop
  endfacet
  facet normal -0.986591 0 -0.163211
    outer loop
      vertex 20.948 24.15 20.7
      vertex 21.5601 9 17
      vertex 21.5601 8.70212 17
    endloop
  endfacet
  facet normal -0.986592 -1.75418e-006 -0.163205
    outer loop
      vertex 21.9456 -1.02791 14.6695
      vertex 21.7464 4 15.8738
      vertex 22.1622 4 13.3604
    endloop
  endfacet
  facet normal -0.986592 -2.47728e-006 -0.163205
    outer loop
      vertex 22.2052 5 13.1001
      vertex 21.6671 6 16.3528
      vertex 22.2483 6 12.8397
    endloop
  endfacet
  facet normal -0.986592 -2.18104e-006 -0.163205
    outer loop
      vertex 21.6671 6 16.3528
      vertex 22.2052 5 13.1001
      vertex 21.7068 5 16.1133
    endloop
  endfacet
  facet normal -0.986592 -7.83152e-007 -0.163205
    outer loop
      vertex 22.2914 7 12.5793
      vertex 21.5879 8 16.8318
      vertex 22.3344 8 12.319
    endloop
  endfacet
  facet normal -0.986592 -1.92652e-006 -0.163205
    outer loop
      vertex 21.5879 8 16.8318
      vertex 22.2914 7 12.5793
      vertex 21.6275 7 16.5923
    endloop
  endfacet
  facet normal -0.986593 0 -0.163199
    outer loop
      vertex 23.03 24.15 8.11405
      vertex 22.8834 20 9
      vertex 22.8834 20.7473 9
    endloop
  endfacet
  facet normal -0.986593 -0 -0.163198
    outer loop
      vertex 22.8834 20 9
      vertex 22.8834 19 9
      vertex 22.8513 20 9.19457
    endloop
  endfacet
  facet normal -0.986593 0 -0.163199
    outer loop
      vertex 23.03 24.15 8.11405
      vertex 22.8834 19 9
      vertex 22.8834 20 9
    endloop
  endfacet
  facet normal -0.986593 0 -0.163199
    outer loop
      vertex 23.03 24.15 8.11405
      vertex 22.8834 18 9
      vertex 22.8834 19 9
    endloop
  endfacet
  facet normal -0.986593 -0 -0.163199
    outer loop
      vertex 22.8834 18 9
      vertex 22.8834 17 9
      vertex 22.7651 18 9.7153
    endloop
  endfacet
  facet normal -0.986593 0 -0.163199
    outer loop
      vertex 23.03 24.15 8.11405
      vertex 22.8834 17 9
      vertex 22.8834 18 9
    endloop
  endfacet
  facet normal -0.986593 0 -0.163199
    outer loop
      vertex 23.03 24.15 8.11405
      vertex 22.8834 16 9
      vertex 22.8834 17 9
    endloop
  endfacet
  facet normal -0.986593 -0 -0.163199
    outer loop
      vertex 22.8834 16 9
      vertex 22.8834 15 9
      vertex 22.679 16 10.236
    endloop
  endfacet
  facet normal -0.986593 0 -0.163199
    outer loop
      vertex 23.03 24.15 8.11405
      vertex 22.8834 15 9
      vertex 22.8834 16 9
    endloop
  endfacet
  facet normal -0.986593 0 -0.163199
    outer loop
      vertex 23.03 24.15 8.11405
      vertex 22.8834 14 9
      vertex 22.8834 15 9
    endloop
  endfacet
  facet normal -0.986593 -0 -0.163199
    outer loop
      vertex 22.8834 14 9
      vertex 22.8834 13 9
      vertex 22.5929 14 10.7568
    endloop
  endfacet
  facet normal -0.986593 0 -0.163199
    outer loop
      vertex 23.03 24.15 8.11405
      vertex 22.8834 13 9
      vertex 22.8834 14 9
    endloop
  endfacet
  facet normal -0.986593 0 -0.163199
    outer loop
      vertex 23.03 24.15 8.11405
      vertex 22.8834 12 9
      vertex 22.8834 13 9
    endloop
  endfacet
  facet normal -0.986593 -0 -0.163199
    outer loop
      vertex 22.8834 12 9
      vertex 22.8834 11 9
      vertex 22.5067 12 11.2775
    endloop
  endfacet
  facet normal -0.986593 0 -0.163199
    outer loop
      vertex 23.03 24.15 8.11405
      vertex 22.8834 11 9
      vertex 22.8834 12 9
    endloop
  endfacet
  facet normal -0.986593 0 -0.163199
    outer loop
      vertex 23.03 24.15 8.11405
      vertex 22.8834 10 9
      vertex 22.8834 11 9
    endloop
  endfacet
  facet normal -0.986593 -0 -0.163199
    outer loop
      vertex 22.8834 10 9
      vertex 22.8834 9 9
      vertex 22.4206 10 11.7982
    endloop
  endfacet
  facet normal -0.986593 0 -0.163199
    outer loop
      vertex 23.03 24.15 8.11405
      vertex 22.8834 9 9
      vertex 22.8834 10 9
    endloop
  endfacet
  facet normal -0.986593 0 -0.163199
    outer loop
      vertex 23.03 24.15 8.11405
      vertex 22.8834 8 9
      vertex 22.8834 9 9
    endloop
  endfacet
  facet normal -0.986593 -0 -0.163199
    outer loop
      vertex 22.8834 8 9
      vertex 22.8834 7 9
      vertex 22.3344 8 12.319
    endloop
  endfacet
  facet normal -0.986593 0 -0.163199
    outer loop
      vertex 23.03 -5.61 8.11405
      vertex 22.8834 8 9
      vertex 23.03 24.15 8.11405
    endloop
  endfacet
  facet normal -0.986593 -0 -0.163199
    outer loop
      vertex 22.8834 8 9
      vertex 23.03 -5.61 8.11405
      vertex 22.8834 7 9
    endloop
  endfacet
  facet normal -0.986593 -0 -0.1632
    outer loop
      vertex 22.8834 6 9
      vertex 22.8834 5 9
      vertex 22.2483 6 12.8397
    endloop
  endfacet
  facet normal -0.986593 -0 -0.163199
    outer loop
      vertex 22.8834 7 9
      vertex 23.03 -5.61 8.11405
      vertex 22.8834 6 9
    endloop
  endfacet
  facet normal -0.986593 -0 -0.163199
    outer loop
      vertex 22.8834 6 9
      vertex 23.03 -5.61 8.11405
      vertex 22.8834 5 9
    endloop
  endfacet
  facet normal -0.986593 -2.93492e-007 -0.1632
    outer loop
      vertex 22.8834 4 9
      vertex 22.015 -0.984166 14.2499
      vertex 22.1622 4 13.3604
    endloop
  endfacet
  facet normal -0.986593 -0 -0.163199
    outer loop
      vertex 22.8834 5 9
      vertex 23.03 -5.61 8.11405
      vertex 22.8834 4 9
    endloop
  endfacet
  facet normal -0.986593 9.48548e-009 -0.163199
    outer loop
      vertex 23.03 -5.61 8.11405
      vertex 22.015 -0.984166 14.2499
      vertex 22.8834 4 9
    endloop
  endfacet
  facet normal -0.986593 2.59465e-007 -0.163199
    outer loop
      vertex 22.015 -0.984166 14.2499
      vertex 23.03 -5.61 8.11405
      vertex 22.2058 -5.61 13.0966
    endloop
  endfacet
  facet normal -0.986593 5.19434e-007 -0.163201
    outer loop
      vertex 22.8513 20 9.19457
      vertex 22.8834 19 9
      vertex 22.8082 19 9.45493
    endloop
  endfacet
  facet normal -0.986593 7.44373e-007 -0.1632
    outer loop
      vertex 22.7651 18 9.7153
      vertex 22.8834 17 9
      vertex 22.7221 17 9.97566
    endloop
  endfacet
  facet normal -0.986593 8.39839e-007 -0.1632
    outer loop
      vertex 22.679 16 10.236
      vertex 22.8834 15 9
      vertex 22.6359 15 10.4964
    endloop
  endfacet
  facet normal -0.986593 8.65925e-007 -0.1632
    outer loop
      vertex 22.5929 14 10.7568
      vertex 22.8834 13 9
      vertex 22.5498 13 11.0171
    endloop
  endfacet
  facet normal -0.986593 7.41635e-007 -0.163199
    outer loop
      vertex 22.5067 12 11.2775
      vertex 22.8834 11 9
      vertex 22.4636 11 11.5379
    endloop
  endfacet
  facet normal -0.986593 9.04699e-007 -0.163199
    outer loop
      vertex 22.4206 10 11.7982
      vertex 22.8834 9 9
      vertex 22.3775 9 12.0586
    endloop
  endfacet
  facet normal -0.986593 7.65647e-007 -0.163199
    outer loop
      vertex 22.3344 8 12.319
      vertex 22.8834 7 9
      vertex 22.2914 7 12.5793
    endloop
  endfacet
  facet normal -0.986593 -9.58002e-007 -0.163199
    outer loop
      vertex 22.2483 6 12.8397
      vertex 22.8834 5 9
      vertex 22.2052 5 13.1001
    endloop
  endfacet
  facet normal -0.986593 -1.05492e-007 -0.163199
    outer loop
      vertex 22.015 -0.984166 14.2499
      vertex 21.9456 -1.02791 14.6695
      vertex 22.1622 4 13.3604
    endloop
  endfacet
  facet normal -0.986593 -1.09897e-006 -0.163199
    outer loop
      vertex 21.9456 -1.02791 14.6695
      vertex 22.015 -0.984166 14.2499
      vertex 21.9487 -1.08418 14.651
    endloop
  endfacet
  facet normal -0.986591 -5.94171e-007 -0.163212
    outer loop
      vertex 21.5601 5 17
      vertex 21.6671 6 16.3528
      vertex 21.7068 5 16.1133
    endloop
  endfacet
  facet normal -0.986591 3.07415e-007 -0.163214
    outer loop
      vertex 21.5601 7 17
      vertex 21.5879 8 16.8318
      vertex 21.6275 7 16.5923
    endloop
  endfacet
  facet normal -0.986591 0 -0.163211
    outer loop
      vertex 20.948 0.410745 20.7
      vertex 21.5601 8.70212 17
      vertex 21.5601 8 17
    endloop
  endfacet
  facet normal -0.98659 0 -0.163216
    outer loop
      vertex 21.5879 8 16.8318
      vertex 21.5601 7 17
      vertex 21.5601 8 17
    endloop
  endfacet
  facet normal -0.986591 0 -0.163211
    outer loop
      vertex 20.948 0.410745 20.7
      vertex 21.5601 8 17
      vertex 21.5601 7 17
    endloop
  endfacet
  facet normal -0.986591 0 -0.163211
    outer loop
      vertex 20.948 0.410745 20.7
      vertex 21.5601 7 17
      vertex 21.5601 6 17
    endloop
  endfacet
  facet normal -0.986591 0 -0.163211
    outer loop
      vertex 21.6671 6 16.3528
      vertex 21.5601 5 17
      vertex 21.5601 6 17
    endloop
  endfacet
  facet normal -0.986591 0 -0.163211
    outer loop
      vertex 20.948 0.410745 20.7
      vertex 21.5601 6 17
      vertex 21.5601 5 17
    endloop
  endfacet
  facet normal -0.986591 0 -0.163211
    outer loop
      vertex 20.948 0.410745 20.7
      vertex 21.5601 5 17
      vertex 21.5601 4 17
    endloop
  endfacet
  facet normal -0.986591 0 -0.163211
    outer loop
      vertex 21.5601 8.70212 17
      vertex 20.948 0.410745 20.7
      vertex 20.948 24.15 20.7
    endloop
  endfacet
  facet normal -0.986591 -3.59068e-008 -0.163212
    outer loop
      vertex 21.9456 -1.02791 14.6695
      vertex 21.5601 4 17
      vertex 21.7464 4 15.8738
    endloop
  endfacet
  facet normal -0.986591 -1.7207e-007 -0.163211
    outer loop
      vertex 21.5601 4 17
      vertex 21.9456 -1.02791 14.6695
      vertex 20.948 0.410745 20.7
    endloop
  endfacet
  facet normal 0 0 -1
    outer loop
      vertex 20.948 0.410745 20.7
      vertex 18 4 20.7
      vertex 20.948 24.15 20.7
    endloop
  endfacet
  facet normal 0 0 -1
    outer loop
      vertex 20.948 0.410745 20.7
      vertex -18 4 20.7
      vertex 18 4 20.7
    endloop
  endfacet
  facet normal 0 0 -1
    outer loop
      vertex -20.948 24.15 20.7
      vertex -18 4 20.7
      vertex -20.948 0.410745 20.7
    endloop
  endfacet
  facet normal 0 0 -1
    outer loop
      vertex -20.948 0.410745 20.7
      vertex -18 4 20.7
      vertex 20.948 0.410745 20.7
    endloop
  endfacet
  facet normal 0 0 -1
    outer loop
      vertex 18 21 20.7
      vertex 20.948 24.15 20.7
      vertex 18 4 20.7
    endloop
  endfacet
  facet normal 0 0 -1
    outer loop
      vertex -18 21 20.7
      vertex 20.948 24.15 20.7
      vertex 18 21 20.7
    endloop
  endfacet
  facet normal 0 0 -1
    outer loop
      vertex -18 21 20.7
      vertex -20.948 24.15 20.7
      vertex 20.948 24.15 20.7
    endloop
  endfacet
  facet normal 0 0 -1
    outer loop
      vertex -18 4 20.7
      vertex -20.948 24.15 20.7
      vertex -18 21 20.7
    endloop
  endfacet
  facet normal 0 0.972704 -0.232051
    outer loop
      vertex 21.9456 -1.02791 14.6695
      vertex -20.948 0.410745 20.7
      vertex 20.948 0.410745 20.7
    endloop
  endfacet
  facet normal 0 0.972704 -0.232051
    outer loop
      vertex -20.948 0.410745 20.7
      vertex 21.9456 -1.02791 14.6695
      vertex -21.9456 -1.02791 14.6695
    endloop
  endfacet
  facet normal 0 1 0
    outer loop
      vertex 22.2058 -5.61 13.0966
      vertex 20 -5.61 10.8991
      vertex -22.2058 -5.61 13.0966
    endloop
  endfacet
  facet normal 0 1 0
    outer loop
      vertex 23.03 -5.61 8.11405
      vertex 20 -5.61 10.8991
      vertex 22.2058 -5.61 13.0966
    endloop
  endfacet
  facet normal 0 1 0
    outer loop
      vertex 20 -5.61 8.1
      vertex 23.03 -5.61 8.11405
      vertex 23.03 -5.61 8.1
    endloop
  endfacet
  facet normal 0 1 0
    outer loop
      vertex 23.03 -5.61 8.11405
      vertex 20 -5.61 8.1
      vertex 20 -5.61 10.8991
    endloop
  endfacet
  facet normal 0 1 -0
    outer loop
      vertex -20 -5.61 10.8991
      vertex -22.2058 -5.61 13.0966
      vertex 20 -5.61 10.8991
    endloop
  endfacet
  facet normal 0 1 0
    outer loop
      vertex -20 -5.61 10.8991
      vertex -22.8218 -5.61 9.37289
      vertex -22.2058 -5.61 13.0966
    endloop
  endfacet
  facet normal 0 1 -0
    outer loop
      vertex -20 -5.61 8.1
      vertex -22.8218 -5.61 9.37289
      vertex -20 -5.61 10.8991
    endloop
  endfacet
  facet normal 0 1 0
    outer loop
      vertex -22.8218 -5.61 9.37289
      vertex -20 -5.61 8.1
      vertex -23.03 -5.61 8.11405
    endloop
  endfacet
  facet normal 0 1 0
    outer loop
      vertex -23.03 -5.61 8.11405
      vertex -20 -5.61 8.1
      vertex -23.03 -5.61 8.1
    endloop
  endfacet
  facet normal 0 0 -1
    outer loop
      vertex 21.5601 4 17
      vertex 22.9979 5 17
      vertex 22.9979 4 17
    endloop
  endfacet
  facet normal -0 0 -1
    outer loop
      vertex 22.9979 5 17
      vertex 21.5601 4 17
      vertex 21.5601 5 17
    endloop
  endfacet
  facet normal -0 0 1
    outer loop
      vertex 22.8834 5 9
      vertex 24.2649 4 9
      vertex 24.2649 5 9
    endloop
  endfacet
  facet normal 0 0 1
    outer loop
      vertex 24.2649 4 9
      vertex 22.8834 5 9
      vertex 22.8834 4 9
    endloop
  endfacet
  facet normal 0 1 0
    outer loop
      vertex 21.7464 4 15.8738
      vertex 22.9979 4 17
      vertex 23.1083 4 16.3025
    endloop
  endfacet
  facet normal 0 1 0
    outer loop
      vertex 22.9979 4 17
      vertex 21.7464 4 15.8738
      vertex 21.5601 4 17
    endloop
  endfacet
  facet normal 0 1 0
    outer loop
      vertex 23.1083 4 16.3025
      vertex 22.1622 4 13.3604
      vertex 21.7464 4 15.8738
    endloop
  endfacet
  facet normal 0 1 0
    outer loop
      vertex 23.6052 4 13.1655
      vertex 22.1622 4 13.3604
      vertex 23.1083 4 16.3025
    endloop
  endfacet
  facet normal 0 1 0
    outer loop
      vertex 22.8834 4 9
      vertex 23.6052 4 13.1655
      vertex 24.2649 4 9
    endloop
  endfacet
  facet normal 0 1 0
    outer loop
      vertex 23.6052 4 13.1655
      vertex 22.8834 4 9
      vertex 22.1622 4 13.3604
    endloop
  endfacet
  facet normal 0 -1 0
    outer loop
      vertex 21.7068 5 16.1133
      vertex 22.9979 5 17
      vertex 21.5601 5 17
    endloop
  endfacet
  facet normal 0 -1 -0
    outer loop
      vertex 22.9979 5 17
      vertex 21.7068 5 16.1133
      vertex 23.0691 5 16.55
    endloop
  endfacet
  facet normal 0 -1 0
    outer loop
      vertex 22.2052 5 13.1001
      vertex 23.0691 5 16.55
      vertex 21.7068 5 16.1133
    endloop
  endfacet
  facet normal 0 -1 0
    outer loop
      vertex 22.2052 5 13.1001
      vertex 23.6478 5 12.8965
      vertex 23.0691 5 16.55
    endloop
  endfacet
  facet normal 0 -1 0
    outer loop
      vertex 22.8834 5 9
      vertex 23.6478 5 12.8965
      vertex 22.2052 5 13.1001
    endloop
  endfacet
  facet normal 0 -1 -0
    outer loop
      vertex 23.6478 5 12.8965
      vertex 22.8834 5 9
      vertex 24.2649 5 9
    endloop
  endfacet
  facet normal 0 0 -1
    outer loop
      vertex 21.5601 6 17
      vertex 22.9979 6.8181 17
      vertex 22.9979 6 17
    endloop
  endfacet
  facet normal 0 0 -1
    outer loop
      vertex 21.5601 7 17
      vertex 22.9979 6.8181 17
      vertex 21.5601 6 17
    endloop
  endfacet
  facet normal 0 0 -1
    outer loop
      vertex 22.9979 6.8181 17
      vertex 21.5601 7 17
      vertex 22.9979 7 17
    endloop
  endfacet
  facet normal 0 -1 0
    outer loop
      vertex 21.6275 7 16.5923
      vertex 22.9979 7 17
      vertex 21.5601 7 17
    endloop
  endfacet
  facet normal 0 -1 0
    outer loop
      vertex 22.2914 7 12.5793
      vertex 22.9979 7 17
      vertex 21.6275 7 16.5923
    endloop
  endfacet
  facet normal 0 -1 0
    outer loop
      vertex 22.2914 7 12.5793
      vertex 23.733 7 12.3584
      vertex 22.9979 7 17
    endloop
  endfacet
  facet normal 0 -1 0
    outer loop
      vertex 22.8834 7 9
      vertex 23.733 7 12.3584
      vertex 22.2914 7 12.5793
    endloop
  endfacet
  facet normal 0 -1 -0
    outer loop
      vertex 23.733 7 12.3584
      vertex 22.8834 7 9
      vertex 24.2649 7 9
    endloop
  endfacet
  facet normal -0 0 1
    outer loop
      vertex 22.8834 7 9
      vertex 24.2649 6 9
      vertex 24.2649 7 9
    endloop
  endfacet
  facet normal 0 0 1
    outer loop
      vertex 24.2649 6 9
      vertex 22.8834 7 9
      vertex 22.8834 6 9
    endloop
  endfacet
  facet normal 0 1 0
    outer loop
      vertex 23.0299 6 16.7975
      vertex 21.5601 6 17
      vertex 22.9979 6 17
    endloop
  endfacet
  facet normal 0 1 0
    outer loop
      vertex 23.0299 6 16.7975
      vertex 21.6671 6 16.3528
      vertex 21.5601 6 17
    endloop
  endfacet
  facet normal 0 1 0
    outer loop
      vertex 23.0299 6 16.7975
      vertex 22.2483 6 12.8397
      vertex 21.6671 6 16.3528
    endloop
  endfacet
  facet normal 0 1 0
    outer loop
      vertex 23.6904 6 12.6275
      vertex 22.2483 6 12.8397
      vertex 23.0299 6 16.7975
    endloop
  endfacet
  facet normal 0 1 0
    outer loop
      vertex 22.8834 6 9
      vertex 23.6904 6 12.6275
      vertex 24.2649 6 9
    endloop
  endfacet
  facet normal 0 1 0
    outer loop
      vertex 23.6904 6 12.6275
      vertex 22.8834 6 9
      vertex 22.2483 6 12.8397
    endloop
  endfacet
  facet normal 0 0 -1
    outer loop
      vertex 21.5601 8.70212 17
      vertex 22.9979 8 17
      vertex 21.5601 8 17
    endloop
  endfacet
  facet normal 0 0 -1
    outer loop
      vertex 22.9979 8 17
      vertex 21.5601 8.70212 17
      vertex 22.9979 9 17
    endloop
  endfacet
  facet normal -0 0 -1
    outer loop
      vertex 22.9979 9 17
      vertex 21.5601 8.70212 17
      vertex 21.5601 9 17
    endloop
  endfacet
  facet normal 0 -1 0
    outer loop
      vertex 22.3775 9 12.0586
      vertex 22.9979 9 17
      vertex 21.5601 9 17
    endloop
  endfacet
  facet normal 0 -1 0
    outer loop
      vertex 22.3775 9 12.0586
      vertex 23.8182 9 11.8203
      vertex 22.9979 9 17
    endloop
  endfacet
  facet normal 0 -1 0
    outer loop
      vertex 22.8834 9 9
      vertex 23.8182 9 11.8203
      vertex 22.3775 9 12.0586
    endloop
  endfacet
  facet normal 0 -1 -0
    outer loop
      vertex 23.8182 9 11.8203
      vertex 22.8834 9 9
      vertex 24.2649 9 9
    endloop
  endfacet
  facet normal -0 0 1
    outer loop
      vertex 22.8834 9 9
      vertex 24.2649 8 9
      vertex 24.2649 9 9
    endloop
  endfacet
  facet normal 0 0 1
    outer loop
      vertex 24.2649 8 9
      vertex 22.8834 9 9
      vertex 22.8834 8 9
    endloop
  endfacet
  facet normal 0 1 0
    outer loop
      vertex 22.9979 8 17
      vertex 21.5879 8 16.8318
      vertex 21.5601 8 17
    endloop
  endfacet
  facet normal 0 1 0
    outer loop
      vertex 22.9979 8 17
      vertex 22.3344 8 12.319
      vertex 21.5879 8 16.8318
    endloop
  endfacet
  facet normal 0 1 0
    outer loop
      vertex 23.7756 8 12.0894
      vertex 22.3344 8 12.319
      vertex 22.9979 8 17
    endloop
  endfacet
  facet normal 0 1 0
    outer loop
      vertex 22.8834 8 9
      vertex 23.7756 8 12.0894
      vertex 24.2649 8 9
    endloop
  endfacet
  facet normal 0 1 0
    outer loop
      vertex 23.7756 8 12.0894
      vertex 22.8834 8 9
      vertex 22.3344 8 12.319
    endloop
  endfacet
  facet normal 0 0 -1
    outer loop
      vertex 21.5601 10 17
      vertex 22.9978 11 17
      vertex 22.9979 10 17
    endloop
  endfacet
  facet normal -0 0 -1
    outer loop
      vertex 22.9978 11 17
      vertex 21.5601 10 17
      vertex 21.5601 11 17
    endloop
  endfacet
  facet normal -0 0 1
    outer loop
      vertex 22.8834 11 9
      vertex 24.2649 10 9
      vertex 24.2649 11 9
    endloop
  endfacet
  facet normal 0 0 1
    outer loop
      vertex 24.2649 10 9
      vertex 22.8834 11 9
      vertex 22.8834 10 9
    endloop
  endfacet
  facet normal 0 1 0
    outer loop
      vertex 22.9979 10 17
      vertex 22.4206 10 11.7982
      vertex 21.5601 10 17
    endloop
  endfacet
  facet normal 0 1 0
    outer loop
      vertex 23.8608 10 11.5513
      vertex 22.4206 10 11.7982
      vertex 22.9979 10 17
    endloop
  endfacet
  facet normal 0 1 0
    outer loop
      vertex 22.8834 10 9
      vertex 23.8608 10 11.5513
      vertex 24.2649 10 9
    endloop
  endfacet
  facet normal 0 1 0
    outer loop
      vertex 23.8608 10 11.5513
      vertex 22.8834 10 9
      vertex 22.4206 10 11.7982
    endloop
  endfacet
  facet normal 0 -1 0
    outer loop
      vertex 22.4636 11 11.5379
      vertex 22.9978 11 17
      vertex 21.5601 11 17
    endloop
  endfacet
  facet normal 0 -1 0
    outer loop
      vertex 22.4636 11 11.5379
      vertex 23.9035 11 11.2822
      vertex 22.9978 11 17
    endloop
  endfacet
  facet normal 0 -1 0
    outer loop
      vertex 22.8834 11 9
      vertex 23.9035 11 11.2822
      vertex 22.4636 11 11.5379
    endloop
  endfacet
  facet normal 0 -1 -0
    outer loop
      vertex 23.9035 11 11.2822
      vertex 22.8834 11 9
      vertex 24.2649 11 9
    endloop
  endfacet
  facet normal 0 0 -1
    outer loop
      vertex 21.5601 12 17
      vertex 22.9978 13 17
      vertex 22.9978 12 17
    endloop
  endfacet
  facet normal -0 0 -1
    outer loop
      vertex 22.9978 13 17
      vertex 21.5601 12 17
      vertex 21.5601 13 17
    endloop
  endfacet
  facet normal 0 -1 0
    outer loop
      vertex 22.5498 13 11.0171
      vertex 22.9978 13 17
      vertex 21.5601 13 17
    endloop
  endfacet
  facet normal 0 -1 0
    outer loop
      vertex 22.5498 13 11.0171
      vertex 23.9887 13 10.7441
      vertex 22.9978 13 17
    endloop
  endfacet
  facet normal 0 -1 0
    outer loop
      vertex 22.8834 13 9
      vertex 23.9887 13 10.7441
      vertex 22.5498 13 11.0171
    endloop
  endfacet
  facet normal 0 -1 -0
    outer loop
      vertex 23.9887 13 10.7441
      vertex 22.8834 13 9
      vertex 24.2649 13 9
    endloop
  endfacet
  facet normal -0 0 1
    outer loop
      vertex 22.8834 13 9
      vertex 24.2649 12 9
      vertex 24.2649 13 9
    endloop
  endfacet
  facet normal 0 0 1
    outer loop
      vertex 24.2649 12 9
      vertex 22.8834 13 9
      vertex 22.8834 12 9
    endloop
  endfacet
  facet normal 0 1 0
    outer loop
      vertex 22.9978 12 17
      vertex 22.5067 12 11.2775
      vertex 21.5601 12 17
    endloop
  endfacet
  facet normal 0 1 0
    outer loop
      vertex 23.9461 12 11.0132
      vertex 22.5067 12 11.2775
      vertex 22.9978 12 17
    endloop
  endfacet
  facet normal 0 1 0
    outer loop
      vertex 22.8834 12 9
      vertex 23.9461 12 11.0132
      vertex 24.2649 12 9
    endloop
  endfacet
  facet normal 0 1 0
    outer loop
      vertex 23.9461 12 11.0132
      vertex 22.8834 12 9
      vertex 22.5067 12 11.2775
    endloop
  endfacet
  facet normal 0 0 -1
    outer loop
      vertex 21.5601 14 17
      vertex 22.9978 15 17
      vertex 22.9978 14 17
    endloop
  endfacet
  facet normal -0 0 -1
    outer loop
      vertex 22.9978 15 17
      vertex 21.5601 14 17
      vertex 21.5601 15 17
    endloop
  endfacet
  facet normal -0 0 1
    outer loop
      vertex 22.8834 15 9
      vertex 24.2649 14 9
      vertex 24.2649 15 9
    endloop
  endfacet
  facet normal 0 0 1
    outer loop
      vertex 24.2649 14 9
      vertex 22.8834 15 9
      vertex 22.8834 14 9
    endloop
  endfacet
  facet normal 0 1 0
    outer loop
      vertex 22.9978 14 17
      vertex 22.5929 14 10.7568
      vertex 21.5601 14 17
    endloop
  endfacet
  facet normal 0 1 0
    outer loop
      vertex 24.0313 14 10.4751
      vertex 22.5929 14 10.7568
      vertex 22.9978 14 17
    endloop
  endfacet
  facet normal 0 1 0
    outer loop
      vertex 22.8834 14 9
      vertex 24.0313 14 10.4751
      vertex 24.2649 14 9
    endloop
  endfacet
  facet normal 0 1 0
    outer loop
      vertex 24.0313 14 10.4751
      vertex 22.8834 14 9
      vertex 22.5929 14 10.7568
    endloop
  endfacet
  facet normal 0 -1 0
    outer loop
      vertex 22.6359 15 10.4964
      vertex 22.9978 15 17
      vertex 21.5601 15 17
    endloop
  endfacet
  facet normal 0 -1 0
    outer loop
      vertex 22.6359 15 10.4964
      vertex 24.0739 15 10.2061
      vertex 22.9978 15 17
    endloop
  endfacet
  facet normal 0 -1 0
    outer loop
      vertex 22.8834 15 9
      vertex 24.0739 15 10.2061
      vertex 22.6359 15 10.4964
    endloop
  endfacet
  facet normal 0 -1 -0
    outer loop
      vertex 24.0739 15 10.2061
      vertex 22.8834 15 9
      vertex 24.2649 15 9
    endloop
  endfacet
  facet normal 0 0 -1
    outer loop
      vertex 21.5601 16 17
      vertex 22.9978 17 17
      vertex 22.9978 16 17
    endloop
  endfacet
  facet normal -0 0 -1
    outer loop
      vertex 22.9978 17 17
      vertex 21.5601 16 17
      vertex 21.5601 17 17
    endloop
  endfacet
  facet normal -0 0 1
    outer loop
      vertex 22.8834 17 9
      vertex 24.2649 16 9
      vertex 24.2649 17 9
    endloop
  endfacet
  facet normal 0 0 1
    outer loop
      vertex 24.2649 16 9
      vertex 22.8834 17 9
      vertex 22.8834 16 9
    endloop
  endfacet
  facet normal 0 1 0
    outer loop
      vertex 22.9978 16 17
      vertex 22.679 16 10.236
      vertex 21.5601 16 17
    endloop
  endfacet
  facet normal 0 1 0
    outer loop
      vertex 24.1165 16 9.93701
      vertex 22.679 16 10.236
      vertex 22.9978 16 17
    endloop
  endfacet
  facet normal 0 1 0
    outer loop
      vertex 22.8834 16 9
      vertex 24.1165 16 9.93701
      vertex 24.2649 16 9
    endloop
  endfacet
  facet normal 0 1 0
    outer loop
      vertex 24.1165 16 9.93701
      vertex 22.8834 16 9
      vertex 22.679 16 10.236
    endloop
  endfacet
  facet normal 0 -1 0
    outer loop
      vertex 22.7221 17 9.97566
      vertex 22.9978 17 17
      vertex 21.5601 17 17
    endloop
  endfacet
  facet normal 0 -1 0
    outer loop
      vertex 22.7221 17 9.97566
      vertex 24.1591 17 9.66797
      vertex 22.9978 17 17
    endloop
  endfacet
  facet normal 0 -1 0
    outer loop
      vertex 22.8834 17 9
      vertex 24.1591 17 9.66797
      vertex 22.7221 17 9.97566
    endloop
  endfacet
  facet normal 0 -1 -0
    outer loop
      vertex 24.1591 17 9.66797
      vertex 22.8834 17 9
      vertex 24.2649 17 9
    endloop
  endfacet
  facet normal 0 0 -1
    outer loop
      vertex 21.5601 18 17
      vertex 22.9978 19 17
      vertex 22.9978 18 17
    endloop
  endfacet
  facet normal -0 0 -1
    outer loop
      vertex 22.9978 19 17
      vertex 21.5601 18 17
      vertex 21.5601 19 17
    endloop
  endfacet
  facet normal 0 -1 0
    outer loop
      vertex 22.8082 19 9.45493
      vertex 22.9978 19 17
      vertex 21.5601 19 17
    endloop
  endfacet
  facet normal 0 -1 0
    outer loop
      vertex 22.8082 19 9.45493
      vertex 24.2443 19 9.12988
      vertex 22.9978 19 17
    endloop
  endfacet
  facet normal 0 -1 0
    outer loop
      vertex 22.8834 19 9
      vertex 24.2443 19 9.12988
      vertex 22.8082 19 9.45493
    endloop
  endfacet
  facet normal 0 -1 -0
    outer loop
      vertex 24.2443 19 9.12988
      vertex 22.8834 19 9
      vertex 24.2649 19 9
    endloop
  endfacet
  facet normal -0 0 1
    outer loop
      vertex 22.8834 19 9
      vertex 24.2649 18 9
      vertex 24.2649 19 9
    endloop
  endfacet
  facet normal 0 0 1
    outer loop
      vertex 24.2649 18 9
      vertex 22.8834 19 9
      vertex 22.8834 18 9
    endloop
  endfacet
  facet normal 0 1 0
    outer loop
      vertex 22.9978 18 17
      vertex 22.7651 18 9.7153
      vertex 21.5601 18 17
    endloop
  endfacet
  facet normal 0 1 0
    outer loop
      vertex 24.2017 18 9.39892
      vertex 22.7651 18 9.7153
      vertex 22.9978 18 17
    endloop
  endfacet
  facet normal 0 1 0
    outer loop
      vertex 22.8834 18 9
      vertex 24.2017 18 9.39892
      vertex 24.2649 18 9
    endloop
  endfacet
  facet normal 0 1 0
    outer loop
      vertex 24.2017 18 9.39892
      vertex 22.8834 18 9
      vertex 22.7651 18 9.7153
    endloop
  endfacet
  facet normal 0 0 -1
    outer loop
      vertex 21.5601 20 17
      vertex 22.9978 21 17
      vertex 22.9978 20 17
    endloop
  endfacet
  facet normal -0 0 -1
    outer loop
      vertex 22.9978 21 17
      vertex 21.5601 20 17
      vertex 21.5601 21 17
    endloop
  endfacet
  facet normal 0 -1 0
    outer loop
      vertex 22.8834 21 9
      vertex 22.9978 21 17
      vertex 21.5601 21 17
    endloop
  endfacet
  facet normal 0 -1 -0
    outer loop
      vertex 22.9978 21 17
      vertex 22.8834 21 9
      vertex 24.2649 21 9
    endloop
  endfacet
  facet normal 0 0 1
    outer loop
      vertex 24.2649 21 9
      vertex 22.8834 20.7473 9
      vertex 24.2649 20 9
    endloop
  endfacet
  facet normal 0 -0 1
    outer loop
      vertex 22.8834 20.7473 9
      vertex 24.2649 21 9
      vertex 22.8834 21 9
    endloop
  endfacet
  facet normal 0 0 1
    outer loop
      vertex 24.2649 20 9
      vertex 22.8834 20.7473 9
      vertex 22.8834 20 9
    endloop
  endfacet
  facet normal 0 1 0
    outer loop
      vertex 22.9978 20 17
      vertex 22.8513 20 9.19457
      vertex 21.5601 20 17
    endloop
  endfacet
  facet normal 0 1 0
    outer loop
      vertex 24.2649 20 9
      vertex 22.8513 20 9.19457
      vertex 22.9978 20 17
    endloop
  endfacet
  facet normal 0 1 0
    outer loop
      vertex 22.8513 20 9.19457
      vertex 24.2649 20 9
      vertex 22.8834 20 9
    endloop
  endfacet
  facet normal -1 0 0
    outer loop
      vertex -24.5 25 7.5
      vertex -24.5 -23.5311 7.51561
      vertex -24.5 25 7.51561
    endloop
  endfacet
  facet normal -1 0 -0
    outer loop
      vertex -24.5 -23.5311 7.51561
      vertex -24.5 25 7.5
      vertex -24.5 -23.5359 7.5
    endloop
  endfacet
  facet normal 0.0108496 -0.955766 0.293929
    outer loop
      vertex 24.5 -23.5359 7.5
      vertex 24.5 -23.5311 7.51561
      vertex 24.1685 -22.8911 9.60893
    endloop
  endfacet
  facet normal -5.47661e-007 -0.956304 0.292375
    outer loop
      vertex 24.5 -23.5359 7.5
      vertex -24.1685 -22.8911 9.60893
      vertex -24.5 -23.5311 7.51561
    endloop
  endfacet
  facet normal 0 -0.9563 0.292387
    outer loop
      vertex 24.5 -23.5359 7.5
      vertex 24.1685 -22.8911 9.60893
      vertex -24.1685 -22.8911 9.60893
    endloop
  endfacet
  facet normal 0 -0.955822 0.293946
    outer loop
      vertex 24.5 -23.5359 7.5
      vertex -24.5 -23.5311 7.51561
      vertex -24.5 -23.5359 7.5
    endloop
  endfacet
  facet normal 0 0 -1
    outer loop
      vertex 20 20 7.5
      vertex 24.5 -23.5359 7.5
      vertex 20 -20.015 7.5
    endloop
  endfacet
  facet normal 0 0 -1
    outer loop
      vertex 24.5 -23.5359 7.5
      vertex -20 -20.015 7.5
      vertex 20 -20.015 7.5
    endloop
  endfacet
  facet normal -0 0 -1
    outer loop
      vertex -20 -20.015 7.5
      vertex -24.5 -23.5359 7.5
      vertex -20 20 7.5
    endloop
  endfacet
  facet normal 0 0 -1
    outer loop
      vertex -24.5 -23.5359 7.5
      vertex -20 -20.015 7.5
      vertex 24.5 -23.5359 7.5
    endloop
  endfacet
  facet normal 0 0 -1
    outer loop
      vertex 24.5 -23.5359 7.5
      vertex 20 20 7.5
      vertex 24.5 25 7.5
    endloop
  endfacet
  facet normal 0 0 -1
    outer loop
      vertex -20 20 7.5
      vertex 24.5 25 7.5
      vertex 20 20 7.5
    endloop
  endfacet
  facet normal 0 0 -1
    outer loop
      vertex -20 20 7.5
      vertex -24.5 25 7.5
      vertex 24.5 25 7.5
    endloop
  endfacet
  facet normal 0 0 -1
    outer loop
      vertex -24.5 25 7.5
      vertex -20 20 7.5
      vertex -24.5 -23.5359 7.5
    endloop
  endfacet
  facet normal 0 1 0
    outer loop
      vertex 22.2851 25 21.5
      vertex -2.7 25 14.5
      vertex -22.2851 25 21.5
    endloop
  endfacet
  facet normal 0 1 0
    outer loop
      vertex 24.5 25 7.51561
      vertex -2.7 25 14.5
      vertex 22.2851 25 21.5
    endloop
  endfacet
  facet normal 0 1 -0
    outer loop
      vertex 24.5 25 7.5
      vertex -2.7 25 9
      vertex 24.5 25 7.51561
    endloop
  endfacet
  facet normal 0 1 0
    outer loop
      vertex -2.7 25 14.5
      vertex 24.5 25 7.51561
      vertex -2.7 25 9
    endloop
  endfacet
  facet normal 0 1 -0
    outer loop
      vertex -12.7 25 14.5
      vertex -22.2851 25 21.5
      vertex -2.7 25 14.5
    endloop
  endfacet
  facet normal 0 1 0
    outer loop
      vertex -24.5 25 7.51561
      vertex -12.7 25 14.5
      vertex -12.7 25 9
    endloop
  endfacet
  facet normal 0 1 0
    outer loop
      vertex -12.7 25 14.5
      vertex -24.5 25 7.51561
      vertex -22.2851 25 21.5
    endloop
  endfacet
  facet normal 0 1 0
    outer loop
      vertex -24.5 25 7.5
      vertex -2.7 25 9
      vertex 24.5 25 7.5
    endloop
  endfacet
  facet normal 0 1 0
    outer loop
      vertex -2.7 25 9
      vertex -24.5 25 7.5
      vertex -12.7 25 9
    endloop
  endfacet
  facet normal 0 1 0
    outer loop
      vertex -12.7 25 9
      vertex -24.5 25 7.5
      vertex -24.5 25 7.51561
    endloop
  endfacet
  facet normal -0.987687 0 0.15644
    outer loop
      vertex -22.2851 -0.526081 21.5
      vertex -22.2851 25 21.5
      vertex -23.3464 -2.07302 14.7995
    endloop
  endfacet
  facet normal -0.987808 0.000194027 0.155675
    outer loop
      vertex -23.3464 -2.07302 14.7995
      vertex -22.2851 25 21.5
      vertex -24.1685 -22.8911 9.60893
    endloop
  endfacet
  facet normal -0.987688 9.53525e-007 0.156434
    outer loop
      vertex -24.1685 -22.8911 9.60893
      vertex -22.2851 25 21.5
      vertex -24.5 25 7.51561
    endloop
  endfacet
  facet normal -0.987692 0 0.156413
    outer loop
      vertex -24.1685 -22.8911 9.60893
      vertex -24.5 25 7.51561
      vertex -24.5 -23.5311 7.51561
    endloop
  endfacet
  facet normal 1 -0 0
    outer loop
      vertex 24.5 -23.5311 7.51561
      vertex 24.5 25 7.5
      vertex 24.5 25 7.51561
    endloop
  endfacet
  facet normal 1 0 0
    outer loop
      vertex 24.5 25 7.5
      vertex 24.5 -23.5311 7.51561
      vertex 24.5 -23.5359 7.5
    endloop
  endfacet
  facet normal -8.19021e-007 -0.241922 0.970296
    outer loop
      vertex -22.55 -7.86579 13.3552
      vertex -23.3464 -2.07302 14.7995
      vertex -24.1685 -22.8911 9.60893
    endloop
  endfacet
  facet normal 3.45718e-006 -0.24193 0.970294
    outer loop
      vertex 11.7875 -7.76633 13.3799
      vertex 23.3464 -2.07302 14.7995
      vertex 9.225 -7.86579 13.3552
    endloop
  endfacet
  facet normal 0 -0.241923 0.970295
    outer loop
      vertex 11.7875 -20.8944 10.1068
      vertex 9.225 -17.8113 10.8755
      vertex 3.5875 -17.8113 10.8755
    endloop
  endfacet
  facet normal 0 -0.24192 0.970296
    outer loop
      vertex -16.9125 -20.9939 10.082
      vertex -16.9125 -17.8113 10.8755
      vertex -22.55 -17.8113 10.8755
    endloop
  endfacet
  facet normal 0 -0.241923 0.970295
    outer loop
      vertex -24.1685 -22.8911 9.60893
      vertex 3.5875 -20.9939 10.082
      vertex -16.9125 -20.9939 10.082
    endloop
  endfacet
  facet normal 0 -0.241923 0.970295
    outer loop
      vertex 3.5875 -20.9939 10.082
      vertex -24.1685 -22.8911 9.60893
      vertex 24.1685 -22.8911 9.60893
    endloop
  endfacet
  facet normal 0 -0.241918 0.970297
    outer loop
      vertex 24.1685 -22.8911 9.60893
      vertex 22.0375 -20.8944 10.1068
      vertex 11.7875 -20.8944 10.1068
    endloop
  endfacet
  facet normal 5.38105e-006 -0.241923 0.970296
    outer loop
      vertex -22.55 -17.8113 10.8755
      vertex -22.55 -7.86579 13.3552
      vertex -24.1685 -22.8911 9.60893
    endloop
  endfacet
  facet normal -7.2839e-007 -0.241921 0.970296
    outer loop
      vertex -16.9125 -20.9939 10.082
      vertex -22.55 -17.8113 10.8755
      vertex -24.1685 -22.8911 9.60893
    endloop
  endfacet
  facet normal 0 -0.241923 0.970295
    outer loop
      vertex 22.0375 -7.76633 13.3799
      vertex 23.3464 -2.07302 14.7995
      vertex 11.7875 -7.76633 13.3799
    endloop
  endfacet
  facet normal -4.69158e-006 -0.241922 0.970296
    outer loop
      vertex 24.1685 -22.8911 9.60893
      vertex 23.3464 -2.07302 14.7995
      vertex 22.0375 -7.76633 13.3799
    endloop
  endfacet
  facet normal -4.1795e-006 -0.241922 0.970296
    outer loop
      vertex 24.1685 -22.8911 9.60893
      vertex 22.0375 -7.76633 13.3799
      vertex 22.0375 -20.8944 10.1068
    endloop
  endfacet
  facet normal 1.36826e-006 -0.24192 0.970296
    outer loop
      vertex 11.7875 -20.8944 10.1068
      vertex 3.5875 -17.8113 10.8755
      vertex 3.5875 -20.9939 10.082
    endloop
  endfacet
  facet normal 1.25281e-006 -0.241911 0.970299
    outer loop
      vertex 24.1685 -22.8911 9.60893
      vertex 11.7875 -20.8944 10.1068
      vertex 3.5875 -20.9939 10.082
    endloop
  endfacet
  facet normal 0 -0.241922 0.970296
    outer loop
      vertex -23.3464 -2.07302 14.7995
      vertex 9.225 -7.86579 13.3552
      vertex 23.3464 -2.07302 14.7995
    endloop
  endfacet
  facet normal 0 -0.241922 0.970296
    outer loop
      vertex 9.225 -7.86579 13.3552
      vertex -23.3464 -2.07302 14.7995
      vertex -22.55 -7.86579 13.3552
    endloop
  endfacet
  facet normal 4.84041e-007 -0.241923 0.970296
    outer loop
      vertex 11.7875 -20.8944 10.1068
      vertex 9.225 -7.86579 13.3552
      vertex 9.225 -17.8113 10.8755
    endloop
  endfacet
  facet normal 3.14009e-006 -0.241922 0.970296
    outer loop
      vertex 11.7875 -20.8944 10.1068
      vertex 11.7875 -7.76633 13.3799
      vertex 9.225 -7.86579 13.3552
    endloop
  endfacet
  facet normal 0.987692 6.04972e-006 0.156411
    outer loop
      vertex 24.1685 -22.8911 9.60893
      vertex 24.5 -23.5311 7.51561
      vertex 23.3464 -2.07302 14.7995
    endloop
  endfacet
  facet normal 0.987688 1.73869e-006 0.156434
    outer loop
      vertex 22.2851 25 21.5
      vertex 22.9978 21 17
      vertex 24.5 25 7.51561
    endloop
  endfacet
  facet normal 0.987688 1.88387e-006 0.156434
    outer loop
      vertex 22.2851 25 21.5
      vertex 22.9978 20 17
      vertex 22.9978 21 17
    endloop
  endfacet
  facet normal 0.987688 1.88387e-006 0.156434
    outer loop
      vertex 24.2443 19 9.12988
      vertex 22.9978 20 17
      vertex 22.9978 19 17
    endloop
  endfacet
  facet normal 0.987688 1.88387e-006 0.156434
    outer loop
      vertex 22.2851 25 21.5
      vertex 22.9978 19 17
      vertex 22.9978 20 17
    endloop
  endfacet
  facet normal 0.987688 0 0.156436
    outer loop
      vertex 22.2851 25 21.5
      vertex 22.9978 18 17
      vertex 22.9978 19 17
    endloop
  endfacet
  facet normal 0.987688 1.88387e-006 0.156434
    outer loop
      vertex 24.1591 17 9.66797
      vertex 22.9978 18 17
      vertex 22.9978 17 17
    endloop
  endfacet
  facet normal 0.987689 1.88387e-006 0.156433
    outer loop
      vertex 22.2851 25 21.5
      vertex 22.9978 17 17
      vertex 22.9978 18 17
    endloop
  endfacet
  facet normal 0.987689 1.88387e-006 0.156433
    outer loop
      vertex 22.2851 25 21.5
      vertex 22.9978 16 17
      vertex 22.9978 17 17
    endloop
  endfacet
  facet normal 0.987688 1.88387e-006 0.156434
    outer loop
      vertex 24.0739 15 10.2061
      vertex 22.9978 16 17
      vertex 22.9978 15 17
    endloop
  endfacet
  facet normal 0.987689 1.88387e-006 0.156433
    outer loop
      vertex 22.2851 25 21.5
      vertex 22.9978 15 17
      vertex 22.9978 16 17
    endloop
  endfacet
  facet normal 0.987689 1.88387e-006 0.156433
    outer loop
      vertex 22.2851 25 21.5
      vertex 22.9978 14 17
      vertex 22.9978 15 17
    endloop
  endfacet
  facet normal 0.987688 1.88387e-006 0.156434
    outer loop
      vertex 23.9887 13 10.7441
      vertex 22.9978 14 17
      vertex 22.9978 13 17
    endloop
  endfacet
  facet normal 0.987689 1.88387e-006 0.156433
    outer loop
      vertex 22.2851 25 21.5
      vertex 22.9978 13 17
      vertex 22.9978 14 17
    endloop
  endfacet
  facet normal 0.987688 0 0.156438
    outer loop
      vertex 22.2851 25 21.5
      vertex 22.9978 12 17
      vertex 22.9978 13 17
    endloop
  endfacet
  facet normal 0.987688 1.88387e-006 0.156434
    outer loop
      vertex 23.9035 11 11.2822
      vertex 22.9978 12 17
      vertex 22.9978 11 17
    endloop
  endfacet
  facet normal 0.987689 1.88387e-006 0.156433
    outer loop
      vertex 22.2851 25 21.5
      vertex 22.9978 11 17
      vertex 22.9978 12 17
    endloop
  endfacet
  facet normal 0.987689 1.88387e-006 0.156433
    outer loop
      vertex 22.2851 25 21.5
      vertex 22.9979 10 17
      vertex 22.9978 11 17
    endloop
  endfacet
  facet normal 0.987688 1.88387e-006 0.156434
    outer loop
      vertex 23.8182 9 11.8203
      vertex 22.9979 10 17
      vertex 22.9979 9 17
    endloop
  endfacet
  facet normal 0.987689 1.88387e-006 0.156433
    outer loop
      vertex 22.2851 25 21.5
      vertex 22.9979 9 17
      vertex 22.9979 10 17
    endloop
  endfacet
  facet normal 0.987689 1.88387e-006 0.156433
    outer loop
      vertex 22.2851 25 21.5
      vertex 22.9979 8 17
      vertex 22.9979 9 17
    endloop
  endfacet
  facet normal 0.987688 0 0.156434
    outer loop
      vertex 23.733 7 12.3584
      vertex 22.9979 8 17
      vertex 22.9979 7 17
    endloop
  endfacet
  facet normal 0.987687 0 0.15644
    outer loop
      vertex 22.2851 25 21.5
      vertex 22.9979 7 17
      vertex 22.9979 8 17
    endloop
  endfacet
  facet normal 0.987694 1.03564e-005 0.156399
    outer loop
      vertex 22.9979 7 17
      vertex 22.2851 25 21.5
      vertex 22.9979 6.8181 17
    endloop
  endfacet
  facet normal 0.987688 1.80494e-006 0.156434
    outer loop
      vertex 24.2649 21 9
      vertex 24.5 25 7.51561
      vertex 22.9978 21 17
    endloop
  endfacet
  facet normal 0.987689 -0 0.156429
    outer loop
      vertex 24.2649 20 9
      vertex 24.5 25 7.51561
      vertex 24.2649 21 9
    endloop
  endfacet
  facet normal 0.987688 1.92605e-006 0.156435
    outer loop
      vertex 24.2649 20 9
      vertex 24.2443 19 9.12988
      vertex 24.5 25 7.51561
    endloop
  endfacet
  facet normal 0.987688 1.68456e-006 0.156434
    outer loop
      vertex 22.9978 20 17
      vertex 24.2443 19 9.12988
      vertex 24.2649 20 9
    endloop
  endfacet
  facet normal 0.987688 2.02169e-006 0.156434
    outer loop
      vertex 22.9978 18 17
      vertex 24.1591 17 9.66797
      vertex 24.2017 18 9.39892
    endloop
  endfacet
  facet normal 0.987688 2.1153e-006 0.156434
    outer loop
      vertex 22.9978 16 17
      vertex 24.0739 15 10.2061
      vertex 24.1165 16 9.93701
    endloop
  endfacet
  facet normal 0.987688 2.12823e-006 0.156434
    outer loop
      vertex 22.9978 14 17
      vertex 23.9887 13 10.7441
      vertex 24.0313 14 10.4751
    endloop
  endfacet
  facet normal 0.987688 2.00101e-006 0.156434
    outer loop
      vertex 22.9978 12 17
      vertex 23.9035 11 11.2822
      vertex 23.9461 12 11.0132
    endloop
  endfacet
  facet normal 0.987688 2.85265e-007 0.156434
    outer loop
      vertex 22.9979 10 17
      vertex 23.8182 9 11.8203
      vertex 23.8608 10 11.5513
    endloop
  endfacet
  facet normal 0.987688 2.089e-006 0.156434
    outer loop
      vertex 22.9979 8 17
      vertex 23.733 7 12.3584
      vertex 23.7756 8 12.0894
    endloop
  endfacet
  facet normal 0.987688 1.62225e-006 0.156434
    outer loop
      vertex 23.3464 -2.07302 14.7995
      vertex 23.6052 4 13.1655
      vertex 23.1083 4 16.3025
    endloop
  endfacet
  facet normal 0.987689 2.21512e-006 0.156433
    outer loop
      vertex 23.6478 5 12.8965
      vertex 23.0299 6 16.7975
      vertex 23.0691 5 16.55
    endloop
  endfacet
  facet normal 0.987688 1.45971e-007 0.156434
    outer loop
      vertex 23.0299 6 16.7975
      vertex 23.6478 5 12.8965
      vertex 23.6904 6 12.6275
    endloop
  endfacet
  facet normal 0.987689 2.74404e-008 0.156428
    outer loop
      vertex 23.6052 4 13.1655
      vertex 23.3464 -2.07302 14.7995
      vertex 24.2649 4 9
    endloop
  endfacet
  facet normal 0.987689 -1.37736e-006 0.156428
    outer loop
      vertex 24.2649 5 9
      vertex 23.6904 6 12.6275
      vertex 23.6478 5 12.8965
    endloop
  endfacet
  facet normal 0.987689 5.97871e-007 0.156428
    outer loop
      vertex 24.2649 7 9
      vertex 23.7756 8 12.0894
      vertex 23.733 7 12.3584
    endloop
  endfacet
  facet normal 0.987689 -1.18616e-006 0.156429
    outer loop
      vertex 24.2649 9 9
      vertex 23.8608 10 11.5513
      vertex 23.8182 9 11.8203
    endloop
  endfacet
  facet normal 0.987689 4.90944e-007 0.156428
    outer loop
      vertex 24.2649 11 9
      vertex 23.9461 12 11.0132
      vertex 23.9035 11 11.2822
    endloop
  endfacet
  facet normal 0.987689 5.24002e-007 0.156428
    outer loop
      vertex 24.2649 13 9
      vertex 24.0313 14 10.4751
      vertex 23.9887 13 10.7441
    endloop
  endfacet
  facet normal 0.987689 7.2451e-007 0.156429
    outer loop
      vertex 24.2649 15 9
      vertex 24.1165 16 9.93701
      vertex 24.0739 15 10.2061
    endloop
  endfacet
  facet normal 0.987689 4.00179e-007 0.156428
    outer loop
      vertex 24.2649 17 9
      vertex 24.2017 18 9.39892
      vertex 24.1591 17 9.66797
    endloop
  endfacet
  facet normal 0.987688 1.83866e-006 0.156435
    outer loop
      vertex 24.2649 19 9
      vertex 24.5 25 7.51561
      vertex 24.2443 19 9.12988
    endloop
  endfacet
  facet normal 0.987689 -0 0.156428
    outer loop
      vertex 24.2649 18 9
      vertex 24.5 25 7.51561
      vertex 24.2649 19 9
    endloop
  endfacet
  facet normal 0.987689 0 0.156429
    outer loop
      vertex 24.2017 18 9.39892
      vertex 24.2649 17 9
      vertex 24.2649 18 9
    endloop
  endfacet
  facet normal 0.987689 -0 0.156428
    outer loop
      vertex 24.2649 17 9
      vertex 24.5 25 7.51561
      vertex 24.2649 18 9
    endloop
  endfacet
  facet normal 0.987689 -0 0.156428
    outer loop
      vertex 24.2649 16 9
      vertex 24.5 25 7.51561
      vertex 24.2649 17 9
    endloop
  endfacet
  facet normal 0.987689 0 0.156429
    outer loop
      vertex 24.1165 16 9.93701
      vertex 24.2649 15 9
      vertex 24.2649 16 9
    endloop
  endfacet
  facet normal 0.987689 -0 0.156428
    outer loop
      vertex 24.2649 15 9
      vertex 24.5 25 7.51561
      vertex 24.2649 16 9
    endloop
  endfacet
  facet normal 0.987689 -0 0.156428
    outer loop
      vertex 24.2649 14 9
      vertex 24.5 25 7.51561
      vertex 24.2649 15 9
    endloop
  endfacet
  facet normal 0.987689 0 0.156428
    outer loop
      vertex 24.0313 14 10.4751
      vertex 24.2649 13 9
      vertex 24.2649 14 9
    endloop
  endfacet
  facet normal 0.987689 -0 0.156428
    outer loop
      vertex 24.2649 13 9
      vertex 24.5 25 7.51561
      vertex 24.2649 14 9
    endloop
  endfacet
  facet normal 0.987689 -0 0.156428
    outer loop
      vertex 24.2649 12 9
      vertex 24.5 25 7.51561
      vertex 24.2649 13 9
    endloop
  endfacet
  facet normal 0.987689 0 0.156429
    outer loop
      vertex 23.9461 12 11.0132
      vertex 24.2649 11 9
      vertex 24.2649 12 9
    endloop
  endfacet
  facet normal 0.987689 -0 0.156428
    outer loop
      vertex 24.2649 11 9
      vertex 24.5 25 7.51561
      vertex 24.2649 12 9
    endloop
  endfacet
  facet normal 0.987689 -0 0.156428
    outer loop
      vertex 24.2649 10 9
      vertex 24.5 25 7.51561
      vertex 24.2649 11 9
    endloop
  endfacet
  facet normal 0.987689 0 0.156428
    outer loop
      vertex 23.8608 10 11.5513
      vertex 24.2649 9 9
      vertex 24.2649 10 9
    endloop
  endfacet
  facet normal 0.987689 -0 0.156428
    outer loop
      vertex 24.2649 9 9
      vertex 24.5 25 7.51561
      vertex 24.2649 10 9
    endloop
  endfacet
  facet normal 0.987689 -0 0.156428
    outer loop
      vertex 24.2649 8 9
      vertex 24.5 25 7.51561
      vertex 24.2649 9 9
    endloop
  endfacet
  facet normal 0.987689 0 0.156428
    outer loop
      vertex 23.7756 8 12.0894
      vertex 24.2649 7 9
      vertex 24.2649 8 9
    endloop
  endfacet
  facet normal 0.987689 -0 0.156428
    outer loop
      vertex 24.2649 7 9
      vertex 24.5 25 7.51561
      vertex 24.2649 8 9
    endloop
  endfacet
  facet normal 0.987689 -0 0.156428
    outer loop
      vertex 24.2649 6 9
      vertex 24.5 25 7.51561
      vertex 24.2649 7 9
    endloop
  endfacet
  facet normal 0.987689 0 0.156428
    outer loop
      vertex 23.6904 6 12.6275
      vertex 24.2649 5 9
      vertex 24.2649 6 9
    endloop
  endfacet
  facet normal 0.987689 -0 0.156428
    outer loop
      vertex 24.2649 5 9
      vertex 24.5 25 7.51561
      vertex 24.2649 6 9
    endloop
  endfacet
  facet normal 0.987689 -0 0.156428
    outer loop
      vertex 24.2649 4 9
      vertex 24.5 25 7.51561
      vertex 24.2649 5 9
    endloop
  endfacet
  facet normal 0.987689 0 0.156428
    outer loop
      vertex 24.2649 4 9
      vertex 24.5 -23.5311 7.51561
      vertex 24.5 25 7.51561
    endloop
  endfacet
  facet normal 0.987689 -1.68441e-008 0.156428
    outer loop
      vertex 24.5 -23.5311 7.51561
      vertex 24.2649 4 9
      vertex 23.3464 -2.07302 14.7995
    endloop
  endfacet
  facet normal 0.987687 -0 0.15644
    outer loop
      vertex 22.2851 -0.526081 21.5
      vertex 22.9979 6.8181 17
      vertex 22.2851 25 21.5
    endloop
  endfacet
  facet normal 0.987688 0 0.156438
    outer loop
      vertex 22.9979 6 17
      vertex 22.9979 5 17
      vertex 23.0299 6 16.7975
    endloop
  endfacet
  facet normal 0.987687 0 0.15644
    outer loop
      vertex 22.9979 6.8181 17
      vertex 22.2851 -0.526081 21.5
      vertex 22.9979 6 17
    endloop
  endfacet
  facet normal 0.987687 0 0.15644
    outer loop
      vertex 22.9979 6 17
      vertex 22.2851 -0.526081 21.5
      vertex 22.9979 5 17
    endloop
  endfacet
  facet normal 0.987687 0 0.15644
    outer loop
      vertex 22.9979 5 17
      vertex 22.2851 -0.526081 21.5
      vertex 22.9979 4 17
    endloop
  endfacet
  facet normal 0.987687 -1.76591e-007 0.15644
    outer loop
      vertex 23.3464 -2.07302 14.7995
      vertex 22.9979 4 17
      vertex 22.2851 -0.526081 21.5
    endloop
  endfacet
  facet normal 0.987688 6.49592e-007 0.156438
    outer loop
      vertex 22.9979 4 17
      vertex 23.3464 -2.07302 14.7995
      vertex 23.1083 4 16.3025
    endloop
  endfacet
  facet normal 0.987687 4.80562e-007 0.15644
    outer loop
      vertex 23.0299 6 16.7975
      vertex 22.9979 5 17
      vertex 23.0691 5 16.55
    endloop
  endfacet
  facet normal 0 0 1
    outer loop
      vertex 18 4 21.5
      vertex 22.2851 25 21.5
      vertex 18 21 21.5
    endloop
  endfacet
  facet normal 0 0 1
    outer loop
      vertex 22.2851 25 21.5
      vertex -18 21 21.5
      vertex 18 21 21.5
    endloop
  endfacet
  facet normal 0 0 1
    outer loop
      vertex -18 21 21.5
      vertex -22.2851 25 21.5
      vertex -18 4 21.5
    endloop
  endfacet
  facet normal -0 0 1
    outer loop
      vertex -22.2851 25 21.5
      vertex -18 21 21.5
      vertex 22.2851 25 21.5
    endloop
  endfacet
  facet normal 0 0 1
    outer loop
      vertex 22.2851 25 21.5
      vertex 18 4 21.5
      vertex 22.2851 -0.526081 21.5
    endloop
  endfacet
  facet normal -0 0 1
    outer loop
      vertex -18 4 21.5
      vertex 22.2851 -0.526081 21.5
      vertex 18 4 21.5
    endloop
  endfacet
  facet normal 0 0 1
    outer loop
      vertex -18 4 21.5
      vertex -22.2851 -0.526081 21.5
      vertex 22.2851 -0.526081 21.5
    endloop
  endfacet
  facet normal 0 0 1
    outer loop
      vertex -22.2851 -0.526081 21.5
      vertex -18 4 21.5
      vertex -22.2851 25 21.5
    endloop
  endfacet
  facet normal 0 -0.97437 0.224951
    outer loop
      vertex -23.3464 -2.07302 14.7995
      vertex 22.2851 -0.526081 21.5
      vertex -22.2851 -0.526081 21.5
    endloop
  endfacet
  facet normal 0 -0.97437 0.224951
    outer loop
      vertex 22.2851 -0.526081 21.5
      vertex -23.3464 -2.07302 14.7995
      vertex 23.3464 -2.07302 14.7995
    endloop
  endfacet
  facet normal 1 0 0
    outer loop
      vertex -22.55 -7.86579 13.3552
      vertex -22.55 -17.3099 8.86432
      vertex -22.55 -7.36435 11.344
    endloop
  endfacet
  facet normal 1 0 -0
    outer loop
      vertex -22.55 -17.3099 8.86432
      vertex -22.55 -7.86579 13.3552
      vertex -22.55 -17.8113 10.8755
    endloop
  endfacet
  facet normal 0 -0.970295 -0.241925
    outer loop
      vertex -22.55 -7.36435 11.344
      vertex 9.225 -7.86579 13.3552
      vertex -22.55 -7.86579 13.3552
    endloop
  endfacet
  facet normal 0 -0.970295 -0.241925
    outer loop
      vertex 9.225 -7.86579 13.3552
      vertex -22.55 -7.36435 11.344
      vertex 9.225 -7.36435 11.344
    endloop
  endfacet
  facet normal 0 0.970299 0.241907
    outer loop
      vertex -16.9125 -17.3099 8.86432
      vertex -22.55 -17.8113 10.8755
      vertex -16.9125 -17.8113 10.8755
    endloop
  endfacet
  facet normal 0 0.970299 0.241907
    outer loop
      vertex -22.55 -17.8113 10.8755
      vertex -16.9125 -17.3099 8.86432
      vertex -22.55 -17.3099 8.86432
    endloop
  endfacet
  facet normal 1 0 0
    outer loop
      vertex -16.9125 -17.8113 10.8755
      vertex -16.9125 -20.4925 8.07082
      vertex -16.9125 -17.3099 8.86432
    endloop
  endfacet
  facet normal 1 0 -0
    outer loop
      vertex -16.9125 -20.4925 8.07082
      vertex -16.9125 -17.8113 10.8755
      vertex -16.9125 -20.9939 10.082
    endloop
  endfacet
  facet normal 0 0.970299 0.241907
    outer loop
      vertex 3.5875 -20.4925 8.07082
      vertex -16.9125 -20.9939 10.082
      vertex 3.5875 -20.9939 10.082
    endloop
  endfacet
  facet normal 0 0.970299 0.241907
    outer loop
      vertex -16.9125 -20.9939 10.082
      vertex 3.5875 -20.4925 8.07082
      vertex -16.9125 -20.4925 8.07082
    endloop
  endfacet
  facet normal -1 0 0
    outer loop
      vertex 3.5875 -20.4925 8.07082
      vertex 3.5875 -17.8113 10.8755
      vertex 3.5875 -17.3099 8.86432
    endloop
  endfacet
  facet normal -1 0 0
    outer loop
      vertex 3.5875 -17.8113 10.8755
      vertex 3.5875 -20.4925 8.07082
      vertex 3.5875 -20.9939 10.082
    endloop
  endfacet
  facet normal 0 0.970299 0.241907
    outer loop
      vertex 9.225 -17.3099 8.86432
      vertex 3.5875 -17.8113 10.8755
      vertex 9.225 -17.8113 10.8755
    endloop
  endfacet
  facet normal 0 0.970299 0.241907
    outer loop
      vertex 3.5875 -17.8113 10.8755
      vertex 9.225 -17.3099 8.86432
      vertex 3.5875 -17.3099 8.86432
    endloop
  endfacet
  facet normal -1 0 0
    outer loop
      vertex 9.225 -17.3099 8.86432
      vertex 9.225 -7.86579 13.3552
      vertex 9.225 -7.36435 11.344
    endloop
  endfacet
  facet normal -1 0 0
    outer loop
      vertex 9.225 -7.86579 13.3552
      vertex 9.225 -17.3099 8.86432
      vertex 9.225 -17.8113 10.8755
    endloop
  endfacet
  facet normal 1 0 0
    outer loop
      vertex 11.7875 -7.76633 13.3799
      vertex 11.7875 -20.393 8.09561
      vertex 11.7875 -7.2649 11.3688
    endloop
  endfacet
  facet normal 1 0 -0
    outer loop
      vertex 11.7875 -20.393 8.09561
      vertex 11.7875 -7.76633 13.3799
      vertex 11.7875 -20.8944 10.1068
    endloop
  endfacet
  facet normal 0 -0.970296 -0.241922
    outer loop
      vertex 11.7875 -7.2649 11.3688
      vertex 22.0375 -7.76633 13.3799
      vertex 11.7875 -7.76633 13.3799
    endloop
  endfacet
  facet normal 0 -0.970296 -0.241922
    outer loop
      vertex 22.0375 -7.76633 13.3799
      vertex 11.7875 -7.2649 11.3688
      vertex 22.0375 -7.2649 11.3688
    endloop
  endfacet
  facet normal 0 0.9703 0.241907
    outer loop
      vertex 22.0375 -20.393 8.09561
      vertex 11.7875 -20.8944 10.1068
      vertex 22.0375 -20.8944 10.1068
    endloop
  endfacet
  facet normal 0 0.9703 0.241907
    outer loop
      vertex 11.7875 -20.8944 10.1068
      vertex 22.0375 -20.393 8.09561
      vertex 11.7875 -20.393 8.09561
    endloop
  endfacet
  facet normal -1 0 0
    outer loop
      vertex 22.0375 -20.393 8.09561
      vertex 22.0375 -7.76633 13.3799
      vertex 22.0375 -7.2649 11.3688
    endloop
  endfacet
  facet normal -1 0 0
    outer loop
      vertex 22.0375 -7.76633 13.3799
      vertex 22.0375 -20.393 8.09561
      vertex 22.0375 -20.8944 10.1068
    endloop
  endfacet
  facet normal 0 -0.241918 0.970297
    outer loop
      vertex -16.9125 -17.3099 8.86432
      vertex 3.5875 -20.4925 8.07082
      vertex 3.5875 -17.3099 8.86432
    endloop
  endfacet
  facet normal 0 -0.241918 0.970297
    outer loop
      vertex 3.5875 -20.4925 8.07082
      vertex -16.9125 -17.3099 8.86432
      vertex -16.9125 -20.4925 8.07082
    endloop
  endfacet
  facet normal 0 -0.241921 0.970296
    outer loop
      vertex 9.225 -7.36435 11.344
      vertex 3.5875 -17.3099 8.86432
      vertex 9.225 -17.3099 8.86432
    endloop
  endfacet
  facet normal 0 -0.241921 0.970296
    outer loop
      vertex 9.225 -7.36435 11.344
      vertex -16.9125 -17.3099 8.86432
      vertex 3.5875 -17.3099 8.86432
    endloop
  endfacet
  facet normal 0 -0.241921 0.970296
    outer loop
      vertex -22.55 -7.36435 11.344
      vertex -16.9125 -17.3099 8.86432
      vertex 9.225 -7.36435 11.344
    endloop
  endfacet
  facet normal 0 -0.241921 0.970296
    outer loop
      vertex -16.9125 -17.3099 8.86432
      vertex -22.55 -7.36435 11.344
      vertex -22.55 -17.3099 8.86432
    endloop
  endfacet
  facet normal 0 -0.241922 0.970296
    outer loop
      vertex 11.7875 -7.2649 11.3688
      vertex 22.0375 -20.393 8.09561
      vertex 22.0375 -7.2649 11.3688
    endloop
  endfacet
  facet normal 0 -0.241922 0.970296
    outer loop
      vertex 22.0375 -20.393 8.09561
      vertex 11.7875 -7.2649 11.3688
      vertex 11.7875 -20.393 8.09561
    endloop
  endfacet
  facet normal 1 -0 0
    outer loop
      vertex -18 4 21.5
      vertex -18 21 20.7
      vertex -18 21 21.5
    endloop
  endfacet
  facet normal 1 0 0
    outer loop
      vertex -18 21 20.7
      vertex -18 4 21.5
      vertex -18 4 20.7
    endloop
  endfacet
  facet normal -1 0 0
    outer loop
      vertex 18 4 20.7
      vertex 18 21 21.5
      vertex 18 21 20.7
    endloop
  endfacet
  facet normal -1 -0 0
    outer loop
      vertex 18 21 21.5
      vertex 18 4 20.7
      vertex 18 4 21.5
    endloop
  endfacet
  facet normal 0 1 -0
    outer loop
      vertex 18 4 20.7
      vertex -18 4 21.5
      vertex 18 4 21.5
    endloop
  endfacet
  facet normal 0 1 0
    outer loop
      vertex -18 4 21.5
      vertex 18 4 20.7
      vertex -18 4 20.7
    endloop
  endfacet
  facet normal 0 -1 0
    outer loop
      vertex -18 21 20.7
      vertex 18 21 21.5
      vertex -18 21 21.5
    endloop
  endfacet
  facet normal 0 -1 -0
    outer loop
      vertex 18 21 21.5
      vertex -18 21 20.7
      vertex 18 21 20.7
    endloop
  endfacet
  facet normal 1 0 0
    outer loop
      vertex -20 -5.61 10.8991
      vertex -20 -5.65517 11.0803
      vertex -20 -5.61 8.1
    endloop
  endfacet
  facet normal 1 -0 0
    outer loop
      vertex -20 -5.61 8.1
      vertex -20 20 7.5
      vertex -20 20 8.1
    endloop
  endfacet
  facet normal 1 0 0
    outer loop
      vertex -20 -5.61 8.1
      vertex -20 -20.015 7.5
      vertex -20 20 7.5
    endloop
  endfacet
  facet normal 1 0 0
    outer loop
      vertex -20 -20.015 7.5
      vertex -20 -5.61 8.1
      vertex -20 -5.65517 11.0803
    endloop
  endfacet
  facet normal -1 0 0
    outer loop
      vertex 20 20 7.5
      vertex 20 -5.61 8.1
      vertex 20 20 8.1
    endloop
  endfacet
  facet normal -1 0 0
    outer loop
      vertex 20 -5.61 8.1
      vertex 20 -5.65517 11.0803
      vertex 20 -5.61 10.8991
    endloop
  endfacet
  facet normal -1 -0 0
    outer loop
      vertex 20 -5.61 8.1
      vertex 20 -20.015 7.5
      vertex 20 -5.65517 11.0803
    endloop
  endfacet
  facet normal -1 0 0
    outer loop
      vertex 20 -20.015 7.5
      vertex 20 -5.61 8.1
      vertex 20 20 7.5
    endloop
  endfacet
  facet normal 0 -1 0
    outer loop
      vertex -20 20 7.5
      vertex 20 20 8.1
      vertex -20 20 8.1
    endloop
  endfacet
  facet normal 0 -1 -0
    outer loop
      vertex 20 20 8.1
      vertex -20 20 7.5
      vertex 20 20 7.5
    endloop
  endfacet
  facet normal 0 0.241922 -0.970296
    outer loop
      vertex -20 -20.015 7.5
      vertex 20 -5.65517 11.0803
      vertex 20 -20.015 7.5
    endloop
  endfacet
  facet normal 0 0.241922 -0.970296
    outer loop
      vertex 20 -5.65517 11.0803
      vertex -20 -20.015 7.5
      vertex -20 -5.65517 11.0803
    endloop
  endfacet
  facet normal 0 -0.970296 -0.241921
    outer loop
      vertex -20 -5.61 10.8991
      vertex 20 -5.65517 11.0803
      vertex -20 -5.65517 11.0803
    endloop
  endfacet
  facet normal 0 -0.970296 -0.241921
    outer loop
      vertex 20 -5.65517 11.0803
      vertex -20 -5.61 10.8991
      vertex 20 -5.61 10.8991
    endloop
  endfacet
  facet normal 1 -0 0
    outer loop
      vertex -12.7 24.15 14.5
      vertex -12.7 25 9
      vertex -12.7 25 14.5
    endloop
  endfacet
  facet normal 1 0 0
    outer loop
      vertex -12.7 25 9
      vertex -12.7 24.15 14.5
      vertex -12.7 24.15 9
    endloop
  endfacet
  facet normal 0 0 -1
    outer loop
      vertex -12.7 24.15 14.5
      vertex -2.7 25 14.5
      vertex -2.7 24.15 14.5
    endloop
  endfacet
  facet normal -0 0 -1
    outer loop
      vertex -2.7 25 14.5
      vertex -12.7 24.15 14.5
      vertex -12.7 25 14.5
    endloop
  endfacet
  facet normal -1 0 0
    outer loop
      vertex -2.7 24.15 9
      vertex -2.7 25 14.5
      vertex -2.7 25 9
    endloop
  endfacet
  facet normal -1 -0 0
    outer loop
      vertex -2.7 25 14.5
      vertex -2.7 24.15 9
      vertex -2.7 24.15 14.5
    endloop
  endfacet
  facet normal -0 0 1
    outer loop
      vertex -12.7 25 9
      vertex -2.7 24.15 9
      vertex -2.7 25 9
    endloop
  endfacet
  facet normal 0 0 1
    outer loop
      vertex -2.7 24.15 9
      vertex -12.7 25 9
      vertex -12.7 24.15 9
    endloop
  endfacet
  facet normal 0 0.970295 0.241924
    outer loop
      vertex 21.9487 -1.08418 14.651
      vertex 21.9323 -1.08533 14.6557
      vertex 21.9479 -1.08533 14.6557
    endloop
  endfacet
  facet normal 0 0.970295 0.241924
    outer loop
      vertex 21.9323 -1.08533 14.6557
      vertex 21.9487 -1.08418 14.651
      vertex 21.8278 -1.08533 14.6557
    endloop
  endfacet
  facet normal -8.47807e-008 0.970296 0.241922
    outer loop
      vertex 22.015 -0.984166 14.2499
      vertex 21.8278 -1.08533 14.6557
      vertex 21.9487 -1.08418 14.651
    endloop
  endfacet
  facet normal 0 0.970296 0.241922
    outer loop
      vertex 21.8278 -1.08533 14.6557
      vertex 22.015 -0.984166 14.2499
      vertex 21.8041 -1.08533 14.6557
    endloop
  endfacet
  facet normal -0 0.970296 0.241922
    outer loop
      vertex -22.015 -0.984166 14.2499
      vertex 21.8041 -1.08533 14.6557
      vertex 22.015 -0.984166 14.2499
    endloop
  endfacet
  facet normal 0 0.970298 0.241914
    outer loop
      vertex -21.9376 -1.08533 14.6557
      vertex -21.9509 -1.08079 14.6374
      vertex -21.9479 -1.08533 14.6557
    endloop
  endfacet
  facet normal 0 0.970296 0.241922
    outer loop
      vertex 21.8041 -1.08533 14.6557
      vertex -22.015 -0.984166 14.2499
      vertex -21.9376 -1.08533 14.6557
    endloop
  endfacet
  facet normal -1.49311e-005 0.970295 0.241925
    outer loop
      vertex -21.9376 -1.08533 14.6557
      vertex -22.015 -0.984166 14.2499
      vertex -21.9509 -1.08079 14.6374
    endloop
  endfacet
  facet normal 0 0.241922 -0.970296
    outer loop
      vertex 22.2058 -5.61 13.0966
      vertex -22.015 -0.984166 14.2499
      vertex 22.015 -0.984166 14.2499
    endloop
  endfacet
  facet normal 0 0.241922 -0.970296
    outer loop
      vertex -22.015 -0.984166 14.2499
      vertex 22.2058 -5.61 13.0966
      vertex -22.2058 -5.61 13.0966
    endloop
  endfacet
endsolid OpenSCAD_Model
