solid OpenSCAD_Model
  facet normal 1 -0 0
    outer loop
      vertex -23.03 -5.58 8.06405
      vertex -23.03 24.5 8.05
      vertex -23.03 24.5 8.06405
    endloop
  endfacet
  facet normal 1 0 0
    outer loop
      vertex -23.03 24.5 8.05
      vertex -23.03 -5.58 8.06405
      vertex -23.03 -5.58 8.05
    endloop
  endfacet
  facet normal 0 0 1
    outer loop
      vertex 23.03 24.5 8.05
      vertex 20 20 8.05
      vertex 23.03 -5.58 8.05
    endloop
  endfacet
  facet normal 0 0 1
    outer loop
      vertex 23.03 24.5 8.05
      vertex -20 20 8.05
      vertex 20 20 8.05
    endloop
  endfacet
  facet normal -0 0 1
    outer loop
      vertex -23.03 24.5 8.05
      vertex -20 20 8.05
      vertex 23.03 24.5 8.05
    endloop
  endfacet
  facet normal 0 0 1
    outer loop
      vertex -23.03 -5.58 8.05
      vertex -20 20 8.05
      vertex -23.03 24.5 8.05
    endloop
  endfacet
  facet normal 0 0 1
    outer loop
      vertex -20 20 8.05
      vertex -23.03 -5.58 8.05
      vertex -20 -5.58 8.05
    endloop
  endfacet
  facet normal 0 0 1
    outer loop
      vertex 23.03 -5.58 8.05
      vertex 20 20 8.05
      vertex 20 -5.58 8.05
    endloop
  endfacet
  facet normal 0 -1 0
    outer loop
      vertex -23.03 24.5 8.06405
      vertex 20.948 24.5 20.65
      vertex -20.948 24.5 20.65
    endloop
  endfacet
  facet normal 0 -1 0
    outer loop
      vertex -23.03 24.5 8.06405
      vertex 23.03 24.5 8.06405
      vertex 20.948 24.5 20.65
    endloop
  endfacet
  facet normal 0 -1 0
    outer loop
      vertex -23.03 24.5 8.05
      vertex 23.03 24.5 8.06405
      vertex -23.03 24.5 8.06405
    endloop
  endfacet
  facet normal 0 -1 -0
    outer loop
      vertex 23.03 24.5 8.06405
      vertex -23.03 24.5 8.05
      vertex 23.03 24.5 8.05
    endloop
  endfacet
  facet normal 0.986591 0 -0.163211
    outer loop
      vertex -20.948 0.505484 20.65
      vertex -21.9456 -0.948639 14.6195
      vertex -20.948 24.5 20.65
    endloop
  endfacet
  facet normal 0.986708 -0.000172766 -0.1625
    outer loop
      vertex -22.1309 -5.58 13.4991
      vertex -21.9456 -0.948639 14.6195
      vertex -22.1285 -5.58 13.5139
    endloop
  endfacet
  facet normal 0.986721 -0.00019127 -0.162426
    outer loop
      vertex -21.9456 -0.948639 14.6195
      vertex -22.1309 -5.58 13.4991
      vertex -20.948 24.5 20.65
    endloop
  endfacet
  facet normal 0.986592 -9.41967e-007 -0.163205
    outer loop
      vertex -22.1309 -5.58 13.4991
      vertex -23.03 24.5 8.06405
      vertex -20.948 24.5 20.65
    endloop
  endfacet
  facet normal 0.986592 -9.21981e-007 -0.163205
    outer loop
      vertex -23.03 24.5 8.06405
      vertex -22.1309 -5.58 13.4991
      vertex -22.8218 -5.58 9.3229
    endloop
  endfacet
  facet normal 0.986596 0 -0.163184
    outer loop
      vertex -22.8218 -5.58 9.3229
      vertex -23.03 -5.58 8.06405
      vertex -23.03 24.5 8.06405
    endloop
  endfacet
  facet normal -1 0 0
    outer loop
      vertex 23.03 -5.58 8.05
      vertex 23.03 24.5 8.06405
      vertex 23.03 24.5 8.05
    endloop
  endfacet
  facet normal -1 -0 0
    outer loop
      vertex 23.03 24.5 8.06405
      vertex 23.03 -5.58 8.05
      vertex 23.03 -5.58 8.06405
    endloop
  endfacet
  facet normal 1.13176e-006 0.232194 -0.972669
    outer loop
      vertex -21.3089 -5.58 13.5139
      vertex -22.1285 -5.58 13.5139
      vertex -21.9456 -0.948639 14.6195
    endloop
  endfacet
  facet normal -3.44051e-006 0.232202 -0.972668
    outer loop
      vertex 12.5427 -5.58 13.5139
      vertex 10.6555 -5.58 13.5139
      vertex 21.9456 -0.948639 14.6195
    endloop
  endfacet
  facet normal 0 0.232195 -0.972669
    outer loop
      vertex 20.8809 -5.58 13.5139
      vertex 12.5427 -5.58 13.5139
      vertex 21.9456 -0.948639 14.6195
    endloop
  endfacet
  facet normal 4.46093e-006 0.232194 -0.972669
    outer loop
      vertex 22.1285 -5.58 13.5139
      vertex 20.8809 -5.58 13.5139
      vertex 21.9456 -0.948639 14.6195
    endloop
  endfacet
  facet normal 0 0.232194 -0.972669
    outer loop
      vertex -21.9456 -0.948639 14.6195
      vertex 10.6555 -5.58 13.5139
      vertex -21.3089 -5.58 13.5139
    endloop
  endfacet
  facet normal 0 0.232194 -0.972669
    outer loop
      vertex 10.6555 -5.58 13.5139
      vertex -21.9456 -0.948639 14.6195
      vertex 21.9456 -0.948639 14.6195
    endloop
  endfacet
  facet normal -0.986596 -5.00757e-006 -0.163184
    outer loop
      vertex 22.1285 -5.58 13.5139
      vertex 21.9456 -0.948639 14.6195
      vertex 22.1946 -5.58 13.1143
    endloop
  endfacet
  facet normal -0.986592 -1.55145e-006 -0.163205
    outer loop
      vertex 21.9456 -0.948639 14.6195
      vertex 20.948 24.5 20.65
      vertex 23.03 24.5 8.06405
    endloop
  endfacet
  facet normal -0.986593 0 -0.163199
    outer loop
      vertex 23.03 -5.58 8.06405
      vertex 21.9456 -0.948639 14.6195
      vertex 23.03 24.5 8.06405
    endloop
  endfacet
  facet normal -0.986593 -2.36824e-008 -0.163199
    outer loop
      vertex 21.9456 -0.948639 14.6195
      vertex 23.03 -5.58 8.06405
      vertex 22.1946 -5.58 13.1143
    endloop
  endfacet
  facet normal -0.986591 0 -0.163211
    outer loop
      vertex 21.9456 -0.948639 14.6195
      vertex 20.948 0.505484 20.65
      vertex 20.948 24.5 20.65
    endloop
  endfacet
  facet normal 0 0 -1
    outer loop
      vertex 20.948 0.505484 20.65
      vertex 18 4 20.65
      vertex 20.948 24.5 20.65
    endloop
  endfacet
  facet normal 0 0 -1
    outer loop
      vertex 20.948 0.505484 20.65
      vertex -18 4 20.65
      vertex 18 4 20.65
    endloop
  endfacet
  facet normal -0 0 -1
    outer loop
      vertex -18 4 20.65
      vertex -20.948 0.505484 20.65
      vertex -18 21 20.65
    endloop
  endfacet
  facet normal 0 0 -1
    outer loop
      vertex -20.948 0.505484 20.65
      vertex -18 4 20.65
      vertex 20.948 0.505484 20.65
    endloop
  endfacet
  facet normal 0 0 -1
    outer loop
      vertex 18 21 20.65
      vertex 20.948 24.5 20.65
      vertex 18 4 20.65
    endloop
  endfacet
  facet normal 0 0 -1
    outer loop
      vertex -18 21 20.65
      vertex 20.948 24.5 20.65
      vertex 18 21 20.65
    endloop
  endfacet
  facet normal 0 0 -1
    outer loop
      vertex -18 21 20.65
      vertex -20.948 24.5 20.65
      vertex 20.948 24.5 20.65
    endloop
  endfacet
  facet normal 0 0 -1
    outer loop
      vertex -20.948 24.5 20.65
      vertex -18 21 20.65
      vertex -20.948 0.505484 20.65
    endloop
  endfacet
  facet normal 0 0.972138 -0.23441
    outer loop
      vertex 21.9456 -0.948639 14.6195
      vertex -20.948 0.505484 20.65
      vertex 20.948 0.505484 20.65
    endloop
  endfacet
  facet normal 0 0.972138 -0.23441
    outer loop
      vertex -20.948 0.505484 20.65
      vertex 21.9456 -0.948639 14.6195
      vertex -21.9456 -0.948639 14.6195
    endloop
  endfacet
  facet normal 0 1 0
    outer loop
      vertex 23.03 -5.58 8.06405
      vertex 20 -5.58 10.7788
      vertex 22.1946 -5.58 13.1143
    endloop
  endfacet
  facet normal 0 1 0
    outer loop
      vertex 20 -5.58 8.05
      vertex 23.03 -5.58 8.06405
      vertex 23.03 -5.58 8.05
    endloop
  endfacet
  facet normal 0 1 0
    outer loop
      vertex 23.03 -5.58 8.06405
      vertex 20 -5.58 8.05
      vertex 20 -5.58 10.7788
    endloop
  endfacet
  facet normal 0 1 -0
    outer loop
      vertex 20 -5.58 10.7788
      vertex 12.5427 -5.58 13.5139
      vertex 20.8809 -5.58 13.5139
    endloop
  endfacet
  facet normal 0 1 0
    outer loop
      vertex 22.1946 -5.58 13.1143
      vertex 20.8809 -5.58 13.5139
      vertex 22.1285 -5.58 13.5139
    endloop
  endfacet
  facet normal 0 1 0
    outer loop
      vertex 20.8809 -5.58 13.5139
      vertex 22.1946 -5.58 13.1143
      vertex 20 -5.58 10.7788
    endloop
  endfacet
  facet normal 0 1 0
    outer loop
      vertex 12.5427 -5.58 13.5139
      vertex 20 -5.58 10.7788
      vertex -20 -5.58 10.7788
    endloop
  endfacet
  facet normal 0 1 0
    outer loop
      vertex 12.5427 -5.58 13.5139
      vertex -20 -5.58 10.7788
      vertex -22.1309 -5.58 13.4991
    endloop
  endfacet
  facet normal 0 1 0
    outer loop
      vertex -20 -5.58 10.7788
      vertex -22.8218 -5.58 9.3229
      vertex -22.1309 -5.58 13.4991
    endloop
  endfacet
  facet normal 0 1 -0
    outer loop
      vertex -20 -5.58 8.05
      vertex -22.8218 -5.58 9.3229
      vertex -20 -5.58 10.7788
    endloop
  endfacet
  facet normal 0 1 0
    outer loop
      vertex -22.8218 -5.58 9.3229
      vertex -20 -5.58 8.05
      vertex -23.03 -5.58 8.06405
    endloop
  endfacet
  facet normal 0 1 0
    outer loop
      vertex -23.03 -5.58 8.06405
      vertex -20 -5.58 8.05
      vertex -23.03 -5.58 8.05
    endloop
  endfacet
  facet normal 0 1 0
    outer loop
      vertex -22.1309 -5.58 13.4991
      vertex -21.3089 -5.58 13.5139
      vertex 10.6555 -5.58 13.5139
    endloop
  endfacet
  facet normal 0 1 0
    outer loop
      vertex -22.1309 -5.58 13.4991
      vertex 10.6555 -5.58 13.5139
      vertex 12.5427 -5.58 13.5139
    endloop
  endfacet
  facet normal 0 1 0
    outer loop
      vertex -21.3089 -5.58 13.5139
      vertex -22.1309 -5.58 13.4991
      vertex -22.1285 -5.58 13.5139
    endloop
  endfacet
  facet normal -1 0 0
    outer loop
      vertex -24.5 25 7.5
      vertex -24.5 -23.5311 7.51561
      vertex -24.5 25 7.51561
    endloop
  endfacet
  facet normal -1 0 -0
    outer loop
      vertex -24.5 -23.5311 7.51561
      vertex -24.5 25 7.5
      vertex -24.5 -23.5359 7.5
    endloop
  endfacet
  facet normal 0.0108496 -0.955766 0.293929
    outer loop
      vertex 24.5 -23.5359 7.5
      vertex 24.5 -23.5311 7.51561
      vertex 24.1685 -22.8911 9.60893
    endloop
  endfacet
  facet normal -5.47661e-007 -0.956304 0.292375
    outer loop
      vertex 24.5 -23.5359 7.5
      vertex -24.1685 -22.8911 9.60893
      vertex -24.5 -23.5311 7.51561
    endloop
  endfacet
  facet normal 0 -0.9563 0.292387
    outer loop
      vertex 24.5 -23.5359 7.5
      vertex 24.1685 -22.8911 9.60893
      vertex -24.1685 -22.8911 9.60893
    endloop
  endfacet
  facet normal 0 -0.955822 0.293946
    outer loop
      vertex 24.5 -23.5359 7.5
      vertex -24.5 -23.5311 7.51561
      vertex -24.5 -23.5359 7.5
    endloop
  endfacet
  facet normal 0 0 -1
    outer loop
      vertex 20 20 7.5
      vertex 24.5 -23.5359 7.5
      vertex 20 -20.015 7.5
    endloop
  endfacet
  facet normal 0 0 -1
    outer loop
      vertex 24.5 -23.5359 7.5
      vertex -20 -20.015 7.5
      vertex 20 -20.015 7.5
    endloop
  endfacet
  facet normal -0 0 -1
    outer loop
      vertex -20 -20.015 7.5
      vertex -24.5 -23.5359 7.5
      vertex -20 20 7.5
    endloop
  endfacet
  facet normal 0 0 -1
    outer loop
      vertex -24.5 -23.5359 7.5
      vertex -20 -20.015 7.5
      vertex 24.5 -23.5359 7.5
    endloop
  endfacet
  facet normal 0 0 -1
    outer loop
      vertex 24.5 -23.5359 7.5
      vertex 20 20 7.5
      vertex 24.5 25 7.5
    endloop
  endfacet
  facet normal 0 0 -1
    outer loop
      vertex -20 20 7.5
      vertex 24.5 25 7.5
      vertex 20 20 7.5
    endloop
  endfacet
  facet normal 0 0 -1
    outer loop
      vertex -20 20 7.5
      vertex -24.5 25 7.5
      vertex 24.5 25 7.5
    endloop
  endfacet
  facet normal 0 0 -1
    outer loop
      vertex -24.5 25 7.5
      vertex -20 20 7.5
      vertex -24.5 -23.5359 7.5
    endloop
  endfacet
  facet normal 0 1 0
    outer loop
      vertex 24.5 25 7.51561
      vertex -22.2851 25 21.5
      vertex 22.2851 25 21.5
    endloop
  endfacet
  facet normal 0 1 0
    outer loop
      vertex 24.5 25 7.51561
      vertex -24.5 25 7.51561
      vertex -22.2851 25 21.5
    endloop
  endfacet
  facet normal 0 1 -0
    outer loop
      vertex 24.5 25 7.5
      vertex -24.5 25 7.51561
      vertex 24.5 25 7.51561
    endloop
  endfacet
  facet normal 0 1 0
    outer loop
      vertex -24.5 25 7.51561
      vertex 24.5 25 7.5
      vertex -24.5 25 7.5
    endloop
  endfacet
  facet normal -0.987687 0 0.15644
    outer loop
      vertex -22.2851 -0.526081 21.5
      vertex -22.2851 25 21.5
      vertex -23.3464 -2.07302 14.7995
    endloop
  endfacet
  facet normal -0.987808 0.000194027 0.155675
    outer loop
      vertex -23.3464 -2.07302 14.7995
      vertex -22.2851 25 21.5
      vertex -24.1685 -22.8911 9.60893
    endloop
  endfacet
  facet normal -0.987688 9.53525e-007 0.156434
    outer loop
      vertex -24.1685 -22.8911 9.60893
      vertex -22.2851 25 21.5
      vertex -24.5 25 7.51561
    endloop
  endfacet
  facet normal -0.987692 0 0.156413
    outer loop
      vertex -24.1685 -22.8911 9.60893
      vertex -24.5 25 7.51561
      vertex -24.5 -23.5311 7.51561
    endloop
  endfacet
  facet normal 1 -0 0
    outer loop
      vertex 24.5 -23.5311 7.51561
      vertex 24.5 25 7.5
      vertex 24.5 25 7.51561
    endloop
  endfacet
  facet normal 1 0 0
    outer loop
      vertex 24.5 25 7.5
      vertex 24.5 -23.5311 7.51561
      vertex 24.5 -23.5359 7.5
    endloop
  endfacet
  facet normal -8.19021e-007 -0.241922 0.970296
    outer loop
      vertex -22.55 -7.86579 13.3552
      vertex -23.3464 -2.07302 14.7995
      vertex -24.1685 -22.8911 9.60893
    endloop
  endfacet
  facet normal 3.45718e-006 -0.24193 0.970294
    outer loop
      vertex 11.7875 -7.76633 13.3799
      vertex 23.3464 -2.07302 14.7995
      vertex 9.225 -7.86579 13.3552
    endloop
  endfacet
  facet normal 0 -0.241923 0.970295
    outer loop
      vertex 11.7875 -20.8944 10.1068
      vertex 9.225 -17.8113 10.8755
      vertex 3.5875 -17.8113 10.8755
    endloop
  endfacet
  facet normal 0 -0.24192 0.970296
    outer loop
      vertex -16.9125 -20.9939 10.082
      vertex -16.9125 -17.8113 10.8755
      vertex -22.55 -17.8113 10.8755
    endloop
  endfacet
  facet normal 0 -0.241923 0.970295
    outer loop
      vertex -24.1685 -22.8911 9.60893
      vertex 3.5875 -20.9939 10.082
      vertex -16.9125 -20.9939 10.082
    endloop
  endfacet
  facet normal 0 -0.241923 0.970295
    outer loop
      vertex 3.5875 -20.9939 10.082
      vertex -24.1685 -22.8911 9.60893
      vertex 24.1685 -22.8911 9.60893
    endloop
  endfacet
  facet normal 0 -0.241918 0.970297
    outer loop
      vertex 24.1685 -22.8911 9.60893
      vertex 22.0375 -20.8944 10.1068
      vertex 11.7875 -20.8944 10.1068
    endloop
  endfacet
  facet normal 5.38105e-006 -0.241923 0.970296
    outer loop
      vertex -22.55 -17.8113 10.8755
      vertex -22.55 -7.86579 13.3552
      vertex -24.1685 -22.8911 9.60893
    endloop
  endfacet
  facet normal -7.2839e-007 -0.241921 0.970296
    outer loop
      vertex -16.9125 -20.9939 10.082
      vertex -22.55 -17.8113 10.8755
      vertex -24.1685 -22.8911 9.60893
    endloop
  endfacet
  facet normal 0 -0.241923 0.970295
    outer loop
      vertex 22.0375 -7.76633 13.3799
      vertex 23.3464 -2.07302 14.7995
      vertex 11.7875 -7.76633 13.3799
    endloop
  endfacet
  facet normal -4.69158e-006 -0.241922 0.970296
    outer loop
      vertex 24.1685 -22.8911 9.60893
      vertex 23.3464 -2.07302 14.7995
      vertex 22.0375 -7.76633 13.3799
    endloop
  endfacet
  facet normal -4.1795e-006 -0.241922 0.970296
    outer loop
      vertex 24.1685 -22.8911 9.60893
      vertex 22.0375 -7.76633 13.3799
      vertex 22.0375 -20.8944 10.1068
    endloop
  endfacet
  facet normal 1.36826e-006 -0.24192 0.970296
    outer loop
      vertex 11.7875 -20.8944 10.1068
      vertex 3.5875 -17.8113 10.8755
      vertex 3.5875 -20.9939 10.082
    endloop
  endfacet
  facet normal 1.25281e-006 -0.241911 0.970299
    outer loop
      vertex 24.1685 -22.8911 9.60893
      vertex 11.7875 -20.8944 10.1068
      vertex 3.5875 -20.9939 10.082
    endloop
  endfacet
  facet normal 0 -0.241922 0.970296
    outer loop
      vertex -23.3464 -2.07302 14.7995
      vertex 9.225 -7.86579 13.3552
      vertex 23.3464 -2.07302 14.7995
    endloop
  endfacet
  facet normal 0 -0.241922 0.970296
    outer loop
      vertex 9.225 -7.86579 13.3552
      vertex -23.3464 -2.07302 14.7995
      vertex -22.55 -7.86579 13.3552
    endloop
  endfacet
  facet normal 4.84041e-007 -0.241923 0.970296
    outer loop
      vertex 11.7875 -20.8944 10.1068
      vertex 9.225 -7.86579 13.3552
      vertex 9.225 -17.8113 10.8755
    endloop
  endfacet
  facet normal 3.14009e-006 -0.241922 0.970296
    outer loop
      vertex 11.7875 -20.8944 10.1068
      vertex 11.7875 -7.76633 13.3799
      vertex 9.225 -7.86579 13.3552
    endloop
  endfacet
  facet normal 0.987692 6.04972e-006 0.156411
    outer loop
      vertex 24.1685 -22.8911 9.60893
      vertex 24.5 -23.5311 7.51561
      vertex 23.3464 -2.07302 14.7995
    endloop
  endfacet
  facet normal 0.987688 1.57181e-006 0.156434
    outer loop
      vertex 23.3464 -2.07302 14.7995
      vertex 24.5 25 7.51561
      vertex 22.2851 25 21.5
    endloop
  endfacet
  facet normal 0.987689 -0 0.156428
    outer loop
      vertex 24.5 -23.5311 7.51561
      vertex 24.5 25 7.51561
      vertex 23.3464 -2.07302 14.7995
    endloop
  endfacet
  facet normal 0.987687 0 0.15644
    outer loop
      vertex 23.3464 -2.07302 14.7995
      vertex 22.2851 25 21.5
      vertex 22.2851 -0.526081 21.5
    endloop
  endfacet
  facet normal 0 0 1
    outer loop
      vertex 18 4 21.5
      vertex 22.2851 25 21.5
      vertex 18 21 21.5
    endloop
  endfacet
  facet normal 0 0 1
    outer loop
      vertex 22.2851 25 21.5
      vertex -18 21 21.5
      vertex 18 21 21.5
    endloop
  endfacet
  facet normal 0 0 1
    outer loop
      vertex -18 21 21.5
      vertex -22.2851 25 21.5
      vertex -18 4 21.5
    endloop
  endfacet
  facet normal -0 0 1
    outer loop
      vertex -22.2851 25 21.5
      vertex -18 21 21.5
      vertex 22.2851 25 21.5
    endloop
  endfacet
  facet normal 0 0 1
    outer loop
      vertex 22.2851 25 21.5
      vertex 18 4 21.5
      vertex 22.2851 -0.526081 21.5
    endloop
  endfacet
  facet normal -0 0 1
    outer loop
      vertex -18 4 21.5
      vertex 22.2851 -0.526081 21.5
      vertex 18 4 21.5
    endloop
  endfacet
  facet normal 0 0 1
    outer loop
      vertex -18 4 21.5
      vertex -22.2851 -0.526081 21.5
      vertex 22.2851 -0.526081 21.5
    endloop
  endfacet
  facet normal 0 0 1
    outer loop
      vertex -22.2851 -0.526081 21.5
      vertex -18 4 21.5
      vertex -22.2851 25 21.5
    endloop
  endfacet
  facet normal 0 -0.97437 0.224951
    outer loop
      vertex -23.3464 -2.07302 14.7995
      vertex 22.2851 -0.526081 21.5
      vertex -22.2851 -0.526081 21.5
    endloop
  endfacet
  facet normal 0 -0.97437 0.224951
    outer loop
      vertex 22.2851 -0.526081 21.5
      vertex -23.3464 -2.07302 14.7995
      vertex 23.3464 -2.07302 14.7995
    endloop
  endfacet
  facet normal 1 0 0
    outer loop
      vertex -22.55 -7.86579 13.3552
      vertex -22.55 -17.3099 8.86432
      vertex -22.55 -7.36435 11.344
    endloop
  endfacet
  facet normal 1 0 -0
    outer loop
      vertex -22.55 -17.3099 8.86432
      vertex -22.55 -7.86579 13.3552
      vertex -22.55 -17.8113 10.8755
    endloop
  endfacet
  facet normal 0 -0.970295 -0.241925
    outer loop
      vertex -22.55 -7.36435 11.344
      vertex 9.225 -7.86579 13.3552
      vertex -22.55 -7.86579 13.3552
    endloop
  endfacet
  facet normal 0 -0.970295 -0.241925
    outer loop
      vertex 9.225 -7.86579 13.3552
      vertex -22.55 -7.36435 11.344
      vertex 9.225 -7.36435 11.344
    endloop
  endfacet
  facet normal 0 0.970299 0.241907
    outer loop
      vertex -16.9125 -17.3099 8.86432
      vertex -22.55 -17.8113 10.8755
      vertex -16.9125 -17.8113 10.8755
    endloop
  endfacet
  facet normal 0 0.970299 0.241907
    outer loop
      vertex -22.55 -17.8113 10.8755
      vertex -16.9125 -17.3099 8.86432
      vertex -22.55 -17.3099 8.86432
    endloop
  endfacet
  facet normal 1 0 0
    outer loop
      vertex -16.9125 -17.8113 10.8755
      vertex -16.9125 -20.4925 8.07082
      vertex -16.9125 -17.3099 8.86432
    endloop
  endfacet
  facet normal 1 0 -0
    outer loop
      vertex -16.9125 -20.4925 8.07082
      vertex -16.9125 -17.8113 10.8755
      vertex -16.9125 -20.9939 10.082
    endloop
  endfacet
  facet normal 0 0.970299 0.241907
    outer loop
      vertex 3.5875 -20.4925 8.07082
      vertex -16.9125 -20.9939 10.082
      vertex 3.5875 -20.9939 10.082
    endloop
  endfacet
  facet normal 0 0.970299 0.241907
    outer loop
      vertex -16.9125 -20.9939 10.082
      vertex 3.5875 -20.4925 8.07082
      vertex -16.9125 -20.4925 8.07082
    endloop
  endfacet
  facet normal -1 0 0
    outer loop
      vertex 3.5875 -20.4925 8.07082
      vertex 3.5875 -17.8113 10.8755
      vertex 3.5875 -17.3099 8.86432
    endloop
  endfacet
  facet normal -1 0 0
    outer loop
      vertex 3.5875 -17.8113 10.8755
      vertex 3.5875 -20.4925 8.07082
      vertex 3.5875 -20.9939 10.082
    endloop
  endfacet
  facet normal 0 0.970299 0.241907
    outer loop
      vertex 9.225 -17.3099 8.86432
      vertex 3.5875 -17.8113 10.8755
      vertex 9.225 -17.8113 10.8755
    endloop
  endfacet
  facet normal 0 0.970299 0.241907
    outer loop
      vertex 3.5875 -17.8113 10.8755
      vertex 9.225 -17.3099 8.86432
      vertex 3.5875 -17.3099 8.86432
    endloop
  endfacet
  facet normal -1 0 0
    outer loop
      vertex 9.225 -17.3099 8.86432
      vertex 9.225 -7.86579 13.3552
      vertex 9.225 -7.36435 11.344
    endloop
  endfacet
  facet normal -1 0 0
    outer loop
      vertex 9.225 -7.86579 13.3552
      vertex 9.225 -17.3099 8.86432
      vertex 9.225 -17.8113 10.8755
    endloop
  endfacet
  facet normal 1 0 0
    outer loop
      vertex 11.7875 -7.76633 13.3799
      vertex 11.7875 -20.393 8.09561
      vertex 11.7875 -7.2649 11.3688
    endloop
  endfacet
  facet normal 1 0 -0
    outer loop
      vertex 11.7875 -20.393 8.09561
      vertex 11.7875 -7.76633 13.3799
      vertex 11.7875 -20.8944 10.1068
    endloop
  endfacet
  facet normal 0 -0.970296 -0.241922
    outer loop
      vertex 11.7875 -7.2649 11.3688
      vertex 22.0375 -7.76633 13.3799
      vertex 11.7875 -7.76633 13.3799
    endloop
  endfacet
  facet normal 0 -0.970296 -0.241922
    outer loop
      vertex 22.0375 -7.76633 13.3799
      vertex 11.7875 -7.2649 11.3688
      vertex 22.0375 -7.2649 11.3688
    endloop
  endfacet
  facet normal 0 0.9703 0.241907
    outer loop
      vertex 22.0375 -20.393 8.09561
      vertex 11.7875 -20.8944 10.1068
      vertex 22.0375 -20.8944 10.1068
    endloop
  endfacet
  facet normal 0 0.9703 0.241907
    outer loop
      vertex 11.7875 -20.8944 10.1068
      vertex 22.0375 -20.393 8.09561
      vertex 11.7875 -20.393 8.09561
    endloop
  endfacet
  facet normal -1 0 0
    outer loop
      vertex 22.0375 -20.393 8.09561
      vertex 22.0375 -7.76633 13.3799
      vertex 22.0375 -7.2649 11.3688
    endloop
  endfacet
  facet normal -1 0 0
    outer loop
      vertex 22.0375 -7.76633 13.3799
      vertex 22.0375 -20.393 8.09561
      vertex 22.0375 -20.8944 10.1068
    endloop
  endfacet
  facet normal 0 -0.241918 0.970297
    outer loop
      vertex -16.9125 -17.3099 8.86432
      vertex 3.5875 -20.4925 8.07082
      vertex 3.5875 -17.3099 8.86432
    endloop
  endfacet
  facet normal 0 -0.241918 0.970297
    outer loop
      vertex 3.5875 -20.4925 8.07082
      vertex -16.9125 -17.3099 8.86432
      vertex -16.9125 -20.4925 8.07082
    endloop
  endfacet
  facet normal 0 -0.241921 0.970296
    outer loop
      vertex 9.225 -7.36435 11.344
      vertex 3.5875 -17.3099 8.86432
      vertex 9.225 -17.3099 8.86432
    endloop
  endfacet
  facet normal 0 -0.241921 0.970296
    outer loop
      vertex 9.225 -7.36435 11.344
      vertex -16.9125 -17.3099 8.86432
      vertex 3.5875 -17.3099 8.86432
    endloop
  endfacet
  facet normal 0 -0.241921 0.970296
    outer loop
      vertex -22.55 -7.36435 11.344
      vertex -16.9125 -17.3099 8.86432
      vertex 9.225 -7.36435 11.344
    endloop
  endfacet
  facet normal 0 -0.241921 0.970296
    outer loop
      vertex -16.9125 -17.3099 8.86432
      vertex -22.55 -7.36435 11.344
      vertex -22.55 -17.3099 8.86432
    endloop
  endfacet
  facet normal 0 -0.241922 0.970296
    outer loop
      vertex 11.7875 -7.2649 11.3688
      vertex 22.0375 -20.393 8.09561
      vertex 22.0375 -7.2649 11.3688
    endloop
  endfacet
  facet normal 0 -0.241922 0.970296
    outer loop
      vertex 22.0375 -20.393 8.09561
      vertex 11.7875 -7.2649 11.3688
      vertex 11.7875 -20.393 8.09561
    endloop
  endfacet
  facet normal 1 -0 0
    outer loop
      vertex -18 4 21.5
      vertex -18 21 20.65
      vertex -18 21 21.5
    endloop
  endfacet
  facet normal 1 0 0
    outer loop
      vertex -18 21 20.65
      vertex -18 4 21.5
      vertex -18 4 20.65
    endloop
  endfacet
  facet normal -1 0 0
    outer loop
      vertex 18 4 20.65
      vertex 18 21 21.5
      vertex 18 21 20.65
    endloop
  endfacet
  facet normal -1 -0 0
    outer loop
      vertex 18 21 21.5
      vertex 18 4 20.65
      vertex 18 4 21.5
    endloop
  endfacet
  facet normal 0 -1 0
    outer loop
      vertex -18 21 20.65
      vertex 18 21 21.5
      vertex -18 21 21.5
    endloop
  endfacet
  facet normal 0 -1 -0
    outer loop
      vertex 18 21 21.5
      vertex -18 21 20.65
      vertex 18 21 20.65
    endloop
  endfacet
  facet normal 0 1 -0
    outer loop
      vertex 18 4 20.65
      vertex -18 4 21.5
      vertex 18 4 21.5
    endloop
  endfacet
  facet normal 0 1 0
    outer loop
      vertex -18 4 21.5
      vertex 18 4 20.65
      vertex -18 4 20.65
    endloop
  endfacet
  facet normal 1 0 0
    outer loop
      vertex -20 -5.58 10.7788
      vertex -20 -5.65517 11.0803
      vertex -20 -5.58 8.05
    endloop
  endfacet
  facet normal 1 -0 0
    outer loop
      vertex -20 -5.58 8.05
      vertex -20 20 7.5
      vertex -20 20 8.05
    endloop
  endfacet
  facet normal 1 0 0
    outer loop
      vertex -20 -5.58 8.05
      vertex -20 -20.015 7.5
      vertex -20 20 7.5
    endloop
  endfacet
  facet normal 1 0 0
    outer loop
      vertex -20 -20.015 7.5
      vertex -20 -5.58 8.05
      vertex -20 -5.65517 11.0803
    endloop
  endfacet
  facet normal -1 0 0
    outer loop
      vertex 20 20 7.5
      vertex 20 -5.58 8.05
      vertex 20 20 8.05
    endloop
  endfacet
  facet normal -1 0 0
    outer loop
      vertex 20 -5.58 8.05
      vertex 20 -5.65517 11.0803
      vertex 20 -5.58 10.7788
    endloop
  endfacet
  facet normal -1 -0 0
    outer loop
      vertex 20 -5.58 8.05
      vertex 20 -20.015 7.5
      vertex 20 -5.65517 11.0803
    endloop
  endfacet
  facet normal -1 0 0
    outer loop
      vertex 20 -20.015 7.5
      vertex 20 -5.58 8.05
      vertex 20 20 7.5
    endloop
  endfacet
  facet normal 0 -1 0
    outer loop
      vertex -20 20 7.5
      vertex 20 20 8.05
      vertex -20 20 8.05
    endloop
  endfacet
  facet normal 0 -1 -0
    outer loop
      vertex 20 20 8.05
      vertex -20 20 7.5
      vertex 20 20 7.5
    endloop
  endfacet
  facet normal 0 0.241922 -0.970296
    outer loop
      vertex -20 -20.015 7.5
      vertex 20 -5.65517 11.0803
      vertex 20 -20.015 7.5
    endloop
  endfacet
  facet normal 0 0.241922 -0.970296
    outer loop
      vertex 20 -5.65517 11.0803
      vertex -20 -20.015 7.5
      vertex -20 -5.65517 11.0803
    endloop
  endfacet
  facet normal 0 -0.970296 -0.241922
    outer loop
      vertex -20 -5.58 10.7788
      vertex 20 -5.65517 11.0803
      vertex -20 -5.65517 11.0803
    endloop
  endfacet
  facet normal 0 -0.970296 -0.241922
    outer loop
      vertex 20 -5.65517 11.0803
      vertex -20 -5.58 10.7788
      vertex 20 -5.58 10.7788
    endloop
  endfacet
endsolid OpenSCAD_Model
