solid OpenSCAD_Model
  facet normal -1 0 0
    outer loop
      vertex -21.8 -7.7 0
      vertex -21.8 -10.5333 1
      vertex -21.8 -7.7 3
    endloop
  endfacet
  facet normal -1 0 0
    outer loop
      vertex -21.8 -7.7 0
      vertex -21.8 -10.9833 1
      vertex -21.8 -10.5333 1
    endloop
  endfacet
  facet normal -1 0 0
    outer loop
      vertex -21.8 -10.9833 1
      vertex -21.8 -13.9167 1
      vertex -21.8 -10.9833 3
    endloop
  endfacet
  facet normal -1 0 0
    outer loop
      vertex -21.8 -7.7 0
      vertex -21.8 -13.9167 1
      vertex -21.8 -10.9833 1
    endloop
  endfacet
  facet normal -1 0 0
    outer loop
      vertex -21.8 -17.3 0
      vertex -21.8 -13.9167 1
      vertex -21.8 -7.7 0
    endloop
  endfacet
  facet normal -1 -0 0
    outer loop
      vertex -21.8 -13.9167 1
      vertex -21.8 -17.3 0
      vertex -21.8 -14.3667 1
    endloop
  endfacet
  facet normal -1 0 0
    outer loop
      vertex -21.8 -17.3 3
      vertex -21.8 -14.3667 1
      vertex -21.8 -17.3 0
    endloop
  endfacet
  facet normal -1 0 0
    outer loop
      vertex -21.8 -14.3667 1
      vertex -21.8 -17.3 3
      vertex -21.8 -14.3667 3
    endloop
  endfacet
  facet normal -1 -0 0
    outer loop
      vertex -21.8 -7.7 3
      vertex -21.8 -10.5333 1
      vertex -21.8 -10.5333 3
    endloop
  endfacet
  facet normal -1 -0 0
    outer loop
      vertex -21.8 -10.9833 3
      vertex -21.8 -13.9167 1
      vertex -21.8 -13.9167 3
    endloop
  endfacet
  facet normal -0 0 1
    outer loop
      vertex -16.55 -17.75 3
      vertex 2.95 -20.53 3
      vertex 2.95 -17.75 3
    endloop
  endfacet
  facet normal 0 0 1
    outer loop
      vertex 2.95 -20.53 3
      vertex -16.55 -17.75 3
      vertex -16.55 -20.53 3
    endloop
  endfacet
  facet normal 0 0 1
    outer loop
      vertex -15.4833 -14.3667 3
      vertex -16.55 -17.3 3
      vertex -15.4833 -17.3 3
    endloop
  endfacet
  facet normal -0 0 1
    outer loop
      vertex -18.4167 -14.3667 3
      vertex -16.55 -17.3 3
      vertex -15.4833 -14.3667 3
    endloop
  endfacet
  facet normal 0 0 1
    outer loop
      vertex -16.55 -17.3 3
      vertex -18.4167 -14.3667 3
      vertex -18.4167 -17.3 3
    endloop
  endfacet
  facet normal -0 0 1
    outer loop
      vertex -15.0333 -14.3667 3
      vertex -12.1 -17.3 3
      vertex -12.1 -14.3667 3
    endloop
  endfacet
  facet normal 0 0 1
    outer loop
      vertex -12.1 -17.3 3
      vertex -15.0333 -14.3667 3
      vertex -15.0333 -17.3 3
    endloop
  endfacet
  facet normal -0 0 1
    outer loop
      vertex -11.65 -14.3667 3
      vertex -8.71667 -17.3 3
      vertex -8.71667 -14.3667 3
    endloop
  endfacet
  facet normal 0 0 1
    outer loop
      vertex -8.71667 -17.3 3
      vertex -11.65 -14.3667 3
      vertex -11.65 -17.3 3
    endloop
  endfacet
  facet normal -0 0 1
    outer loop
      vertex -8.26667 -14.3667 3
      vertex -5.33333 -17.3 3
      vertex -5.33333 -14.3667 3
    endloop
  endfacet
  facet normal 0 0 1
    outer loop
      vertex -5.33333 -17.3 3
      vertex -8.26667 -14.3667 3
      vertex -8.26667 -17.3 3
    endloop
  endfacet
  facet normal -0 0 1
    outer loop
      vertex -4.88333 -14.3667 3
      vertex -1.95 -17.3 3
      vertex -1.95 -14.3667 3
    endloop
  endfacet
  facet normal 0 0 1
    outer loop
      vertex -1.95 -17.3 3
      vertex -4.88333 -14.3667 3
      vertex -4.88333 -17.3 3
    endloop
  endfacet
  facet normal -0 0 1
    outer loop
      vertex -1.5 -14.3667 3
      vertex 1.43333 -17.3 3
      vertex 1.43333 -14.3667 3
    endloop
  endfacet
  facet normal 0 0 1
    outer loop
      vertex 1.43333 -17.3 3
      vertex -1.5 -14.3667 3
      vertex -1.5 -17.3 3
    endloop
  endfacet
  facet normal 0 0 1
    outer loop
      vertex 4.81667 -14.3667 3
      vertex 2.95 -17.3 3
      vertex 4.81667 -17.3 3
    endloop
  endfacet
  facet normal -0 0 1
    outer loop
      vertex 1.88333 -14.3667 3
      vertex 2.95 -17.3 3
      vertex 4.81667 -14.3667 3
    endloop
  endfacet
  facet normal 0 0 1
    outer loop
      vertex 2.95 -17.3 3
      vertex 1.88333 -14.3667 3
      vertex 1.88333 -17.3 3
    endloop
  endfacet
  facet normal 0 0 0
    outer loop
      vertex -11.65 -17.3 3
      vertex -12.1 -17.3 3
      vertex -15.0333 -17.3 3
    endloop
  endfacet
  facet normal 0 0 0
    outer loop
      vertex 2.95 -17.3 3
      vertex 1.88333 -17.3 3
      vertex 1.43333 -17.3 3
    endloop
  endfacet
  facet normal 0 0 0
    outer loop
      vertex -1.95 -17.3 3
      vertex -4.88333 -17.3 3
      vertex -5.33333 -17.3 3
    endloop
  endfacet
  facet normal 0 0 0
    outer loop
      vertex -15.4833 -17.3 3
      vertex -16.55 -17.3 3
      vertex 2.95 -17.3 3
    endloop
  endfacet
  facet normal 0 0 0
    outer loop
      vertex -5.33333 -17.3 3
      vertex -8.26667 -17.3 3
      vertex -8.71667 -17.3 3
    endloop
  endfacet
  facet normal 0 0 0
    outer loop
      vertex -8.71667 -17.3 3
      vertex -11.65 -17.3 3
      vertex -15.0333 -17.3 3
    endloop
  endfacet
  facet normal 0 0 0
    outer loop
      vertex 2.95 -17.3 3
      vertex 1.43333 -17.3 3
      vertex -1.5 -17.3 3
    endloop
  endfacet
  facet normal 0 0 0
    outer loop
      vertex -5.33333 -17.3 3
      vertex -8.71667 -17.3 3
      vertex -15.0333 -17.3 3
    endloop
  endfacet
  facet normal 0 0 0
    outer loop
      vertex -15.4833 -17.3 3
      vertex 2.95 -17.3 3
      vertex -1.5 -17.3 3
    endloop
  endfacet
  facet normal 0 0 0
    outer loop
      vertex -1.5 -17.3 3
      vertex -1.95 -17.3 3
      vertex -5.33333 -17.3 3
    endloop
  endfacet
  facet normal 0 0 0
    outer loop
      vertex -1.5 -17.3 3
      vertex -5.33333 -17.3 3
      vertex -15.0333 -17.3 3
    endloop
  endfacet
  facet normal 0 0 0
    outer loop
      vertex -15.4833 -17.3 3
      vertex -1.5 -17.3 3
      vertex -15.0333 -17.3 3
    endloop
  endfacet
  facet normal -0 0 1
    outer loop
      vertex -21.8 -14.3667 3
      vertex -18.8667 -17.3 3
      vertex -18.8667 -14.3667 3
    endloop
  endfacet
  facet normal 0 0 1
    outer loop
      vertex -18.8667 -17.3 3
      vertex -21.8 -14.3667 3
      vertex -21.8 -17.3 3
    endloop
  endfacet
  facet normal -0 0 1
    outer loop
      vertex -21.8 -7.7 3
      vertex -18.8667 -10.5333 3
      vertex -18.8667 -7.7 3
    endloop
  endfacet
  facet normal 0 0 1
    outer loop
      vertex -18.8667 -10.5333 3
      vertex -21.8 -7.7 3
      vertex -21.8 -10.5333 3
    endloop
  endfacet
  facet normal -0 0 1
    outer loop
      vertex -21.8 -10.9833 3
      vertex -18.8667 -13.9167 3
      vertex -18.8667 -10.9833 3
    endloop
  endfacet
  facet normal 0 0 1
    outer loop
      vertex -18.8667 -13.9167 3
      vertex -21.8 -10.9833 3
      vertex -21.8 -13.9167 3
    endloop
  endfacet
  facet normal -0 0 1
    outer loop
      vertex 5.26667 -14.3667 3
      vertex 8.2 -17.3 3
      vertex 8.2 -14.3667 3
    endloop
  endfacet
  facet normal 0 0 1
    outer loop
      vertex 8.2 -17.3 3
      vertex 5.26667 -14.3667 3
      vertex 5.26667 -17.3 3
    endloop
  endfacet
  facet normal -0 0 1
    outer loop
      vertex -18.4167 -7.7 3
      vertex -15.4833 -10.5333 3
      vertex -15.4833 -7.7 3
    endloop
  endfacet
  facet normal 0 0 1
    outer loop
      vertex -15.4833 -10.5333 3
      vertex -18.4167 -7.7 3
      vertex -18.4167 -10.5333 3
    endloop
  endfacet
  facet normal -0 0 1
    outer loop
      vertex -15.0333 -7.7 3
      vertex -12.1 -10.5333 3
      vertex -12.1 -7.7 3
    endloop
  endfacet
  facet normal 0 0 1
    outer loop
      vertex -12.1 -10.5333 3
      vertex -15.0333 -7.7 3
      vertex -15.0333 -10.5333 3
    endloop
  endfacet
  facet normal -0 0 1
    outer loop
      vertex -11.65 -7.7 3
      vertex -8.71667 -10.5333 3
      vertex -8.71667 -7.7 3
    endloop
  endfacet
  facet normal 0 0 1
    outer loop
      vertex -8.71667 -10.5333 3
      vertex -11.65 -7.7 3
      vertex -11.65 -10.5333 3
    endloop
  endfacet
  facet normal -0 0 1
    outer loop
      vertex -8.26667 -7.7 3
      vertex -5.33333 -10.5333 3
      vertex -5.33333 -7.7 3
    endloop
  endfacet
  facet normal 0 0 1
    outer loop
      vertex -5.33333 -10.5333 3
      vertex -8.26667 -7.7 3
      vertex -8.26667 -10.5333 3
    endloop
  endfacet
  facet normal -0 0 1
    outer loop
      vertex -4.88333 -7.7 3
      vertex -1.95 -10.5333 3
      vertex -1.95 -7.7 3
    endloop
  endfacet
  facet normal 0 0 1
    outer loop
      vertex -1.95 -10.5333 3
      vertex -4.88333 -7.7 3
      vertex -4.88333 -10.5333 3
    endloop
  endfacet
  facet normal -0 0 1
    outer loop
      vertex -1.5 -7.7 3
      vertex 1.43333 -10.5333 3
      vertex 1.43333 -7.7 3
    endloop
  endfacet
  facet normal 0 0 1
    outer loop
      vertex 1.43333 -10.5333 3
      vertex -1.5 -7.7 3
      vertex -1.5 -10.5333 3
    endloop
  endfacet
  facet normal -0 0 1
    outer loop
      vertex 1.88333 -7.7 3
      vertex 4.81667 -10.5333 3
      vertex 4.81667 -7.7 3
    endloop
  endfacet
  facet normal 0 0 1
    outer loop
      vertex 4.81667 -10.5333 3
      vertex 1.88333 -7.7 3
      vertex 1.88333 -10.5333 3
    endloop
  endfacet
  facet normal -0 0 1
    outer loop
      vertex 5.26667 -7.7 3
      vertex 8.2 -10.5333 3
      vertex 8.2 -7.7 3
    endloop
  endfacet
  facet normal 0 0 1
    outer loop
      vertex 8.2 -10.5333 3
      vertex 5.26667 -7.7 3
      vertex 5.26667 -10.5333 3
    endloop
  endfacet
  facet normal -0 0 1
    outer loop
      vertex -18.4167 -10.9833 3
      vertex -15.4833 -13.9167 3
      vertex -15.4833 -10.9833 3
    endloop
  endfacet
  facet normal 0 0 1
    outer loop
      vertex -15.4833 -13.9167 3
      vertex -18.4167 -10.9833 3
      vertex -18.4167 -13.9167 3
    endloop
  endfacet
  facet normal -0 0 1
    outer loop
      vertex -15.0333 -10.9833 3
      vertex -12.1 -13.9167 3
      vertex -12.1 -10.9833 3
    endloop
  endfacet
  facet normal 0 0 1
    outer loop
      vertex -12.1 -13.9167 3
      vertex -15.0333 -10.9833 3
      vertex -15.0333 -13.9167 3
    endloop
  endfacet
  facet normal -0 0 1
    outer loop
      vertex -11.65 -10.9833 3
      vertex -8.71667 -13.9167 3
      vertex -8.71667 -10.9833 3
    endloop
  endfacet
  facet normal 0 0 1
    outer loop
      vertex -8.71667 -13.9167 3
      vertex -11.65 -10.9833 3
      vertex -11.65 -13.9167 3
    endloop
  endfacet
  facet normal -0 0 1
    outer loop
      vertex -8.26667 -10.9833 3
      vertex -5.33333 -13.9167 3
      vertex -5.33333 -10.9833 3
    endloop
  endfacet
  facet normal 0 0 1
    outer loop
      vertex -5.33333 -13.9167 3
      vertex -8.26667 -10.9833 3
      vertex -8.26667 -13.9167 3
    endloop
  endfacet
  facet normal -0 0 1
    outer loop
      vertex -4.88333 -10.9833 3
      vertex -1.95 -13.9167 3
      vertex -1.95 -10.9833 3
    endloop
  endfacet
  facet normal 0 0 1
    outer loop
      vertex -1.95 -13.9167 3
      vertex -4.88333 -10.9833 3
      vertex -4.88333 -13.9167 3
    endloop
  endfacet
  facet normal -0 0 1
    outer loop
      vertex -1.5 -10.9833 3
      vertex 1.43333 -13.9167 3
      vertex 1.43333 -10.9833 3
    endloop
  endfacet
  facet normal 0 0 1
    outer loop
      vertex 1.43333 -13.9167 3
      vertex -1.5 -10.9833 3
      vertex -1.5 -13.9167 3
    endloop
  endfacet
  facet normal -0 0 1
    outer loop
      vertex 1.88333 -10.9833 3
      vertex 4.81667 -13.9167 3
      vertex 4.81667 -10.9833 3
    endloop
  endfacet
  facet normal 0 0 1
    outer loop
      vertex 4.81667 -13.9167 3
      vertex 1.88333 -10.9833 3
      vertex 1.88333 -13.9167 3
    endloop
  endfacet
  facet normal -0 0 1
    outer loop
      vertex 5.26667 -10.9833 3
      vertex 8.2 -13.9167 3
      vertex 8.2 -10.9833 3
    endloop
  endfacet
  facet normal 0 0 1
    outer loop
      vertex 8.2 -13.9167 3
      vertex 5.26667 -10.9833 3
      vertex 5.26667 -13.9167 3
    endloop
  endfacet
  facet normal 1 -0 0
    outer loop
      vertex 8.2 -17.3 1
      vertex 8.2 -7.7 0
      vertex 8.2 -7.7 1
    endloop
  endfacet
  facet normal 1 0 0
    outer loop
      vertex 8.2 -7.7 0
      vertex 8.2 -17.3 1
      vertex 8.2 -17.3 0
    endloop
  endfacet
  facet normal 0 1 -0
    outer loop
      vertex 8.2 -7.7 1
      vertex 5.26667 -7.7 3
      vertex 8.2 -7.7 3
    endloop
  endfacet
  facet normal 0 1 0
    outer loop
      vertex 8.2 -7.7 1
      vertex 5.26667 -7.7 1
      vertex 5.26667 -7.7 3
    endloop
  endfacet
  facet normal 0 1 -0
    outer loop
      vertex 8.2 -7.7 0
      vertex 5.26667 -7.7 1
      vertex 8.2 -7.7 1
    endloop
  endfacet
  facet normal 0 1 0
    outer loop
      vertex 5.26667 -7.7 1
      vertex 8.2 -7.7 0
      vertex 4.81667 -7.7 1
    endloop
  endfacet
  facet normal 0 1 0
    outer loop
      vertex 4.81667 -7.7 1
      vertex 8.2 -7.7 0
      vertex 1.88333 -7.7 1
    endloop
  endfacet
  facet normal 0 1 0
    outer loop
      vertex 1.88333 -7.7 1
      vertex 8.2 -7.7 0
      vertex 1.43333 -7.7 1
    endloop
  endfacet
  facet normal 0 1 0
    outer loop
      vertex 1.43333 -7.7 1
      vertex 8.2 -7.7 0
      vertex -1.5 -7.7 1
    endloop
  endfacet
  facet normal 0 1 0
    outer loop
      vertex -1.5 -7.7 1
      vertex 8.2 -7.7 0
      vertex -1.95 -7.7 1
    endloop
  endfacet
  facet normal 0 1 0
    outer loop
      vertex -1.95 -7.7 1
      vertex 8.2 -7.7 0
      vertex -4.88333 -7.7 1
    endloop
  endfacet
  facet normal 0 1 0
    outer loop
      vertex -4.88333 -7.7 1
      vertex 8.2 -7.7 0
      vertex -5.33333 -7.7 1
    endloop
  endfacet
  facet normal 0 1 0
    outer loop
      vertex -5.33333 -7.7 1
      vertex 8.2 -7.7 0
      vertex -8.26667 -7.7 1
    endloop
  endfacet
  facet normal 0 1 0
    outer loop
      vertex -21.8 -7.7 0
      vertex -8.26667 -7.7 1
      vertex 8.2 -7.7 0
    endloop
  endfacet
  facet normal 0 1 0
    outer loop
      vertex -8.26667 -7.7 1
      vertex -21.8 -7.7 0
      vertex -8.71667 -7.7 1
    endloop
  endfacet
  facet normal 0 1 0
    outer loop
      vertex -8.71667 -7.7 1
      vertex -21.8 -7.7 0
      vertex -11.65 -7.7 1
    endloop
  endfacet
  facet normal 0 1 0
    outer loop
      vertex -11.65 -7.7 1
      vertex -21.8 -7.7 0
      vertex -12.1 -7.7 1
    endloop
  endfacet
  facet normal 0 1 0
    outer loop
      vertex -12.1 -7.7 1
      vertex -21.8 -7.7 0
      vertex -15.0333 -7.7 1
    endloop
  endfacet
  facet normal 0 1 0
    outer loop
      vertex -15.0333 -7.7 1
      vertex -21.8 -7.7 0
      vertex -15.4833 -7.7 1
    endloop
  endfacet
  facet normal 0 1 0
    outer loop
      vertex -15.4833 -7.7 1
      vertex -21.8 -7.7 0
      vertex -18.4167 -7.7 1
    endloop
  endfacet
  facet normal 0 1 -0
    outer loop
      vertex 4.81667 -7.7 1
      vertex 1.88333 -7.7 3
      vertex 4.81667 -7.7 3
    endloop
  endfacet
  facet normal 0 1 0
    outer loop
      vertex 1.88333 -7.7 3
      vertex 4.81667 -7.7 1
      vertex 1.88333 -7.7 1
    endloop
  endfacet
  facet normal 0 1 -0
    outer loop
      vertex 1.43333 -7.7 1
      vertex -1.5 -7.7 3
      vertex 1.43333 -7.7 3
    endloop
  endfacet
  facet normal 0 1 0
    outer loop
      vertex -1.5 -7.7 3
      vertex 1.43333 -7.7 1
      vertex -1.5 -7.7 1
    endloop
  endfacet
  facet normal 0 1 -0
    outer loop
      vertex -1.95 -7.7 1
      vertex -4.88333 -7.7 3
      vertex -1.95 -7.7 3
    endloop
  endfacet
  facet normal 0 1 0
    outer loop
      vertex -4.88333 -7.7 3
      vertex -1.95 -7.7 1
      vertex -4.88333 -7.7 1
    endloop
  endfacet
  facet normal 0 1 -0
    outer loop
      vertex -5.33333 -7.7 1
      vertex -8.26667 -7.7 3
      vertex -5.33333 -7.7 3
    endloop
  endfacet
  facet normal 0 1 0
    outer loop
      vertex -8.26667 -7.7 3
      vertex -5.33333 -7.7 1
      vertex -8.26667 -7.7 1
    endloop
  endfacet
  facet normal 0 1 -0
    outer loop
      vertex -8.71667 -7.7 1
      vertex -11.65 -7.7 3
      vertex -8.71667 -7.7 3
    endloop
  endfacet
  facet normal 0 1 0
    outer loop
      vertex -11.65 -7.7 3
      vertex -8.71667 -7.7 1
      vertex -11.65 -7.7 1
    endloop
  endfacet
  facet normal 0 1 -0
    outer loop
      vertex -12.1 -7.7 1
      vertex -15.0333 -7.7 3
      vertex -12.1 -7.7 3
    endloop
  endfacet
  facet normal 0 1 0
    outer loop
      vertex -15.0333 -7.7 3
      vertex -12.1 -7.7 1
      vertex -15.0333 -7.7 1
    endloop
  endfacet
  facet normal 0 1 -0
    outer loop
      vertex -15.4833 -7.7 1
      vertex -18.4167 -7.7 3
      vertex -15.4833 -7.7 3
    endloop
  endfacet
  facet normal 0 1 0
    outer loop
      vertex -18.4167 -7.7 3
      vertex -15.4833 -7.7 1
      vertex -18.4167 -7.7 1
    endloop
  endfacet
  facet normal 0 1 -0
    outer loop
      vertex -18.8667 -7.7 1
      vertex -21.8 -7.7 3
      vertex -18.8667 -7.7 3
    endloop
  endfacet
  facet normal 0 1 0
    outer loop
      vertex -18.8667 -7.7 1
      vertex -21.8 -7.7 0
      vertex -21.8 -7.7 3
    endloop
  endfacet
  facet normal 0 1 0
    outer loop
      vertex -18.4167 -7.7 1
      vertex -21.8 -7.7 0
      vertex -18.8667 -7.7 1
    endloop
  endfacet
  facet normal 0 0 -1
    outer loop
      vertex 2.95 -20.53 0
      vertex -16.55 -20.53 0
      vertex 2.95 -17.3 0
    endloop
  endfacet
  facet normal 0 0 -1
    outer loop
      vertex 2.95 -17.3 0
      vertex 8.2 -7.7 0
      vertex 8.2 -17.3 0
    endloop
  endfacet
  facet normal 0 0 -1
    outer loop
      vertex -16.55 -17.3 0
      vertex 2.95 -17.3 0
      vertex -16.55 -20.53 0
    endloop
  endfacet
  facet normal 0 0 -1
    outer loop
      vertex 2.95 -17.3 0
      vertex -16.55 -17.3 0
      vertex 8.2 -7.7 0
    endloop
  endfacet
  facet normal 0 0 -1
    outer loop
      vertex -21.8 -7.7 0
      vertex -16.55 -17.3 0
      vertex -21.8 -17.3 0
    endloop
  endfacet
  facet normal 0 0 -1
    outer loop
      vertex -16.55 -17.3 0
      vertex -21.8 -7.7 0
      vertex 8.2 -7.7 0
    endloop
  endfacet
  facet normal 0 -1 0
    outer loop
      vertex 2.95 -17.3 3
      vertex 4.81667 -17.3 1
      vertex 4.81667 -17.3 3
    endloop
  endfacet
  facet normal 0 -1 0
    outer loop
      vertex 2.95 -17.3 0
      vertex 5.26667 -17.3 1
      vertex 4.81667 -17.3 1
    endloop
  endfacet
  facet normal 0 -1 0
    outer loop
      vertex 2.95 -17.3 0
      vertex 4.81667 -17.3 1
      vertex 2.95 -17.3 3
    endloop
  endfacet
  facet normal 0 -1 -0
    outer loop
      vertex 5.26667 -17.3 1
      vertex 2.95 -17.3 0
      vertex 8.2 -17.3 0
    endloop
  endfacet
  facet normal 0 -1 0
    outer loop
      vertex 5.26667 -17.3 1
      vertex 8.2 -17.3 0
      vertex 8.2 -17.3 1
    endloop
  endfacet
  facet normal 0 -1 0
    outer loop
      vertex 5.26667 -17.3 1
      vertex 8.2 -17.3 3
      vertex 5.26667 -17.3 3
    endloop
  endfacet
  facet normal 0 -1 -0
    outer loop
      vertex 8.2 -17.3 3
      vertex 5.26667 -17.3 1
      vertex 8.2 -17.3 1
    endloop
  endfacet
  facet normal 0 -1 0
    outer loop
      vertex -21.8 -17.3 3
      vertex -18.8667 -17.3 1
      vertex -18.8667 -17.3 3
    endloop
  endfacet
  facet normal 0 -1 0
    outer loop
      vertex -16.55 -17.3 0
      vertex -18.8667 -17.3 1
      vertex -21.8 -17.3 0
    endloop
  endfacet
  facet normal 0 -1 0
    outer loop
      vertex -21.8 -17.3 0
      vertex -18.8667 -17.3 1
      vertex -21.8 -17.3 3
    endloop
  endfacet
  facet normal 0 -1 0
    outer loop
      vertex -18.4167 -17.3 1
      vertex -16.55 -17.3 3
      vertex -18.4167 -17.3 3
    endloop
  endfacet
  facet normal 0 -1 0
    outer loop
      vertex -18.4167 -17.3 1
      vertex -16.55 -17.3 0
      vertex -16.55 -17.3 3
    endloop
  endfacet
  facet normal 0 -1 0
    outer loop
      vertex -18.8667 -17.3 1
      vertex -16.55 -17.3 0
      vertex -18.4167 -17.3 1
    endloop
  endfacet
  facet normal -1 0 0
    outer loop
      vertex -16.55 -17.3 0
      vertex -16.55 -17.75 1
      vertex -16.55 -17.3 1
    endloop
  endfacet
  facet normal -1 0 0
    outer loop
      vertex -16.55 -20.53 0
      vertex -16.55 -17.75 1
      vertex -16.55 -17.3 0
    endloop
  endfacet
  facet normal -1 0 0
    outer loop
      vertex -16.55 -20.53 3
      vertex -16.55 -17.75 1
      vertex -16.55 -20.53 0
    endloop
  endfacet
  facet normal -1 0 0
    outer loop
      vertex -16.55 -17.75 1
      vertex -16.55 -20.53 3
      vertex -16.55 -17.75 3
    endloop
  endfacet
  facet normal 0 0 0
    outer loop
      vertex -16.55 -17.3 0
      vertex -16.55 -17.3 1
      vertex -16.55 -17.3 3
    endloop
  endfacet
  facet normal 1 0 0
    outer loop
      vertex 2.95 -17.75 3
      vertex 2.95 -20.53 3
      vertex 2.95 -17.75 1
    endloop
  endfacet
  facet normal 1 -0 0
    outer loop
      vertex 2.95 -17.75 1
      vertex 2.95 -17.3 0
      vertex 2.95 -17.3 1
    endloop
  endfacet
  facet normal 1 0 0
    outer loop
      vertex 2.95 -20.53 0
      vertex 2.95 -17.75 1
      vertex 2.95 -20.53 3
    endloop
  endfacet
  facet normal 1 0 0
    outer loop
      vertex 2.95 -17.75 1
      vertex 2.95 -20.53 0
      vertex 2.95 -17.3 0
    endloop
  endfacet
  facet normal 0 0 0
    outer loop
      vertex 2.95 -17.3 0
      vertex 2.95 -17.3 3
      vertex 2.95 -17.3 1
    endloop
  endfacet
  facet normal 0 -1 0
    outer loop
      vertex -16.55 -20.53 0
      vertex 2.95 -20.53 3
      vertex -16.55 -20.53 3
    endloop
  endfacet
  facet normal 0 -1 -0
    outer loop
      vertex 2.95 -20.53 3
      vertex -16.55 -20.53 0
      vertex 2.95 -20.53 0
    endloop
  endfacet
  facet normal -1 0 0
    outer loop
      vertex 11.9 -7.75333 0
      vertex 11.9 -10.5333 1
      vertex 11.9 -7.75333 3
    endloop
  endfacet
  facet normal -1 0 0
    outer loop
      vertex 11.9 -7.75333 0
      vertex 11.9 -10.9833 1
      vertex 11.9 -10.5333 1
    endloop
  endfacet
  facet normal -1 0 0
    outer loop
      vertex 11.9 -10.9833 1
      vertex 11.9 -13.9167 1
      vertex 11.9 -10.9833 3
    endloop
  endfacet
  facet normal -1 0 0
    outer loop
      vertex 11.9 -7.75333 0
      vertex 11.9 -13.9167 1
      vertex 11.9 -10.9833 1
    endloop
  endfacet
  facet normal -1 0 0
    outer loop
      vertex 11.9 -7.75333 0
      vertex 11.9 -14.3667 1
      vertex 11.9 -13.9167 1
    endloop
  endfacet
  facet normal -1 0 0
    outer loop
      vertex 11.9 -14.3667 1
      vertex 11.9 -17.3 1
      vertex 11.9 -14.3667 3
    endloop
  endfacet
  facet normal -1 0 0
    outer loop
      vertex 11.9 -20.4833 0
      vertex 11.9 -14.3667 1
      vertex 11.9 -7.75333 0
    endloop
  endfacet
  facet normal -1 -0 0
    outer loop
      vertex 11.9 -14.3667 1
      vertex 11.9 -20.4833 0
      vertex 11.9 -17.3 1
    endloop
  endfacet
  facet normal -1 -0 0
    outer loop
      vertex 11.9 -17.3 1
      vertex 11.9 -20.4833 0
      vertex 11.9 -17.75 1
    endloop
  endfacet
  facet normal -1 0 0
    outer loop
      vertex 11.9 -20.4833 3
      vertex 11.9 -17.75 1
      vertex 11.9 -20.4833 0
    endloop
  endfacet
  facet normal -1 0 0
    outer loop
      vertex 11.9 -17.75 1
      vertex 11.9 -20.4833 3
      vertex 11.9 -17.75 3
    endloop
  endfacet
  facet normal -1 -0 0
    outer loop
      vertex 11.9 -7.75333 3
      vertex 11.9 -10.5333 1
      vertex 11.9 -10.5333 3
    endloop
  endfacet
  facet normal -1 -0 0
    outer loop
      vertex 11.9 -10.9833 3
      vertex 11.9 -13.9167 1
      vertex 11.9 -13.9167 3
    endloop
  endfacet
  facet normal -1 -0 0
    outer loop
      vertex 11.9 -14.3667 3
      vertex 11.9 -17.3 1
      vertex 11.9 -17.3 3
    endloop
  endfacet
  facet normal -0 0 1
    outer loop
      vertex 18.5833 -17.75 3
      vertex 21.35 -20.4833 3
      vertex 21.35 -17.75 3
    endloop
  endfacet
  facet normal 0 0 1
    outer loop
      vertex 21.35 -20.4833 3
      vertex 18.5833 -17.75 3
      vertex 18.5833 -20.4833 3
    endloop
  endfacet
  facet normal -0 0 1
    outer loop
      vertex 11.9 -17.75 3
      vertex 14.75 -20.4833 3
      vertex 14.75 -17.75 3
    endloop
  endfacet
  facet normal 0 0 1
    outer loop
      vertex 14.75 -20.4833 3
      vertex 11.9 -17.75 3
      vertex 11.9 -20.4833 3
    endloop
  endfacet
  facet normal -0 0 1
    outer loop
      vertex 18.5833 -7.75333 3
      vertex 21.35 -10.5333 3
      vertex 21.35 -7.75333 3
    endloop
  endfacet
  facet normal 0 0 1
    outer loop
      vertex 21.35 -10.5333 3
      vertex 18.5833 -7.75333 3
      vertex 18.5833 -10.5333 3
    endloop
  endfacet
  facet normal -0 0 1
    outer loop
      vertex 11.9 -7.75333 3
      vertex 14.75 -10.5333 3
      vertex 14.75 -7.75333 3
    endloop
  endfacet
  facet normal 0 0 1
    outer loop
      vertex 14.75 -10.5333 3
      vertex 11.9 -7.75333 3
      vertex 11.9 -10.5333 3
    endloop
  endfacet
  facet normal -0 0 1
    outer loop
      vertex 11.9 -14.3667 3
      vertex 14.75 -17.3 3
      vertex 14.75 -14.3667 3
    endloop
  endfacet
  facet normal 0 0 1
    outer loop
      vertex 14.75 -17.3 3
      vertex 11.9 -14.3667 3
      vertex 11.9 -17.3 3
    endloop
  endfacet
  facet normal -0 0 1
    outer loop
      vertex 18.5833 -14.3667 3
      vertex 21.35 -17.3 3
      vertex 21.35 -14.3667 3
    endloop
  endfacet
  facet normal 0 0 1
    outer loop
      vertex 21.35 -17.3 3
      vertex 18.5833 -14.3667 3
      vertex 18.5833 -17.3 3
    endloop
  endfacet
  facet normal -0 0 1
    outer loop
      vertex 11.9 -10.9833 3
      vertex 14.75 -13.9167 3
      vertex 14.75 -10.9833 3
    endloop
  endfacet
  facet normal 0 0 1
    outer loop
      vertex 14.75 -13.9167 3
      vertex 11.9 -10.9833 3
      vertex 11.9 -13.9167 3
    endloop
  endfacet
  facet normal -0 0 1
    outer loop
      vertex 18.5833 -10.9833 3
      vertex 21.35 -13.9167 3
      vertex 21.35 -10.9833 3
    endloop
  endfacet
  facet normal 0 0 1
    outer loop
      vertex 21.35 -13.9167 3
      vertex 18.5833 -10.9833 3
      vertex 18.5833 -13.9167 3
    endloop
  endfacet
  facet normal -0 0 1
    outer loop
      vertex 15.2 -17.75 3
      vertex 18.1333 -20.4833 3
      vertex 18.1333 -17.75 3
    endloop
  endfacet
  facet normal 0 0 1
    outer loop
      vertex 18.1333 -20.4833 3
      vertex 15.2 -17.75 3
      vertex 15.2 -20.4833 3
    endloop
  endfacet
  facet normal -0 0 1
    outer loop
      vertex 15.2 -7.75333 3
      vertex 18.1333 -10.5333 3
      vertex 18.1333 -7.75333 3
    endloop
  endfacet
  facet normal 0 0 1
    outer loop
      vertex 18.1333 -10.5333 3
      vertex 15.2 -7.75333 3
      vertex 15.2 -10.5333 3
    endloop
  endfacet
  facet normal -0 0 1
    outer loop
      vertex 15.2 -14.3667 3
      vertex 18.1333 -17.3 3
      vertex 18.1333 -14.3667 3
    endloop
  endfacet
  facet normal 0 0 1
    outer loop
      vertex 18.1333 -17.3 3
      vertex 15.2 -14.3667 3
      vertex 15.2 -17.3 3
    endloop
  endfacet
  facet normal -0 0 1
    outer loop
      vertex 15.2 -10.9833 3
      vertex 18.1333 -13.9167 3
      vertex 18.1333 -10.9833 3
    endloop
  endfacet
  facet normal 0 0 1
    outer loop
      vertex 18.1333 -13.9167 3
      vertex 15.2 -10.9833 3
      vertex 15.2 -13.9167 3
    endloop
  endfacet
  facet normal 1 0 0
    outer loop
      vertex 21.35 -17.75 3
      vertex 21.35 -20.4833 3
      vertex 21.35 -17.75 1
    endloop
  endfacet
  facet normal 1 0 0
    outer loop
      vertex 21.35 -14.3667 3
      vertex 21.35 -17.3 3
      vertex 21.35 -14.3667 1
    endloop
  endfacet
  facet normal 1 0 0
    outer loop
      vertex 21.35 -10.9833 3
      vertex 21.35 -13.9167 3
      vertex 21.35 -10.9833 1
    endloop
  endfacet
  facet normal 1 0 0
    outer loop
      vertex 21.35 -10.5333 1
      vertex 21.35 -7.75333 3
      vertex 21.35 -10.5333 3
    endloop
  endfacet
  facet normal 1 0 0
    outer loop
      vertex 21.35 -7.75333 3
      vertex 21.35 -10.5333 1
      vertex 21.35 -7.75333 0
    endloop
  endfacet
  facet normal 1 -0 0
    outer loop
      vertex 21.35 -10.9833 1
      vertex 21.35 -7.75333 0
      vertex 21.35 -10.5333 1
    endloop
  endfacet
  facet normal 1 0 0
    outer loop
      vertex 21.35 -13.9167 1
      vertex 21.35 -10.9833 1
      vertex 21.35 -13.9167 3
    endloop
  endfacet
  facet normal 1 -0 0
    outer loop
      vertex 21.35 -13.9167 1
      vertex 21.35 -7.75333 0
      vertex 21.35 -10.9833 1
    endloop
  endfacet
  facet normal 1 -0 0
    outer loop
      vertex 21.35 -14.3667 1
      vertex 21.35 -7.75333 0
      vertex 21.35 -13.9167 1
    endloop
  endfacet
  facet normal 1 0 0
    outer loop
      vertex 21.35 -17.3 1
      vertex 21.35 -14.3667 1
      vertex 21.35 -17.3 3
    endloop
  endfacet
  facet normal 1 0 0
    outer loop
      vertex 21.35 -20.4833 0
      vertex 21.35 -14.3667 1
      vertex 21.35 -17.3 1
    endloop
  endfacet
  facet normal 1 0 0
    outer loop
      vertex 21.35 -20.4833 0
      vertex 21.35 -17.3 1
      vertex 21.35 -17.75 1
    endloop
  endfacet
  facet normal 1 0 0
    outer loop
      vertex 21.35 -14.3667 1
      vertex 21.35 -20.4833 0
      vertex 21.35 -7.75333 0
    endloop
  endfacet
  facet normal 1 0 0
    outer loop
      vertex 21.35 -20.4833 0
      vertex 21.35 -17.75 1
      vertex 21.35 -20.4833 3
    endloop
  endfacet
  facet normal 0 1 0
    outer loop
      vertex 21.35 -7.75333 3
      vertex 18.5833 -7.75333 1
      vertex 18.5833 -7.75333 3
    endloop
  endfacet
  facet normal 0 1 0
    outer loop
      vertex 21.35 -7.75333 0
      vertex 18.1333 -7.75333 1
      vertex 18.5833 -7.75333 1
    endloop
  endfacet
  facet normal 0 1 0
    outer loop
      vertex 18.1333 -7.75333 1
      vertex 21.35 -7.75333 0
      vertex 15.2 -7.75333 1
    endloop
  endfacet
  facet normal 0 1 0
    outer loop
      vertex 11.9 -7.75333 0
      vertex 15.2 -7.75333 1
      vertex 21.35 -7.75333 0
    endloop
  endfacet
  facet normal 0 1 -0
    outer loop
      vertex 21.35 -7.75333 0
      vertex 18.5833 -7.75333 1
      vertex 21.35 -7.75333 3
    endloop
  endfacet
  facet normal 0 1 -0
    outer loop
      vertex 18.1333 -7.75333 1
      vertex 15.2 -7.75333 3
      vertex 18.1333 -7.75333 3
    endloop
  endfacet
  facet normal 0 1 0
    outer loop
      vertex 15.2 -7.75333 3
      vertex 18.1333 -7.75333 1
      vertex 15.2 -7.75333 1
    endloop
  endfacet
  facet normal 0 1 -0
    outer loop
      vertex 14.75 -7.75333 1
      vertex 11.9 -7.75333 3
      vertex 14.75 -7.75333 3
    endloop
  endfacet
  facet normal 0 1 0
    outer loop
      vertex 14.75 -7.75333 1
      vertex 11.9 -7.75333 0
      vertex 11.9 -7.75333 3
    endloop
  endfacet
  facet normal 0 1 0
    outer loop
      vertex 15.2 -7.75333 1
      vertex 11.9 -7.75333 0
      vertex 14.75 -7.75333 1
    endloop
  endfacet
  facet normal 0 0 -1
    outer loop
      vertex 11.9 -20.4833 0
      vertex 21.35 -7.75333 0
      vertex 21.35 -20.4833 0
    endloop
  endfacet
  facet normal -0 0 -1
    outer loop
      vertex 21.35 -7.75333 0
      vertex 11.9 -20.4833 0
      vertex 11.9 -7.75333 0
    endloop
  endfacet
  facet normal 0 -1 0
    outer loop
      vertex 11.9 -20.4833 3
      vertex 14.75 -20.4833 1
      vertex 14.75 -20.4833 3
    endloop
  endfacet
  facet normal 0 -1 0
    outer loop
      vertex 11.9 -20.4833 0
      vertex 15.2 -20.4833 1
      vertex 14.75 -20.4833 1
    endloop
  endfacet
  facet normal 0 -1 -0
    outer loop
      vertex 15.2 -20.4833 1
      vertex 11.9 -20.4833 0
      vertex 18.1333 -20.4833 1
    endloop
  endfacet
  facet normal 0 -1 0
    outer loop
      vertex 21.35 -20.4833 0
      vertex 18.1333 -20.4833 1
      vertex 11.9 -20.4833 0
    endloop
  endfacet
  facet normal 0 -1 0
    outer loop
      vertex 11.9 -20.4833 0
      vertex 14.75 -20.4833 1
      vertex 11.9 -20.4833 3
    endloop
  endfacet
  facet normal 0 -1 0
    outer loop
      vertex 15.2 -20.4833 1
      vertex 18.1333 -20.4833 3
      vertex 15.2 -20.4833 3
    endloop
  endfacet
  facet normal 0 -1 -0
    outer loop
      vertex 18.1333 -20.4833 3
      vertex 15.2 -20.4833 1
      vertex 18.1333 -20.4833 1
    endloop
  endfacet
  facet normal 0 -1 0
    outer loop
      vertex 18.5833 -20.4833 1
      vertex 21.35 -20.4833 3
      vertex 18.5833 -20.4833 3
    endloop
  endfacet
  facet normal 0 -1 0
    outer loop
      vertex 18.5833 -20.4833 1
      vertex 21.35 -20.4833 0
      vertex 21.35 -20.4833 3
    endloop
  endfacet
  facet normal 0 -1 0
    outer loop
      vertex 18.1333 -20.4833 1
      vertex 21.35 -20.4833 0
      vertex 18.5833 -20.4833 1
    endloop
  endfacet
  facet normal 0 -1 0
    outer loop
      vertex -16.55 -17.3 1
      vertex 2.95 -17.3 3
      vertex -16.55 -17.3 3
    endloop
  endfacet
  facet normal 0 -1 -0
    outer loop
      vertex 2.95 -17.3 3
      vertex -16.55 -17.3 1
      vertex 2.95 -17.3 1
    endloop
  endfacet
  facet normal 0 -1 0
    outer loop
      vertex 11.9 -17.3 1
      vertex 14.75 -17.3 3
      vertex 11.9 -17.3 3
    endloop
  endfacet
  facet normal 0 -1 -0
    outer loop
      vertex 14.75 -17.3 3
      vertex 11.9 -17.3 1
      vertex 14.75 -17.3 1
    endloop
  endfacet
  facet normal 0 -1 0
    outer loop
      vertex 18.5833 -17.3 1
      vertex 21.35 -17.3 3
      vertex 18.5833 -17.3 3
    endloop
  endfacet
  facet normal 0 -1 -0
    outer loop
      vertex 21.35 -17.3 3
      vertex 18.5833 -17.3 1
      vertex 21.35 -17.3 1
    endloop
  endfacet
  facet normal 0 -1 0
    outer loop
      vertex 15.2 -17.3 1
      vertex 18.1333 -17.3 3
      vertex 15.2 -17.3 3
    endloop
  endfacet
  facet normal 0 -1 -0
    outer loop
      vertex 18.1333 -17.3 3
      vertex 15.2 -17.3 1
      vertex 18.1333 -17.3 1
    endloop
  endfacet
  facet normal -0 0 1
    outer loop
      vertex -21.8 -13.9167 1
      vertex -18.8667 -14.3667 1
      vertex -18.8667 -13.9167 1
    endloop
  endfacet
  facet normal 0 0 1
    outer loop
      vertex -18.8667 -14.3667 1
      vertex -21.8 -13.9167 1
      vertex -21.8 -14.3667 1
    endloop
  endfacet
  facet normal -0 0 1
    outer loop
      vertex -21.8 -10.5333 1
      vertex -18.8667 -10.9833 1
      vertex -18.8667 -10.5333 1
    endloop
  endfacet
  facet normal 0 0 1
    outer loop
      vertex -18.8667 -10.9833 1
      vertex -21.8 -10.5333 1
      vertex -21.8 -10.9833 1
    endloop
  endfacet
  facet normal 0 0 1
    outer loop
      vertex -18.8667 -10.5333 1
      vertex -18.4167 -10.5333 1
      vertex -18.4167 -7.7 1
    endloop
  endfacet
  facet normal 0 0 1
    outer loop
      vertex -18.4167 -10.5333 1
      vertex -18.8667 -10.5333 1
      vertex -18.4167 -10.9833 1
    endloop
  endfacet
  facet normal 0 0 1
    outer loop
      vertex -18.4167 -10.9833 1
      vertex -18.8667 -10.9833 1
      vertex -18.4167 -13.9167 1
    endloop
  endfacet
  facet normal 0 0 1
    outer loop
      vertex -18.8667 -13.9167 1
      vertex -18.4167 -13.9167 1
      vertex -18.8667 -10.9833 1
    endloop
  endfacet
  facet normal 0 0 1
    outer loop
      vertex -18.8667 -10.5333 1
      vertex -18.4167 -7.7 1
      vertex -18.8667 -7.7 1
    endloop
  endfacet
  facet normal 0 0 1
    outer loop
      vertex -18.4167 -10.9833 1
      vertex -18.8667 -10.5333 1
      vertex -18.8667 -10.9833 1
    endloop
  endfacet
  facet normal 0 0 1
    outer loop
      vertex -18.4167 -13.9167 1
      vertex -18.8667 -13.9167 1
      vertex -18.4167 -14.3667 1
    endloop
  endfacet
  facet normal 0 0 1
    outer loop
      vertex -18.8667 -14.3667 1
      vertex -18.4167 -14.3667 1
      vertex -18.8667 -13.9167 1
    endloop
  endfacet
  facet normal 0 0 1
    outer loop
      vertex -18.4167 -14.3667 1
      vertex -18.8667 -14.3667 1
      vertex -18.4167 -17.3 1
    endloop
  endfacet
  facet normal 0 0 1
    outer loop
      vertex -18.4167 -17.3 1
      vertex -18.8667 -14.3667 1
      vertex -18.8667 -17.3 1
    endloop
  endfacet
  facet normal -0 0 1
    outer loop
      vertex -18.4167 -13.9167 1
      vertex -15.4833 -14.3667 1
      vertex -15.4833 -13.9167 1
    endloop
  endfacet
  facet normal 0 0 1
    outer loop
      vertex -15.4833 -14.3667 1
      vertex -18.4167 -13.9167 1
      vertex -18.4167 -14.3667 1
    endloop
  endfacet
  facet normal -0 0 1
    outer loop
      vertex -18.4167 -10.5333 1
      vertex -15.4833 -10.9833 1
      vertex -15.4833 -10.5333 1
    endloop
  endfacet
  facet normal 0 0 1
    outer loop
      vertex -15.4833 -10.9833 1
      vertex -18.4167 -10.5333 1
      vertex -18.4167 -10.9833 1
    endloop
  endfacet
  facet normal 0 0 1
    outer loop
      vertex -15.4833 -10.5333 1
      vertex -15.0333 -10.5333 1
      vertex -15.0333 -7.7 1
    endloop
  endfacet
  facet normal 0 0 1
    outer loop
      vertex -15.0333 -10.5333 1
      vertex -15.4833 -10.5333 1
      vertex -15.0333 -10.9833 1
    endloop
  endfacet
  facet normal 0 0 1
    outer loop
      vertex -15.0333 -10.9833 1
      vertex -15.4833 -10.9833 1
      vertex -15.0333 -13.9167 1
    endloop
  endfacet
  facet normal 0 0 1
    outer loop
      vertex -15.4833 -13.9167 1
      vertex -15.0333 -13.9167 1
      vertex -15.4833 -10.9833 1
    endloop
  endfacet
  facet normal 0 0 1
    outer loop
      vertex -15.4833 -10.5333 1
      vertex -15.0333 -7.7 1
      vertex -15.4833 -7.7 1
    endloop
  endfacet
  facet normal 0 0 1
    outer loop
      vertex -15.0333 -10.9833 1
      vertex -15.4833 -10.5333 1
      vertex -15.4833 -10.9833 1
    endloop
  endfacet
  facet normal 0 0 1
    outer loop
      vertex -15.0333 -13.9167 1
      vertex -15.4833 -13.9167 1
      vertex -15.0333 -14.3667 1
    endloop
  endfacet
  facet normal 0 0 1
    outer loop
      vertex -15.4833 -14.3667 1
      vertex -15.0333 -14.3667 1
      vertex -15.4833 -13.9167 1
    endloop
  endfacet
  facet normal 0 0 1
    outer loop
      vertex -15.0333 -14.3667 1
      vertex -15.4833 -14.3667 1
      vertex -15.0333 -17.3 1
    endloop
  endfacet
  facet normal 0 0 1
    outer loop
      vertex -15.0333 -17.3 1
      vertex -15.4833 -14.3667 1
      vertex -15.4833 -17.3 1
    endloop
  endfacet
  facet normal -0 0 1
    outer loop
      vertex -15.0333 -13.9167 1
      vertex -12.1 -14.3667 1
      vertex -12.1 -13.9167 1
    endloop
  endfacet
  facet normal 0 0 1
    outer loop
      vertex -12.1 -14.3667 1
      vertex -15.0333 -13.9167 1
      vertex -15.0333 -14.3667 1
    endloop
  endfacet
  facet normal -0 0 1
    outer loop
      vertex -15.0333 -10.5333 1
      vertex -12.1 -10.9833 1
      vertex -12.1 -10.5333 1
    endloop
  endfacet
  facet normal 0 0 1
    outer loop
      vertex -12.1 -10.9833 1
      vertex -15.0333 -10.5333 1
      vertex -15.0333 -10.9833 1
    endloop
  endfacet
  facet normal 0 0 1
    outer loop
      vertex -12.1 -10.5333 1
      vertex -11.65 -10.5333 1
      vertex -11.65 -7.7 1
    endloop
  endfacet
  facet normal 0 0 1
    outer loop
      vertex -11.65 -10.5333 1
      vertex -12.1 -10.5333 1
      vertex -11.65 -10.9833 1
    endloop
  endfacet
  facet normal 0 0 1
    outer loop
      vertex -11.65 -10.9833 1
      vertex -12.1 -10.9833 1
      vertex -11.65 -13.9167 1
    endloop
  endfacet
  facet normal 0 0 1
    outer loop
      vertex -12.1 -13.9167 1
      vertex -11.65 -13.9167 1
      vertex -12.1 -10.9833 1
    endloop
  endfacet
  facet normal 0 0 1
    outer loop
      vertex -12.1 -10.5333 1
      vertex -11.65 -7.7 1
      vertex -12.1 -7.7 1
    endloop
  endfacet
  facet normal 0 0 1
    outer loop
      vertex -11.65 -10.9833 1
      vertex -12.1 -10.5333 1
      vertex -12.1 -10.9833 1
    endloop
  endfacet
  facet normal 0 0 1
    outer loop
      vertex -11.65 -13.9167 1
      vertex -12.1 -13.9167 1
      vertex -11.65 -14.3667 1
    endloop
  endfacet
  facet normal 0 0 1
    outer loop
      vertex -12.1 -14.3667 1
      vertex -11.65 -14.3667 1
      vertex -12.1 -13.9167 1
    endloop
  endfacet
  facet normal 0 0 1
    outer loop
      vertex -11.65 -14.3667 1
      vertex -12.1 -14.3667 1
      vertex -11.65 -17.3 1
    endloop
  endfacet
  facet normal 0 0 1
    outer loop
      vertex -11.65 -17.3 1
      vertex -12.1 -14.3667 1
      vertex -12.1 -17.3 1
    endloop
  endfacet
  facet normal -0 0 1
    outer loop
      vertex -11.65 -13.9167 1
      vertex -8.71667 -14.3667 1
      vertex -8.71667 -13.9167 1
    endloop
  endfacet
  facet normal 0 0 1
    outer loop
      vertex -8.71667 -14.3667 1
      vertex -11.65 -13.9167 1
      vertex -11.65 -14.3667 1
    endloop
  endfacet
  facet normal -0 0 1
    outer loop
      vertex -11.65 -10.5333 1
      vertex -8.71667 -10.9833 1
      vertex -8.71667 -10.5333 1
    endloop
  endfacet
  facet normal 0 0 1
    outer loop
      vertex -8.71667 -10.9833 1
      vertex -11.65 -10.5333 1
      vertex -11.65 -10.9833 1
    endloop
  endfacet
  facet normal 0 0 1
    outer loop
      vertex -8.71667 -10.5333 1
      vertex -8.26667 -10.5333 1
      vertex -8.26667 -7.7 1
    endloop
  endfacet
  facet normal 0 0 1
    outer loop
      vertex -8.26667 -10.5333 1
      vertex -8.71667 -10.5333 1
      vertex -8.26667 -10.9833 1
    endloop
  endfacet
  facet normal 0 0 1
    outer loop
      vertex -8.26667 -10.9833 1
      vertex -8.71667 -10.9833 1
      vertex -8.26667 -13.9167 1
    endloop
  endfacet
  facet normal 0 0 1
    outer loop
      vertex -8.71667 -13.9167 1
      vertex -8.26667 -13.9167 1
      vertex -8.71667 -10.9833 1
    endloop
  endfacet
  facet normal 0 0 1
    outer loop
      vertex -8.71667 -10.5333 1
      vertex -8.26667 -7.7 1
      vertex -8.71667 -7.7 1
    endloop
  endfacet
  facet normal 0 0 1
    outer loop
      vertex -8.26667 -10.9833 1
      vertex -8.71667 -10.5333 1
      vertex -8.71667 -10.9833 1
    endloop
  endfacet
  facet normal 0 0 1
    outer loop
      vertex -8.26667 -13.9167 1
      vertex -8.71667 -13.9167 1
      vertex -8.26667 -14.3667 1
    endloop
  endfacet
  facet normal 0 0 1
    outer loop
      vertex -8.71667 -14.3667 1
      vertex -8.26667 -14.3667 1
      vertex -8.71667 -13.9167 1
    endloop
  endfacet
  facet normal 0 0 1
    outer loop
      vertex -8.26667 -14.3667 1
      vertex -8.71667 -14.3667 1
      vertex -8.26667 -17.3 1
    endloop
  endfacet
  facet normal 0 0 1
    outer loop
      vertex -8.26667 -17.3 1
      vertex -8.71667 -14.3667 1
      vertex -8.71667 -17.3 1
    endloop
  endfacet
  facet normal -0 0 1
    outer loop
      vertex -8.26667 -13.9167 1
      vertex -5.33333 -14.3667 1
      vertex -5.33333 -13.9167 1
    endloop
  endfacet
  facet normal 0 0 1
    outer loop
      vertex -5.33333 -14.3667 1
      vertex -8.26667 -13.9167 1
      vertex -8.26667 -14.3667 1
    endloop
  endfacet
  facet normal -0 0 1
    outer loop
      vertex -8.26667 -10.5333 1
      vertex -5.33333 -10.9833 1
      vertex -5.33333 -10.5333 1
    endloop
  endfacet
  facet normal 0 0 1
    outer loop
      vertex -5.33333 -10.9833 1
      vertex -8.26667 -10.5333 1
      vertex -8.26667 -10.9833 1
    endloop
  endfacet
  facet normal 0 0 1
    outer loop
      vertex -5.33333 -10.5333 1
      vertex -4.88333 -10.5333 1
      vertex -4.88333 -7.7 1
    endloop
  endfacet
  facet normal 0 0 1
    outer loop
      vertex -4.88333 -10.5333 1
      vertex -5.33333 -10.5333 1
      vertex -4.88333 -10.9833 1
    endloop
  endfacet
  facet normal 0 0 1
    outer loop
      vertex -4.88333 -10.9833 1
      vertex -5.33333 -10.9833 1
      vertex -4.88333 -13.9167 1
    endloop
  endfacet
  facet normal 0 0 1
    outer loop
      vertex -5.33333 -13.9167 1
      vertex -4.88333 -13.9167 1
      vertex -5.33333 -10.9833 1
    endloop
  endfacet
  facet normal 0 0 1
    outer loop
      vertex -5.33333 -10.5333 1
      vertex -4.88333 -7.7 1
      vertex -5.33333 -7.7 1
    endloop
  endfacet
  facet normal 0 0 1
    outer loop
      vertex -4.88333 -10.9833 1
      vertex -5.33333 -10.5333 1
      vertex -5.33333 -10.9833 1
    endloop
  endfacet
  facet normal 0 0 1
    outer loop
      vertex -4.88333 -13.9167 1
      vertex -5.33333 -13.9167 1
      vertex -4.88333 -14.3667 1
    endloop
  endfacet
  facet normal 0 0 1
    outer loop
      vertex -5.33333 -14.3667 1
      vertex -4.88333 -14.3667 1
      vertex -5.33333 -13.9167 1
    endloop
  endfacet
  facet normal 0 0 1
    outer loop
      vertex -4.88333 -14.3667 1
      vertex -5.33333 -14.3667 1
      vertex -4.88333 -17.3 1
    endloop
  endfacet
  facet normal 0 0 1
    outer loop
      vertex -4.88333 -17.3 1
      vertex -5.33333 -14.3667 1
      vertex -5.33333 -17.3 1
    endloop
  endfacet
  facet normal -0 0 1
    outer loop
      vertex -4.88333 -13.9167 1
      vertex -1.95 -14.3667 1
      vertex -1.95 -13.9167 1
    endloop
  endfacet
  facet normal 0 0 1
    outer loop
      vertex -1.95 -14.3667 1
      vertex -4.88333 -13.9167 1
      vertex -4.88333 -14.3667 1
    endloop
  endfacet
  facet normal -0 0 1
    outer loop
      vertex -4.88333 -10.5333 1
      vertex -1.95 -10.9833 1
      vertex -1.95 -10.5333 1
    endloop
  endfacet
  facet normal 0 0 1
    outer loop
      vertex -1.95 -10.9833 1
      vertex -4.88333 -10.5333 1
      vertex -4.88333 -10.9833 1
    endloop
  endfacet
  facet normal 0 0 1
    outer loop
      vertex -1.95 -10.5333 1
      vertex -1.5 -10.5333 1
      vertex -1.5 -7.7 1
    endloop
  endfacet
  facet normal 0 0 1
    outer loop
      vertex -1.5 -10.5333 1
      vertex -1.95 -10.5333 1
      vertex -1.5 -10.9833 1
    endloop
  endfacet
  facet normal 0 0 1
    outer loop
      vertex -1.5 -10.9833 1
      vertex -1.95 -10.9833 1
      vertex -1.5 -13.9167 1
    endloop
  endfacet
  facet normal 0 0 1
    outer loop
      vertex -1.95 -13.9167 1
      vertex -1.5 -13.9167 1
      vertex -1.95 -10.9833 1
    endloop
  endfacet
  facet normal 0 0 1
    outer loop
      vertex -1.95 -10.5333 1
      vertex -1.5 -7.7 1
      vertex -1.95 -7.7 1
    endloop
  endfacet
  facet normal 0 0 1
    outer loop
      vertex -1.5 -10.9833 1
      vertex -1.95 -10.5333 1
      vertex -1.95 -10.9833 1
    endloop
  endfacet
  facet normal 0 0 1
    outer loop
      vertex -1.5 -13.9167 1
      vertex -1.95 -13.9167 1
      vertex -1.5 -14.3667 1
    endloop
  endfacet
  facet normal 0 0 1
    outer loop
      vertex -1.95 -14.3667 1
      vertex -1.5 -14.3667 1
      vertex -1.95 -13.9167 1
    endloop
  endfacet
  facet normal 0 0 1
    outer loop
      vertex -1.5 -14.3667 1
      vertex -1.95 -14.3667 1
      vertex -1.5 -17.3 1
    endloop
  endfacet
  facet normal 0 0 1
    outer loop
      vertex -1.5 -17.3 1
      vertex -1.95 -14.3667 1
      vertex -1.95 -17.3 1
    endloop
  endfacet
  facet normal -0 0 1
    outer loop
      vertex -1.5 -13.9167 1
      vertex 1.43333 -14.3667 1
      vertex 1.43333 -13.9167 1
    endloop
  endfacet
  facet normal 0 0 1
    outer loop
      vertex 1.43333 -14.3667 1
      vertex -1.5 -13.9167 1
      vertex -1.5 -14.3667 1
    endloop
  endfacet
  facet normal -0 0 1
    outer loop
      vertex -1.5 -10.5333 1
      vertex 1.43333 -10.9833 1
      vertex 1.43333 -10.5333 1
    endloop
  endfacet
  facet normal 0 0 1
    outer loop
      vertex 1.43333 -10.9833 1
      vertex -1.5 -10.5333 1
      vertex -1.5 -10.9833 1
    endloop
  endfacet
  facet normal 0 0 1
    outer loop
      vertex 1.43333 -10.5333 1
      vertex 1.88333 -10.5333 1
      vertex 1.88333 -7.7 1
    endloop
  endfacet
  facet normal 0 0 1
    outer loop
      vertex 1.88333 -10.5333 1
      vertex 1.43333 -10.5333 1
      vertex 1.88333 -10.9833 1
    endloop
  endfacet
  facet normal 0 0 1
    outer loop
      vertex 1.88333 -10.9833 1
      vertex 1.43333 -10.9833 1
      vertex 1.88333 -13.9167 1
    endloop
  endfacet
  facet normal 0 0 1
    outer loop
      vertex 1.43333 -13.9167 1
      vertex 1.88333 -13.9167 1
      vertex 1.43333 -10.9833 1
    endloop
  endfacet
  facet normal 0 0 1
    outer loop
      vertex 1.43333 -10.5333 1
      vertex 1.88333 -7.7 1
      vertex 1.43333 -7.7 1
    endloop
  endfacet
  facet normal 0 0 1
    outer loop
      vertex 1.88333 -10.9833 1
      vertex 1.43333 -10.5333 1
      vertex 1.43333 -10.9833 1
    endloop
  endfacet
  facet normal 0 0 1
    outer loop
      vertex 1.88333 -13.9167 1
      vertex 1.43333 -13.9167 1
      vertex 1.88333 -14.3667 1
    endloop
  endfacet
  facet normal 0 0 1
    outer loop
      vertex 1.43333 -14.3667 1
      vertex 1.88333 -14.3667 1
      vertex 1.43333 -13.9167 1
    endloop
  endfacet
  facet normal 0 0 1
    outer loop
      vertex 1.88333 -14.3667 1
      vertex 1.43333 -14.3667 1
      vertex 1.88333 -17.3 1
    endloop
  endfacet
  facet normal 0 0 1
    outer loop
      vertex 1.88333 -17.3 1
      vertex 1.43333 -14.3667 1
      vertex 1.43333 -17.3 1
    endloop
  endfacet
  facet normal -0 0 1
    outer loop
      vertex 1.88333 -13.9167 1
      vertex 4.81667 -14.3667 1
      vertex 4.81667 -13.9167 1
    endloop
  endfacet
  facet normal 0 0 1
    outer loop
      vertex 4.81667 -14.3667 1
      vertex 1.88333 -13.9167 1
      vertex 1.88333 -14.3667 1
    endloop
  endfacet
  facet normal -0 0 1
    outer loop
      vertex 1.88333 -10.5333 1
      vertex 4.81667 -10.9833 1
      vertex 4.81667 -10.5333 1
    endloop
  endfacet
  facet normal 0 0 1
    outer loop
      vertex 4.81667 -10.9833 1
      vertex 1.88333 -10.5333 1
      vertex 1.88333 -10.9833 1
    endloop
  endfacet
  facet normal 0 0 1
    outer loop
      vertex 4.81667 -10.5333 1
      vertex 5.26667 -10.5333 1
      vertex 5.26667 -7.7 1
    endloop
  endfacet
  facet normal 0 0 1
    outer loop
      vertex 5.26667 -10.5333 1
      vertex 4.81667 -10.5333 1
      vertex 5.26667 -10.9833 1
    endloop
  endfacet
  facet normal 0 0 1
    outer loop
      vertex 5.26667 -10.9833 1
      vertex 4.81667 -10.9833 1
      vertex 5.26667 -13.9167 1
    endloop
  endfacet
  facet normal 0 0 1
    outer loop
      vertex 4.81667 -13.9167 1
      vertex 5.26667 -13.9167 1
      vertex 4.81667 -10.9833 1
    endloop
  endfacet
  facet normal 0 0 1
    outer loop
      vertex 4.81667 -10.5333 1
      vertex 5.26667 -7.7 1
      vertex 4.81667 -7.7 1
    endloop
  endfacet
  facet normal 0 0 1
    outer loop
      vertex 5.26667 -10.9833 1
      vertex 4.81667 -10.5333 1
      vertex 4.81667 -10.9833 1
    endloop
  endfacet
  facet normal 0 0 1
    outer loop
      vertex 5.26667 -13.9167 1
      vertex 4.81667 -13.9167 1
      vertex 5.26667 -14.3667 1
    endloop
  endfacet
  facet normal 0 0 1
    outer loop
      vertex 4.81667 -14.3667 1
      vertex 5.26667 -14.3667 1
      vertex 4.81667 -13.9167 1
    endloop
  endfacet
  facet normal 0 0 1
    outer loop
      vertex 5.26667 -14.3667 1
      vertex 4.81667 -14.3667 1
      vertex 5.26667 -17.3 1
    endloop
  endfacet
  facet normal 0 0 1
    outer loop
      vertex 5.26667 -17.3 1
      vertex 4.81667 -14.3667 1
      vertex 4.81667 -17.3 1
    endloop
  endfacet
  facet normal -0 0 1
    outer loop
      vertex 5.26667 -10.5333 1
      vertex 8.2 -10.9833 1
      vertex 8.2 -10.5333 1
    endloop
  endfacet
  facet normal 0 0 1
    outer loop
      vertex 8.2 -10.9833 1
      vertex 5.26667 -10.5333 1
      vertex 5.26667 -10.9833 1
    endloop
  endfacet
  facet normal -0 0 1
    outer loop
      vertex 5.26667 -13.9167 1
      vertex 8.2 -14.3667 1
      vertex 8.2 -13.9167 1
    endloop
  endfacet
  facet normal 0 0 1
    outer loop
      vertex 8.2 -14.3667 1
      vertex 5.26667 -13.9167 1
      vertex 5.26667 -14.3667 1
    endloop
  endfacet
  facet normal 0 0 0
    outer loop
      vertex 8.2 -14.3667 1
      vertex 8.2 -17.3 1
      vertex 8.2 -7.7 1
    endloop
  endfacet
  facet normal 0 0 0
    outer loop
      vertex 8.2 -14.3667 1
      vertex 8.2 -7.7 1
      vertex 8.2 -10.5333 1
    endloop
  endfacet
  facet normal 0 0 0
    outer loop
      vertex 8.2 -13.9167 1
      vertex 8.2 -14.3667 1
      vertex 8.2 -10.5333 1
    endloop
  endfacet
  facet normal 0 0 0
    outer loop
      vertex 8.2 -10.5333 1
      vertex 8.2 -10.9833 1
      vertex 8.2 -13.9167 1
    endloop
  endfacet
  facet normal -0 0 1
    outer loop
      vertex 11.9 -17.3 1
      vertex 14.75 -17.75 1
      vertex 14.75 -17.3 1
    endloop
  endfacet
  facet normal 0 0 1
    outer loop
      vertex 14.75 -17.75 1
      vertex 11.9 -17.3 1
      vertex 11.9 -17.75 1
    endloop
  endfacet
  facet normal -0 0 1
    outer loop
      vertex 11.9 -13.9167 1
      vertex 14.75 -14.3667 1
      vertex 14.75 -13.9167 1
    endloop
  endfacet
  facet normal 0 0 1
    outer loop
      vertex 14.75 -14.3667 1
      vertex 11.9 -13.9167 1
      vertex 11.9 -14.3667 1
    endloop
  endfacet
  facet normal -0 0 1
    outer loop
      vertex 11.9 -10.5333 1
      vertex 14.75 -10.9833 1
      vertex 14.75 -10.5333 1
    endloop
  endfacet
  facet normal 0 0 1
    outer loop
      vertex 14.75 -10.9833 1
      vertex 11.9 -10.5333 1
      vertex 11.9 -10.9833 1
    endloop
  endfacet
  facet normal 0 0 1
    outer loop
      vertex 14.75 -10.5333 1
      vertex 15.2 -10.5333 1
      vertex 15.2 -7.75333 1
    endloop
  endfacet
  facet normal 0 0 1
    outer loop
      vertex 15.2 -10.5333 1
      vertex 14.75 -10.5333 1
      vertex 15.2 -10.9833 1
    endloop
  endfacet
  facet normal 0 0 1
    outer loop
      vertex 15.2 -10.9833 1
      vertex 14.75 -10.9833 1
      vertex 15.2 -13.9167 1
    endloop
  endfacet
  facet normal 0 0 1
    outer loop
      vertex 14.75 -13.9167 1
      vertex 15.2 -13.9167 1
      vertex 14.75 -10.9833 1
    endloop
  endfacet
  facet normal 0 0 1
    outer loop
      vertex 14.75 -14.3667 1
      vertex 15.2 -14.3667 1
      vertex 14.75 -13.9167 1
    endloop
  endfacet
  facet normal 0 0 1
    outer loop
      vertex 15.2 -14.3667 1
      vertex 14.75 -14.3667 1
      vertex 15.2 -17.3 1
    endloop
  endfacet
  facet normal 0 0 1
    outer loop
      vertex 14.75 -10.5333 1
      vertex 15.2 -7.75333 1
      vertex 14.75 -7.75333 1
    endloop
  endfacet
  facet normal 0 0 1
    outer loop
      vertex 15.2 -10.9833 1
      vertex 14.75 -10.5333 1
      vertex 14.75 -10.9833 1
    endloop
  endfacet
  facet normal 0 0 1
    outer loop
      vertex 15.2 -13.9167 1
      vertex 14.75 -13.9167 1
      vertex 15.2 -14.3667 1
    endloop
  endfacet
  facet normal 0 0 1
    outer loop
      vertex 14.75 -17.3 1
      vertex 15.2 -17.3 1
      vertex 14.75 -14.3667 1
    endloop
  endfacet
  facet normal 0 0 1
    outer loop
      vertex 15.2 -17.3 1
      vertex 14.75 -17.3 1
      vertex 15.2 -17.75 1
    endloop
  endfacet
  facet normal 0 0 1
    outer loop
      vertex 14.75 -17.75 1
      vertex 15.2 -17.75 1
      vertex 14.75 -17.3 1
    endloop
  endfacet
  facet normal 0 0 1
    outer loop
      vertex 15.2 -17.75 1
      vertex 14.75 -17.75 1
      vertex 15.2 -20.4833 1
    endloop
  endfacet
  facet normal 0 0 1
    outer loop
      vertex 15.2 -20.4833 1
      vertex 14.75 -17.75 1
      vertex 14.75 -20.4833 1
    endloop
  endfacet
  facet normal -0 0 1
    outer loop
      vertex 15.2 -17.3 1
      vertex 18.1333 -17.75 1
      vertex 18.1333 -17.3 1
    endloop
  endfacet
  facet normal 0 0 1
    outer loop
      vertex 18.1333 -17.75 1
      vertex 15.2 -17.3 1
      vertex 15.2 -17.75 1
    endloop
  endfacet
  facet normal -0 0 1
    outer loop
      vertex 15.2 -13.9167 1
      vertex 18.1333 -14.3667 1
      vertex 18.1333 -13.9167 1
    endloop
  endfacet
  facet normal 0 0 1
    outer loop
      vertex 18.1333 -14.3667 1
      vertex 15.2 -13.9167 1
      vertex 15.2 -14.3667 1
    endloop
  endfacet
  facet normal -0 0 1
    outer loop
      vertex 15.2 -10.5333 1
      vertex 18.1333 -10.9833 1
      vertex 18.1333 -10.5333 1
    endloop
  endfacet
  facet normal 0 0 1
    outer loop
      vertex 18.1333 -10.9833 1
      vertex 15.2 -10.5333 1
      vertex 15.2 -10.9833 1
    endloop
  endfacet
  facet normal 0 0 1
    outer loop
      vertex 18.1333 -10.5333 1
      vertex 18.5833 -10.5333 1
      vertex 18.5833 -7.75333 1
    endloop
  endfacet
  facet normal 0 0 1
    outer loop
      vertex 18.5833 -10.5333 1
      vertex 18.1333 -10.5333 1
      vertex 18.5833 -10.9833 1
    endloop
  endfacet
  facet normal 0 0 1
    outer loop
      vertex 18.5833 -10.9833 1
      vertex 18.1333 -10.9833 1
      vertex 18.5833 -13.9167 1
    endloop
  endfacet
  facet normal 0 0 1
    outer loop
      vertex 18.1333 -13.9167 1
      vertex 18.5833 -13.9167 1
      vertex 18.1333 -10.9833 1
    endloop
  endfacet
  facet normal 0 0 1
    outer loop
      vertex 18.1333 -14.3667 1
      vertex 18.5833 -14.3667 1
      vertex 18.1333 -13.9167 1
    endloop
  endfacet
  facet normal 0 0 1
    outer loop
      vertex 18.5833 -14.3667 1
      vertex 18.1333 -14.3667 1
      vertex 18.5833 -17.3 1
    endloop
  endfacet
  facet normal 0 0 1
    outer loop
      vertex 18.1333 -10.5333 1
      vertex 18.5833 -7.75333 1
      vertex 18.1333 -7.75333 1
    endloop
  endfacet
  facet normal 0 0 1
    outer loop
      vertex 18.5833 -10.9833 1
      vertex 18.1333 -10.5333 1
      vertex 18.1333 -10.9833 1
    endloop
  endfacet
  facet normal 0 0 1
    outer loop
      vertex 18.5833 -13.9167 1
      vertex 18.1333 -13.9167 1
      vertex 18.5833 -14.3667 1
    endloop
  endfacet
  facet normal 0 0 1
    outer loop
      vertex 18.1333 -17.3 1
      vertex 18.5833 -17.3 1
      vertex 18.1333 -14.3667 1
    endloop
  endfacet
  facet normal 0 0 1
    outer loop
      vertex 18.5833 -17.3 1
      vertex 18.1333 -17.3 1
      vertex 18.5833 -17.75 1
    endloop
  endfacet
  facet normal 0 0 1
    outer loop
      vertex 18.1333 -17.75 1
      vertex 18.5833 -17.75 1
      vertex 18.1333 -17.3 1
    endloop
  endfacet
  facet normal 0 0 1
    outer loop
      vertex 18.5833 -17.75 1
      vertex 18.1333 -17.75 1
      vertex 18.5833 -20.4833 1
    endloop
  endfacet
  facet normal 0 0 1
    outer loop
      vertex 18.5833 -20.4833 1
      vertex 18.1333 -17.75 1
      vertex 18.1333 -20.4833 1
    endloop
  endfacet
  facet normal -0 0 1
    outer loop
      vertex 18.5833 -10.5333 1
      vertex 21.35 -10.9833 1
      vertex 21.35 -10.5333 1
    endloop
  endfacet
  facet normal 0 0 1
    outer loop
      vertex 21.35 -10.9833 1
      vertex 18.5833 -10.5333 1
      vertex 18.5833 -10.9833 1
    endloop
  endfacet
  facet normal -0 0 1
    outer loop
      vertex 18.5833 -13.9167 1
      vertex 21.35 -14.3667 1
      vertex 21.35 -13.9167 1
    endloop
  endfacet
  facet normal 0 0 1
    outer loop
      vertex 21.35 -14.3667 1
      vertex 18.5833 -13.9167 1
      vertex 18.5833 -14.3667 1
    endloop
  endfacet
  facet normal -0 0 1
    outer loop
      vertex 18.5833 -17.3 1
      vertex 21.35 -17.75 1
      vertex 21.35 -17.3 1
    endloop
  endfacet
  facet normal 0 0 1
    outer loop
      vertex 21.35 -17.75 1
      vertex 18.5833 -17.3 1
      vertex 18.5833 -17.75 1
    endloop
  endfacet
  facet normal -0 0 1
    outer loop
      vertex -16.55 -17.3 1
      vertex 2.95 -17.75 1
      vertex 2.95 -17.3 1
    endloop
  endfacet
  facet normal 0 0 1
    outer loop
      vertex 2.95 -17.75 1
      vertex -16.55 -17.3 1
      vertex -16.55 -17.75 1
    endloop
  endfacet
  facet normal 0 1 -0
    outer loop
      vertex 2.95 -17.75 1
      vertex -16.55 -17.75 3
      vertex 2.95 -17.75 3
    endloop
  endfacet
  facet normal 0 1 0
    outer loop
      vertex -16.55 -17.75 3
      vertex 2.95 -17.75 1
      vertex -16.55 -17.75 1
    endloop
  endfacet
  facet normal 0 1 -0
    outer loop
      vertex 14.75 -17.75 1
      vertex 11.9 -17.75 3
      vertex 14.75 -17.75 3
    endloop
  endfacet
  facet normal 0 1 0
    outer loop
      vertex 11.9 -17.75 3
      vertex 14.75 -17.75 1
      vertex 11.9 -17.75 1
    endloop
  endfacet
  facet normal 0 1 -0
    outer loop
      vertex 21.35 -17.75 1
      vertex 18.5833 -17.75 3
      vertex 21.35 -17.75 3
    endloop
  endfacet
  facet normal 0 1 0
    outer loop
      vertex 18.5833 -17.75 3
      vertex 21.35 -17.75 1
      vertex 18.5833 -17.75 1
    endloop
  endfacet
  facet normal 0 1 -0
    outer loop
      vertex 18.1333 -17.75 1
      vertex 15.2 -17.75 3
      vertex 18.1333 -17.75 3
    endloop
  endfacet
  facet normal 0 1 0
    outer loop
      vertex 15.2 -17.75 3
      vertex 18.1333 -17.75 1
      vertex 15.2 -17.75 1
    endloop
  endfacet
  facet normal 0 -1 0
    outer loop
      vertex -21.8 -13.9167 1
      vertex -18.8667 -13.9167 3
      vertex -21.8 -13.9167 3
    endloop
  endfacet
  facet normal 0 -1 -0
    outer loop
      vertex -18.8667 -13.9167 3
      vertex -21.8 -13.9167 1
      vertex -18.8667 -13.9167 1
    endloop
  endfacet
  facet normal 0 -1 0
    outer loop
      vertex 11.9 -13.9167 1
      vertex 14.75 -13.9167 3
      vertex 11.9 -13.9167 3
    endloop
  endfacet
  facet normal 0 -1 -0
    outer loop
      vertex 14.75 -13.9167 3
      vertex 11.9 -13.9167 1
      vertex 14.75 -13.9167 1
    endloop
  endfacet
  facet normal 0 -1 0
    outer loop
      vertex 18.5833 -13.9167 1
      vertex 21.35 -13.9167 3
      vertex 18.5833 -13.9167 3
    endloop
  endfacet
  facet normal 0 -1 -0
    outer loop
      vertex 21.35 -13.9167 3
      vertex 18.5833 -13.9167 1
      vertex 21.35 -13.9167 1
    endloop
  endfacet
  facet normal 0 -1 0
    outer loop
      vertex -18.4167 -13.9167 1
      vertex -15.4833 -13.9167 3
      vertex -18.4167 -13.9167 3
    endloop
  endfacet
  facet normal 0 -1 -0
    outer loop
      vertex -15.4833 -13.9167 3
      vertex -18.4167 -13.9167 1
      vertex -15.4833 -13.9167 1
    endloop
  endfacet
  facet normal 0 -1 0
    outer loop
      vertex -15.0333 -13.9167 1
      vertex -12.1 -13.9167 3
      vertex -15.0333 -13.9167 3
    endloop
  endfacet
  facet normal 0 -1 -0
    outer loop
      vertex -12.1 -13.9167 3
      vertex -15.0333 -13.9167 1
      vertex -12.1 -13.9167 1
    endloop
  endfacet
  facet normal 0 -1 0
    outer loop
      vertex -11.65 -13.9167 1
      vertex -8.71667 -13.9167 3
      vertex -11.65 -13.9167 3
    endloop
  endfacet
  facet normal 0 -1 -0
    outer loop
      vertex -8.71667 -13.9167 3
      vertex -11.65 -13.9167 1
      vertex -8.71667 -13.9167 1
    endloop
  endfacet
  facet normal 0 -1 0
    outer loop
      vertex -8.26667 -13.9167 1
      vertex -5.33333 -13.9167 3
      vertex -8.26667 -13.9167 3
    endloop
  endfacet
  facet normal 0 -1 -0
    outer loop
      vertex -5.33333 -13.9167 3
      vertex -8.26667 -13.9167 1
      vertex -5.33333 -13.9167 1
    endloop
  endfacet
  facet normal 0 -1 0
    outer loop
      vertex -4.88333 -13.9167 1
      vertex -1.95 -13.9167 3
      vertex -4.88333 -13.9167 3
    endloop
  endfacet
  facet normal 0 -1 -0
    outer loop
      vertex -1.95 -13.9167 3
      vertex -4.88333 -13.9167 1
      vertex -1.95 -13.9167 1
    endloop
  endfacet
  facet normal 0 -1 0
    outer loop
      vertex -1.5 -13.9167 1
      vertex 1.43333 -13.9167 3
      vertex -1.5 -13.9167 3
    endloop
  endfacet
  facet normal 0 -1 -0
    outer loop
      vertex 1.43333 -13.9167 3
      vertex -1.5 -13.9167 1
      vertex 1.43333 -13.9167 1
    endloop
  endfacet
  facet normal 0 -1 0
    outer loop
      vertex 1.88333 -13.9167 1
      vertex 4.81667 -13.9167 3
      vertex 1.88333 -13.9167 3
    endloop
  endfacet
  facet normal 0 -1 -0
    outer loop
      vertex 4.81667 -13.9167 3
      vertex 1.88333 -13.9167 1
      vertex 4.81667 -13.9167 1
    endloop
  endfacet
  facet normal 0 -1 0
    outer loop
      vertex 5.26667 -13.9167 1
      vertex 8.2 -13.9167 3
      vertex 5.26667 -13.9167 3
    endloop
  endfacet
  facet normal 0 -1 -0
    outer loop
      vertex 8.2 -13.9167 3
      vertex 5.26667 -13.9167 1
      vertex 8.2 -13.9167 1
    endloop
  endfacet
  facet normal 0 -1 0
    outer loop
      vertex 15.2 -13.9167 1
      vertex 18.1333 -13.9167 3
      vertex 15.2 -13.9167 3
    endloop
  endfacet
  facet normal 0 -1 -0
    outer loop
      vertex 18.1333 -13.9167 3
      vertex 15.2 -13.9167 1
      vertex 18.1333 -13.9167 1
    endloop
  endfacet
  facet normal 0 1 -0
    outer loop
      vertex -18.8667 -14.3667 1
      vertex -21.8 -14.3667 3
      vertex -18.8667 -14.3667 3
    endloop
  endfacet
  facet normal 0 1 0
    outer loop
      vertex -21.8 -14.3667 3
      vertex -18.8667 -14.3667 1
      vertex -21.8 -14.3667 1
    endloop
  endfacet
  facet normal 0 1 -0
    outer loop
      vertex 14.75 -14.3667 1
      vertex 11.9 -14.3667 3
      vertex 14.75 -14.3667 3
    endloop
  endfacet
  facet normal 0 1 0
    outer loop
      vertex 11.9 -14.3667 3
      vertex 14.75 -14.3667 1
      vertex 11.9 -14.3667 1
    endloop
  endfacet
  facet normal 0 1 -0
    outer loop
      vertex 21.35 -14.3667 1
      vertex 18.5833 -14.3667 3
      vertex 21.35 -14.3667 3
    endloop
  endfacet
  facet normal 0 1 0
    outer loop
      vertex 18.5833 -14.3667 3
      vertex 21.35 -14.3667 1
      vertex 18.5833 -14.3667 1
    endloop
  endfacet
  facet normal 0 1 -0
    outer loop
      vertex -15.4833 -14.3667 1
      vertex -18.4167 -14.3667 3
      vertex -15.4833 -14.3667 3
    endloop
  endfacet
  facet normal 0 1 0
    outer loop
      vertex -18.4167 -14.3667 3
      vertex -15.4833 -14.3667 1
      vertex -18.4167 -14.3667 1
    endloop
  endfacet
  facet normal 0 1 -0
    outer loop
      vertex -12.1 -14.3667 1
      vertex -15.0333 -14.3667 3
      vertex -12.1 -14.3667 3
    endloop
  endfacet
  facet normal 0 1 0
    outer loop
      vertex -15.0333 -14.3667 3
      vertex -12.1 -14.3667 1
      vertex -15.0333 -14.3667 1
    endloop
  endfacet
  facet normal 0 1 -0
    outer loop
      vertex -8.71667 -14.3667 1
      vertex -11.65 -14.3667 3
      vertex -8.71667 -14.3667 3
    endloop
  endfacet
  facet normal 0 1 0
    outer loop
      vertex -11.65 -14.3667 3
      vertex -8.71667 -14.3667 1
      vertex -11.65 -14.3667 1
    endloop
  endfacet
  facet normal 0 1 -0
    outer loop
      vertex -5.33333 -14.3667 1
      vertex -8.26667 -14.3667 3
      vertex -5.33333 -14.3667 3
    endloop
  endfacet
  facet normal 0 1 0
    outer loop
      vertex -8.26667 -14.3667 3
      vertex -5.33333 -14.3667 1
      vertex -8.26667 -14.3667 1
    endloop
  endfacet
  facet normal 0 1 -0
    outer loop
      vertex -1.95 -14.3667 1
      vertex -4.88333 -14.3667 3
      vertex -1.95 -14.3667 3
    endloop
  endfacet
  facet normal 0 1 0
    outer loop
      vertex -4.88333 -14.3667 3
      vertex -1.95 -14.3667 1
      vertex -4.88333 -14.3667 1
    endloop
  endfacet
  facet normal 0 1 -0
    outer loop
      vertex 1.43333 -14.3667 1
      vertex -1.5 -14.3667 3
      vertex 1.43333 -14.3667 3
    endloop
  endfacet
  facet normal 0 1 0
    outer loop
      vertex -1.5 -14.3667 3
      vertex 1.43333 -14.3667 1
      vertex -1.5 -14.3667 1
    endloop
  endfacet
  facet normal 0 1 -0
    outer loop
      vertex 4.81667 -14.3667 1
      vertex 1.88333 -14.3667 3
      vertex 4.81667 -14.3667 3
    endloop
  endfacet
  facet normal 0 1 0
    outer loop
      vertex 1.88333 -14.3667 3
      vertex 4.81667 -14.3667 1
      vertex 1.88333 -14.3667 1
    endloop
  endfacet
  facet normal 0 1 -0
    outer loop
      vertex 8.2 -14.3667 1
      vertex 5.26667 -14.3667 3
      vertex 8.2 -14.3667 3
    endloop
  endfacet
  facet normal 0 1 0
    outer loop
      vertex 5.26667 -14.3667 3
      vertex 8.2 -14.3667 1
      vertex 5.26667 -14.3667 1
    endloop
  endfacet
  facet normal 0 1 -0
    outer loop
      vertex 18.1333 -14.3667 1
      vertex 15.2 -14.3667 3
      vertex 18.1333 -14.3667 3
    endloop
  endfacet
  facet normal 0 1 0
    outer loop
      vertex 15.2 -14.3667 3
      vertex 18.1333 -14.3667 1
      vertex 15.2 -14.3667 1
    endloop
  endfacet
  facet normal 0 -1 0
    outer loop
      vertex -21.8 -10.5333 1
      vertex -18.8667 -10.5333 3
      vertex -21.8 -10.5333 3
    endloop
  endfacet
  facet normal 0 -1 -0
    outer loop
      vertex -18.8667 -10.5333 3
      vertex -21.8 -10.5333 1
      vertex -18.8667 -10.5333 1
    endloop
  endfacet
  facet normal 0 -1 0
    outer loop
      vertex 11.9 -10.5333 1
      vertex 14.75 -10.5333 3
      vertex 11.9 -10.5333 3
    endloop
  endfacet
  facet normal 0 -1 -0
    outer loop
      vertex 14.75 -10.5333 3
      vertex 11.9 -10.5333 1
      vertex 14.75 -10.5333 1
    endloop
  endfacet
  facet normal 0 -1 0
    outer loop
      vertex 18.5833 -10.5333 1
      vertex 21.35 -10.5333 3
      vertex 18.5833 -10.5333 3
    endloop
  endfacet
  facet normal 0 -1 -0
    outer loop
      vertex 21.35 -10.5333 3
      vertex 18.5833 -10.5333 1
      vertex 21.35 -10.5333 1
    endloop
  endfacet
  facet normal 0 -1 0
    outer loop
      vertex -18.4167 -10.5333 1
      vertex -15.4833 -10.5333 3
      vertex -18.4167 -10.5333 3
    endloop
  endfacet
  facet normal 0 -1 -0
    outer loop
      vertex -15.4833 -10.5333 3
      vertex -18.4167 -10.5333 1
      vertex -15.4833 -10.5333 1
    endloop
  endfacet
  facet normal 0 -1 0
    outer loop
      vertex -15.0333 -10.5333 1
      vertex -12.1 -10.5333 3
      vertex -15.0333 -10.5333 3
    endloop
  endfacet
  facet normal 0 -1 -0
    outer loop
      vertex -12.1 -10.5333 3
      vertex -15.0333 -10.5333 1
      vertex -12.1 -10.5333 1
    endloop
  endfacet
  facet normal 0 -1 0
    outer loop
      vertex -11.65 -10.5333 1
      vertex -8.71667 -10.5333 3
      vertex -11.65 -10.5333 3
    endloop
  endfacet
  facet normal 0 -1 -0
    outer loop
      vertex -8.71667 -10.5333 3
      vertex -11.65 -10.5333 1
      vertex -8.71667 -10.5333 1
    endloop
  endfacet
  facet normal 0 -1 0
    outer loop
      vertex -8.26667 -10.5333 1
      vertex -5.33333 -10.5333 3
      vertex -8.26667 -10.5333 3
    endloop
  endfacet
  facet normal 0 -1 -0
    outer loop
      vertex -5.33333 -10.5333 3
      vertex -8.26667 -10.5333 1
      vertex -5.33333 -10.5333 1
    endloop
  endfacet
  facet normal 0 -1 0
    outer loop
      vertex -4.88333 -10.5333 1
      vertex -1.95 -10.5333 3
      vertex -4.88333 -10.5333 3
    endloop
  endfacet
  facet normal 0 -1 -0
    outer loop
      vertex -1.95 -10.5333 3
      vertex -4.88333 -10.5333 1
      vertex -1.95 -10.5333 1
    endloop
  endfacet
  facet normal 0 -1 0
    outer loop
      vertex -1.5 -10.5333 1
      vertex 1.43333 -10.5333 3
      vertex -1.5 -10.5333 3
    endloop
  endfacet
  facet normal 0 -1 -0
    outer loop
      vertex 1.43333 -10.5333 3
      vertex -1.5 -10.5333 1
      vertex 1.43333 -10.5333 1
    endloop
  endfacet
  facet normal 0 -1 0
    outer loop
      vertex 1.88333 -10.5333 1
      vertex 4.81667 -10.5333 3
      vertex 1.88333 -10.5333 3
    endloop
  endfacet
  facet normal 0 -1 -0
    outer loop
      vertex 4.81667 -10.5333 3
      vertex 1.88333 -10.5333 1
      vertex 4.81667 -10.5333 1
    endloop
  endfacet
  facet normal 0 -1 0
    outer loop
      vertex 5.26667 -10.5333 1
      vertex 8.2 -10.5333 3
      vertex 5.26667 -10.5333 3
    endloop
  endfacet
  facet normal 0 -1 -0
    outer loop
      vertex 8.2 -10.5333 3
      vertex 5.26667 -10.5333 1
      vertex 8.2 -10.5333 1
    endloop
  endfacet
  facet normal 0 -1 0
    outer loop
      vertex 15.2 -10.5333 1
      vertex 18.1333 -10.5333 3
      vertex 15.2 -10.5333 3
    endloop
  endfacet
  facet normal 0 -1 -0
    outer loop
      vertex 18.1333 -10.5333 3
      vertex 15.2 -10.5333 1
      vertex 18.1333 -10.5333 1
    endloop
  endfacet
  facet normal 0 1 -0
    outer loop
      vertex -18.8667 -10.9833 1
      vertex -21.8 -10.9833 3
      vertex -18.8667 -10.9833 3
    endloop
  endfacet
  facet normal 0 1 0
    outer loop
      vertex -21.8 -10.9833 3
      vertex -18.8667 -10.9833 1
      vertex -21.8 -10.9833 1
    endloop
  endfacet
  facet normal 0 1 -0
    outer loop
      vertex 14.75 -10.9833 1
      vertex 11.9 -10.9833 3
      vertex 14.75 -10.9833 3
    endloop
  endfacet
  facet normal 0 1 0
    outer loop
      vertex 11.9 -10.9833 3
      vertex 14.75 -10.9833 1
      vertex 11.9 -10.9833 1
    endloop
  endfacet
  facet normal 0 1 -0
    outer loop
      vertex 21.35 -10.9833 1
      vertex 18.5833 -10.9833 3
      vertex 21.35 -10.9833 3
    endloop
  endfacet
  facet normal 0 1 0
    outer loop
      vertex 18.5833 -10.9833 3
      vertex 21.35 -10.9833 1
      vertex 18.5833 -10.9833 1
    endloop
  endfacet
  facet normal 0 1 -0
    outer loop
      vertex -15.4833 -10.9833 1
      vertex -18.4167 -10.9833 3
      vertex -15.4833 -10.9833 3
    endloop
  endfacet
  facet normal 0 1 0
    outer loop
      vertex -18.4167 -10.9833 3
      vertex -15.4833 -10.9833 1
      vertex -18.4167 -10.9833 1
    endloop
  endfacet
  facet normal 0 1 -0
    outer loop
      vertex -12.1 -10.9833 1
      vertex -15.0333 -10.9833 3
      vertex -12.1 -10.9833 3
    endloop
  endfacet
  facet normal 0 1 0
    outer loop
      vertex -15.0333 -10.9833 3
      vertex -12.1 -10.9833 1
      vertex -15.0333 -10.9833 1
    endloop
  endfacet
  facet normal 0 1 -0
    outer loop
      vertex -8.71667 -10.9833 1
      vertex -11.65 -10.9833 3
      vertex -8.71667 -10.9833 3
    endloop
  endfacet
  facet normal 0 1 0
    outer loop
      vertex -11.65 -10.9833 3
      vertex -8.71667 -10.9833 1
      vertex -11.65 -10.9833 1
    endloop
  endfacet
  facet normal 0 1 -0
    outer loop
      vertex -5.33333 -10.9833 1
      vertex -8.26667 -10.9833 3
      vertex -5.33333 -10.9833 3
    endloop
  endfacet
  facet normal 0 1 0
    outer loop
      vertex -8.26667 -10.9833 3
      vertex -5.33333 -10.9833 1
      vertex -8.26667 -10.9833 1
    endloop
  endfacet
  facet normal 0 1 -0
    outer loop
      vertex -1.95 -10.9833 1
      vertex -4.88333 -10.9833 3
      vertex -1.95 -10.9833 3
    endloop
  endfacet
  facet normal 0 1 0
    outer loop
      vertex -4.88333 -10.9833 3
      vertex -1.95 -10.9833 1
      vertex -4.88333 -10.9833 1
    endloop
  endfacet
  facet normal 0 1 -0
    outer loop
      vertex 1.43333 -10.9833 1
      vertex -1.5 -10.9833 3
      vertex 1.43333 -10.9833 3
    endloop
  endfacet
  facet normal 0 1 0
    outer loop
      vertex -1.5 -10.9833 3
      vertex 1.43333 -10.9833 1
      vertex -1.5 -10.9833 1
    endloop
  endfacet
  facet normal 0 1 -0
    outer loop
      vertex 4.81667 -10.9833 1
      vertex 1.88333 -10.9833 3
      vertex 4.81667 -10.9833 3
    endloop
  endfacet
  facet normal 0 1 0
    outer loop
      vertex 1.88333 -10.9833 3
      vertex 4.81667 -10.9833 1
      vertex 1.88333 -10.9833 1
    endloop
  endfacet
  facet normal 0 1 -0
    outer loop
      vertex 8.2 -10.9833 1
      vertex 5.26667 -10.9833 3
      vertex 8.2 -10.9833 3
    endloop
  endfacet
  facet normal 0 1 0
    outer loop
      vertex 5.26667 -10.9833 3
      vertex 8.2 -10.9833 1
      vertex 5.26667 -10.9833 1
    endloop
  endfacet
  facet normal 0 1 -0
    outer loop
      vertex 18.1333 -10.9833 1
      vertex 15.2 -10.9833 3
      vertex 18.1333 -10.9833 3
    endloop
  endfacet
  facet normal 0 1 0
    outer loop
      vertex 15.2 -10.9833 3
      vertex 18.1333 -10.9833 1
      vertex 15.2 -10.9833 1
    endloop
  endfacet
  facet normal 1 -0 0
    outer loop
      vertex -18.8667 -17.3 3
      vertex -18.8667 -14.3667 1
      vertex -18.8667 -14.3667 3
    endloop
  endfacet
  facet normal 1 0 0
    outer loop
      vertex -18.8667 -14.3667 1
      vertex -18.8667 -17.3 3
      vertex -18.8667 -17.3 1
    endloop
  endfacet
  facet normal 1 -0 0
    outer loop
      vertex -18.8667 -13.9167 3
      vertex -18.8667 -10.9833 1
      vertex -18.8667 -10.9833 3
    endloop
  endfacet
  facet normal 1 0 0
    outer loop
      vertex -18.8667 -10.9833 1
      vertex -18.8667 -13.9167 3
      vertex -18.8667 -13.9167 1
    endloop
  endfacet
  facet normal 1 -0 0
    outer loop
      vertex -18.8667 -10.5333 3
      vertex -18.8667 -7.7 1
      vertex -18.8667 -7.7 3
    endloop
  endfacet
  facet normal 1 0 0
    outer loop
      vertex -18.8667 -7.7 1
      vertex -18.8667 -10.5333 3
      vertex -18.8667 -10.5333 1
    endloop
  endfacet
  facet normal -1 0 0
    outer loop
      vertex -18.4167 -17.3 1
      vertex -18.4167 -14.3667 3
      vertex -18.4167 -14.3667 1
    endloop
  endfacet
  facet normal -1 -0 0
    outer loop
      vertex -18.4167 -14.3667 3
      vertex -18.4167 -17.3 1
      vertex -18.4167 -17.3 3
    endloop
  endfacet
  facet normal -1 0 0
    outer loop
      vertex -18.4167 -13.9167 1
      vertex -18.4167 -10.9833 3
      vertex -18.4167 -10.9833 1
    endloop
  endfacet
  facet normal -1 -0 0
    outer loop
      vertex -18.4167 -10.9833 3
      vertex -18.4167 -13.9167 1
      vertex -18.4167 -13.9167 3
    endloop
  endfacet
  facet normal -1 0 0
    outer loop
      vertex -18.4167 -10.5333 1
      vertex -18.4167 -7.7 3
      vertex -18.4167 -7.7 1
    endloop
  endfacet
  facet normal -1 -0 0
    outer loop
      vertex -18.4167 -7.7 3
      vertex -18.4167 -10.5333 1
      vertex -18.4167 -10.5333 3
    endloop
  endfacet
  facet normal 1 -0 0
    outer loop
      vertex -15.4833 -17.3 3
      vertex -15.4833 -14.3667 1
      vertex -15.4833 -14.3667 3
    endloop
  endfacet
  facet normal 1 0 0
    outer loop
      vertex -15.4833 -14.3667 1
      vertex -15.4833 -17.3 3
      vertex -15.4833 -17.3 1
    endloop
  endfacet
  facet normal 1 -0 0
    outer loop
      vertex -15.4833 -13.9167 3
      vertex -15.4833 -10.9833 1
      vertex -15.4833 -10.9833 3
    endloop
  endfacet
  facet normal 1 0 0
    outer loop
      vertex -15.4833 -10.9833 1
      vertex -15.4833 -13.9167 3
      vertex -15.4833 -13.9167 1
    endloop
  endfacet
  facet normal 1 -0 0
    outer loop
      vertex -15.4833 -10.5333 3
      vertex -15.4833 -7.7 1
      vertex -15.4833 -7.7 3
    endloop
  endfacet
  facet normal 1 0 0
    outer loop
      vertex -15.4833 -7.7 1
      vertex -15.4833 -10.5333 3
      vertex -15.4833 -10.5333 1
    endloop
  endfacet
  facet normal -1 0 0
    outer loop
      vertex -15.0333 -17.3 1
      vertex -15.0333 -14.3667 3
      vertex -15.0333 -14.3667 1
    endloop
  endfacet
  facet normal -1 -0 0
    outer loop
      vertex -15.0333 -14.3667 3
      vertex -15.0333 -17.3 1
      vertex -15.0333 -17.3 3
    endloop
  endfacet
  facet normal -1 0 0
    outer loop
      vertex -15.0333 -13.9167 1
      vertex -15.0333 -10.9833 3
      vertex -15.0333 -10.9833 1
    endloop
  endfacet
  facet normal -1 -0 0
    outer loop
      vertex -15.0333 -10.9833 3
      vertex -15.0333 -13.9167 1
      vertex -15.0333 -13.9167 3
    endloop
  endfacet
  facet normal -1 0 0
    outer loop
      vertex -15.0333 -10.5333 1
      vertex -15.0333 -7.7 3
      vertex -15.0333 -7.7 1
    endloop
  endfacet
  facet normal -1 -0 0
    outer loop
      vertex -15.0333 -7.7 3
      vertex -15.0333 -10.5333 1
      vertex -15.0333 -10.5333 3
    endloop
  endfacet
  facet normal 0 1 -0
    outer loop
      vertex -15.0333 -17.3 1
      vertex -15.4833 -17.3 3
      vertex -15.0333 -17.3 3
    endloop
  endfacet
  facet normal 0 1 0
    outer loop
      vertex -15.4833 -17.3 3
      vertex -15.0333 -17.3 1
      vertex -15.4833 -17.3 1
    endloop
  endfacet
  facet normal 1 -0 0
    outer loop
      vertex -12.1 -17.3 3
      vertex -12.1 -14.3667 1
      vertex -12.1 -14.3667 3
    endloop
  endfacet
  facet normal 1 0 0
    outer loop
      vertex -12.1 -14.3667 1
      vertex -12.1 -17.3 3
      vertex -12.1 -17.3 1
    endloop
  endfacet
  facet normal 1 -0 0
    outer loop
      vertex -12.1 -13.9167 3
      vertex -12.1 -10.9833 1
      vertex -12.1 -10.9833 3
    endloop
  endfacet
  facet normal 1 0 0
    outer loop
      vertex -12.1 -10.9833 1
      vertex -12.1 -13.9167 3
      vertex -12.1 -13.9167 1
    endloop
  endfacet
  facet normal 1 -0 0
    outer loop
      vertex -12.1 -10.5333 3
      vertex -12.1 -7.7 1
      vertex -12.1 -7.7 3
    endloop
  endfacet
  facet normal 1 0 0
    outer loop
      vertex -12.1 -7.7 1
      vertex -12.1 -10.5333 3
      vertex -12.1 -10.5333 1
    endloop
  endfacet
  facet normal -1 0 0
    outer loop
      vertex -11.65 -17.3 1
      vertex -11.65 -14.3667 3
      vertex -11.65 -14.3667 1
    endloop
  endfacet
  facet normal -1 -0 0
    outer loop
      vertex -11.65 -14.3667 3
      vertex -11.65 -17.3 1
      vertex -11.65 -17.3 3
    endloop
  endfacet
  facet normal -1 0 0
    outer loop
      vertex -11.65 -13.9167 1
      vertex -11.65 -10.9833 3
      vertex -11.65 -10.9833 1
    endloop
  endfacet
  facet normal -1 -0 0
    outer loop
      vertex -11.65 -10.9833 3
      vertex -11.65 -13.9167 1
      vertex -11.65 -13.9167 3
    endloop
  endfacet
  facet normal -1 0 0
    outer loop
      vertex -11.65 -10.5333 1
      vertex -11.65 -7.7 3
      vertex -11.65 -7.7 1
    endloop
  endfacet
  facet normal -1 -0 0
    outer loop
      vertex -11.65 -7.7 3
      vertex -11.65 -10.5333 1
      vertex -11.65 -10.5333 3
    endloop
  endfacet
  facet normal 0 1 -0
    outer loop
      vertex -11.65 -17.3 1
      vertex -12.1 -17.3 3
      vertex -11.65 -17.3 3
    endloop
  endfacet
  facet normal 0 1 0
    outer loop
      vertex -12.1 -17.3 3
      vertex -11.65 -17.3 1
      vertex -12.1 -17.3 1
    endloop
  endfacet
  facet normal 1 -0 0
    outer loop
      vertex -8.71667 -17.3 3
      vertex -8.71667 -14.3667 1
      vertex -8.71667 -14.3667 3
    endloop
  endfacet
  facet normal 1 0 0
    outer loop
      vertex -8.71667 -14.3667 1
      vertex -8.71667 -17.3 3
      vertex -8.71667 -17.3 1
    endloop
  endfacet
  facet normal 1 -0 0
    outer loop
      vertex -8.71667 -13.9167 3
      vertex -8.71667 -10.9833 1
      vertex -8.71667 -10.9833 3
    endloop
  endfacet
  facet normal 1 0 0
    outer loop
      vertex -8.71667 -10.9833 1
      vertex -8.71667 -13.9167 3
      vertex -8.71667 -13.9167 1
    endloop
  endfacet
  facet normal 1 -0 0
    outer loop
      vertex -8.71667 -10.5333 3
      vertex -8.71667 -7.7 1
      vertex -8.71667 -7.7 3
    endloop
  endfacet
  facet normal 1 0 0
    outer loop
      vertex -8.71667 -7.7 1
      vertex -8.71667 -10.5333 3
      vertex -8.71667 -10.5333 1
    endloop
  endfacet
  facet normal -1 0 0
    outer loop
      vertex -8.26667 -17.3 1
      vertex -8.26667 -14.3667 3
      vertex -8.26667 -14.3667 1
    endloop
  endfacet
  facet normal -1 -0 0
    outer loop
      vertex -8.26667 -14.3667 3
      vertex -8.26667 -17.3 1
      vertex -8.26667 -17.3 3
    endloop
  endfacet
  facet normal -1 0 0
    outer loop
      vertex -8.26667 -13.9167 1
      vertex -8.26667 -10.9833 3
      vertex -8.26667 -10.9833 1
    endloop
  endfacet
  facet normal -1 -0 0
    outer loop
      vertex -8.26667 -10.9833 3
      vertex -8.26667 -13.9167 1
      vertex -8.26667 -13.9167 3
    endloop
  endfacet
  facet normal -1 0 0
    outer loop
      vertex -8.26667 -10.5333 1
      vertex -8.26667 -7.7 3
      vertex -8.26667 -7.7 1
    endloop
  endfacet
  facet normal -1 -0 0
    outer loop
      vertex -8.26667 -7.7 3
      vertex -8.26667 -10.5333 1
      vertex -8.26667 -10.5333 3
    endloop
  endfacet
  facet normal 0 1 -0
    outer loop
      vertex -8.26667 -17.3 1
      vertex -8.71667 -17.3 3
      vertex -8.26667 -17.3 3
    endloop
  endfacet
  facet normal 0 1 0
    outer loop
      vertex -8.71667 -17.3 3
      vertex -8.26667 -17.3 1
      vertex -8.71667 -17.3 1
    endloop
  endfacet
  facet normal 1 -0 0
    outer loop
      vertex -5.33333 -17.3 3
      vertex -5.33333 -14.3667 1
      vertex -5.33333 -14.3667 3
    endloop
  endfacet
  facet normal 1 0 0
    outer loop
      vertex -5.33333 -14.3667 1
      vertex -5.33333 -17.3 3
      vertex -5.33333 -17.3 1
    endloop
  endfacet
  facet normal 1 -0 0
    outer loop
      vertex -5.33333 -13.9167 3
      vertex -5.33333 -10.9833 1
      vertex -5.33333 -10.9833 3
    endloop
  endfacet
  facet normal 1 0 0
    outer loop
      vertex -5.33333 -10.9833 1
      vertex -5.33333 -13.9167 3
      vertex -5.33333 -13.9167 1
    endloop
  endfacet
  facet normal 1 -0 0
    outer loop
      vertex -5.33333 -10.5333 3
      vertex -5.33333 -7.7 1
      vertex -5.33333 -7.7 3
    endloop
  endfacet
  facet normal 1 0 0
    outer loop
      vertex -5.33333 -7.7 1
      vertex -5.33333 -10.5333 3
      vertex -5.33333 -10.5333 1
    endloop
  endfacet
  facet normal -1 0 0
    outer loop
      vertex -4.88333 -17.3 1
      vertex -4.88333 -14.3667 3
      vertex -4.88333 -14.3667 1
    endloop
  endfacet
  facet normal -1 -0 0
    outer loop
      vertex -4.88333 -14.3667 3
      vertex -4.88333 -17.3 1
      vertex -4.88333 -17.3 3
    endloop
  endfacet
  facet normal -1 0 0
    outer loop
      vertex -4.88333 -13.9167 1
      vertex -4.88333 -10.9833 3
      vertex -4.88333 -10.9833 1
    endloop
  endfacet
  facet normal -1 -0 0
    outer loop
      vertex -4.88333 -10.9833 3
      vertex -4.88333 -13.9167 1
      vertex -4.88333 -13.9167 3
    endloop
  endfacet
  facet normal -1 0 0
    outer loop
      vertex -4.88333 -10.5333 1
      vertex -4.88333 -7.7 3
      vertex -4.88333 -7.7 1
    endloop
  endfacet
  facet normal -1 -0 0
    outer loop
      vertex -4.88333 -7.7 3
      vertex -4.88333 -10.5333 1
      vertex -4.88333 -10.5333 3
    endloop
  endfacet
  facet normal 0 1 -0
    outer loop
      vertex -4.88333 -17.3 1
      vertex -5.33333 -17.3 3
      vertex -4.88333 -17.3 3
    endloop
  endfacet
  facet normal 0 1 0
    outer loop
      vertex -5.33333 -17.3 3
      vertex -4.88333 -17.3 1
      vertex -5.33333 -17.3 1
    endloop
  endfacet
  facet normal 1 -0 0
    outer loop
      vertex -1.95 -17.3 3
      vertex -1.95 -14.3667 1
      vertex -1.95 -14.3667 3
    endloop
  endfacet
  facet normal 1 0 0
    outer loop
      vertex -1.95 -14.3667 1
      vertex -1.95 -17.3 3
      vertex -1.95 -17.3 1
    endloop
  endfacet
  facet normal 1 -0 0
    outer loop
      vertex -1.95 -13.9167 3
      vertex -1.95 -10.9833 1
      vertex -1.95 -10.9833 3
    endloop
  endfacet
  facet normal 1 0 0
    outer loop
      vertex -1.95 -10.9833 1
      vertex -1.95 -13.9167 3
      vertex -1.95 -13.9167 1
    endloop
  endfacet
  facet normal 1 -0 0
    outer loop
      vertex -1.95 -10.5333 3
      vertex -1.95 -7.7 1
      vertex -1.95 -7.7 3
    endloop
  endfacet
  facet normal 1 0 0
    outer loop
      vertex -1.95 -7.7 1
      vertex -1.95 -10.5333 3
      vertex -1.95 -10.5333 1
    endloop
  endfacet
  facet normal -1 0 0
    outer loop
      vertex -1.5 -17.3 1
      vertex -1.5 -14.3667 3
      vertex -1.5 -14.3667 1
    endloop
  endfacet
  facet normal -1 -0 0
    outer loop
      vertex -1.5 -14.3667 3
      vertex -1.5 -17.3 1
      vertex -1.5 -17.3 3
    endloop
  endfacet
  facet normal -1 0 0
    outer loop
      vertex -1.5 -13.9167 1
      vertex -1.5 -10.9833 3
      vertex -1.5 -10.9833 1
    endloop
  endfacet
  facet normal -1 -0 0
    outer loop
      vertex -1.5 -10.9833 3
      vertex -1.5 -13.9167 1
      vertex -1.5 -13.9167 3
    endloop
  endfacet
  facet normal -1 0 0
    outer loop
      vertex -1.5 -10.5333 1
      vertex -1.5 -7.7 3
      vertex -1.5 -7.7 1
    endloop
  endfacet
  facet normal -1 -0 0
    outer loop
      vertex -1.5 -7.7 3
      vertex -1.5 -10.5333 1
      vertex -1.5 -10.5333 3
    endloop
  endfacet
  facet normal 0 1 -0
    outer loop
      vertex -1.5 -17.3 1
      vertex -1.95 -17.3 3
      vertex -1.5 -17.3 3
    endloop
  endfacet
  facet normal 0 1 0
    outer loop
      vertex -1.95 -17.3 3
      vertex -1.5 -17.3 1
      vertex -1.95 -17.3 1
    endloop
  endfacet
  facet normal 1 -0 0
    outer loop
      vertex 1.43333 -17.3 3
      vertex 1.43333 -14.3667 1
      vertex 1.43333 -14.3667 3
    endloop
  endfacet
  facet normal 1 0 0
    outer loop
      vertex 1.43333 -14.3667 1
      vertex 1.43333 -17.3 3
      vertex 1.43333 -17.3 1
    endloop
  endfacet
  facet normal 1 -0 0
    outer loop
      vertex 1.43333 -13.9167 3
      vertex 1.43333 -10.9833 1
      vertex 1.43333 -10.9833 3
    endloop
  endfacet
  facet normal 1 0 0
    outer loop
      vertex 1.43333 -10.9833 1
      vertex 1.43333 -13.9167 3
      vertex 1.43333 -13.9167 1
    endloop
  endfacet
  facet normal 1 -0 0
    outer loop
      vertex 1.43333 -10.5333 3
      vertex 1.43333 -7.7 1
      vertex 1.43333 -7.7 3
    endloop
  endfacet
  facet normal 1 0 0
    outer loop
      vertex 1.43333 -7.7 1
      vertex 1.43333 -10.5333 3
      vertex 1.43333 -10.5333 1
    endloop
  endfacet
  facet normal -1 0 0
    outer loop
      vertex 1.88333 -17.3 1
      vertex 1.88333 -14.3667 3
      vertex 1.88333 -14.3667 1
    endloop
  endfacet
  facet normal -1 -0 0
    outer loop
      vertex 1.88333 -14.3667 3
      vertex 1.88333 -17.3 1
      vertex 1.88333 -17.3 3
    endloop
  endfacet
  facet normal -1 0 0
    outer loop
      vertex 1.88333 -13.9167 1
      vertex 1.88333 -10.9833 3
      vertex 1.88333 -10.9833 1
    endloop
  endfacet
  facet normal -1 -0 0
    outer loop
      vertex 1.88333 -10.9833 3
      vertex 1.88333 -13.9167 1
      vertex 1.88333 -13.9167 3
    endloop
  endfacet
  facet normal -1 0 0
    outer loop
      vertex 1.88333 -10.5333 1
      vertex 1.88333 -7.7 3
      vertex 1.88333 -7.7 1
    endloop
  endfacet
  facet normal -1 -0 0
    outer loop
      vertex 1.88333 -7.7 3
      vertex 1.88333 -10.5333 1
      vertex 1.88333 -10.5333 3
    endloop
  endfacet
  facet normal 0 1 -0
    outer loop
      vertex 1.88333 -17.3 1
      vertex 1.43333 -17.3 3
      vertex 1.88333 -17.3 3
    endloop
  endfacet
  facet normal 0 1 0
    outer loop
      vertex 1.43333 -17.3 3
      vertex 1.88333 -17.3 1
      vertex 1.43333 -17.3 1
    endloop
  endfacet
  facet normal 1 -0 0
    outer loop
      vertex 4.81667 -17.3 3
      vertex 4.81667 -14.3667 1
      vertex 4.81667 -14.3667 3
    endloop
  endfacet
  facet normal 1 0 0
    outer loop
      vertex 4.81667 -14.3667 1
      vertex 4.81667 -17.3 3
      vertex 4.81667 -17.3 1
    endloop
  endfacet
  facet normal 1 -0 0
    outer loop
      vertex 4.81667 -13.9167 3
      vertex 4.81667 -10.9833 1
      vertex 4.81667 -10.9833 3
    endloop
  endfacet
  facet normal 1 0 0
    outer loop
      vertex 4.81667 -10.9833 1
      vertex 4.81667 -13.9167 3
      vertex 4.81667 -13.9167 1
    endloop
  endfacet
  facet normal 1 -0 0
    outer loop
      vertex 4.81667 -10.5333 3
      vertex 4.81667 -7.7 1
      vertex 4.81667 -7.7 3
    endloop
  endfacet
  facet normal 1 0 0
    outer loop
      vertex 4.81667 -7.7 1
      vertex 4.81667 -10.5333 3
      vertex 4.81667 -10.5333 1
    endloop
  endfacet
  facet normal -1 0 0
    outer loop
      vertex 5.26667 -17.3 1
      vertex 5.26667 -14.3667 3
      vertex 5.26667 -14.3667 1
    endloop
  endfacet
  facet normal -1 -0 0
    outer loop
      vertex 5.26667 -14.3667 3
      vertex 5.26667 -17.3 1
      vertex 5.26667 -17.3 3
    endloop
  endfacet
  facet normal -1 0 0
    outer loop
      vertex 5.26667 -13.9167 1
      vertex 5.26667 -10.9833 3
      vertex 5.26667 -10.9833 1
    endloop
  endfacet
  facet normal -1 -0 0
    outer loop
      vertex 5.26667 -10.9833 3
      vertex 5.26667 -13.9167 1
      vertex 5.26667 -13.9167 3
    endloop
  endfacet
  facet normal -1 0 0
    outer loop
      vertex 5.26667 -10.5333 1
      vertex 5.26667 -7.7 3
      vertex 5.26667 -7.7 1
    endloop
  endfacet
  facet normal -1 -0 0
    outer loop
      vertex 5.26667 -7.7 3
      vertex 5.26667 -10.5333 1
      vertex 5.26667 -10.5333 3
    endloop
  endfacet
  facet normal 1 -0 0
    outer loop
      vertex 8.2 -17.3 3
      vertex 8.2 -14.3667 1
      vertex 8.2 -14.3667 3
    endloop
  endfacet
  facet normal 1 0 0
    outer loop
      vertex 8.2 -14.3667 1
      vertex 8.2 -17.3 3
      vertex 8.2 -17.3 1
    endloop
  endfacet
  facet normal 1 -0 0
    outer loop
      vertex 8.2 -13.9167 3
      vertex 8.2 -10.9833 1
      vertex 8.2 -10.9833 3
    endloop
  endfacet
  facet normal 1 0 0
    outer loop
      vertex 8.2 -10.9833 1
      vertex 8.2 -13.9167 3
      vertex 8.2 -13.9167 1
    endloop
  endfacet
  facet normal 1 -0 0
    outer loop
      vertex 8.2 -10.5333 3
      vertex 8.2 -7.7 1
      vertex 8.2 -7.7 3
    endloop
  endfacet
  facet normal 1 0 0
    outer loop
      vertex 8.2 -7.7 1
      vertex 8.2 -10.5333 3
      vertex 8.2 -10.5333 1
    endloop
  endfacet
  facet normal 1 -0 0
    outer loop
      vertex 14.75 -13.9167 3
      vertex 14.75 -10.9833 1
      vertex 14.75 -10.9833 3
    endloop
  endfacet
  facet normal 1 0 0
    outer loop
      vertex 14.75 -10.9833 1
      vertex 14.75 -13.9167 3
      vertex 14.75 -13.9167 1
    endloop
  endfacet
  facet normal 1 -0 0
    outer loop
      vertex 14.75 -10.5333 3
      vertex 14.75 -7.75333 1
      vertex 14.75 -7.75333 3
    endloop
  endfacet
  facet normal 1 0 0
    outer loop
      vertex 14.75 -7.75333 1
      vertex 14.75 -10.5333 3
      vertex 14.75 -10.5333 1
    endloop
  endfacet
  facet normal 1 -0 0
    outer loop
      vertex 14.75 -17.3 3
      vertex 14.75 -14.3667 1
      vertex 14.75 -14.3667 3
    endloop
  endfacet
  facet normal 1 0 0
    outer loop
      vertex 14.75 -14.3667 1
      vertex 14.75 -17.3 3
      vertex 14.75 -17.3 1
    endloop
  endfacet
  facet normal 1 -0 0
    outer loop
      vertex 14.75 -20.4833 3
      vertex 14.75 -17.75 1
      vertex 14.75 -17.75 3
    endloop
  endfacet
  facet normal 1 0 0
    outer loop
      vertex 14.75 -17.75 1
      vertex 14.75 -20.4833 3
      vertex 14.75 -20.4833 1
    endloop
  endfacet
  facet normal -1 0 0
    outer loop
      vertex 15.2 -13.9167 1
      vertex 15.2 -10.9833 3
      vertex 15.2 -10.9833 1
    endloop
  endfacet
  facet normal -1 -0 0
    outer loop
      vertex 15.2 -10.9833 3
      vertex 15.2 -13.9167 1
      vertex 15.2 -13.9167 3
    endloop
  endfacet
  facet normal -1 0 0
    outer loop
      vertex 15.2 -10.5333 1
      vertex 15.2 -7.75333 3
      vertex 15.2 -7.75333 1
    endloop
  endfacet
  facet normal -1 -0 0
    outer loop
      vertex 15.2 -7.75333 3
      vertex 15.2 -10.5333 1
      vertex 15.2 -10.5333 3
    endloop
  endfacet
  facet normal -1 0 0
    outer loop
      vertex 15.2 -17.3 1
      vertex 15.2 -14.3667 3
      vertex 15.2 -14.3667 1
    endloop
  endfacet
  facet normal -1 -0 0
    outer loop
      vertex 15.2 -14.3667 3
      vertex 15.2 -17.3 1
      vertex 15.2 -17.3 3
    endloop
  endfacet
  facet normal -1 0 0
    outer loop
      vertex 15.2 -20.4833 1
      vertex 15.2 -17.75 3
      vertex 15.2 -17.75 1
    endloop
  endfacet
  facet normal -1 -0 0
    outer loop
      vertex 15.2 -17.75 3
      vertex 15.2 -20.4833 1
      vertex 15.2 -20.4833 3
    endloop
  endfacet
  facet normal 1 -0 0
    outer loop
      vertex 18.1333 -13.9167 3
      vertex 18.1333 -10.9833 1
      vertex 18.1333 -10.9833 3
    endloop
  endfacet
  facet normal 1 0 0
    outer loop
      vertex 18.1333 -10.9833 1
      vertex 18.1333 -13.9167 3
      vertex 18.1333 -13.9167 1
    endloop
  endfacet
  facet normal 1 -0 0
    outer loop
      vertex 18.1333 -10.5333 3
      vertex 18.1333 -7.75333 1
      vertex 18.1333 -7.75333 3
    endloop
  endfacet
  facet normal 1 0 0
    outer loop
      vertex 18.1333 -7.75333 1
      vertex 18.1333 -10.5333 3
      vertex 18.1333 -10.5333 1
    endloop
  endfacet
  facet normal 1 -0 0
    outer loop
      vertex 18.1333 -17.3 3
      vertex 18.1333 -14.3667 1
      vertex 18.1333 -14.3667 3
    endloop
  endfacet
  facet normal 1 0 0
    outer loop
      vertex 18.1333 -14.3667 1
      vertex 18.1333 -17.3 3
      vertex 18.1333 -17.3 1
    endloop
  endfacet
  facet normal 1 -0 0
    outer loop
      vertex 18.1333 -20.4833 3
      vertex 18.1333 -17.75 1
      vertex 18.1333 -17.75 3
    endloop
  endfacet
  facet normal 1 0 0
    outer loop
      vertex 18.1333 -17.75 1
      vertex 18.1333 -20.4833 3
      vertex 18.1333 -20.4833 1
    endloop
  endfacet
  facet normal -1 0 0
    outer loop
      vertex 18.5833 -13.9167 1
      vertex 18.5833 -10.9833 3
      vertex 18.5833 -10.9833 1
    endloop
  endfacet
  facet normal -1 -0 0
    outer loop
      vertex 18.5833 -10.9833 3
      vertex 18.5833 -13.9167 1
      vertex 18.5833 -13.9167 3
    endloop
  endfacet
  facet normal -1 0 0
    outer loop
      vertex 18.5833 -10.5333 1
      vertex 18.5833 -7.75333 3
      vertex 18.5833 -7.75333 1
    endloop
  endfacet
  facet normal -1 -0 0
    outer loop
      vertex 18.5833 -7.75333 3
      vertex 18.5833 -10.5333 1
      vertex 18.5833 -10.5333 3
    endloop
  endfacet
  facet normal -1 0 0
    outer loop
      vertex 18.5833 -17.3 1
      vertex 18.5833 -14.3667 3
      vertex 18.5833 -14.3667 1
    endloop
  endfacet
  facet normal -1 -0 0
    outer loop
      vertex 18.5833 -14.3667 3
      vertex 18.5833 -17.3 1
      vertex 18.5833 -17.3 3
    endloop
  endfacet
  facet normal -1 0 0
    outer loop
      vertex 18.5833 -20.4833 1
      vertex 18.5833 -17.75 3
      vertex 18.5833 -17.75 1
    endloop
  endfacet
  facet normal -1 -0 0
    outer loop
      vertex 18.5833 -17.75 3
      vertex 18.5833 -20.4833 1
      vertex 18.5833 -20.4833 3
    endloop
  endfacet
endsolid OpenSCAD_Model
