solid OpenSCAD_Model
  facet normal 1 -0 0
    outer loop
      vertex -14.28 1.8 46.8
      vertex -14.28 2.06 27.8
      vertex -14.28 2.06 46.8
    endloop
  endfacet
  facet normal 1 0 0
    outer loop
      vertex -14.28 2.06 27.8
      vertex -14.28 1.8 46.8
      vertex -14.28 1.8 27.8
    endloop
  endfacet
  facet normal -1 0 0
    outer loop
      vertex 14.79 1.8 27.8
      vertex 14.79 2.06 46.8
      vertex 14.79 2.06 27.8
    endloop
  endfacet
  facet normal -1 -0 0
    outer loop
      vertex 14.79 2.06 46.8
      vertex 14.79 1.8 27.8
      vertex 14.79 1.8 46.8
    endloop
  endfacet
  facet normal -0 0 1
    outer loop
      vertex -14.28 2.06 27.8
      vertex 14.79 1.8 27.8
      vertex 14.79 2.06 27.8
    endloop
  endfacet
  facet normal 0 0 1
    outer loop
      vertex 14.79 1.8 27.8
      vertex -14.28 2.06 27.8
      vertex -14.28 1.8 27.8
    endloop
  endfacet
  facet normal 0 1 0
    outer loop
      vertex 14.79 1.8 46.8
      vertex 10.5 1.8 46.45
      vertex -14.28 1.8 46.8
    endloop
  endfacet
  facet normal 0 1 0
    outer loop
      vertex 14.79 1.8 46.8
      vertex 10.6648 1.8 46.4424
      vertex 10.5 1.8 46.45
    endloop
  endfacet
  facet normal 0 1 0
    outer loop
      vertex 14.79 1.8 46.8
      vertex 10.8285 1.8 46.4198
      vertex 10.6648 1.8 46.4424
    endloop
  endfacet
  facet normal 0 1 0
    outer loop
      vertex 14.79 1.8 46.8
      vertex 10.9902 1.8 46.3823
      vertex 10.8285 1.8 46.4198
    endloop
  endfacet
  facet normal 0 1 0
    outer loop
      vertex 14.79 1.8 46.8
      vertex 11.1489 1.8 46.3301
      vertex 10.9902 1.8 46.3823
    endloop
  endfacet
  facet normal 0 1 0
    outer loop
      vertex 14.79 1.8 46.8
      vertex 11.3036 1.8 46.2635
      vertex 11.1489 1.8 46.3301
    endloop
  endfacet
  facet normal 0 1 0
    outer loop
      vertex 14.79 1.8 46.8
      vertex 11.4534 1.8 46.183
      vertex 11.3036 1.8 46.2635
    endloop
  endfacet
  facet normal 0 1 0
    outer loop
      vertex 14.79 1.8 46.8
      vertex 11.5972 1.8 46.089
      vertex 11.4534 1.8 46.183
    endloop
  endfacet
  facet normal 0 1 0
    outer loop
      vertex 14.79 1.8 46.8
      vertex 11.7343 1.8 45.9821
      vertex 11.5972 1.8 46.089
    endloop
  endfacet
  facet normal 0 1 0
    outer loop
      vertex 14.79 1.8 46.8
      vertex 11.8638 1.8 45.863
      vertex 11.7343 1.8 45.9821
    endloop
  endfacet
  facet normal 0 1 0
    outer loop
      vertex 14.79 1.8 46.8
      vertex 11.9849 1.8 45.7324
      vertex 11.8638 1.8 45.863
    endloop
  endfacet
  facet normal 0 1 0
    outer loop
      vertex 14.79 1.8 46.8
      vertex 12.0969 1.8 45.5911
      vertex 11.9849 1.8 45.7324
    endloop
  endfacet
  facet normal 0 1 0
    outer loop
      vertex 14.79 1.8 46.8
      vertex 12.1989 1.8 45.4401
      vertex 12.0969 1.8 45.5911
    endloop
  endfacet
  facet normal 0 1 0
    outer loop
      vertex 14.79 1.8 46.8
      vertex 12.2905 1.8 45.2801
      vertex 12.1989 1.8 45.4401
    endloop
  endfacet
  facet normal 0 1 0
    outer loop
      vertex 14.79 1.8 46.8
      vertex 12.3711 1.8 45.1123
      vertex 12.2905 1.8 45.2801
    endloop
  endfacet
  facet normal 0 1 0
    outer loop
      vertex 14.79 1.8 46.8
      vertex 12.4401 1.8 44.9376
      vertex 12.3711 1.8 45.1123
    endloop
  endfacet
  facet normal 0 1 0
    outer loop
      vertex 14.79 1.8 46.8
      vertex 12.4972 1.8 44.7571
      vertex 12.4401 1.8 44.9376
    endloop
  endfacet
  facet normal 0 1 0
    outer loop
      vertex 14.79 1.8 46.8
      vertex 12.542 1.8 44.5719
      vertex 12.4972 1.8 44.7571
    endloop
  endfacet
  facet normal 0 1 0
    outer loop
      vertex 14.79 1.8 46.8
      vertex 12.5741 1.8 44.3833
      vertex 12.542 1.8 44.5719
    endloop
  endfacet
  facet normal 0 1 0
    outer loop
      vertex 14.79 1.8 46.8
      vertex 12.5935 1.8 44.1922
      vertex 12.5741 1.8 44.3833
    endloop
  endfacet
  facet normal 0 1 0
    outer loop
      vertex 14.79 1.8 46.8
      vertex 12.6 1.8 44
      vertex 12.5935 1.8 44.1922
    endloop
  endfacet
  facet normal 0 1 0
    outer loop
      vertex 14.79 1.8 46.8
      vertex 12.6 1.8 33.5
      vertex 12.6 1.8 44
    endloop
  endfacet
  facet normal 0 1 -0
    outer loop
      vertex 14.79 1.8 27.8
      vertex 12.6 1.8 33.5
      vertex 14.79 1.8 46.8
    endloop
  endfacet
  facet normal 0 1 0
    outer loop
      vertex 12.6 1.8 33.5
      vertex 14.79 1.8 27.8
      vertex 12.5935 1.8 33.3078
    endloop
  endfacet
  facet normal 0 1 0
    outer loop
      vertex -14.28 1.8 27.8
      vertex 10.5 1.8 31.05
      vertex 14.79 1.8 27.8
    endloop
  endfacet
  facet normal 0 1 0
    outer loop
      vertex 10.6648 1.8 31.0576
      vertex 14.79 1.8 27.8
      vertex 10.5 1.8 31.05
    endloop
  endfacet
  facet normal 0 1 0
    outer loop
      vertex 10.8285 1.8 31.0802
      vertex 14.79 1.8 27.8
      vertex 10.6648 1.8 31.0576
    endloop
  endfacet
  facet normal 0 1 0
    outer loop
      vertex 10.9902 1.8 31.1177
      vertex 14.79 1.8 27.8
      vertex 10.8285 1.8 31.0802
    endloop
  endfacet
  facet normal 0 1 0
    outer loop
      vertex 11.1489 1.8 31.1699
      vertex 14.79 1.8 27.8
      vertex 10.9902 1.8 31.1177
    endloop
  endfacet
  facet normal 0 1 0
    outer loop
      vertex 11.3036 1.8 31.2365
      vertex 14.79 1.8 27.8
      vertex 11.1489 1.8 31.1699
    endloop
  endfacet
  facet normal 0 1 0
    outer loop
      vertex 11.4534 1.8 31.317
      vertex 14.79 1.8 27.8
      vertex 11.3036 1.8 31.2365
    endloop
  endfacet
  facet normal 0 1 0
    outer loop
      vertex 11.5972 1.8 31.411
      vertex 14.79 1.8 27.8
      vertex 11.4534 1.8 31.317
    endloop
  endfacet
  facet normal 0 1 0
    outer loop
      vertex 11.7343 1.8 31.5179
      vertex 14.79 1.8 27.8
      vertex 11.5972 1.8 31.411
    endloop
  endfacet
  facet normal 0 1 0
    outer loop
      vertex 11.8638 1.8 31.637
      vertex 14.79 1.8 27.8
      vertex 11.7343 1.8 31.5179
    endloop
  endfacet
  facet normal 0 1 0
    outer loop
      vertex 11.9849 1.8 31.7676
      vertex 14.79 1.8 27.8
      vertex 11.8638 1.8 31.637
    endloop
  endfacet
  facet normal 0 1 0
    outer loop
      vertex 12.0969 1.8 31.9089
      vertex 14.79 1.8 27.8
      vertex 11.9849 1.8 31.7676
    endloop
  endfacet
  facet normal 0 1 0
    outer loop
      vertex 12.1989 1.8 32.0599
      vertex 14.79 1.8 27.8
      vertex 12.0969 1.8 31.9089
    endloop
  endfacet
  facet normal 0 1 0
    outer loop
      vertex 12.2905 1.8 32.2199
      vertex 14.79 1.8 27.8
      vertex 12.1989 1.8 32.0599
    endloop
  endfacet
  facet normal 0 1 0
    outer loop
      vertex 12.3711 1.8 32.3877
      vertex 14.79 1.8 27.8
      vertex 12.2905 1.8 32.2199
    endloop
  endfacet
  facet normal 0 1 0
    outer loop
      vertex 12.4401 1.8 32.5624
      vertex 14.79 1.8 27.8
      vertex 12.3711 1.8 32.3877
    endloop
  endfacet
  facet normal 0 1 0
    outer loop
      vertex 12.4972 1.8 32.7429
      vertex 14.79 1.8 27.8
      vertex 12.4401 1.8 32.5624
    endloop
  endfacet
  facet normal 0 1 0
    outer loop
      vertex 12.542 1.8 32.9281
      vertex 14.79 1.8 27.8
      vertex 12.4972 1.8 32.7429
    endloop
  endfacet
  facet normal 0 1 0
    outer loop
      vertex 12.5741 1.8 33.1167
      vertex 14.79 1.8 27.8
      vertex 12.542 1.8 32.9281
    endloop
  endfacet
  facet normal 0 1 0
    outer loop
      vertex 12.5935 1.8 33.3078
      vertex 14.79 1.8 27.8
      vertex 12.5741 1.8 33.1167
    endloop
  endfacet
  facet normal 0 1 -0
    outer loop
      vertex -10.5 1.8 46.45
      vertex -14.28 1.8 46.8
      vertex 10.5 1.8 46.45
    endloop
  endfacet
  facet normal 0 1 -0
    outer loop
      vertex -10.6648 1.8 46.4424
      vertex -14.28 1.8 46.8
      vertex -10.5 1.8 46.45
    endloop
  endfacet
  facet normal 0 1 -0
    outer loop
      vertex -10.8285 1.8 46.4198
      vertex -14.28 1.8 46.8
      vertex -10.6648 1.8 46.4424
    endloop
  endfacet
  facet normal 0 1 -0
    outer loop
      vertex -10.9902 1.8 46.3823
      vertex -14.28 1.8 46.8
      vertex -10.8285 1.8 46.4198
    endloop
  endfacet
  facet normal 0 1 -0
    outer loop
      vertex -11.1489 1.8 46.3301
      vertex -14.28 1.8 46.8
      vertex -10.9902 1.8 46.3823
    endloop
  endfacet
  facet normal 0 1 -0
    outer loop
      vertex -11.3036 1.8 46.2635
      vertex -14.28 1.8 46.8
      vertex -11.1489 1.8 46.3301
    endloop
  endfacet
  facet normal 0 1 -0
    outer loop
      vertex -11.4534 1.8 46.183
      vertex -14.28 1.8 46.8
      vertex -11.3036 1.8 46.2635
    endloop
  endfacet
  facet normal 0 1 -0
    outer loop
      vertex -11.5972 1.8 46.089
      vertex -14.28 1.8 46.8
      vertex -11.4534 1.8 46.183
    endloop
  endfacet
  facet normal 0 1 -0
    outer loop
      vertex -11.7343 1.8 45.9821
      vertex -14.28 1.8 46.8
      vertex -11.5972 1.8 46.089
    endloop
  endfacet
  facet normal 0 1 -0
    outer loop
      vertex -11.8638 1.8 45.863
      vertex -14.28 1.8 46.8
      vertex -11.7343 1.8 45.9821
    endloop
  endfacet
  facet normal 0 1 -0
    outer loop
      vertex -11.9849 1.8 45.7324
      vertex -14.28 1.8 46.8
      vertex -11.8638 1.8 45.863
    endloop
  endfacet
  facet normal 0 1 -0
    outer loop
      vertex -12.0969 1.8 45.5911
      vertex -14.28 1.8 46.8
      vertex -11.9849 1.8 45.7324
    endloop
  endfacet
  facet normal 0 1 -0
    outer loop
      vertex -12.1989 1.8 45.4401
      vertex -14.28 1.8 46.8
      vertex -12.0969 1.8 45.5911
    endloop
  endfacet
  facet normal 0 1 -0
    outer loop
      vertex -12.2905 1.8 45.2801
      vertex -14.28 1.8 46.8
      vertex -12.1989 1.8 45.4401
    endloop
  endfacet
  facet normal 0 1 -0
    outer loop
      vertex -12.3711 1.8 45.1123
      vertex -14.28 1.8 46.8
      vertex -12.2905 1.8 45.2801
    endloop
  endfacet
  facet normal 0 1 -0
    outer loop
      vertex -12.4401 1.8 44.9376
      vertex -14.28 1.8 46.8
      vertex -12.3711 1.8 45.1123
    endloop
  endfacet
  facet normal 0 1 -0
    outer loop
      vertex -12.4972 1.8 44.7571
      vertex -14.28 1.8 46.8
      vertex -12.4401 1.8 44.9376
    endloop
  endfacet
  facet normal 0 1 -0
    outer loop
      vertex -12.542 1.8 44.5719
      vertex -14.28 1.8 46.8
      vertex -12.4972 1.8 44.7571
    endloop
  endfacet
  facet normal 0 1 -0
    outer loop
      vertex -12.5741 1.8 44.3833
      vertex -14.28 1.8 46.8
      vertex -12.542 1.8 44.5719
    endloop
  endfacet
  facet normal 0 1 -0
    outer loop
      vertex -12.5935 1.8 44.1922
      vertex -14.28 1.8 46.8
      vertex -12.5741 1.8 44.3833
    endloop
  endfacet
  facet normal 0 1 -0
    outer loop
      vertex -12.6 1.8 44
      vertex -14.28 1.8 46.8
      vertex -12.5935 1.8 44.1922
    endloop
  endfacet
  facet normal 0 1 -0
    outer loop
      vertex -12.6 1.8 33.5
      vertex -14.28 1.8 46.8
      vertex -12.6 1.8 44
    endloop
  endfacet
  facet normal 0 1 0
    outer loop
      vertex -14.28 1.8 27.8
      vertex -12.6 1.8 33.5
      vertex -12.5935 1.8 33.3078
    endloop
  endfacet
  facet normal 0 1 0
    outer loop
      vertex -14.28 1.8 27.8
      vertex -12.5935 1.8 33.3078
      vertex -12.5741 1.8 33.1167
    endloop
  endfacet
  facet normal 0 1 0
    outer loop
      vertex 10.5 1.8 31.05
      vertex -14.28 1.8 27.8
      vertex -10.5 1.8 31.05
    endloop
  endfacet
  facet normal 0 1 0
    outer loop
      vertex -12.6 1.8 33.5
      vertex -14.28 1.8 27.8
      vertex -14.28 1.8 46.8
    endloop
  endfacet
  facet normal 0 1 0
    outer loop
      vertex -12.542 1.8 32.9281
      vertex -14.28 1.8 27.8
      vertex -12.5741 1.8 33.1167
    endloop
  endfacet
  facet normal 0 1 0
    outer loop
      vertex -12.4972 1.8 32.7429
      vertex -14.28 1.8 27.8
      vertex -12.542 1.8 32.9281
    endloop
  endfacet
  facet normal 0 1 0
    outer loop
      vertex -12.4401 1.8 32.5624
      vertex -14.28 1.8 27.8
      vertex -12.4972 1.8 32.7429
    endloop
  endfacet
  facet normal 0 1 0
    outer loop
      vertex -12.3711 1.8 32.3877
      vertex -14.28 1.8 27.8
      vertex -12.4401 1.8 32.5624
    endloop
  endfacet
  facet normal 0 1 0
    outer loop
      vertex -12.2905 1.8 32.2199
      vertex -14.28 1.8 27.8
      vertex -12.3711 1.8 32.3877
    endloop
  endfacet
  facet normal 0 1 0
    outer loop
      vertex -12.1989 1.8 32.0599
      vertex -14.28 1.8 27.8
      vertex -12.2905 1.8 32.2199
    endloop
  endfacet
  facet normal 0 1 0
    outer loop
      vertex -12.0969 1.8 31.9089
      vertex -14.28 1.8 27.8
      vertex -12.1989 1.8 32.0599
    endloop
  endfacet
  facet normal 0 1 0
    outer loop
      vertex -11.9849 1.8 31.7676
      vertex -14.28 1.8 27.8
      vertex -12.0969 1.8 31.9089
    endloop
  endfacet
  facet normal 0 1 0
    outer loop
      vertex -11.8638 1.8 31.637
      vertex -14.28 1.8 27.8
      vertex -11.9849 1.8 31.7676
    endloop
  endfacet
  facet normal 0 1 0
    outer loop
      vertex -11.7343 1.8 31.5179
      vertex -14.28 1.8 27.8
      vertex -11.8638 1.8 31.637
    endloop
  endfacet
  facet normal 0 1 0
    outer loop
      vertex -11.5972 1.8 31.411
      vertex -14.28 1.8 27.8
      vertex -11.7343 1.8 31.5179
    endloop
  endfacet
  facet normal 0 1 0
    outer loop
      vertex -11.4534 1.8 31.317
      vertex -14.28 1.8 27.8
      vertex -11.5972 1.8 31.411
    endloop
  endfacet
  facet normal 0 1 0
    outer loop
      vertex -11.3036 1.8 31.2365
      vertex -14.28 1.8 27.8
      vertex -11.4534 1.8 31.317
    endloop
  endfacet
  facet normal 0 1 0
    outer loop
      vertex -11.1489 1.8 31.1699
      vertex -14.28 1.8 27.8
      vertex -11.3036 1.8 31.2365
    endloop
  endfacet
  facet normal 0 1 0
    outer loop
      vertex -10.9902 1.8 31.1177
      vertex -14.28 1.8 27.8
      vertex -11.1489 1.8 31.1699
    endloop
  endfacet
  facet normal 0 1 0
    outer loop
      vertex -10.8285 1.8 31.0802
      vertex -14.28 1.8 27.8
      vertex -10.9902 1.8 31.1177
    endloop
  endfacet
  facet normal 0 1 0
    outer loop
      vertex -10.6648 1.8 31.0576
      vertex -14.28 1.8 27.8
      vertex -10.8285 1.8 31.0802
    endloop
  endfacet
  facet normal 0 1 0
    outer loop
      vertex -10.5 1.8 31.05
      vertex -14.28 1.8 27.8
      vertex -10.6648 1.8 31.0576
    endloop
  endfacet
  facet normal 0 0 -1
    outer loop
      vertex -14.28 1.8 46.8
      vertex 14.79 2.06 46.8
      vertex 14.79 1.8 46.8
    endloop
  endfacet
  facet normal -0 0 -1
    outer loop
      vertex 14.79 2.06 46.8
      vertex -14.28 1.8 46.8
      vertex -14.28 2.06 46.8
    endloop
  endfacet
  facet normal 0 -1 0
    outer loop
      vertex -15.5742 0.0599998 50.5997
      vertex -10.5 0.0599998 46.45
      vertex 15.5742 0.0599998 50.5997
    endloop
  endfacet
  facet normal 0 -1 0
    outer loop
      vertex -15.5742 0.0599998 50.5997
      vertex -10.6648 0.0599998 46.4424
      vertex -10.5 0.0599998 46.45
    endloop
  endfacet
  facet normal 0 -1 0
    outer loop
      vertex -15.5742 0.0599998 50.5997
      vertex -10.8285 0.0599998 46.4198
      vertex -10.6648 0.0599998 46.4424
    endloop
  endfacet
  facet normal 0 -1 0
    outer loop
      vertex -15.5742 0.0599998 50.5997
      vertex -10.9902 0.0599998 46.3823
      vertex -10.8285 0.0599998 46.4198
    endloop
  endfacet
  facet normal 0 -1 0
    outer loop
      vertex -15.5742 0.0599998 50.5997
      vertex -11.1489 0.0599998 46.3301
      vertex -10.9902 0.0599998 46.3823
    endloop
  endfacet
  facet normal 0 -1 0
    outer loop
      vertex -15.5742 0.0599998 50.5997
      vertex -11.3036 0.0599998 46.2635
      vertex -11.1489 0.0599998 46.3301
    endloop
  endfacet
  facet normal 0 -1 0
    outer loop
      vertex -15.5742 0.0599998 50.5997
      vertex -11.4534 0.0599998 46.183
      vertex -11.3036 0.0599998 46.2635
    endloop
  endfacet
  facet normal 0 -1 0
    outer loop
      vertex -15.5742 0.0599998 50.5997
      vertex -11.5972 0.0599998 46.089
      vertex -11.4534 0.0599998 46.183
    endloop
  endfacet
  facet normal 0 -1 0
    outer loop
      vertex -15.5742 0.0599998 50.5997
      vertex -11.7343 0.0599998 45.9821
      vertex -11.5972 0.0599998 46.089
    endloop
  endfacet
  facet normal 0 -1 0
    outer loop
      vertex -15.5742 0.0599998 50.5997
      vertex -11.8638 0.0599998 45.863
      vertex -11.7343 0.0599998 45.9821
    endloop
  endfacet
  facet normal 0 -1 0
    outer loop
      vertex -15.5742 0.0599998 50.5997
      vertex -11.9849 0.0599998 45.7324
      vertex -11.8638 0.0599998 45.863
    endloop
  endfacet
  facet normal 0 -1 0
    outer loop
      vertex -15.5742 0.0599998 50.5997
      vertex -12.0969 0.0599998 45.5911
      vertex -11.9849 0.0599998 45.7324
    endloop
  endfacet
  facet normal 0 -1 0
    outer loop
      vertex -15.5742 0.0599998 50.5997
      vertex -12.1989 0.0599998 45.4401
      vertex -12.0969 0.0599998 45.5911
    endloop
  endfacet
  facet normal 0 -1 0
    outer loop
      vertex -15.5742 0.0599998 50.5997
      vertex -12.2905 0.0599998 45.2801
      vertex -12.1989 0.0599998 45.4401
    endloop
  endfacet
  facet normal 0 -1 0
    outer loop
      vertex -15.5742 0.0599998 50.5997
      vertex -12.3711 0.0599998 45.1123
      vertex -12.2905 0.0599998 45.2801
    endloop
  endfacet
  facet normal 0 -1 0
    outer loop
      vertex -15.5742 0.0599998 50.5997
      vertex -12.4401 0.0599998 44.9376
      vertex -12.3711 0.0599998 45.1123
    endloop
  endfacet
  facet normal 0 -1 0
    outer loop
      vertex -15.5742 0.0599998 50.5997
      vertex -12.4972 0.0599998 44.7571
      vertex -12.4401 0.0599998 44.9376
    endloop
  endfacet
  facet normal 0 -1 0
    outer loop
      vertex -15.5742 0.0599998 50.5997
      vertex -12.542 0.0599998 44.5719
      vertex -12.4972 0.0599998 44.7571
    endloop
  endfacet
  facet normal 0 -1 0
    outer loop
      vertex -15.5742 0.0599998 50.5997
      vertex -12.5741 0.0599998 44.3833
      vertex -12.542 0.0599998 44.5719
    endloop
  endfacet
  facet normal 0 -1 0
    outer loop
      vertex -15.5742 0.0599998 50.5997
      vertex -12.5935 0.0599998 44.1922
      vertex -12.5741 0.0599998 44.3833
    endloop
  endfacet
  facet normal 0 -1 0
    outer loop
      vertex -15.5742 0.0599998 50.5997
      vertex -12.6 0.0599998 44
      vertex -12.5935 0.0599998 44.1922
    endloop
  endfacet
  facet normal 0 -1 0
    outer loop
      vertex -20.0652 0.0599998 27.557
      vertex -12.6 0.0599998 44
      vertex -15.5742 0.0599998 50.5997
    endloop
  endfacet
  facet normal 0 -1 -0
    outer loop
      vertex -12.6 0.0599998 44
      vertex -20.0652 0.0599998 27.557
      vertex -12.6 0.0599998 33.5
    endloop
  endfacet
  facet normal 0 -1 -0
    outer loop
      vertex -12.6 0.0599998 33.5
      vertex -20.0652 0.0599998 27.557
      vertex -12.5935 0.0599998 33.3078
    endloop
  endfacet
  facet normal 0 -1 -0
    outer loop
      vertex -12.5935 0.0599998 33.3078
      vertex -20.0652 0.0599998 27.557
      vertex -12.5741 0.0599998 33.1167
    endloop
  endfacet
  facet normal 0 -1 -0
    outer loop
      vertex -10.5 0.0599998 31.05
      vertex -20.0652 0.0599998 27.557
      vertex 10.5 0.0599998 31.05
    endloop
  endfacet
  facet normal 0 -1 -0
    outer loop
      vertex -10.6648 0.0599998 31.0576
      vertex -20.0652 0.0599998 27.557
      vertex -10.5 0.0599998 31.05
    endloop
  endfacet
  facet normal 0 -1 -0
    outer loop
      vertex -10.8285 0.0599998 31.0802
      vertex -20.0652 0.0599998 27.557
      vertex -10.6648 0.0599998 31.0576
    endloop
  endfacet
  facet normal 0 -1 -0
    outer loop
      vertex -10.9902 0.0599998 31.1177
      vertex -20.0652 0.0599998 27.557
      vertex -10.8285 0.0599998 31.0802
    endloop
  endfacet
  facet normal 0 -1 -0
    outer loop
      vertex -11.1489 0.0599998 31.1699
      vertex -20.0652 0.0599998 27.557
      vertex -10.9902 0.0599998 31.1177
    endloop
  endfacet
  facet normal 0 -1 -0
    outer loop
      vertex -11.3036 0.0599998 31.2365
      vertex -20.0652 0.0599998 27.557
      vertex -11.1489 0.0599998 31.1699
    endloop
  endfacet
  facet normal 0 -1 -0
    outer loop
      vertex -11.4534 0.0599998 31.317
      vertex -20.0652 0.0599998 27.557
      vertex -11.3036 0.0599998 31.2365
    endloop
  endfacet
  facet normal 0 -1 -0
    outer loop
      vertex -11.5972 0.0599998 31.411
      vertex -20.0652 0.0599998 27.557
      vertex -11.4534 0.0599998 31.317
    endloop
  endfacet
  facet normal 0 -1 -0
    outer loop
      vertex -11.7343 0.0599998 31.5179
      vertex -20.0652 0.0599998 27.557
      vertex -11.5972 0.0599998 31.411
    endloop
  endfacet
  facet normal 0 -1 -0
    outer loop
      vertex -11.8638 0.0599998 31.637
      vertex -20.0652 0.0599998 27.557
      vertex -11.7343 0.0599998 31.5179
    endloop
  endfacet
  facet normal 0 -1 -0
    outer loop
      vertex -11.9849 0.0599998 31.7676
      vertex -20.0652 0.0599998 27.557
      vertex -11.8638 0.0599998 31.637
    endloop
  endfacet
  facet normal 0 -1 -0
    outer loop
      vertex -12.0969 0.0599998 31.9089
      vertex -20.0652 0.0599998 27.557
      vertex -11.9849 0.0599998 31.7676
    endloop
  endfacet
  facet normal 0 -1 -0
    outer loop
      vertex -12.1989 0.0599998 32.0599
      vertex -20.0652 0.0599998 27.557
      vertex -12.0969 0.0599998 31.9089
    endloop
  endfacet
  facet normal 0 -1 -0
    outer loop
      vertex -12.2905 0.0599998 32.2199
      vertex -20.0652 0.0599998 27.557
      vertex -12.1989 0.0599998 32.0599
    endloop
  endfacet
  facet normal 0 -1 -0
    outer loop
      vertex -12.3711 0.0599998 32.3877
      vertex -20.0652 0.0599998 27.557
      vertex -12.2905 0.0599998 32.2199
    endloop
  endfacet
  facet normal 0 -1 -0
    outer loop
      vertex -12.4401 0.0599998 32.5624
      vertex -20.0652 0.0599998 27.557
      vertex -12.3711 0.0599998 32.3877
    endloop
  endfacet
  facet normal 0 -1 -0
    outer loop
      vertex -12.4972 0.0599998 32.7429
      vertex -20.0652 0.0599998 27.557
      vertex -12.4401 0.0599998 32.5624
    endloop
  endfacet
  facet normal 0 -1 -0
    outer loop
      vertex -12.542 0.0599998 32.9281
      vertex -20.0652 0.0599998 27.557
      vertex -12.4972 0.0599998 32.7429
    endloop
  endfacet
  facet normal 0 -1 -0
    outer loop
      vertex -12.5741 0.0599998 33.1167
      vertex -20.0652 0.0599998 27.557
      vertex -12.542 0.0599998 32.9281
    endloop
  endfacet
  facet normal 0 -1 0
    outer loop
      vertex 10.5 0.0599998 46.45
      vertex 15.5742 0.0599998 50.5997
      vertex -10.5 0.0599998 46.45
    endloop
  endfacet
  facet normal 0 -1 0
    outer loop
      vertex 10.6648 0.0599998 46.4424
      vertex 15.5742 0.0599998 50.5997
      vertex 10.5 0.0599998 46.45
    endloop
  endfacet
  facet normal 0 -1 0
    outer loop
      vertex 10.8285 0.0599998 46.4198
      vertex 15.5742 0.0599998 50.5997
      vertex 10.6648 0.0599998 46.4424
    endloop
  endfacet
  facet normal 0 -1 0
    outer loop
      vertex 10.9902 0.0599998 46.3823
      vertex 15.5742 0.0599998 50.5997
      vertex 10.8285 0.0599998 46.4198
    endloop
  endfacet
  facet normal 0 -1 0
    outer loop
      vertex 11.1489 0.0599998 46.3301
      vertex 15.5742 0.0599998 50.5997
      vertex 10.9902 0.0599998 46.3823
    endloop
  endfacet
  facet normal 0 -1 0
    outer loop
      vertex 11.3036 0.0599998 46.2635
      vertex 15.5742 0.0599998 50.5997
      vertex 11.1489 0.0599998 46.3301
    endloop
  endfacet
  facet normal 0 -1 0
    outer loop
      vertex 11.4534 0.0599998 46.183
      vertex 15.5742 0.0599998 50.5997
      vertex 11.3036 0.0599998 46.2635
    endloop
  endfacet
  facet normal 0 -1 0
    outer loop
      vertex 11.5972 0.0599998 46.089
      vertex 15.5742 0.0599998 50.5997
      vertex 11.4534 0.0599998 46.183
    endloop
  endfacet
  facet normal 0 -1 0
    outer loop
      vertex 11.7343 0.0599998 45.9821
      vertex 15.5742 0.0599998 50.5997
      vertex 11.5972 0.0599998 46.089
    endloop
  endfacet
  facet normal 0 -1 0
    outer loop
      vertex 11.8638 0.0599998 45.863
      vertex 15.5742 0.0599998 50.5997
      vertex 11.7343 0.0599998 45.9821
    endloop
  endfacet
  facet normal 0 -1 0
    outer loop
      vertex 11.9849 0.0599998 45.7324
      vertex 15.5742 0.0599998 50.5997
      vertex 11.8638 0.0599998 45.863
    endloop
  endfacet
  facet normal 0 -1 0
    outer loop
      vertex 12.0969 0.0599998 45.5911
      vertex 15.5742 0.0599998 50.5997
      vertex 11.9849 0.0599998 45.7324
    endloop
  endfacet
  facet normal 0 -1 0
    outer loop
      vertex 12.1989 0.0599998 45.4401
      vertex 15.5742 0.0599998 50.5997
      vertex 12.0969 0.0599998 45.5911
    endloop
  endfacet
  facet normal 0 -1 0
    outer loop
      vertex 12.2905 0.0599998 45.2801
      vertex 15.5742 0.0599998 50.5997
      vertex 12.1989 0.0599998 45.4401
    endloop
  endfacet
  facet normal 0 -1 0
    outer loop
      vertex 12.3711 0.0599998 45.1123
      vertex 15.5742 0.0599998 50.5997
      vertex 12.2905 0.0599998 45.2801
    endloop
  endfacet
  facet normal 0 -1 0
    outer loop
      vertex 12.4401 0.0599998 44.9376
      vertex 15.5742 0.0599998 50.5997
      vertex 12.3711 0.0599998 45.1123
    endloop
  endfacet
  facet normal 0 -1 0
    outer loop
      vertex 12.4972 0.0599998 44.7571
      vertex 15.5742 0.0599998 50.5997
      vertex 12.4401 0.0599998 44.9376
    endloop
  endfacet
  facet normal 0 -1 0
    outer loop
      vertex 12.542 0.0599998 44.5719
      vertex 15.5742 0.0599998 50.5997
      vertex 12.4972 0.0599998 44.7571
    endloop
  endfacet
  facet normal 0 -1 0
    outer loop
      vertex 12.5741 0.0599998 44.3833
      vertex 15.5742 0.0599998 50.5997
      vertex 12.542 0.0599998 44.5719
    endloop
  endfacet
  facet normal 0 -1 0
    outer loop
      vertex 12.5935 0.0599998 44.1922
      vertex 15.5742 0.0599998 50.5997
      vertex 12.5741 0.0599998 44.3833
    endloop
  endfacet
  facet normal 0 -1 0
    outer loop
      vertex 12.6 0.0599998 44
      vertex 15.5742 0.0599998 50.5997
      vertex 12.5935 0.0599998 44.1922
    endloop
  endfacet
  facet normal 0 -1 0
    outer loop
      vertex 20.0652 0.0599998 27.557
      vertex 12.6 0.0599998 44
      vertex 12.6 0.0599998 33.5
    endloop
  endfacet
  facet normal 0 -1 0
    outer loop
      vertex 20.0652 0.0599998 27.557
      vertex 12.6 0.0599998 33.5
      vertex 12.5935 0.0599998 33.3078
    endloop
  endfacet
  facet normal 0 -1 0
    outer loop
      vertex 20.0652 0.0599998 27.557
      vertex 12.5935 0.0599998 33.3078
      vertex 12.5741 0.0599998 33.1167
    endloop
  endfacet
  facet normal 0 -1 0
    outer loop
      vertex 20.0652 0.0599998 27.557
      vertex 12.5741 0.0599998 33.1167
      vertex 12.542 0.0599998 32.9281
    endloop
  endfacet
  facet normal 0 -1 0
    outer loop
      vertex 20.0652 0.0599998 27.557
      vertex 10.5 0.0599998 31.05
      vertex -20.0652 0.0599998 27.557
    endloop
  endfacet
  facet normal 0 -1 0
    outer loop
      vertex 12.6 0.0599998 44
      vertex 20.0652 0.0599998 27.557
      vertex 15.5742 0.0599998 50.5997
    endloop
  endfacet
  facet normal 0 -1 0
    outer loop
      vertex 12.4972 0.0599998 32.7429
      vertex 20.0652 0.0599998 27.557
      vertex 12.542 0.0599998 32.9281
    endloop
  endfacet
  facet normal 0 -1 0
    outer loop
      vertex 12.4401 0.0599998 32.5624
      vertex 20.0652 0.0599998 27.557
      vertex 12.4972 0.0599998 32.7429
    endloop
  endfacet
  facet normal 0 -1 0
    outer loop
      vertex 12.3711 0.0599998 32.3877
      vertex 20.0652 0.0599998 27.557
      vertex 12.4401 0.0599998 32.5624
    endloop
  endfacet
  facet normal 0 -1 0
    outer loop
      vertex 12.2905 0.0599998 32.2199
      vertex 20.0652 0.0599998 27.557
      vertex 12.3711 0.0599998 32.3877
    endloop
  endfacet
  facet normal 0 -1 0
    outer loop
      vertex 12.1989 0.0599998 32.0599
      vertex 20.0652 0.0599998 27.557
      vertex 12.2905 0.0599998 32.2199
    endloop
  endfacet
  facet normal 0 -1 0
    outer loop
      vertex 12.0969 0.0599998 31.9089
      vertex 20.0652 0.0599998 27.557
      vertex 12.1989 0.0599998 32.0599
    endloop
  endfacet
  facet normal 0 -1 0
    outer loop
      vertex 11.9849 0.0599998 31.7676
      vertex 20.0652 0.0599998 27.557
      vertex 12.0969 0.0599998 31.9089
    endloop
  endfacet
  facet normal 0 -1 0
    outer loop
      vertex 11.8638 0.0599998 31.637
      vertex 20.0652 0.0599998 27.557
      vertex 11.9849 0.0599998 31.7676
    endloop
  endfacet
  facet normal 0 -1 0
    outer loop
      vertex 11.7343 0.0599998 31.5179
      vertex 20.0652 0.0599998 27.557
      vertex 11.8638 0.0599998 31.637
    endloop
  endfacet
  facet normal 0 -1 0
    outer loop
      vertex 11.5972 0.0599998 31.411
      vertex 20.0652 0.0599998 27.557
      vertex 11.7343 0.0599998 31.5179
    endloop
  endfacet
  facet normal 0 -1 0
    outer loop
      vertex 11.4534 0.0599998 31.317
      vertex 20.0652 0.0599998 27.557
      vertex 11.5972 0.0599998 31.411
    endloop
  endfacet
  facet normal 0 -1 0
    outer loop
      vertex 11.3036 0.0599998 31.2365
      vertex 20.0652 0.0599998 27.557
      vertex 11.4534 0.0599998 31.317
    endloop
  endfacet
  facet normal 0 -1 0
    outer loop
      vertex 11.1489 0.0599998 31.1699
      vertex 20.0652 0.0599998 27.557
      vertex 11.3036 0.0599998 31.2365
    endloop
  endfacet
  facet normal 0 -1 0
    outer loop
      vertex 10.9902 0.0599998 31.1177
      vertex 20.0652 0.0599998 27.557
      vertex 11.1489 0.0599998 31.1699
    endloop
  endfacet
  facet normal 0 -1 0
    outer loop
      vertex 10.8285 0.0599998 31.0802
      vertex 20.0652 0.0599998 27.557
      vertex 10.9902 0.0599998 31.1177
    endloop
  endfacet
  facet normal 0 -1 0
    outer loop
      vertex 10.6648 0.0599998 31.0576
      vertex 20.0652 0.0599998 27.557
      vertex 10.8285 0.0599998 31.0802
    endloop
  endfacet
  facet normal 0 -1 0
    outer loop
      vertex 10.5 0.0599998 31.05
      vertex 20.0652 0.0599998 27.557
      vertex 10.6648 0.0599998 31.0576
    endloop
  endfacet
  facet normal 0 0 -1
    outer loop
      vertex -20.0652 0.0599998 27.557
      vertex 20.0652 2.06 27.557
      vertex 20.0652 0.0599998 27.557
    endloop
  endfacet
  facet normal -0 0 -1
    outer loop
      vertex 20.0652 2.06 27.557
      vertex -20.0652 0.0599998 27.557
      vertex -20.0652 2.06 27.557
    endloop
  endfacet
  facet normal -0.981531 3.24612e-005 0.191302
    outer loop
      vertex -15.5742 0.0599998 50.5997
      vertex -15.6733 2.06 50.0908
      vertex -20.0652 2.06 27.557
    endloop
  endfacet
  facet normal -0.981532 0 0.191299
    outer loop
      vertex -15.5742 0.0599998 50.5997
      vertex -20.0652 2.06 27.557
      vertex -20.0652 0.0599998 27.557
    endloop
  endfacet
  facet normal 0 0.246592 0.969119
    outer loop
      vertex 15.6733 2.06 50.0908
      vertex -15.5742 0.0599998 50.5997
      vertex 15.5742 0.0599998 50.5997
    endloop
  endfacet
  facet normal 0 0.246592 0.969119
    outer loop
      vertex -15.5742 0.0599998 50.5997
      vertex 15.6733 2.06 50.0908
      vertex -15.6733 2.06 50.0908
    endloop
  endfacet
  facet normal 0.981531 -0 0.191302
    outer loop
      vertex 20.0652 0.0599998 27.557
      vertex 20.0652 2.06 27.557
      vertex 15.6733 2.06 50.0908
    endloop
  endfacet
  facet normal 0.981532 3.17443e-005 0.191299
    outer loop
      vertex 20.0652 0.0599998 27.557
      vertex 15.6733 2.06 50.0908
      vertex 15.5742 0.0599998 50.5997
    endloop
  endfacet
  facet normal 0 1 0
    outer loop
      vertex -14.28 2.06 46.8
      vertex 15.6733 2.06 50.0908
      vertex 14.79 2.06 46.8
    endloop
  endfacet
  facet normal 0 1 0
    outer loop
      vertex 20.0652 2.06 27.557
      vertex 14.79 2.06 46.8
      vertex 15.6733 2.06 50.0908
    endloop
  endfacet
  facet normal 0 1 0
    outer loop
      vertex 14.79 2.06 27.8
      vertex 20.0652 2.06 27.557
      vertex -14.28 2.06 27.8
    endloop
  endfacet
  facet normal 0 1 0
    outer loop
      vertex 14.79 2.06 46.8
      vertex 20.0652 2.06 27.557
      vertex 14.79 2.06 27.8
    endloop
  endfacet
  facet normal 0 1 0
    outer loop
      vertex 15.6733 2.06 50.0908
      vertex -14.28 2.06 46.8
      vertex -15.6733 2.06 50.0908
    endloop
  endfacet
  facet normal 0 1 0
    outer loop
      vertex -20.0652 2.06 27.557
      vertex -14.28 2.06 46.8
      vertex -14.28 2.06 27.8
    endloop
  endfacet
  facet normal 0 1 0
    outer loop
      vertex -14.28 2.06 46.8
      vertex -20.0652 2.06 27.557
      vertex -15.6733 2.06 50.0908
    endloop
  endfacet
  facet normal 0 1 0
    outer loop
      vertex -20.0652 2.06 27.557
      vertex -14.28 2.06 27.8
      vertex 20.0652 2.06 27.557
    endloop
  endfacet
  facet normal -1 0 0
    outer loop
      vertex 12.6 0.0599998 33.5
      vertex 12.6 1.8 44
      vertex 12.6 1.8 33.5
    endloop
  endfacet
  facet normal -1 -0 0
    outer loop
      vertex 12.6 1.8 44
      vertex 12.6 0.0599998 33.5
      vertex 12.6 0.0599998 44
    endloop
  endfacet
  facet normal 0.226072 0 -0.974111
    outer loop
      vertex -10.9902 0.0599998 46.3823
      vertex -10.8285 1.8 46.4198
      vertex -10.8285 0.0599998 46.4198
    endloop
  endfacet
  facet normal 0.226072 0 -0.974111
    outer loop
      vertex -10.8285 1.8 46.4198
      vertex -10.9902 0.0599998 46.3823
      vertex -10.9902 1.8 46.3823
    endloop
  endfacet
  facet normal -0.136779 0 -0.990602
    outer loop
      vertex 10.6648 0.0599998 46.4424
      vertex 10.8285 1.8 46.4198
      vertex 10.8285 0.0599998 46.4198
    endloop
  endfacet
  facet normal -0.136779 0 -0.990602
    outer loop
      vertex 10.8285 1.8 46.4198
      vertex 10.6648 0.0599998 46.4424
      vertex 10.6648 1.8 46.4424
    endloop
  endfacet
  facet normal 0.136779 0 -0.990602
    outer loop
      vertex -10.8285 0.0599998 46.4198
      vertex -10.6648 1.8 46.4424
      vertex -10.6648 0.0599998 46.4424
    endloop
  endfacet
  facet normal 0.136779 0 -0.990602
    outer loop
      vertex -10.6648 1.8 46.4424
      vertex -10.8285 0.0599998 46.4198
      vertex -10.8285 1.8 46.4198
    endloop
  endfacet
  facet normal 0.0457937 0 0.998951
    outer loop
      vertex -10.6648 1.8 31.0576
      vertex -10.5 0.0599998 31.05
      vertex -10.5 1.8 31.05
    endloop
  endfacet
  facet normal 0.0457937 0 0.998951
    outer loop
      vertex -10.5 0.0599998 31.05
      vertex -10.6648 1.8 31.0576
      vertex -10.6648 0.0599998 31.0576
    endloop
  endfacet
  facet normal 0.676941 0 0.736038
    outer loop
      vertex -11.8638 1.8 31.637
      vertex -11.7343 0.0599998 31.5179
      vertex -11.7343 1.8 31.5179
    endloop
  endfacet
  facet normal 0.676941 0 0.736038
    outer loop
      vertex -11.7343 0.0599998 31.5179
      vertex -11.8638 1.8 31.637
      vertex -11.8638 0.0599998 31.637
    endloop
  endfacet
  facet normal 0 0 -1
    outer loop
      vertex -10.5 0.0599998 46.45
      vertex 10.5 1.8 46.45
      vertex 10.5 0.0599998 46.45
    endloop
  endfacet
  facet normal -0 0 -1
    outer loop
      vertex 10.5 1.8 46.45
      vertex -10.5 0.0599998 46.45
      vertex -10.5 1.8 46.45
    endloop
  endfacet
  facet normal 0.312538 0 -0.949905
    outer loop
      vertex -11.1489 0.0599998 46.3301
      vertex -10.9902 1.8 46.3823
      vertex -10.9902 0.0599998 46.3823
    endloop
  endfacet
  facet normal 0.312538 0 -0.949905
    outer loop
      vertex -10.9902 1.8 46.3823
      vertex -11.1489 0.0599998 46.3301
      vertex -11.1489 1.8 46.3301
    endloop
  endfacet
  facet normal 0.999433 -0 0.0336625
    outer loop
      vertex -12.6 0.0599998 33.5
      vertex -12.5935 1.8 33.3078
      vertex -12.6 1.8 33.5
    endloop
  endfacet
  facet normal 0.999433 0 0.0336625
    outer loop
      vertex -12.5935 1.8 33.3078
      vertex -12.6 0.0599998 33.5
      vertex -12.5935 0.0599998 33.3078
    endloop
  endfacet
  facet normal -0.226061 0 0.974113
    outer loop
      vertex 10.8285 1.8 31.0802
      vertex 10.9902 0.0599998 31.1177
      vertex 10.9902 1.8 31.1177
    endloop
  endfacet
  facet normal -0.226061 0 0.974113
    outer loop
      vertex 10.9902 0.0599998 31.1177
      vertex 10.8285 1.8 31.0802
      vertex 10.8285 0.0599998 31.0802
    endloop
  endfacet
  facet normal 0.614808 0 -0.788677
    outer loop
      vertex -11.7343 0.0599998 45.9821
      vertex -11.5972 1.8 46.089
      vertex -11.5972 0.0599998 46.089
    endloop
  endfacet
  facet normal 0.614808 0 -0.788677
    outer loop
      vertex -11.5972 1.8 46.089
      vertex -11.7343 0.0599998 45.9821
      vertex -11.7343 1.8 45.9821
    endloop
  endfacet
  facet normal 0.473671 0 0.880702
    outer loop
      vertex -11.4534 1.8 31.317
      vertex -11.3036 0.0599998 31.2365
      vertex -11.3036 1.8 31.2365
    endloop
  endfacet
  facet normal 0.473671 0 0.880702
    outer loop
      vertex -11.3036 0.0599998 31.2365
      vertex -11.4534 1.8 31.317
      vertex -11.4534 0.0599998 31.317
    endloop
  endfacet
  facet normal 0.312549 0 0.949902
    outer loop
      vertex -11.1489 1.8 31.1699
      vertex -10.9902 0.0599998 31.1177
      vertex -10.9902 1.8 31.1177
    endloop
  endfacet
  facet normal 0.312549 0 0.949902
    outer loop
      vertex -10.9902 0.0599998 31.1177
      vertex -11.1489 1.8 31.1699
      vertex -11.1489 0.0599998 31.1699
    endloop
  endfacet
  facet normal -0.86776 0 0.496984
    outer loop
      vertex 12.1989 0.0599998 32.0599
      vertex 12.2905 1.8 32.2199
      vertex 12.1989 1.8 32.0599
    endloop
  endfacet
  facet normal -0.86776 0 0.496984
    outer loop
      vertex 12.2905 1.8 32.2199
      vertex 12.1989 0.0599998 32.0599
      vertex 12.2905 0.0599998 32.2199
    endloop
  endfacet
  facet normal -0.546967 0 -0.837154
    outer loop
      vertex 11.4534 0.0599998 46.183
      vertex 11.5972 1.8 46.089
      vertex 11.5972 0.0599998 46.089
    endloop
  endfacet
  facet normal -0.546967 0 -0.837154
    outer loop
      vertex 11.5972 1.8 46.089
      vertex 11.4534 0.0599998 46.183
      vertex 11.4534 1.8 46.183
    endloop
  endfacet
  facet normal 1 -0 0
    outer loop
      vertex -12.6 0.0599998 44
      vertex -12.6 1.8 33.5
      vertex -12.6 1.8 44
    endloop
  endfacet
  facet normal 1 0 0
    outer loop
      vertex -12.6 1.8 33.5
      vertex -12.6 0.0599998 44
      vertex -12.6 0.0599998 33.5
    endloop
  endfacet
  facet normal 0.546967 0 -0.837154
    outer loop
      vertex -11.5972 0.0599998 46.089
      vertex -11.4534 1.8 46.183
      vertex -11.4534 0.0599998 46.183
    endloop
  endfacet
  facet normal 0.546967 0 -0.837154
    outer loop
      vertex -11.4534 1.8 46.183
      vertex -11.5972 0.0599998 46.089
      vertex -11.5972 1.8 46.089
    endloop
  endfacet
  facet normal 0.0457937 0 -0.998951
    outer loop
      vertex -10.6648 0.0599998 46.4424
      vertex -10.5 1.8 46.45
      vertex -10.5 0.0599998 46.45
    endloop
  endfacet
  facet normal 0.0457937 0 -0.998951
    outer loop
      vertex -10.5 1.8 46.45
      vertex -10.6648 0.0599998 46.4424
      vertex -10.6648 1.8 46.4424
    endloop
  endfacet
  facet normal 0.395343 0 0.918534
    outer loop
      vertex -11.3036 1.8 31.2365
      vertex -11.1489 0.0599998 31.1699
      vertex -11.1489 1.8 31.1699
    endloop
  endfacet
  facet normal 0.395343 0 0.918534
    outer loop
      vertex -11.1489 0.0599998 31.1699
      vertex -11.3036 1.8 31.2365
      vertex -11.3036 0.0599998 31.2365
    endloop
  endfacet
  facet normal 0.86776 -0 0.496984
    outer loop
      vertex -12.2905 0.0599998 32.2199
      vertex -12.1989 1.8 32.0599
      vertex -12.2905 1.8 32.2199
    endloop
  endfacet
  facet normal 0.86776 0 0.496984
    outer loop
      vertex -12.1989 1.8 32.0599
      vertex -12.2905 0.0599998 32.2199
      vertex -12.1989 0.0599998 32.0599
    endloop
  endfacet
  facet normal 0.953465 -0 0.301505
    outer loop
      vertex -12.4972 0.0599998 32.7429
      vertex -12.4401 1.8 32.5624
      vertex -12.4972 1.8 32.7429
    endloop
  endfacet
  facet normal 0.953465 0 0.301505
    outer loop
      vertex -12.4401 1.8 32.5624
      vertex -12.4972 0.0599998 32.7429
      vertex -12.4401 0.0599998 32.5624
    endloop
  endfacet
  facet normal -0.972003 0 0.23497
    outer loop
      vertex 12.4972 0.0599998 32.7429
      vertex 12.542 1.8 32.9281
      vertex 12.4972 1.8 32.7429
    endloop
  endfacet
  facet normal -0.972003 0 0.23497
    outer loop
      vertex 12.542 1.8 32.9281
      vertex 12.4972 0.0599998 32.7429
      vertex 12.542 0.0599998 32.9281
    endloop
  endfacet
  facet normal -0.13679 0 0.9906
    outer loop
      vertex 10.6648 1.8 31.0576
      vertex 10.8285 0.0599998 31.0802
      vertex 10.8285 1.8 31.0802
    endloop
  endfacet
  facet normal -0.13679 0 0.9906
    outer loop
      vertex 10.8285 0.0599998 31.0802
      vertex 10.6648 1.8 31.0576
      vertex 10.6648 0.0599998 31.0576
    endloop
  endfacet
  facet normal -0 0 1
    outer loop
      vertex -10.5 1.8 31.05
      vertex 10.5 0.0599998 31.05
      vertex 10.5 1.8 31.05
    endloop
  endfacet
  facet normal 0 0 1
    outer loop
      vertex 10.5 0.0599998 31.05
      vertex -10.5 1.8 31.05
      vertex -10.5 0.0599998 31.05
    endloop
  endfacet
  facet normal -0.930028 0 -0.367489
    outer loop
      vertex 12.4401 0.0599998 44.9376
      vertex 12.3711 1.8 45.1123
      vertex 12.4401 1.8 44.9376
    endloop
  endfacet
  facet normal -0.930028 -0 -0.367489
    outer loop
      vertex 12.3711 1.8 45.1123
      vertex 12.4401 0.0599998 44.9376
      vertex 12.3711 0.0599998 45.1123
    endloop
  endfacet
  facet normal -0.828581 0 -0.559869
    outer loop
      vertex 12.1989 0.0599998 45.4401
      vertex 12.0969 1.8 45.5911
      vertex 12.1989 1.8 45.4401
    endloop
  endfacet
  facet normal -0.828581 -0 -0.559869
    outer loop
      vertex 12.0969 1.8 45.5911
      vertex 12.1989 0.0599998 45.4401
      vertex 12.0969 0.0599998 45.5911
    endloop
  endfacet
  facet normal -0.73328 0 -0.679926
    outer loop
      vertex 11.9849 0.0599998 45.7324
      vertex 11.8638 1.8 45.863
      vertex 11.9849 1.8 45.7324
    endloop
  endfacet
  facet normal -0.73328 -0 -0.679926
    outer loop
      vertex 11.8638 1.8 45.863
      vertex 11.9849 0.0599998 45.7324
      vertex 11.8638 0.0599998 45.863
    endloop
  endfacet
  facet normal 0.999433 0 -0.0336625
    outer loop
      vertex -12.5935 0.0599998 44.1922
      vertex -12.6 1.8 44
      vertex -12.5935 1.8 44.1922
    endloop
  endfacet
  facet normal 0.999433 0 -0.0336625
    outer loop
      vertex -12.6 1.8 44
      vertex -12.5935 0.0599998 44.1922
      vertex -12.6 0.0599998 44
    endloop
  endfacet
  facet normal 0.867755 0 -0.496993
    outer loop
      vertex -12.1989 0.0599998 45.4401
      vertex -12.2905 1.8 45.2801
      vertex -12.1989 1.8 45.4401
    endloop
  endfacet
  facet normal 0.867755 0 -0.496993
    outer loop
      vertex -12.2905 1.8 45.2801
      vertex -12.1989 0.0599998 45.4401
      vertex -12.2905 0.0599998 45.2801
    endloop
  endfacet
  facet normal -0.0457937 0 -0.998951
    outer loop
      vertex 10.5 0.0599998 46.45
      vertex 10.6648 1.8 46.4424
      vertex 10.6648 0.0599998 46.4424
    endloop
  endfacet
  facet normal -0.0457937 0 -0.998951
    outer loop
      vertex 10.6648 1.8 46.4424
      vertex 10.5 0.0599998 46.45
      vertex 10.5 1.8 46.45
    endloop
  endfacet
  facet normal 0.546967 0 0.837154
    outer loop
      vertex -11.5972 1.8 31.411
      vertex -11.4534 0.0599998 31.317
      vertex -11.4534 1.8 31.317
    endloop
  endfacet
  facet normal 0.546967 0 0.837154
    outer loop
      vertex -11.4534 0.0599998 31.317
      vertex -11.5972 1.8 31.411
      vertex -11.5972 0.0599998 31.411
    endloop
  endfacet
  facet normal 0.783789 -0 0.621027
    outer loop
      vertex -12.0969 0.0599998 31.9089
      vertex -11.9849 1.8 31.7676
      vertex -12.0969 1.8 31.9089
    endloop
  endfacet
  facet normal 0.783789 0 0.621027
    outer loop
      vertex -11.9849 1.8 31.7676
      vertex -12.0969 0.0599998 31.9089
      vertex -11.9849 0.0599998 31.7676
    endloop
  endfacet
  facet normal 0.73328 -0 0.679926
    outer loop
      vertex -11.9849 0.0599998 31.7676
      vertex -11.8638 1.8 31.637
      vertex -11.9849 1.8 31.7676
    endloop
  endfacet
  facet normal 0.73328 0 0.679926
    outer loop
      vertex -11.8638 1.8 31.637
      vertex -11.9849 0.0599998 31.7676
      vertex -11.8638 0.0599998 31.637
    endloop
  endfacet
  facet normal 0.901511 -0 0.432756
    outer loop
      vertex -12.3711 0.0599998 32.3877
      vertex -12.2905 1.8 32.2199
      vertex -12.3711 1.8 32.3877
    endloop
  endfacet
  facet normal 0.901511 0 0.432756
    outer loop
      vertex -12.2905 1.8 32.2199
      vertex -12.3711 0.0599998 32.3877
      vertex -12.2905 0.0599998 32.2199
    endloop
  endfacet
  facet normal 0.828571 -0 0.559883
    outer loop
      vertex -12.1989 0.0599998 32.0599
      vertex -12.0969 1.8 31.9089
      vertex -12.1989 1.8 32.0599
    endloop
  endfacet
  facet normal 0.828571 0 0.559883
    outer loop
      vertex -12.0969 1.8 31.9089
      vertex -12.1989 0.0599998 32.0599
      vertex -12.0969 0.0599998 31.9089
    endloop
  endfacet
  facet normal 0.994893 -0 0.100932
    outer loop
      vertex -12.5935 0.0599998 33.3078
      vertex -12.5741 1.8 33.1167
      vertex -12.5935 1.8 33.3078
    endloop
  endfacet
  facet normal 0.994893 0 0.100932
    outer loop
      vertex -12.5741 1.8 33.1167
      vertex -12.5935 0.0599998 33.3078
      vertex -12.5741 0.0599998 33.1167
    endloop
  endfacet
  facet normal 0.972003 -0 0.23497
    outer loop
      vertex -12.542 0.0599998 32.9281
      vertex -12.4972 1.8 32.7429
      vertex -12.542 1.8 32.9281
    endloop
  endfacet
  facet normal 0.972003 0 0.23497
    outer loop
      vertex -12.4972 1.8 32.7429
      vertex -12.542 0.0599998 32.9281
      vertex -12.4972 0.0599998 32.7429
    endloop
  endfacet
  facet normal -0.994893 0 0.100932
    outer loop
      vertex 12.5741 0.0599998 33.1167
      vertex 12.5935 1.8 33.3078
      vertex 12.5741 1.8 33.1167
    endloop
  endfacet
  facet normal -0.994893 0 0.100932
    outer loop
      vertex 12.5935 1.8 33.3078
      vertex 12.5741 0.0599998 33.1167
      vertex 12.5935 0.0599998 33.3078
    endloop
  endfacet
  facet normal -0.901511 0 0.432756
    outer loop
      vertex 12.2905 0.0599998 32.2199
      vertex 12.3711 1.8 32.3877
      vertex 12.2905 1.8 32.2199
    endloop
  endfacet
  facet normal -0.901511 0 0.432756
    outer loop
      vertex 12.3711 1.8 32.3877
      vertex 12.2905 0.0599998 32.2199
      vertex 12.3711 0.0599998 32.3877
    endloop
  endfacet
  facet normal -0.73328 0 0.679926
    outer loop
      vertex 11.8638 0.0599998 31.637
      vertex 11.9849 1.8 31.7676
      vertex 11.8638 1.8 31.637
    endloop
  endfacet
  facet normal -0.73328 0 0.679926
    outer loop
      vertex 11.9849 1.8 31.7676
      vertex 11.8638 0.0599998 31.637
      vertex 11.9849 0.0599998 31.7676
    endloop
  endfacet
  facet normal -0.395343 0 0.918534
    outer loop
      vertex 11.1489 1.8 31.1699
      vertex 11.3036 0.0599998 31.2365
      vertex 11.3036 1.8 31.2365
    endloop
  endfacet
  facet normal -0.395343 0 0.918534
    outer loop
      vertex 11.3036 0.0599998 31.2365
      vertex 11.1489 1.8 31.1699
      vertex 11.1489 0.0599998 31.1699
    endloop
  endfacet
  facet normal -0.0457937 0 0.998951
    outer loop
      vertex 10.5 1.8 31.05
      vertex 10.6648 0.0599998 31.0576
      vertex 10.6648 1.8 31.0576
    endloop
  endfacet
  facet normal -0.0457937 0 0.998951
    outer loop
      vertex 10.6648 0.0599998 31.0576
      vertex 10.5 1.8 31.05
      vertex 10.5 0.0599998 31.05
    endloop
  endfacet
  facet normal -0.901511 0 -0.432756
    outer loop
      vertex 12.3711 0.0599998 45.1123
      vertex 12.2905 1.8 45.2801
      vertex 12.3711 1.8 45.1123
    endloop
  endfacet
  facet normal -0.901511 -0 -0.432756
    outer loop
      vertex 12.2905 1.8 45.2801
      vertex 12.3711 0.0599998 45.1123
      vertex 12.2905 0.0599998 45.2801
    endloop
  endfacet
  facet normal -0.312538 0 -0.949905
    outer loop
      vertex 10.9902 0.0599998 46.3823
      vertex 11.1489 1.8 46.3301
      vertex 11.1489 0.0599998 46.3301
    endloop
  endfacet
  facet normal -0.312538 0 -0.949905
    outer loop
      vertex 11.1489 1.8 46.3301
      vertex 10.9902 0.0599998 46.3823
      vertex 10.9902 1.8 46.3823
    endloop
  endfacet
  facet normal 0.994893 0 -0.100932
    outer loop
      vertex -12.5741 0.0599998 44.3833
      vertex -12.5935 1.8 44.1922
      vertex -12.5741 1.8 44.3833
    endloop
  endfacet
  facet normal 0.994893 0 -0.100932
    outer loop
      vertex -12.5935 1.8 44.1922
      vertex -12.5741 0.0599998 44.3833
      vertex -12.5935 0.0599998 44.1922
    endloop
  endfacet
  facet normal 0.783785 0 -0.621032
    outer loop
      vertex -11.9849 0.0599998 45.7324
      vertex -12.0969 1.8 45.5911
      vertex -11.9849 1.8 45.7324
    endloop
  endfacet
  facet normal 0.783785 0 -0.621032
    outer loop
      vertex -12.0969 1.8 45.5911
      vertex -11.9849 0.0599998 45.7324
      vertex -12.0969 0.0599998 45.5911
    endloop
  endfacet
  facet normal 0.676941 0 -0.736038
    outer loop
      vertex -11.8638 0.0599998 45.863
      vertex -11.7343 1.8 45.9821
      vertex -11.7343 0.0599998 45.9821
    endloop
  endfacet
  facet normal 0.676941 0 -0.736038
    outer loop
      vertex -11.7343 1.8 45.9821
      vertex -11.8638 0.0599998 45.863
      vertex -11.8638 1.8 45.863
    endloop
  endfacet
  facet normal 0.395353 0 -0.918529
    outer loop
      vertex -11.3036 0.0599998 46.2635
      vertex -11.1489 1.8 46.3301
      vertex -11.1489 0.0599998 46.3301
    endloop
  endfacet
  facet normal 0.395353 0 -0.918529
    outer loop
      vertex -11.1489 1.8 46.3301
      vertex -11.3036 0.0599998 46.2635
      vertex -11.3036 1.8 46.2635
    endloop
  endfacet
  facet normal 0.473679 0 -0.880697
    outer loop
      vertex -11.4534 0.0599998 46.183
      vertex -11.3036 1.8 46.2635
      vertex -11.3036 0.0599998 46.2635
    endloop
  endfacet
  facet normal 0.473679 0 -0.880697
    outer loop
      vertex -11.3036 1.8 46.2635
      vertex -11.4534 0.0599998 46.183
      vertex -11.4534 1.8 46.183
    endloop
  endfacet
  facet normal 0.614815 0 0.788671
    outer loop
      vertex -11.7343 1.8 31.5179
      vertex -11.5972 0.0599998 31.411
      vertex -11.5972 1.8 31.411
    endloop
  endfacet
  facet normal 0.614815 0 0.788671
    outer loop
      vertex -11.5972 0.0599998 31.411
      vertex -11.7343 1.8 31.5179
      vertex -11.7343 0.0599998 31.5179
    endloop
  endfacet
  facet normal 0.13679 0 0.9906
    outer loop
      vertex -10.8285 1.8 31.0802
      vertex -10.6648 0.0599998 31.0576
      vertex -10.6648 1.8 31.0576
    endloop
  endfacet
  facet normal 0.13679 0 0.9906
    outer loop
      vertex -10.6648 0.0599998 31.0576
      vertex -10.8285 1.8 31.0802
      vertex -10.8285 0.0599998 31.0802
    endloop
  endfacet
  facet normal 0.930028 -0 0.367489
    outer loop
      vertex -12.4401 0.0599998 32.5624
      vertex -12.3711 1.8 32.3877
      vertex -12.4401 1.8 32.5624
    endloop
  endfacet
  facet normal 0.930028 0 0.367489
    outer loop
      vertex -12.3711 1.8 32.3877
      vertex -12.4401 0.0599998 32.5624
      vertex -12.3711 0.0599998 32.3877
    endloop
  endfacet
  facet normal 0.985775 -0 0.168073
    outer loop
      vertex -12.5741 0.0599998 33.1167
      vertex -12.542 1.8 32.9281
      vertex -12.5741 1.8 33.1167
    endloop
  endfacet
  facet normal 0.985775 0 0.168073
    outer loop
      vertex -12.542 1.8 32.9281
      vertex -12.5741 0.0599998 33.1167
      vertex -12.542 0.0599998 32.9281
    endloop
  endfacet
  facet normal -0.985775 0 0.168073
    outer loop
      vertex 12.542 0.0599998 32.9281
      vertex 12.5741 1.8 33.1167
      vertex 12.542 1.8 32.9281
    endloop
  endfacet
  facet normal -0.985775 0 0.168073
    outer loop
      vertex 12.5741 1.8 33.1167
      vertex 12.542 0.0599998 32.9281
      vertex 12.5741 0.0599998 33.1167
    endloop
  endfacet
  facet normal -0.999433 0 0.0336625
    outer loop
      vertex 12.5935 0.0599998 33.3078
      vertex 12.6 1.8 33.5
      vertex 12.5935 1.8 33.3078
    endloop
  endfacet
  facet normal -0.999433 0 0.0336625
    outer loop
      vertex 12.6 1.8 33.5
      vertex 12.5935 0.0599998 33.3078
      vertex 12.6 0.0599998 33.5
    endloop
  endfacet
  facet normal -0.930028 0 0.367489
    outer loop
      vertex 12.3711 0.0599998 32.3877
      vertex 12.4401 1.8 32.5624
      vertex 12.3711 1.8 32.3877
    endloop
  endfacet
  facet normal -0.930028 0 0.367489
    outer loop
      vertex 12.4401 1.8 32.5624
      vertex 12.3711 0.0599998 32.3877
      vertex 12.4401 0.0599998 32.5624
    endloop
  endfacet
  facet normal -0.953465 0 0.301505
    outer loop
      vertex 12.4401 0.0599998 32.5624
      vertex 12.4972 1.8 32.7429
      vertex 12.4401 1.8 32.5624
    endloop
  endfacet
  facet normal -0.953465 0 0.301505
    outer loop
      vertex 12.4972 1.8 32.7429
      vertex 12.4401 0.0599998 32.5624
      vertex 12.4972 0.0599998 32.7429
    endloop
  endfacet
  facet normal -0.828571 0 0.559883
    outer loop
      vertex 12.0969 0.0599998 31.9089
      vertex 12.1989 1.8 32.0599
      vertex 12.0969 1.8 31.9089
    endloop
  endfacet
  facet normal -0.828571 0 0.559883
    outer loop
      vertex 12.1989 1.8 32.0599
      vertex 12.0969 0.0599998 31.9089
      vertex 12.1989 0.0599998 32.0599
    endloop
  endfacet
  facet normal -0.473671 0 0.880702
    outer loop
      vertex 11.3036 1.8 31.2365
      vertex 11.4534 0.0599998 31.317
      vertex 11.4534 1.8 31.317
    endloop
  endfacet
  facet normal -0.473671 0 0.880702
    outer loop
      vertex 11.4534 0.0599998 31.317
      vertex 11.3036 1.8 31.2365
      vertex 11.3036 0.0599998 31.2365
    endloop
  endfacet
  facet normal -0.546967 0 0.837154
    outer loop
      vertex 11.4534 1.8 31.317
      vertex 11.5972 0.0599998 31.411
      vertex 11.5972 1.8 31.411
    endloop
  endfacet
  facet normal -0.546967 0 0.837154
    outer loop
      vertex 11.5972 0.0599998 31.411
      vertex 11.4534 1.8 31.317
      vertex 11.4534 0.0599998 31.317
    endloop
  endfacet
  facet normal -0.783789 0 0.621027
    outer loop
      vertex 11.9849 0.0599998 31.7676
      vertex 12.0969 1.8 31.9089
      vertex 11.9849 1.8 31.7676
    endloop
  endfacet
  facet normal -0.783789 0 0.621027
    outer loop
      vertex 12.0969 1.8 31.9089
      vertex 11.9849 0.0599998 31.7676
      vertex 12.0969 0.0599998 31.9089
    endloop
  endfacet
  facet normal -0.312549 0 0.949902
    outer loop
      vertex 10.9902 1.8 31.1177
      vertex 11.1489 0.0599998 31.1699
      vertex 11.1489 1.8 31.1699
    endloop
  endfacet
  facet normal -0.312549 0 0.949902
    outer loop
      vertex 11.1489 0.0599998 31.1699
      vertex 10.9902 1.8 31.1177
      vertex 10.9902 0.0599998 31.1177
    endloop
  endfacet
  facet normal -0.867755 0 -0.496993
    outer loop
      vertex 12.2905 0.0599998 45.2801
      vertex 12.1989 1.8 45.4401
      vertex 12.2905 1.8 45.2801
    endloop
  endfacet
  facet normal -0.867755 -0 -0.496993
    outer loop
      vertex 12.1989 1.8 45.4401
      vertex 12.2905 0.0599998 45.2801
      vertex 12.1989 0.0599998 45.4401
    endloop
  endfacet
  facet normal -0.994893 0 -0.100932
    outer loop
      vertex 12.5935 0.0599998 44.1922
      vertex 12.5741 1.8 44.3833
      vertex 12.5935 1.8 44.1922
    endloop
  endfacet
  facet normal -0.994893 -0 -0.100932
    outer loop
      vertex 12.5741 1.8 44.3833
      vertex 12.5935 0.0599998 44.1922
      vertex 12.5741 0.0599998 44.3833
    endloop
  endfacet
  facet normal -0.985775 0 -0.168073
    outer loop
      vertex 12.5741 0.0599998 44.3833
      vertex 12.542 1.8 44.5719
      vertex 12.5741 1.8 44.3833
    endloop
  endfacet
  facet normal -0.985775 -0 -0.168073
    outer loop
      vertex 12.542 1.8 44.5719
      vertex 12.5741 0.0599998 44.3833
      vertex 12.542 0.0599998 44.5719
    endloop
  endfacet
  facet normal -0.473679 0 -0.880697
    outer loop
      vertex 11.3036 0.0599998 46.2635
      vertex 11.4534 1.8 46.183
      vertex 11.4534 0.0599998 46.183
    endloop
  endfacet
  facet normal -0.473679 0 -0.880697
    outer loop
      vertex 11.4534 1.8 46.183
      vertex 11.3036 0.0599998 46.2635
      vertex 11.3036 1.8 46.2635
    endloop
  endfacet
  facet normal -0.614808 0 -0.788677
    outer loop
      vertex 11.5972 0.0599998 46.089
      vertex 11.7343 1.8 45.9821
      vertex 11.7343 0.0599998 45.9821
    endloop
  endfacet
  facet normal -0.614808 0 -0.788677
    outer loop
      vertex 11.7343 1.8 45.9821
      vertex 11.5972 0.0599998 46.089
      vertex 11.5972 1.8 46.089
    endloop
  endfacet
  facet normal -0.676941 0 -0.736038
    outer loop
      vertex 11.7343 0.0599998 45.9821
      vertex 11.8638 1.8 45.863
      vertex 11.8638 0.0599998 45.863
    endloop
  endfacet
  facet normal -0.676941 0 -0.736038
    outer loop
      vertex 11.8638 1.8 45.863
      vertex 11.7343 0.0599998 45.9821
      vertex 11.7343 1.8 45.9821
    endloop
  endfacet
  facet normal -0.783785 0 -0.621032
    outer loop
      vertex 12.0969 0.0599998 45.5911
      vertex 11.9849 1.8 45.7324
      vertex 12.0969 1.8 45.5911
    endloop
  endfacet
  facet normal -0.783785 -0 -0.621032
    outer loop
      vertex 11.9849 1.8 45.7324
      vertex 12.0969 0.0599998 45.5911
      vertex 11.9849 0.0599998 45.7324
    endloop
  endfacet
  facet normal 0.985775 0 -0.168073
    outer loop
      vertex -12.542 0.0599998 44.5719
      vertex -12.5741 1.8 44.3833
      vertex -12.542 1.8 44.5719
    endloop
  endfacet
  facet normal 0.985775 0 -0.168073
    outer loop
      vertex -12.5741 1.8 44.3833
      vertex -12.542 0.0599998 44.5719
      vertex -12.5741 0.0599998 44.3833
    endloop
  endfacet
  facet normal 0.972003 0 -0.23497
    outer loop
      vertex -12.4972 0.0599998 44.7571
      vertex -12.542 1.8 44.5719
      vertex -12.4972 1.8 44.7571
    endloop
  endfacet
  facet normal 0.972003 0 -0.23497
    outer loop
      vertex -12.542 1.8 44.5719
      vertex -12.4972 0.0599998 44.7571
      vertex -12.542 0.0599998 44.5719
    endloop
  endfacet
  facet normal 0.953465 0 -0.301505
    outer loop
      vertex -12.4401 0.0599998 44.9376
      vertex -12.4972 1.8 44.7571
      vertex -12.4401 1.8 44.9376
    endloop
  endfacet
  facet normal 0.953465 0 -0.301505
    outer loop
      vertex -12.4972 1.8 44.7571
      vertex -12.4401 0.0599998 44.9376
      vertex -12.4972 0.0599998 44.7571
    endloop
  endfacet
  facet normal 0.901511 0 -0.432756
    outer loop
      vertex -12.2905 0.0599998 45.2801
      vertex -12.3711 1.8 45.1123
      vertex -12.2905 1.8 45.2801
    endloop
  endfacet
  facet normal 0.901511 0 -0.432756
    outer loop
      vertex -12.3711 1.8 45.1123
      vertex -12.2905 0.0599998 45.2801
      vertex -12.3711 0.0599998 45.1123
    endloop
  endfacet
  facet normal 0.828581 0 -0.559869
    outer loop
      vertex -12.0969 0.0599998 45.5911
      vertex -12.1989 1.8 45.4401
      vertex -12.0969 1.8 45.5911
    endloop
  endfacet
  facet normal 0.828581 0 -0.559869
    outer loop
      vertex -12.1989 1.8 45.4401
      vertex -12.0969 0.0599998 45.5911
      vertex -12.1989 0.0599998 45.4401
    endloop
  endfacet
  facet normal 0.73328 0 -0.679926
    outer loop
      vertex -11.8638 0.0599998 45.863
      vertex -11.9849 1.8 45.7324
      vertex -11.8638 1.8 45.863
    endloop
  endfacet
  facet normal 0.73328 0 -0.679926
    outer loop
      vertex -11.9849 1.8 45.7324
      vertex -11.8638 0.0599998 45.863
      vertex -11.9849 0.0599998 45.7324
    endloop
  endfacet
  facet normal 0.226061 0 0.974113
    outer loop
      vertex -10.9902 1.8 31.1177
      vertex -10.8285 0.0599998 31.0802
      vertex -10.8285 1.8 31.0802
    endloop
  endfacet
  facet normal 0.226061 0 0.974113
    outer loop
      vertex -10.8285 0.0599998 31.0802
      vertex -10.9902 1.8 31.1177
      vertex -10.9902 0.0599998 31.1177
    endloop
  endfacet
  facet normal -0.614815 0 0.788671
    outer loop
      vertex 11.5972 1.8 31.411
      vertex 11.7343 0.0599998 31.5179
      vertex 11.7343 1.8 31.5179
    endloop
  endfacet
  facet normal -0.614815 0 0.788671
    outer loop
      vertex 11.7343 0.0599998 31.5179
      vertex 11.5972 1.8 31.411
      vertex 11.5972 0.0599998 31.411
    endloop
  endfacet
  facet normal -0.676941 0 0.736038
    outer loop
      vertex 11.7343 1.8 31.5179
      vertex 11.8638 0.0599998 31.637
      vertex 11.8638 1.8 31.637
    endloop
  endfacet
  facet normal -0.676941 0 0.736038
    outer loop
      vertex 11.8638 0.0599998 31.637
      vertex 11.7343 1.8 31.5179
      vertex 11.7343 0.0599998 31.5179
    endloop
  endfacet
  facet normal -0.953465 0 -0.301505
    outer loop
      vertex 12.4972 0.0599998 44.7571
      vertex 12.4401 1.8 44.9376
      vertex 12.4972 1.8 44.7571
    endloop
  endfacet
  facet normal -0.953465 -0 -0.301505
    outer loop
      vertex 12.4401 1.8 44.9376
      vertex 12.4972 0.0599998 44.7571
      vertex 12.4401 0.0599998 44.9376
    endloop
  endfacet
  facet normal -0.999433 0 -0.0336625
    outer loop
      vertex 12.6 0.0599998 44
      vertex 12.5935 1.8 44.1922
      vertex 12.6 1.8 44
    endloop
  endfacet
  facet normal -0.999433 -0 -0.0336625
    outer loop
      vertex 12.5935 1.8 44.1922
      vertex 12.6 0.0599998 44
      vertex 12.5935 0.0599998 44.1922
    endloop
  endfacet
  facet normal -0.972003 0 -0.23497
    outer loop
      vertex 12.542 0.0599998 44.5719
      vertex 12.4972 1.8 44.7571
      vertex 12.542 1.8 44.5719
    endloop
  endfacet
  facet normal -0.972003 -0 -0.23497
    outer loop
      vertex 12.4972 1.8 44.7571
      vertex 12.542 0.0599998 44.5719
      vertex 12.4972 0.0599998 44.7571
    endloop
  endfacet
  facet normal -0.395353 0 -0.918529
    outer loop
      vertex 11.1489 0.0599998 46.3301
      vertex 11.3036 1.8 46.2635
      vertex 11.3036 0.0599998 46.2635
    endloop
  endfacet
  facet normal -0.395353 0 -0.918529
    outer loop
      vertex 11.3036 1.8 46.2635
      vertex 11.1489 0.0599998 46.3301
      vertex 11.1489 1.8 46.3301
    endloop
  endfacet
  facet normal 0.930028 0 -0.367489
    outer loop
      vertex -12.3711 0.0599998 45.1123
      vertex -12.4401 1.8 44.9376
      vertex -12.3711 1.8 45.1123
    endloop
  endfacet
  facet normal 0.930028 0 -0.367489
    outer loop
      vertex -12.4401 1.8 44.9376
      vertex -12.3711 0.0599998 45.1123
      vertex -12.4401 0.0599998 44.9376
    endloop
  endfacet
  facet normal -0.226072 0 -0.974111
    outer loop
      vertex 10.8285 0.0599998 46.4198
      vertex 10.9902 1.8 46.3823
      vertex 10.9902 0.0599998 46.3823
    endloop
  endfacet
  facet normal -0.226072 0 -0.974111
    outer loop
      vertex 10.9902 1.8 46.3823
      vertex 10.8285 0.0599998 46.4198
      vertex 10.8285 1.8 46.4198
    endloop
  endfacet
endsolid OpenSCAD_Model
