solid OpenSCAD_Model
  facet normal 1 0 0
    outer loop
      vertex -0.299999 22.5 46.9166
      vertex -0.299999 21.5 45.5
      vertex -0.299999 22.5 35.5
    endloop
  endfacet
  facet normal 1 0 0
    outer loop
      vertex -0.299999 17.5 48.1509
      vertex -0.299999 21.5 45.5
      vertex -0.299999 22.5 46.9166
    endloop
  endfacet
  facet normal 1 0 0
    outer loop
      vertex -0.299999 21.5 45.5
      vertex -0.299999 17.5 48.1509
      vertex -0.299999 17.5 45.5
    endloop
  endfacet
  facet normal 1 0 0
    outer loop
      vertex -0.299999 22.5 35.5
      vertex -0.299999 21.5 45.5
      vertex -0.299999 21.5 35.5
    endloop
  endfacet
  facet normal -1 0 0
    outer loop
      vertex 0.7 21.5 45.5
      vertex 0.7 22.5 35.5
      vertex 0.7 21.5 35.5
    endloop
  endfacet
  facet normal -1 0 0
    outer loop
      vertex 0.7 22.5 35.5
      vertex 0.7 21.5 45.5
      vertex 0.7 22.5 46.9166
    endloop
  endfacet
  facet normal -1 0 0
    outer loop
      vertex 0.7 17.5 48.1509
      vertex 0.7 21.5 45.5
      vertex 0.7 17.5 45.5
    endloop
  endfacet
  facet normal -1 0 0
    outer loop
      vertex 0.7 21.5 45.5
      vertex 0.7 17.5 48.1509
      vertex 0.7 22.5 46.9166
    endloop
  endfacet
  facet normal -0 0 1
    outer loop
      vertex -0.299999 22.5 35.5
      vertex 0.7 21.5 35.5
      vertex 0.7 22.5 35.5
    endloop
  endfacet
  facet normal 0 0 1
    outer loop
      vertex 0.7 21.5 35.5
      vertex -0.299999 22.5 35.5
      vertex -0.299999 21.5 35.5
    endloop
  endfacet
  facet normal 0 1 -0
    outer loop
      vertex 0.7 17.5 45.5
      vertex -0.299999 17.5 48.1509
      vertex 0.7 17.5 48.1509
    endloop
  endfacet
  facet normal 0 1 0
    outer loop
      vertex -0.299999 17.5 48.1509
      vertex 0.7 17.5 45.5
      vertex -0.299999 17.5 45.5
    endloop
  endfacet
  facet normal 1 0 0
    outer loop
      vertex 1.7 22.5 46.9166
      vertex 1.7 21.5 45.5
      vertex 1.7 22.5 35.5
    endloop
  endfacet
  facet normal 1 0 0
    outer loop
      vertex 1.7 17.5 48.1509
      vertex 1.7 21.5 45.5
      vertex 1.7 22.5 46.9166
    endloop
  endfacet
  facet normal 1 0 0
    outer loop
      vertex 1.7 21.5 45.5
      vertex 1.7 17.5 48.1509
      vertex 1.7 17.5 45.5
    endloop
  endfacet
  facet normal 1 0 0
    outer loop
      vertex 1.7 22.5 35.5
      vertex 1.7 21.5 45.5
      vertex 1.7 21.5 35.5
    endloop
  endfacet
  facet normal -1 0 0
    outer loop
      vertex 2.7 21.5 45.5
      vertex 2.7 22.5 35.5
      vertex 2.7 21.5 35.5
    endloop
  endfacet
  facet normal -1 0 0
    outer loop
      vertex 2.7 22.5 35.5
      vertex 2.7 21.5 45.5
      vertex 2.7 22.5 46.9166
    endloop
  endfacet
  facet normal -1 0 0
    outer loop
      vertex 2.7 17.5 48.1509
      vertex 2.7 21.5 45.5
      vertex 2.7 17.5 45.5
    endloop
  endfacet
  facet normal -1 0 0
    outer loop
      vertex 2.7 21.5 45.5
      vertex 2.7 17.5 48.1509
      vertex 2.7 22.5 46.9166
    endloop
  endfacet
  facet normal -0 0 1
    outer loop
      vertex 1.7 22.5 35.5
      vertex 2.7 21.5 35.5
      vertex 2.7 22.5 35.5
    endloop
  endfacet
  facet normal 0 0 1
    outer loop
      vertex 2.7 21.5 35.5
      vertex 1.7 22.5 35.5
      vertex 1.7 21.5 35.5
    endloop
  endfacet
  facet normal 0 1 -0
    outer loop
      vertex 2.7 17.5 45.5
      vertex 1.7 17.5 48.1509
      vertex 2.7 17.5 48.1509
    endloop
  endfacet
  facet normal 0 1 0
    outer loop
      vertex 1.7 17.5 48.1509
      vertex 2.7 17.5 45.5
      vertex 1.7 17.5 45.5
    endloop
  endfacet
  facet normal 1 0 0
    outer loop
      vertex -2.3 22.5 46.9166
      vertex -2.3 21.5 45.5
      vertex -2.3 22.5 35.5
    endloop
  endfacet
  facet normal 1 0 0
    outer loop
      vertex -2.3 17.5 48.1509
      vertex -2.3 21.5 45.5
      vertex -2.3 22.5 46.9166
    endloop
  endfacet
  facet normal 1 0 0
    outer loop
      vertex -2.3 21.5 45.5
      vertex -2.3 17.5 48.1509
      vertex -2.3 17.5 45.5
    endloop
  endfacet
  facet normal 1 0 0
    outer loop
      vertex -2.3 22.5 35.5
      vertex -2.3 21.5 45.5
      vertex -2.3 21.5 35.5
    endloop
  endfacet
  facet normal -1 0 0
    outer loop
      vertex -1.3 21.5 45.5
      vertex -1.3 22.5 35.5
      vertex -1.3 21.5 35.5
    endloop
  endfacet
  facet normal -1 0 0
    outer loop
      vertex -1.3 22.5 35.5
      vertex -1.3 21.5 45.5
      vertex -1.3 22.5 46.9166
    endloop
  endfacet
  facet normal -1 0 0
    outer loop
      vertex -1.3 17.5 48.1509
      vertex -1.3 21.5 45.5
      vertex -1.3 17.5 45.5
    endloop
  endfacet
  facet normal -1 0 0
    outer loop
      vertex -1.3 21.5 45.5
      vertex -1.3 17.5 48.1509
      vertex -1.3 22.5 46.9166
    endloop
  endfacet
  facet normal -0 0 1
    outer loop
      vertex -2.3 22.5 35.5
      vertex -1.3 21.5 35.5
      vertex -1.3 22.5 35.5
    endloop
  endfacet
  facet normal 0 0 1
    outer loop
      vertex -1.3 21.5 35.5
      vertex -2.3 22.5 35.5
      vertex -2.3 21.5 35.5
    endloop
  endfacet
  facet normal 0 1 -0
    outer loop
      vertex -1.3 17.5 45.5
      vertex -2.3 17.5 48.1509
      vertex -1.3 17.5 48.1509
    endloop
  endfacet
  facet normal 0 1 0
    outer loop
      vertex -2.3 17.5 48.1509
      vertex -1.3 17.5 45.5
      vertex -2.3 17.5 45.5
    endloop
  endfacet
  facet normal 1 0 0
    outer loop
      vertex 3.7 22.5 46.9166
      vertex 3.7 21.5 45.5
      vertex 3.7 22.5 35.5
    endloop
  endfacet
  facet normal 1 0 0
    outer loop
      vertex 3.7 17.5 48.1509
      vertex 3.7 21.5 45.5
      vertex 3.7 22.5 46.9166
    endloop
  endfacet
  facet normal 1 0 0
    outer loop
      vertex 3.7 21.5 45.5
      vertex 3.7 17.5 48.1509
      vertex 3.7 17.5 45.5
    endloop
  endfacet
  facet normal 1 0 0
    outer loop
      vertex 3.7 22.5 35.5
      vertex 3.7 21.5 45.5
      vertex 3.7 21.5 35.5
    endloop
  endfacet
  facet normal -1 0 0
    outer loop
      vertex 4.7 21.5 45.5
      vertex 4.7 22.5 35.5
      vertex 4.7 21.5 35.5
    endloop
  endfacet
  facet normal -1 0 0
    outer loop
      vertex 4.7 22.5 35.5
      vertex 4.7 21.5 45.5
      vertex 4.7 22.5 46.9166
    endloop
  endfacet
  facet normal -1 0 0
    outer loop
      vertex 4.7 17.5 48.1509
      vertex 4.7 21.5 45.5
      vertex 4.7 17.5 45.5
    endloop
  endfacet
  facet normal -1 0 0
    outer loop
      vertex 4.7 21.5 45.5
      vertex 4.7 17.5 48.1509
      vertex 4.7 22.5 46.9166
    endloop
  endfacet
  facet normal -0 0 1
    outer loop
      vertex 3.7 22.5 35.5
      vertex 4.7 21.5 35.5
      vertex 4.7 22.5 35.5
    endloop
  endfacet
  facet normal 0 0 1
    outer loop
      vertex 4.7 21.5 35.5
      vertex 3.7 22.5 35.5
      vertex 3.7 21.5 35.5
    endloop
  endfacet
  facet normal 0 1 -0
    outer loop
      vertex 4.7 17.5 45.5
      vertex 3.7 17.5 48.1509
      vertex 4.7 17.5 48.1509
    endloop
  endfacet
  facet normal 0 1 0
    outer loop
      vertex 3.7 17.5 48.1509
      vertex 4.7 17.5 45.5
      vertex 3.7 17.5 45.5
    endloop
  endfacet
  facet normal 1 0 0
    outer loop
      vertex -4.3 22.5 46.9166
      vertex -4.3 21.5 45.5
      vertex -4.3 22.5 35.5
    endloop
  endfacet
  facet normal 1 0 0
    outer loop
      vertex -4.3 17.5 48.1509
      vertex -4.3 21.5 45.5
      vertex -4.3 22.5 46.9166
    endloop
  endfacet
  facet normal 1 0 0
    outer loop
      vertex -4.3 21.5 45.5
      vertex -4.3 17.5 48.1509
      vertex -4.3 17.5 45.5
    endloop
  endfacet
  facet normal 1 0 0
    outer loop
      vertex -4.3 22.5 35.5
      vertex -4.3 21.5 45.5
      vertex -4.3 21.5 35.5
    endloop
  endfacet
  facet normal -1 0 0
    outer loop
      vertex -3.3 21.5 45.5
      vertex -3.3 22.5 35.5
      vertex -3.3 21.5 35.5
    endloop
  endfacet
  facet normal -1 0 0
    outer loop
      vertex -3.3 22.5 35.5
      vertex -3.3 21.5 45.5
      vertex -3.3 22.5 46.9166
    endloop
  endfacet
  facet normal -1 0 0
    outer loop
      vertex -3.3 17.5 48.1509
      vertex -3.3 21.5 45.5
      vertex -3.3 17.5 45.5
    endloop
  endfacet
  facet normal -1 0 0
    outer loop
      vertex -3.3 21.5 45.5
      vertex -3.3 17.5 48.1509
      vertex -3.3 22.5 46.9166
    endloop
  endfacet
  facet normal -0 0 1
    outer loop
      vertex -4.3 22.5 35.5
      vertex -3.3 21.5 35.5
      vertex -3.3 22.5 35.5
    endloop
  endfacet
  facet normal 0 0 1
    outer loop
      vertex -3.3 21.5 35.5
      vertex -4.3 22.5 35.5
      vertex -4.3 21.5 35.5
    endloop
  endfacet
  facet normal 0 1 -0
    outer loop
      vertex -3.3 17.5 45.5
      vertex -4.3 17.5 48.1509
      vertex -3.3 17.5 48.1509
    endloop
  endfacet
  facet normal 0 1 0
    outer loop
      vertex -4.3 17.5 48.1509
      vertex -3.3 17.5 45.5
      vertex -4.3 17.5 45.5
    endloop
  endfacet
  facet normal 1 0 0
    outer loop
      vertex 5.7 22.5 46.9166
      vertex 5.7 21.5 45.5
      vertex 5.7 22.5 35.5
    endloop
  endfacet
  facet normal 1 0 0
    outer loop
      vertex 5.7 17.5 48.1509
      vertex 5.7 21.5 45.5
      vertex 5.7 22.5 46.9166
    endloop
  endfacet
  facet normal 1 0 0
    outer loop
      vertex 5.7 21.5 45.5
      vertex 5.7 17.5 48.1509
      vertex 5.7 17.5 45.5
    endloop
  endfacet
  facet normal 1 0 0
    outer loop
      vertex 5.7 22.5 35.5
      vertex 5.7 21.5 45.5
      vertex 5.7 21.5 35.5
    endloop
  endfacet
  facet normal -1 0 0
    outer loop
      vertex 6.7 21.5 45.5
      vertex 6.7 22.5 35.5
      vertex 6.7 21.5 35.5
    endloop
  endfacet
  facet normal -1 0 0
    outer loop
      vertex 6.7 22.5 35.5
      vertex 6.7 21.5 45.5
      vertex 6.7 22.5 46.9166
    endloop
  endfacet
  facet normal -1 0 0
    outer loop
      vertex 6.7 17.5 48.1509
      vertex 6.7 21.5 45.5
      vertex 6.7 17.5 45.5
    endloop
  endfacet
  facet normal -1 0 0
    outer loop
      vertex 6.7 21.5 45.5
      vertex 6.7 17.5 48.1509
      vertex 6.7 22.5 46.9166
    endloop
  endfacet
  facet normal -0 0 1
    outer loop
      vertex 5.7 22.5 35.5
      vertex 6.7 21.5 35.5
      vertex 6.7 22.5 35.5
    endloop
  endfacet
  facet normal 0 0 1
    outer loop
      vertex 6.7 21.5 35.5
      vertex 5.7 22.5 35.5
      vertex 5.7 21.5 35.5
    endloop
  endfacet
  facet normal 0 1 -0
    outer loop
      vertex 6.7 17.5 45.5
      vertex 5.7 17.5 48.1509
      vertex 6.7 17.5 48.1509
    endloop
  endfacet
  facet normal 0 1 0
    outer loop
      vertex 5.7 17.5 48.1509
      vertex 6.7 17.5 45.5
      vertex 5.7 17.5 45.5
    endloop
  endfacet
  facet normal 1 0 0
    outer loop
      vertex -6.3 22.5 46.9166
      vertex -6.3 21.5 45.5
      vertex -6.3 22.5 35.5
    endloop
  endfacet
  facet normal 1 0 0
    outer loop
      vertex -6.3 17.5 48.1509
      vertex -6.3 21.5 45.5
      vertex -6.3 22.5 46.9166
    endloop
  endfacet
  facet normal 1 0 0
    outer loop
      vertex -6.3 21.5 45.5
      vertex -6.3 17.5 48.1509
      vertex -6.3 17.5 45.5
    endloop
  endfacet
  facet normal 1 0 0
    outer loop
      vertex -6.3 22.5 35.5
      vertex -6.3 21.5 45.5
      vertex -6.3 21.5 35.5
    endloop
  endfacet
  facet normal -1 0 0
    outer loop
      vertex -5.3 21.5 45.5
      vertex -5.3 22.5 35.5
      vertex -5.3 21.5 35.5
    endloop
  endfacet
  facet normal -1 0 0
    outer loop
      vertex -5.3 22.5 35.5
      vertex -5.3 21.5 45.5
      vertex -5.3 22.5 46.9166
    endloop
  endfacet
  facet normal -1 0 0
    outer loop
      vertex -5.3 17.5 48.1509
      vertex -5.3 21.5 45.5
      vertex -5.3 17.5 45.5
    endloop
  endfacet
  facet normal -1 0 0
    outer loop
      vertex -5.3 21.5 45.5
      vertex -5.3 17.5 48.1509
      vertex -5.3 22.5 46.9166
    endloop
  endfacet
  facet normal -0 0 1
    outer loop
      vertex -6.3 22.5 35.5
      vertex -5.3 21.5 35.5
      vertex -5.3 22.5 35.5
    endloop
  endfacet
  facet normal 0 0 1
    outer loop
      vertex -5.3 21.5 35.5
      vertex -6.3 22.5 35.5
      vertex -6.3 21.5 35.5
    endloop
  endfacet
  facet normal 0 1 -0
    outer loop
      vertex -5.3 17.5 45.5
      vertex -6.3 17.5 48.1509
      vertex -5.3 17.5 48.1509
    endloop
  endfacet
  facet normal 0 1 0
    outer loop
      vertex -6.3 17.5 48.1509
      vertex -5.3 17.5 45.5
      vertex -6.3 17.5 45.5
    endloop
  endfacet
  facet normal 1 0 0
    outer loop
      vertex 7.7 22.5 46.9166
      vertex 7.7 21.5 45.5
      vertex 7.7 22.5 35.5
    endloop
  endfacet
  facet normal 1 0 0
    outer loop
      vertex 7.7 17.5 48.1509
      vertex 7.7 21.5 45.5
      vertex 7.7 22.5 46.9166
    endloop
  endfacet
  facet normal 1 0 0
    outer loop
      vertex 7.7 21.5 45.5
      vertex 7.7 17.5 48.1509
      vertex 7.7 17.5 45.5
    endloop
  endfacet
  facet normal 1 0 0
    outer loop
      vertex 7.7 22.5 35.5
      vertex 7.7 21.5 45.5
      vertex 7.7 21.5 35.5
    endloop
  endfacet
  facet normal -1 0 0
    outer loop
      vertex 8.7 21.5 45.5
      vertex 8.7 22.5 35.5
      vertex 8.7 21.5 35.5
    endloop
  endfacet
  facet normal -1 0 0
    outer loop
      vertex 8.7 22.5 35.5
      vertex 8.7 21.5 45.5
      vertex 8.7 22.5 46.9166
    endloop
  endfacet
  facet normal -1 0 0
    outer loop
      vertex 8.7 17.5 48.1509
      vertex 8.7 21.5 45.5
      vertex 8.7 17.5 45.5
    endloop
  endfacet
  facet normal -1 0 0
    outer loop
      vertex 8.7 21.5 45.5
      vertex 8.7 17.5 48.1509
      vertex 8.7 22.5 46.9166
    endloop
  endfacet
  facet normal -0 0 1
    outer loop
      vertex 7.7 22.5 35.5
      vertex 8.7 21.5 35.5
      vertex 8.7 22.5 35.5
    endloop
  endfacet
  facet normal 0 0 1
    outer loop
      vertex 8.7 21.5 35.5
      vertex 7.7 22.5 35.5
      vertex 7.7 21.5 35.5
    endloop
  endfacet
  facet normal 0 1 -0
    outer loop
      vertex 8.7 17.5 45.5
      vertex 7.7 17.5 48.1509
      vertex 8.7 17.5 48.1509
    endloop
  endfacet
  facet normal 0 1 0
    outer loop
      vertex 7.7 17.5 48.1509
      vertex 8.7 17.5 45.5
      vertex 7.7 17.5 45.5
    endloop
  endfacet
  facet normal 1 0 0
    outer loop
      vertex -8.3 22.5 46.9166
      vertex -8.3 21.5 45.5
      vertex -8.3 22.5 35.5
    endloop
  endfacet
  facet normal 1 0 0
    outer loop
      vertex -8.3 17.5 48.1509
      vertex -8.3 21.5 45.5
      vertex -8.3 22.5 46.9166
    endloop
  endfacet
  facet normal 1 0 0
    outer loop
      vertex -8.3 21.5 45.5
      vertex -8.3 17.5 48.1509
      vertex -8.3 17.5 45.5
    endloop
  endfacet
  facet normal 1 0 0
    outer loop
      vertex -8.3 22.5 35.5
      vertex -8.3 21.5 45.5
      vertex -8.3 21.5 35.5
    endloop
  endfacet
  facet normal -1 0 0
    outer loop
      vertex -7.3 21.5 45.5
      vertex -7.3 22.5 35.5
      vertex -7.3 21.5 35.5
    endloop
  endfacet
  facet normal -1 0 0
    outer loop
      vertex -7.3 22.5 35.5
      vertex -7.3 21.5 45.5
      vertex -7.3 22.5 46.9166
    endloop
  endfacet
  facet normal -1 0 0
    outer loop
      vertex -7.3 17.5 48.1509
      vertex -7.3 21.5 45.5
      vertex -7.3 17.5 45.5
    endloop
  endfacet
  facet normal -1 0 0
    outer loop
      vertex -7.3 21.5 45.5
      vertex -7.3 17.5 48.1509
      vertex -7.3 22.5 46.9166
    endloop
  endfacet
  facet normal -0 0 1
    outer loop
      vertex -8.3 22.5 35.5
      vertex -7.3 21.5 35.5
      vertex -7.3 22.5 35.5
    endloop
  endfacet
  facet normal 0 0 1
    outer loop
      vertex -7.3 21.5 35.5
      vertex -8.3 22.5 35.5
      vertex -8.3 21.5 35.5
    endloop
  endfacet
  facet normal 0 1 -0
    outer loop
      vertex -7.3 17.5 45.5
      vertex -8.3 17.5 48.1509
      vertex -7.3 17.5 48.1509
    endloop
  endfacet
  facet normal 0 1 0
    outer loop
      vertex -8.3 17.5 48.1509
      vertex -7.3 17.5 45.5
      vertex -8.3 17.5 45.5
    endloop
  endfacet
  facet normal 1 -0 0
    outer loop
      vertex -14.28 3.9 50.5
      vertex -14.28 5.34 48.5
      vertex -14.28 5.34 50.5
    endloop
  endfacet
  facet normal 1 0 0
    outer loop
      vertex -14.28 5.34 48.5
      vertex -14.28 3.9 50.5
      vertex -14.28 3.9 48.5
    endloop
  endfacet
  facet normal 0 -1 0
    outer loop
      vertex -14.28 5.34 50.5
      vertex -8 5.34 50
      vertex 14.79 5.34 50.5
    endloop
  endfacet
  facet normal 0 -1 0
    outer loop
      vertex -14.28 5.34 48.5
      vertex -8 5.34 50
      vertex -14.28 5.34 50.5
    endloop
  endfacet
  facet normal 0 -1 -0
    outer loop
      vertex -8 5.34 50
      vertex -14.28 5.34 48.5
      vertex -8 5.34 48.5
    endloop
  endfacet
  facet normal 0 -1 0
    outer loop
      vertex 8 5.34 50
      vertex 14.79 5.34 50.5
      vertex -8 5.34 50
    endloop
  endfacet
  facet normal 0 -1 0
    outer loop
      vertex 14.79 5.34 48.5
      vertex 8 5.34 50
      vertex 8 5.34 48.5
    endloop
  endfacet
  facet normal 0 -1 0
    outer loop
      vertex 8 5.34 50
      vertex 14.79 5.34 48.5
      vertex 14.79 5.34 50.5
    endloop
  endfacet
  facet normal -1 0 0
    outer loop
      vertex 14.79 3.9 48.5
      vertex 14.79 5.34 50.5
      vertex 14.79 5.34 48.5
    endloop
  endfacet
  facet normal -1 -0 0
    outer loop
      vertex 14.79 5.34 50.5
      vertex 14.79 3.9 48.5
      vertex 14.79 3.9 50.5
    endloop
  endfacet
  facet normal 0 1 -0
    outer loop
      vertex 14.79 3.9 48.5
      vertex -14.28 3.9 50.5
      vertex 14.79 3.9 50.5
    endloop
  endfacet
  facet normal 0 1 0
    outer loop
      vertex -14.28 3.9 50.5
      vertex 14.79 3.9 48.5
      vertex -14.28 3.9 48.5
    endloop
  endfacet
  facet normal 0 0 -1
    outer loop
      vertex -14.28 3.9 50.5
      vertex 14.79 5.34 50.5
      vertex 14.79 3.9 50.5
    endloop
  endfacet
  facet normal -0 0 -1
    outer loop
      vertex 14.79 5.34 50.5
      vertex -14.28 3.9 50.5
      vertex -14.28 5.34 50.5
    endloop
  endfacet
  facet normal 0 -1 0
    outer loop
      vertex -17.6579 0.5 52.3475
      vertex -15.8941 0.5 50.9448
      vertex 17.6579 0.5 52.3475
    endloop
  endfacet
  facet normal 0 -1 -0
    outer loop
      vertex -17.6579 0.5 52.3475
      vertex -20.4746 0.5 27.2
      vertex -15.8941 0.5 50.9448
    endloop
  endfacet
  facet normal 0 -1 -0
    outer loop
      vertex -20.4746 0.5 27.2
      vertex -22.7496 0.5 24.4
      vertex 20.4746 0.5 27.2
    endloop
  endfacet
  facet normal 0 -1 0
    outer loop
      vertex -22.7496 0.5 24.4
      vertex -20.4746 0.5 27.2
      vertex -17.6579 0.5 52.3475
    endloop
  endfacet
  facet normal 0 -1 0
    outer loop
      vertex 15.8941 0.5 50.9448
      vertex 17.6579 0.5 52.3475
      vertex -15.8941 0.5 50.9448
    endloop
  endfacet
  facet normal 0 -1 0
    outer loop
      vertex 20.4746 0.5 27.2
      vertex 17.6579 0.5 52.3475
      vertex 15.8941 0.5 50.9448
    endloop
  endfacet
  facet normal 0 -1 0
    outer loop
      vertex 20.4746 0.5 27.2
      vertex 22.7496 0.5 24.4
      vertex 17.6579 0.5 52.3475
    endloop
  endfacet
  facet normal 0 -1 0
    outer loop
      vertex 22.7496 0.5 24.4
      vertex 20.4746 0.5 27.2
      vertex -22.7496 0.5 24.4
    endloop
  endfacet
  facet normal 0 0 -1
    outer loop
      vertex 22.7496 0.5 24.4
      vertex 19.2 2.5 24.4
      vertex 22.7496 22.5 24.4
    endloop
  endfacet
  facet normal 0 0 -1
    outer loop
      vertex 22.7496 0.5 24.4
      vertex -19.2 2.5 24.4
      vertex 19.2 2.5 24.4
    endloop
  endfacet
  facet normal 0 0 -1
    outer loop
      vertex -22.7496 0.5 24.4
      vertex -19.2 2.5 24.4
      vertex 22.7496 0.5 24.4
    endloop
  endfacet
  facet normal 0 0 -1
    outer loop
      vertex -22.7496 22.5 24.4
      vertex -19.2 2.5 24.4
      vertex -22.7496 0.5 24.4
    endloop
  endfacet
  facet normal 0 0 -1
    outer loop
      vertex -19.2 2.5 24.4
      vertex -22.7496 22.5 24.4
      vertex -19.2 22.5 24.4
    endloop
  endfacet
  facet normal -0 0 -1
    outer loop
      vertex 22.7496 22.5 24.4
      vertex 19.2 2.5 24.4
      vertex 19.2 22.5 24.4
    endloop
  endfacet
  facet normal -0.983805 2.48301e-006 0.17924
    outer loop
      vertex -17.6579 0.5 52.3475
      vertex -18.6473 22.5 46.9166
      vertex -22.7496 22.5 24.4
    endloop
  endfacet
  facet normal -0.983806 0 0.179238
    outer loop
      vertex -17.6579 0.5 52.3475
      vertex -22.7496 22.5 24.4
      vertex -22.7496 0.5 24.4
    endloop
  endfacet
  facet normal 0 0.239664 0.970856
    outer loop
      vertex -6.3 22.5 46.9166
      vertex -7.3 22.5 46.9166
      vertex -6.3 17.5 48.1509
    endloop
  endfacet
  facet normal 0 0.239664 0.970856
    outer loop
      vertex -4.3 22.5 46.9166
      vertex -5.3 22.5 46.9166
      vertex -4.3 17.5 48.1509
    endloop
  endfacet
  facet normal 0 0.239664 0.970856
    outer loop
      vertex -2.3 22.5 46.9166
      vertex -3.3 22.5 46.9166
      vertex -2.3 17.5 48.1509
    endloop
  endfacet
  facet normal 0 0.239664 0.970856
    outer loop
      vertex -0.299999 22.5 46.9166
      vertex -1.3 22.5 46.9166
      vertex -0.299999 17.5 48.1509
    endloop
  endfacet
  facet normal 0 0.239664 0.970856
    outer loop
      vertex 1.7 22.5 46.9166
      vertex 0.7 22.5 46.9166
      vertex 1.7 17.5 48.1509
    endloop
  endfacet
  facet normal 0 0.239664 0.970856
    outer loop
      vertex 3.7 22.5 46.9166
      vertex 2.7 22.5 46.9166
      vertex 3.7 17.5 48.1509
    endloop
  endfacet
  facet normal 0 0.239664 0.970856
    outer loop
      vertex 5.7 22.5 46.9166
      vertex 4.7 22.5 46.9166
      vertex 5.7 17.5 48.1509
    endloop
  endfacet
  facet normal 0 0.239664 0.970856
    outer loop
      vertex 7.7 22.5 46.9166
      vertex 6.7 22.5 46.9166
      vertex 7.7 17.5 48.1509
    endloop
  endfacet
  facet normal 0 0.239664 0.970856
    outer loop
      vertex 8.7 17.5 48.1509
      vertex 18.6473 22.5 46.9166
      vertex 8.7 22.5 46.9166
    endloop
  endfacet
  facet normal -1.73148e-008 0.239664 0.970856
    outer loop
      vertex 18.6473 22.5 46.9166
      vertex 8.7 17.5 48.1509
      vertex 17.6579 0.5 52.3475
    endloop
  endfacet
  facet normal -0 0.239664 0.970856
    outer loop
      vertex 7.7 17.5 48.1509
      vertex 17.6579 0.5 52.3475
      vertex 8.7 17.5 48.1509
    endloop
  endfacet
  facet normal -0 0.239664 0.970856
    outer loop
      vertex 6.7 17.5 48.1509
      vertex 7.7 17.5 48.1509
      vertex 6.7 22.5 46.9166
    endloop
  endfacet
  facet normal -0 0.239664 0.970856
    outer loop
      vertex 6.7 17.5 48.1509
      vertex 17.6579 0.5 52.3475
      vertex 7.7 17.5 48.1509
    endloop
  endfacet
  facet normal -0 0.239664 0.970856
    outer loop
      vertex 5.7 17.5 48.1509
      vertex 17.6579 0.5 52.3475
      vertex 6.7 17.5 48.1509
    endloop
  endfacet
  facet normal -0 0.239664 0.970856
    outer loop
      vertex 4.7 17.5 48.1509
      vertex 5.7 17.5 48.1509
      vertex 4.7 22.5 46.9166
    endloop
  endfacet
  facet normal -0 0.239664 0.970856
    outer loop
      vertex 4.7 17.5 48.1509
      vertex 17.6579 0.5 52.3475
      vertex 5.7 17.5 48.1509
    endloop
  endfacet
  facet normal -0 0.239664 0.970856
    outer loop
      vertex 3.7 17.5 48.1509
      vertex 17.6579 0.5 52.3475
      vertex 4.7 17.5 48.1509
    endloop
  endfacet
  facet normal -0 0.239664 0.970856
    outer loop
      vertex 2.7 17.5 48.1509
      vertex 3.7 17.5 48.1509
      vertex 2.7 22.5 46.9166
    endloop
  endfacet
  facet normal -0 0.239664 0.970856
    outer loop
      vertex 2.7 17.5 48.1509
      vertex 17.6579 0.5 52.3475
      vertex 3.7 17.5 48.1509
    endloop
  endfacet
  facet normal -0 0.239664 0.970856
    outer loop
      vertex 1.7 17.5 48.1509
      vertex 17.6579 0.5 52.3475
      vertex 2.7 17.5 48.1509
    endloop
  endfacet
  facet normal -0 0.239664 0.970856
    outer loop
      vertex 0.7 17.5 48.1509
      vertex 1.7 17.5 48.1509
      vertex 0.7 22.5 46.9166
    endloop
  endfacet
  facet normal -0 0.239664 0.970856
    outer loop
      vertex 0.7 17.5 48.1509
      vertex 17.6579 0.5 52.3475
      vertex 1.7 17.5 48.1509
    endloop
  endfacet
  facet normal -0 0.239664 0.970856
    outer loop
      vertex -0.299999 17.5 48.1509
      vertex 17.6579 0.5 52.3475
      vertex 0.7 17.5 48.1509
    endloop
  endfacet
  facet normal -0 0.239664 0.970856
    outer loop
      vertex -1.3 17.5 48.1509
      vertex -0.299999 17.5 48.1509
      vertex -1.3 22.5 46.9166
    endloop
  endfacet
  facet normal 0 0.239664 0.970856
    outer loop
      vertex -17.6579 0.5 52.3475
      vertex -0.299999 17.5 48.1509
      vertex -1.3 17.5 48.1509
    endloop
  endfacet
  facet normal 0 0.239664 0.970856
    outer loop
      vertex -17.6579 0.5 52.3475
      vertex -1.3 17.5 48.1509
      vertex -2.3 17.5 48.1509
    endloop
  endfacet
  facet normal -0 0.239664 0.970856
    outer loop
      vertex -3.3 17.5 48.1509
      vertex -2.3 17.5 48.1509
      vertex -3.3 22.5 46.9166
    endloop
  endfacet
  facet normal 0 0.239664 0.970856
    outer loop
      vertex -17.6579 0.5 52.3475
      vertex -2.3 17.5 48.1509
      vertex -3.3 17.5 48.1509
    endloop
  endfacet
  facet normal 0 0.239664 0.970856
    outer loop
      vertex -17.6579 0.5 52.3475
      vertex -3.3 17.5 48.1509
      vertex -4.3 17.5 48.1509
    endloop
  endfacet
  facet normal -0 0.239664 0.970856
    outer loop
      vertex -5.3 17.5 48.1509
      vertex -4.3 17.5 48.1509
      vertex -5.3 22.5 46.9166
    endloop
  endfacet
  facet normal 0 0.239664 0.970856
    outer loop
      vertex -17.6579 0.5 52.3475
      vertex -4.3 17.5 48.1509
      vertex -5.3 17.5 48.1509
    endloop
  endfacet
  facet normal 0 0.239664 0.970856
    outer loop
      vertex -17.6579 0.5 52.3475
      vertex -5.3 17.5 48.1509
      vertex -6.3 17.5 48.1509
    endloop
  endfacet
  facet normal -0 0.239664 0.970856
    outer loop
      vertex -7.3 17.5 48.1509
      vertex -6.3 17.5 48.1509
      vertex -7.3 22.5 46.9166
    endloop
  endfacet
  facet normal 0 0.239664 0.970856
    outer loop
      vertex -17.6579 0.5 52.3475
      vertex -6.3 17.5 48.1509
      vertex -7.3 17.5 48.1509
    endloop
  endfacet
  facet normal 0 0.239664 0.970856
    outer loop
      vertex -17.6579 0.5 52.3475
      vertex -7.3 17.5 48.1509
      vertex -8.3 17.5 48.1509
    endloop
  endfacet
  facet normal 0 0.239664 0.970856
    outer loop
      vertex -0.299999 17.5 48.1509
      vertex -17.6579 0.5 52.3475
      vertex 17.6579 0.5 52.3475
    endloop
  endfacet
  facet normal -0 0.239664 0.970856
    outer loop
      vertex -18.6473 22.5 46.9166
      vertex -8.3 17.5 48.1509
      vertex -8.3 22.5 46.9166
    endloop
  endfacet
  facet normal 1.66306e-008 0.239664 0.970856
    outer loop
      vertex -8.3 17.5 48.1509
      vertex -18.6473 22.5 46.9166
      vertex -17.6579 0.5 52.3475
    endloop
  endfacet
  facet normal 0.983805 -0 0.17924
    outer loop
      vertex 22.7496 0.5 24.4
      vertex 22.7496 22.5 24.4
      vertex 18.6473 22.5 46.9166
    endloop
  endfacet
  facet normal 0.983806 2.0005e-006 0.179238
    outer loop
      vertex 22.7496 0.5 24.4
      vertex 18.6473 22.5 46.9166
      vertex 17.6579 0.5 52.3475
    endloop
  endfacet
  facet normal 0.981897 0 -0.189414
    outer loop
      vertex -20.4746 2.95 27.2
      vertex -15.8941 0.5 50.9448
      vertex -20.4746 0.5 27.2
    endloop
  endfacet
  facet normal 0.981897 -2.00557e-005 -0.189416
    outer loop
      vertex -15.9932 2.95 50.4308
      vertex -15.8941 0.5 50.9448
      vertex -20.4746 2.95 27.2
    endloop
  endfacet
  facet normal 0 0 1
    outer loop
      vertex -15 2.95 27.2
      vertex -20.4746 2.95 27.2
      vertex -15 2.9 27.2
    endloop
  endfacet
  facet normal 0 0 1
    outer loop
      vertex 15 2.9 27.2
      vertex 20.4746 2.95 27.2
      vertex 15 2.95 27.2
    endloop
  endfacet
  facet normal 0 0 1
    outer loop
      vertex 20.4746 2.95 27.2
      vertex 15 2.9 27.2
      vertex 20.4746 0.5 27.2
    endloop
  endfacet
  facet normal -0 0 1
    outer loop
      vertex -15 2.9 27.2
      vertex 20.4746 0.5 27.2
      vertex 15 2.9 27.2
    endloop
  endfacet
  facet normal 0 0 1
    outer loop
      vertex -20.4746 0.5 27.2
      vertex -15 2.9 27.2
      vertex -20.4746 2.95 27.2
    endloop
  endfacet
  facet normal 0 0 1
    outer loop
      vertex -15 2.9 27.2
      vertex -20.4746 0.5 27.2
      vertex 20.4746 0.5 27.2
    endloop
  endfacet
  facet normal -0.981897 -1.96215e-005 -0.189414
    outer loop
      vertex 15.9932 2.95 50.4308
      vertex 20.4746 0.5 27.2
      vertex 15.8941 0.5 50.9448
    endloop
  endfacet
  facet normal -0.981897 -0 -0.189416
    outer loop
      vertex 20.4746 2.95 27.2
      vertex 20.4746 0.5 27.2
      vertex 15.9932 2.95 50.4308
    endloop
  endfacet
  facet normal 0 -0.205357 -0.978687
    outer loop
      vertex -15.8941 0.5 50.9448
      vertex 15.9932 2.95 50.4308
      vertex 15.8941 0.5 50.9448
    endloop
  endfacet
  facet normal -0 -0.205357 -0.978687
    outer loop
      vertex 15.9932 2.95 50.4308
      vertex -15.8941 0.5 50.9448
      vertex -15.9932 2.95 50.4308
    endloop
  endfacet
  facet normal 0 1 0
    outer loop
      vertex 18.6473 22.5 46.9166
      vertex 8.7 22.5 35.5
      vertex 8.7 22.5 46.9166
    endloop
  endfacet
  facet normal 0 1 0
    outer loop
      vertex 19.2 22.5 24.4
      vertex 7.7 22.5 35.5
      vertex 8.7 22.5 35.5
    endloop
  endfacet
  facet normal 0 1 0
    outer loop
      vertex 7.7 22.5 35.5
      vertex 19.2 22.5 24.4
      vertex 6.7 22.5 35.5
    endloop
  endfacet
  facet normal 0 1 -0
    outer loop
      vertex 19.2 22.5 21.6
      vertex 6.7 22.5 35.5
      vertex 19.2 22.5 24.4
    endloop
  endfacet
  facet normal 0 1 0
    outer loop
      vertex 5.7 22.5 35.5
      vertex 19.2 22.5 21.6
      vertex 4.7 22.5 35.5
    endloop
  endfacet
  facet normal 0 1 0
    outer loop
      vertex 4.7 22.5 35.5
      vertex 19.2 22.5 21.6
      vertex 3.7 22.5 35.5
    endloop
  endfacet
  facet normal 0 1 0
    outer loop
      vertex 3.7 22.5 35.5
      vertex 19.2 22.5 21.6
      vertex 2.7 22.5 35.5
    endloop
  endfacet
  facet normal 0 1 0
    outer loop
      vertex 2.7 22.5 35.5
      vertex 19.2 22.5 21.6
      vertex 1.7 22.5 35.5
    endloop
  endfacet
  facet normal 0 1 0
    outer loop
      vertex 1.7 22.5 35.5
      vertex 19.2 22.5 21.6
      vertex 0.7 22.5 35.5
    endloop
  endfacet
  facet normal 0 1 0
    outer loop
      vertex 0.7 22.5 35.5
      vertex 19.2 22.5 21.6
      vertex -0.299999 22.5 35.5
    endloop
  endfacet
  facet normal 0 1 0
    outer loop
      vertex -19.2 22.5 21.6
      vertex -0.299999 22.5 35.5
      vertex 19.2 22.5 21.6
    endloop
  endfacet
  facet normal 0 1 0
    outer loop
      vertex -0.299999 22.5 35.5
      vertex -19.2 22.5 21.6
      vertex -1.3 22.5 35.5
    endloop
  endfacet
  facet normal 0 1 0
    outer loop
      vertex -1.3 22.5 35.5
      vertex -19.2 22.5 21.6
      vertex -2.3 22.5 35.5
    endloop
  endfacet
  facet normal 0 1 0
    outer loop
      vertex -2.3 22.5 35.5
      vertex -19.2 22.5 21.6
      vertex -3.3 22.5 35.5
    endloop
  endfacet
  facet normal 0 1 0
    outer loop
      vertex -3.3 22.5 35.5
      vertex -19.2 22.5 21.6
      vertex -4.3 22.5 35.5
    endloop
  endfacet
  facet normal 0 1 0
    outer loop
      vertex -4.3 22.5 35.5
      vertex -19.2 22.5 21.6
      vertex -5.3 22.5 35.5
    endloop
  endfacet
  facet normal 0 1 0
    outer loop
      vertex -5.3 22.5 35.5
      vertex -19.2 22.5 21.6
      vertex -6.3 22.5 35.5
    endloop
  endfacet
  facet normal 0 1 0
    outer loop
      vertex 18.6473 22.5 46.9166
      vertex 19.2 22.5 24.4
      vertex 8.7 22.5 35.5
    endloop
  endfacet
  facet normal 0 1 -0
    outer loop
      vertex 19.2 22.5 24.4
      vertex 18.6473 22.5 46.9166
      vertex 22.7496 22.5 24.4
    endloop
  endfacet
  facet normal 0 1 -0
    outer loop
      vertex 7.7 22.5 35.5
      vertex 6.7 22.5 46.9166
      vertex 7.7 22.5 46.9166
    endloop
  endfacet
  facet normal 0 1 0
    outer loop
      vertex 6.7 22.5 46.9166
      vertex 7.7 22.5 35.5
      vertex 6.7 22.5 35.5
    endloop
  endfacet
  facet normal 0 1 -0
    outer loop
      vertex 5.7 22.5 35.5
      vertex 4.7 22.5 46.9166
      vertex 5.7 22.5 46.9166
    endloop
  endfacet
  facet normal 0 1 0
    outer loop
      vertex 4.7 22.5 46.9166
      vertex 5.7 22.5 35.5
      vertex 4.7 22.5 35.5
    endloop
  endfacet
  facet normal 0 1 -0
    outer loop
      vertex 3.7 22.5 35.5
      vertex 2.7 22.5 46.9166
      vertex 3.7 22.5 46.9166
    endloop
  endfacet
  facet normal 0 1 0
    outer loop
      vertex 2.7 22.5 46.9166
      vertex 3.7 22.5 35.5
      vertex 2.7 22.5 35.5
    endloop
  endfacet
  facet normal 0 1 -0
    outer loop
      vertex 1.7 22.5 35.5
      vertex 0.7 22.5 46.9166
      vertex 1.7 22.5 46.9166
    endloop
  endfacet
  facet normal 0 1 0
    outer loop
      vertex 0.7 22.5 46.9166
      vertex 1.7 22.5 35.5
      vertex 0.7 22.5 35.5
    endloop
  endfacet
  facet normal 0 1 -0
    outer loop
      vertex -0.299999 22.5 35.5
      vertex -1.3 22.5 46.9166
      vertex -0.299999 22.5 46.9166
    endloop
  endfacet
  facet normal 0 1 0
    outer loop
      vertex -1.3 22.5 46.9166
      vertex -0.299999 22.5 35.5
      vertex -1.3 22.5 35.5
    endloop
  endfacet
  facet normal 0 1 -0
    outer loop
      vertex -2.3 22.5 35.5
      vertex -3.3 22.5 46.9166
      vertex -2.3 22.5 46.9166
    endloop
  endfacet
  facet normal 0 1 0
    outer loop
      vertex -3.3 22.5 46.9166
      vertex -2.3 22.5 35.5
      vertex -3.3 22.5 35.5
    endloop
  endfacet
  facet normal 0 1 -0
    outer loop
      vertex -4.3 22.5 35.5
      vertex -5.3 22.5 46.9166
      vertex -4.3 22.5 46.9166
    endloop
  endfacet
  facet normal 0 1 0
    outer loop
      vertex -5.3 22.5 46.9166
      vertex -4.3 22.5 35.5
      vertex -5.3 22.5 35.5
    endloop
  endfacet
  facet normal 0 1 -0
    outer loop
      vertex -6.3 22.5 35.5
      vertex -7.3 22.5 46.9166
      vertex -6.3 22.5 46.9166
    endloop
  endfacet
  facet normal 0 1 0
    outer loop
      vertex -7.3 22.5 46.9166
      vertex -6.3 22.5 35.5
      vertex -7.3 22.5 35.5
    endloop
  endfacet
  facet normal 0 1 -0
    outer loop
      vertex -8.3 22.5 35.5
      vertex -18.6473 22.5 46.9166
      vertex -8.3 22.5 46.9166
    endloop
  endfacet
  facet normal 0 1 0
    outer loop
      vertex 6.7 22.5 35.5
      vertex 19.2 22.5 21.6
      vertex 5.7 22.5 35.5
    endloop
  endfacet
  facet normal 0 1 0
    outer loop
      vertex -6.3 22.5 35.5
      vertex -19.2 22.5 21.6
      vertex -7.3 22.5 35.5
    endloop
  endfacet
  facet normal 0 1 0
    outer loop
      vertex -19.2 22.5 24.4
      vertex -18.6473 22.5 46.9166
      vertex -8.3 22.5 35.5
    endloop
  endfacet
  facet normal 0 1 0
    outer loop
      vertex -18.6473 22.5 46.9166
      vertex -19.2 22.5 24.4
      vertex -22.7496 22.5 24.4
    endloop
  endfacet
  facet normal -0 1 0
    outer loop
      vertex -19.2 22.5 24.4
      vertex -7.3 22.5 35.5
      vertex -19.2 22.5 21.6
    endloop
  endfacet
  facet normal 0 1 0
    outer loop
      vertex -7.3 22.5 35.5
      vertex -19.2 22.5 24.4
      vertex -8.3 22.5 35.5
    endloop
  endfacet
  facet normal 1 -0 0
    outer loop
      vertex 19.2 2.5 24.4
      vertex 19.2 22.5 21.6
      vertex 19.2 22.5 24.4
    endloop
  endfacet
  facet normal 1 0 0
    outer loop
      vertex 19.2 22.5 21.6
      vertex 19.2 2.5 24.4
      vertex 19.2 2.5 21.6
    endloop
  endfacet
  facet normal 0 -1 0
    outer loop
      vertex -19.2 2.5 21.6
      vertex 19.2 2.5 24.4
      vertex -19.2 2.5 24.4
    endloop
  endfacet
  facet normal 0 -1 -0
    outer loop
      vertex 19.2 2.5 24.4
      vertex -19.2 2.5 21.6
      vertex 19.2 2.5 21.6
    endloop
  endfacet
  facet normal -1 0 0
    outer loop
      vertex -19.2 2.5 21.6
      vertex -19.2 22.5 24.4
      vertex -19.2 22.5 21.6
    endloop
  endfacet
  facet normal -1 -0 0
    outer loop
      vertex -19.2 22.5 24.4
      vertex -19.2 2.5 21.6
      vertex -19.2 2.5 24.4
    endloop
  endfacet
  facet normal 0 -1 0
    outer loop
      vertex -15.9932 2.95 50.4308
      vertex -15 2.95 48.5
      vertex 15.9932 2.95 50.4308
    endloop
  endfacet
  facet normal 0 -1 0
    outer loop
      vertex -20.4746 2.95 27.2
      vertex -15 2.95 48.5
      vertex -15.9932 2.95 50.4308
    endloop
  endfacet
  facet normal 0 -1 -0
    outer loop
      vertex -15 2.95 48.5
      vertex -20.4746 2.95 27.2
      vertex -15 2.95 27.2
    endloop
  endfacet
  facet normal 0 -1 0
    outer loop
      vertex 15 2.95 48.5
      vertex 15.9932 2.95 50.4308
      vertex -15 2.95 48.5
    endloop
  endfacet
  facet normal 0 -1 0
    outer loop
      vertex 20.4746 2.95 27.2
      vertex 15 2.95 48.5
      vertex 15 2.95 27.2
    endloop
  endfacet
  facet normal 0 -1 0
    outer loop
      vertex 15 2.95 48.5
      vertex 20.4746 2.95 27.2
      vertex 15.9932 2.95 50.4308
    endloop
  endfacet
  facet normal 0 0 -1
    outer loop
      vertex 15 21.5 21.6
      vertex 19.2 2.5 21.6
      vertex 15 2.9 21.6
    endloop
  endfacet
  facet normal 0 0 -1
    outer loop
      vertex 19.2 2.5 21.6
      vertex -15 2.9 21.6
      vertex 15 2.9 21.6
    endloop
  endfacet
  facet normal -0 0 -1
    outer loop
      vertex -15 2.9 21.6
      vertex -19.2 2.5 21.6
      vertex -15 21.5 21.6
    endloop
  endfacet
  facet normal 0 0 -1
    outer loop
      vertex -19.2 2.5 21.6
      vertex -15 2.9 21.6
      vertex 19.2 2.5 21.6
    endloop
  endfacet
  facet normal 0 0 -1
    outer loop
      vertex 19.2 2.5 21.6
      vertex 15 21.5 21.6
      vertex 19.2 22.5 21.6
    endloop
  endfacet
  facet normal 0 0 -1
    outer loop
      vertex -15 21.5 21.6
      vertex 19.2 22.5 21.6
      vertex 15 21.5 21.6
    endloop
  endfacet
  facet normal 0 0 -1
    outer loop
      vertex -15 21.5 21.6
      vertex -19.2 22.5 21.6
      vertex 19.2 22.5 21.6
    endloop
  endfacet
  facet normal 0 0 -1
    outer loop
      vertex -19.2 22.5 21.6
      vertex -15 21.5 21.6
      vertex -19.2 2.5 21.6
    endloop
  endfacet
  facet normal 1 0 0
    outer loop
      vertex -15 9.9 48.5
      vertex -15 2.95 48.5
      vertex -15 9.9 45.5
    endloop
  endfacet
  facet normal 1 -0 0
    outer loop
      vertex -15 9.9 45.5
      vertex -15 21.5 21.6
      vertex -15 21.5 45.5
    endloop
  endfacet
  facet normal 1 0 0
    outer loop
      vertex -15 2.95 27.2
      vertex -15 9.9 45.5
      vertex -15 2.95 48.5
    endloop
  endfacet
  facet normal 1 0 0
    outer loop
      vertex -15 9.9 45.5
      vertex -15 2.95 27.2
      vertex -15 21.5 21.6
    endloop
  endfacet
  facet normal 1 0 0
    outer loop
      vertex -15 2.9 21.6
      vertex -15 2.95 27.2
      vertex -15 2.9 27.2
    endloop
  endfacet
  facet normal 1 0 0
    outer loop
      vertex -15 2.95 27.2
      vertex -15 2.9 21.6
      vertex -15 21.5 21.6
    endloop
  endfacet
  facet normal 0 0 -1
    outer loop
      vertex -8 5.34 48.5
      vertex -14.28 5.34 48.5
      vertex -8 7.5 48.5
    endloop
  endfacet
  facet normal 0 0 -1
    outer loop
      vertex 14.79 5.34 48.5
      vertex 15 2.95 48.5
      vertex 14.79 3.9 48.5
    endloop
  endfacet
  facet normal 0 0 -1
    outer loop
      vertex 15 2.95 48.5
      vertex -14.28 3.9 48.5
      vertex 14.79 3.9 48.5
    endloop
  endfacet
  facet normal -0 0 -1
    outer loop
      vertex -14.28 3.9 48.5
      vertex -15 2.95 48.5
      vertex -14.28 5.34 48.5
    endloop
  endfacet
  facet normal 0 0 -1
    outer loop
      vertex -15 2.95 48.5
      vertex -14.28 3.9 48.5
      vertex 15 2.95 48.5
    endloop
  endfacet
  facet normal 0 0 -1
    outer loop
      vertex 15 2.95 48.5
      vertex 14.79 5.34 48.5
      vertex 15 9.9 48.5
    endloop
  endfacet
  facet normal 0 0 -1
    outer loop
      vertex 8 7.5 48.5
      vertex 14.79 5.34 48.5
      vertex 8 5.34 48.5
    endloop
  endfacet
  facet normal 0 0 -1
    outer loop
      vertex 14.79 5.34 48.5
      vertex 8 7.5 48.5
      vertex 15 9.9 48.5
    endloop
  endfacet
  facet normal 0 0 -1
    outer loop
      vertex -8 7.5 48.5
      vertex 15 9.9 48.5
      vertex 8 7.5 48.5
    endloop
  endfacet
  facet normal 0 0 -1
    outer loop
      vertex -8 7.5 48.5
      vertex -15 9.9 48.5
      vertex 15 9.9 48.5
    endloop
  endfacet
  facet normal 0 0 -1
    outer loop
      vertex -14.28 5.34 48.5
      vertex -15 9.9 48.5
      vertex -8 7.5 48.5
    endloop
  endfacet
  facet normal 0 0 -1
    outer loop
      vertex -15 9.9 48.5
      vertex -14.28 5.34 48.5
      vertex -15 2.95 48.5
    endloop
  endfacet
  facet normal -1 0 0
    outer loop
      vertex 15 21.5 21.6
      vertex 15 9.9 45.5
      vertex 15 21.5 45.5
    endloop
  endfacet
  facet normal -1 0 0
    outer loop
      vertex 15 2.95 48.5
      vertex 15 9.9 45.5
      vertex 15 2.95 27.2
    endloop
  endfacet
  facet normal -1 0 0
    outer loop
      vertex 15 21.5 21.6
      vertex 15 2.95 27.2
      vertex 15 9.9 45.5
    endloop
  endfacet
  facet normal -1 0 0
    outer loop
      vertex 15 2.9 21.6
      vertex 15 2.95 27.2
      vertex 15 21.5 21.6
    endloop
  endfacet
  facet normal -1 -0 0
    outer loop
      vertex 15 2.95 27.2
      vertex 15 2.9 21.6
      vertex 15 2.9 27.2
    endloop
  endfacet
  facet normal -1 0 0
    outer loop
      vertex 15 9.9 45.5
      vertex 15 2.95 48.5
      vertex 15 9.9 48.5
    endloop
  endfacet
  facet normal 0 -1 0
    outer loop
      vertex -15 9.9 45.5
      vertex 15 9.9 48.5
      vertex -15 9.9 48.5
    endloop
  endfacet
  facet normal 0 -1 -0
    outer loop
      vertex 15 9.9 48.5
      vertex -15 9.9 45.5
      vertex 15 9.9 45.5
    endloop
  endfacet
  facet normal 0 1 -0
    outer loop
      vertex 15 2.9 21.6
      vertex -15 2.9 27.2
      vertex 15 2.9 27.2
    endloop
  endfacet
  facet normal 0 1 0
    outer loop
      vertex -15 2.9 27.2
      vertex 15 2.9 21.6
      vertex -15 2.9 21.6
    endloop
  endfacet
  facet normal 0 0 -1
    outer loop
      vertex 15 9.9 45.5
      vertex 8.7 17.5 45.5
      vertex 15 21.5 45.5
    endloop
  endfacet
  facet normal 0 0 -1
    outer loop
      vertex 15 9.9 45.5
      vertex 7.7 17.5 45.5
      vertex 8.7 17.5 45.5
    endloop
  endfacet
  facet normal 0 0 -1
    outer loop
      vertex 7.7 17.5 45.5
      vertex 6.7 17.5 45.5
      vertex 7.7 21.5 45.5
    endloop
  endfacet
  facet normal 0 0 -1
    outer loop
      vertex 15 9.9 45.5
      vertex 6.7 17.5 45.5
      vertex 7.7 17.5 45.5
    endloop
  endfacet
  facet normal 0 0 -1
    outer loop
      vertex 15 9.9 45.5
      vertex 5.7 17.5 45.5
      vertex 6.7 17.5 45.5
    endloop
  endfacet
  facet normal 0 0 -1
    outer loop
      vertex 5.7 17.5 45.5
      vertex 4.7 17.5 45.5
      vertex 5.7 21.5 45.5
    endloop
  endfacet
  facet normal 0 0 -1
    outer loop
      vertex 15 9.9 45.5
      vertex 4.7 17.5 45.5
      vertex 5.7 17.5 45.5
    endloop
  endfacet
  facet normal 0 0 -1
    outer loop
      vertex 15 9.9 45.5
      vertex 3.7 17.5 45.5
      vertex 4.7 17.5 45.5
    endloop
  endfacet
  facet normal 0 0 -1
    outer loop
      vertex 3.7 17.5 45.5
      vertex 2.7 17.5 45.5
      vertex 3.7 21.5 45.5
    endloop
  endfacet
  facet normal 0 0 -1
    outer loop
      vertex 15 9.9 45.5
      vertex 2.7 17.5 45.5
      vertex 3.7 17.5 45.5
    endloop
  endfacet
  facet normal 0 0 -1
    outer loop
      vertex 15 9.9 45.5
      vertex 1.7 17.5 45.5
      vertex 2.7 17.5 45.5
    endloop
  endfacet
  facet normal 0 0 -1
    outer loop
      vertex 1.7 17.5 45.5
      vertex 0.7 17.5 45.5
      vertex 1.7 21.5 45.5
    endloop
  endfacet
  facet normal 0 0 -1
    outer loop
      vertex 15 9.9 45.5
      vertex 0.7 17.5 45.5
      vertex 1.7 17.5 45.5
    endloop
  endfacet
  facet normal 0 0 -1
    outer loop
      vertex 15 9.9 45.5
      vertex -0.299999 17.5 45.5
      vertex 0.7 17.5 45.5
    endloop
  endfacet
  facet normal 0 0 -1
    outer loop
      vertex -0.299999 17.5 45.5
      vertex -1.3 17.5 45.5
      vertex -0.299999 21.5 45.5
    endloop
  endfacet
  facet normal 0 0 -1
    outer loop
      vertex -15 9.9 45.5
      vertex -0.299999 17.5 45.5
      vertex 15 9.9 45.5
    endloop
  endfacet
  facet normal -0 0 -1
    outer loop
      vertex -0.299999 17.5 45.5
      vertex -15 9.9 45.5
      vertex -1.3 17.5 45.5
    endloop
  endfacet
  facet normal 0 0 -1
    outer loop
      vertex -2.3 17.5 45.5
      vertex -3.3 17.5 45.5
      vertex -2.3 21.5 45.5
    endloop
  endfacet
  facet normal -0 0 -1
    outer loop
      vertex -1.3 17.5 45.5
      vertex -15 9.9 45.5
      vertex -2.3 17.5 45.5
    endloop
  endfacet
  facet normal -0 0 -1
    outer loop
      vertex -2.3 17.5 45.5
      vertex -15 9.9 45.5
      vertex -3.3 17.5 45.5
    endloop
  endfacet
  facet normal 0 0 -1
    outer loop
      vertex -4.3 17.5 45.5
      vertex -5.3 17.5 45.5
      vertex -4.3 21.5 45.5
    endloop
  endfacet
  facet normal -0 0 -1
    outer loop
      vertex -3.3 17.5 45.5
      vertex -15 9.9 45.5
      vertex -4.3 17.5 45.5
    endloop
  endfacet
  facet normal -0 0 -1
    outer loop
      vertex -4.3 17.5 45.5
      vertex -15 9.9 45.5
      vertex -5.3 17.5 45.5
    endloop
  endfacet
  facet normal 0 0 -1
    outer loop
      vertex -6.3 17.5 45.5
      vertex -7.3 17.5 45.5
      vertex -6.3 21.5 45.5
    endloop
  endfacet
  facet normal -0 0 -1
    outer loop
      vertex -5.3 17.5 45.5
      vertex -15 9.9 45.5
      vertex -6.3 17.5 45.5
    endloop
  endfacet
  facet normal -0 0 -1
    outer loop
      vertex -6.3 17.5 45.5
      vertex -15 9.9 45.5
      vertex -7.3 17.5 45.5
    endloop
  endfacet
  facet normal -0 0 -1
    outer loop
      vertex -7.3 17.5 45.5
      vertex -15 9.9 45.5
      vertex -8.3 17.5 45.5
    endloop
  endfacet
  facet normal 0 0 -1
    outer loop
      vertex -15 21.5 45.5
      vertex -8.3 17.5 45.5
      vertex -15 9.9 45.5
    endloop
  endfacet
  facet normal 0 0 -1
    outer loop
      vertex -8.3 17.5 45.5
      vertex -15 21.5 45.5
      vertex -8.3 21.5 45.5
    endloop
  endfacet
  facet normal -0 0 -1
    outer loop
      vertex 15 21.5 45.5
      vertex 8.7 17.5 45.5
      vertex 8.7 21.5 45.5
    endloop
  endfacet
  facet normal -0 0 -1
    outer loop
      vertex 7.7 21.5 45.5
      vertex 6.7 17.5 45.5
      vertex 6.7 21.5 45.5
    endloop
  endfacet
  facet normal -0 0 -1
    outer loop
      vertex 5.7 21.5 45.5
      vertex 4.7 17.5 45.5
      vertex 4.7 21.5 45.5
    endloop
  endfacet
  facet normal -0 0 -1
    outer loop
      vertex 3.7 21.5 45.5
      vertex 2.7 17.5 45.5
      vertex 2.7 21.5 45.5
    endloop
  endfacet
  facet normal -0 0 -1
    outer loop
      vertex 1.7 21.5 45.5
      vertex 0.7 17.5 45.5
      vertex 0.7 21.5 45.5
    endloop
  endfacet
  facet normal -0 0 -1
    outer loop
      vertex -0.299999 21.5 45.5
      vertex -1.3 17.5 45.5
      vertex -1.3 21.5 45.5
    endloop
  endfacet
  facet normal -0 0 -1
    outer loop
      vertex -2.3 21.5 45.5
      vertex -3.3 17.5 45.5
      vertex -3.3 21.5 45.5
    endloop
  endfacet
  facet normal -0 0 -1
    outer loop
      vertex -4.3 21.5 45.5
      vertex -5.3 17.5 45.5
      vertex -5.3 21.5 45.5
    endloop
  endfacet
  facet normal -0 0 -1
    outer loop
      vertex -6.3 21.5 45.5
      vertex -7.3 17.5 45.5
      vertex -7.3 21.5 45.5
    endloop
  endfacet
  facet normal 0 -1 0
    outer loop
      vertex -15 21.5 45.5
      vertex -8.3 21.5 35.5
      vertex -8.3 21.5 45.5
    endloop
  endfacet
  facet normal 0 -1 0
    outer loop
      vertex -15 21.5 21.6
      vertex -7.3 21.5 35.5
      vertex -8.3 21.5 35.5
    endloop
  endfacet
  facet normal 0 -1 -0
    outer loop
      vertex -7.3 21.5 35.5
      vertex -15 21.5 21.6
      vertex -6.3 21.5 35.5
    endloop
  endfacet
  facet normal 0 -1 -0
    outer loop
      vertex -6.3 21.5 35.5
      vertex -15 21.5 21.6
      vertex -5.3 21.5 35.5
    endloop
  endfacet
  facet normal 0 -1 -0
    outer loop
      vertex -5.3 21.5 35.5
      vertex -15 21.5 21.6
      vertex -4.3 21.5 35.5
    endloop
  endfacet
  facet normal 0 -1 -0
    outer loop
      vertex -4.3 21.5 35.5
      vertex -15 21.5 21.6
      vertex -3.3 21.5 35.5
    endloop
  endfacet
  facet normal 0 -1 -0
    outer loop
      vertex -3.3 21.5 35.5
      vertex -15 21.5 21.6
      vertex -2.3 21.5 35.5
    endloop
  endfacet
  facet normal 0 -1 -0
    outer loop
      vertex -2.3 21.5 35.5
      vertex -15 21.5 21.6
      vertex -1.3 21.5 35.5
    endloop
  endfacet
  facet normal 0 -1 -0
    outer loop
      vertex -1.3 21.5 35.5
      vertex -15 21.5 21.6
      vertex -0.299999 21.5 35.5
    endloop
  endfacet
  facet normal 0 -1 0
    outer loop
      vertex 15 21.5 21.6
      vertex -0.299999 21.5 35.5
      vertex -15 21.5 21.6
    endloop
  endfacet
  facet normal 0 -1 0
    outer loop
      vertex -0.299999 21.5 35.5
      vertex 15 21.5 21.6
      vertex 0.7 21.5 35.5
    endloop
  endfacet
  facet normal 0 -1 0
    outer loop
      vertex 0.7 21.5 35.5
      vertex 15 21.5 21.6
      vertex 1.7 21.5 35.5
    endloop
  endfacet
  facet normal 0 -1 0
    outer loop
      vertex 1.7 21.5 35.5
      vertex 15 21.5 21.6
      vertex 2.7 21.5 35.5
    endloop
  endfacet
  facet normal 0 -1 0
    outer loop
      vertex 2.7 21.5 35.5
      vertex 15 21.5 21.6
      vertex 3.7 21.5 35.5
    endloop
  endfacet
  facet normal 0 -1 0
    outer loop
      vertex 3.7 21.5 35.5
      vertex 15 21.5 21.6
      vertex 4.7 21.5 35.5
    endloop
  endfacet
  facet normal 0 -1 0
    outer loop
      vertex 4.7 21.5 35.5
      vertex 15 21.5 21.6
      vertex 5.7 21.5 35.5
    endloop
  endfacet
  facet normal 0 -1 0
    outer loop
      vertex 5.7 21.5 35.5
      vertex 15 21.5 21.6
      vertex 6.7 21.5 35.5
    endloop
  endfacet
  facet normal 0 -1 0
    outer loop
      vertex 6.7 21.5 35.5
      vertex 15 21.5 21.6
      vertex 7.7 21.5 35.5
    endloop
  endfacet
  facet normal 0 -1 0
    outer loop
      vertex -15 21.5 21.6
      vertex -8.3 21.5 35.5
      vertex -15 21.5 45.5
    endloop
  endfacet
  facet normal 0 -1 0
    outer loop
      vertex -7.3 21.5 35.5
      vertex -6.3 21.5 45.5
      vertex -7.3 21.5 45.5
    endloop
  endfacet
  facet normal 0 -1 -0
    outer loop
      vertex -6.3 21.5 45.5
      vertex -7.3 21.5 35.5
      vertex -6.3 21.5 35.5
    endloop
  endfacet
  facet normal 0 -1 0
    outer loop
      vertex -5.3 21.5 35.5
      vertex -4.3 21.5 45.5
      vertex -5.3 21.5 45.5
    endloop
  endfacet
  facet normal 0 -1 -0
    outer loop
      vertex -4.3 21.5 45.5
      vertex -5.3 21.5 35.5
      vertex -4.3 21.5 35.5
    endloop
  endfacet
  facet normal 0 -1 0
    outer loop
      vertex -3.3 21.5 35.5
      vertex -2.3 21.5 45.5
      vertex -3.3 21.5 45.5
    endloop
  endfacet
  facet normal 0 -1 -0
    outer loop
      vertex -2.3 21.5 45.5
      vertex -3.3 21.5 35.5
      vertex -2.3 21.5 35.5
    endloop
  endfacet
  facet normal 0 -1 0
    outer loop
      vertex -1.3 21.5 35.5
      vertex -0.299999 21.5 45.5
      vertex -1.3 21.5 45.5
    endloop
  endfacet
  facet normal 0 -1 -0
    outer loop
      vertex -0.299999 21.5 45.5
      vertex -1.3 21.5 35.5
      vertex -0.299999 21.5 35.5
    endloop
  endfacet
  facet normal 0 -1 0
    outer loop
      vertex 0.7 21.5 35.5
      vertex 1.7 21.5 45.5
      vertex 0.7 21.5 45.5
    endloop
  endfacet
  facet normal 0 -1 -0
    outer loop
      vertex 1.7 21.5 45.5
      vertex 0.7 21.5 35.5
      vertex 1.7 21.5 35.5
    endloop
  endfacet
  facet normal 0 -1 0
    outer loop
      vertex 2.7 21.5 35.5
      vertex 3.7 21.5 45.5
      vertex 2.7 21.5 45.5
    endloop
  endfacet
  facet normal 0 -1 -0
    outer loop
      vertex 3.7 21.5 45.5
      vertex 2.7 21.5 35.5
      vertex 3.7 21.5 35.5
    endloop
  endfacet
  facet normal 0 -1 0
    outer loop
      vertex 4.7 21.5 35.5
      vertex 5.7 21.5 45.5
      vertex 4.7 21.5 45.5
    endloop
  endfacet
  facet normal 0 -1 -0
    outer loop
      vertex 5.7 21.5 45.5
      vertex 4.7 21.5 35.5
      vertex 5.7 21.5 35.5
    endloop
  endfacet
  facet normal 0 -1 0
    outer loop
      vertex 6.7 21.5 35.5
      vertex 7.7 21.5 45.5
      vertex 6.7 21.5 45.5
    endloop
  endfacet
  facet normal 0 -1 -0
    outer loop
      vertex 7.7 21.5 45.5
      vertex 6.7 21.5 35.5
      vertex 7.7 21.5 35.5
    endloop
  endfacet
  facet normal 0 -1 0
    outer loop
      vertex 8.7 21.5 35.5
      vertex 15 21.5 45.5
      vertex 8.7 21.5 45.5
    endloop
  endfacet
  facet normal 0 -1 0
    outer loop
      vertex 8.7 21.5 35.5
      vertex 15 21.5 21.6
      vertex 15 21.5 45.5
    endloop
  endfacet
  facet normal 0 -1 0
    outer loop
      vertex 7.7 21.5 35.5
      vertex 15 21.5 21.6
      vertex 8.7 21.5 35.5
    endloop
  endfacet
  facet normal 1 -0 0
    outer loop
      vertex -8 5.34 50
      vertex -8 7.5 48.5
      vertex -8 7.5 50
    endloop
  endfacet
  facet normal 1 0 0
    outer loop
      vertex -8 7.5 48.5
      vertex -8 5.34 50
      vertex -8 5.34 48.5
    endloop
  endfacet
  facet normal 0 0 -1
    outer loop
      vertex -8 5.34 50
      vertex 8 7.5 50
      vertex 8 5.34 50
    endloop
  endfacet
  facet normal -0 0 -1
    outer loop
      vertex 8 7.5 50
      vertex -8 5.34 50
      vertex -8 7.5 50
    endloop
  endfacet
  facet normal -1 0 0
    outer loop
      vertex 8 5.34 48.5
      vertex 8 7.5 50
      vertex 8 7.5 48.5
    endloop
  endfacet
  facet normal -1 -0 0
    outer loop
      vertex 8 7.5 50
      vertex 8 5.34 48.5
      vertex 8 5.34 50
    endloop
  endfacet
  facet normal 0 -1 0
    outer loop
      vertex -8 7.5 48.5
      vertex 8 7.5 50
      vertex -8 7.5 50
    endloop
  endfacet
  facet normal 0 -1 -0
    outer loop
      vertex 8 7.5 50
      vertex -8 7.5 48.5
      vertex 8 7.5 48.5
    endloop
  endfacet
endsolid OpenSCAD_Model
