solid OpenSCAD_Model
  facet normal 0 -1 0
    outer loop
      vertex -15.5742 0.0599998 50.5997
      vertex -10.5 0.0599998 46.8
      vertex 15.5742 0.0599998 50.5997
    endloop
  endfacet
  facet normal 0 -1 0
    outer loop
      vertex -15.5742 0.0599998 50.5997
      vertex -10.6883 0.0599998 46.7914
      vertex -10.5 0.0599998 46.8
    endloop
  endfacet
  facet normal 0 -1 0
    outer loop
      vertex -15.5742 0.0599998 50.5997
      vertex -10.8754 0.0599998 46.7655
      vertex -10.6883 0.0599998 46.7914
    endloop
  endfacet
  facet normal 0 -1 0
    outer loop
      vertex -15.5742 0.0599998 50.5997
      vertex -11.0603 0.0599998 46.7226
      vertex -10.8754 0.0599998 46.7655
    endloop
  endfacet
  facet normal 0 -1 0
    outer loop
      vertex -15.5742 0.0599998 50.5997
      vertex -11.2416 0.0599998 46.663
      vertex -11.0603 0.0599998 46.7226
    endloop
  endfacet
  facet normal 0 -1 0
    outer loop
      vertex -15.5742 0.0599998 50.5997
      vertex -11.4184 0.0599998 46.5869
      vertex -11.2416 0.0599998 46.663
    endloop
  endfacet
  facet normal 0 -1 0
    outer loop
      vertex -15.5742 0.0599998 50.5997
      vertex -11.5896 0.0599998 46.4948
      vertex -11.4184 0.0599998 46.5869
    endloop
  endfacet
  facet normal 0 -1 0
    outer loop
      vertex -15.5742 0.0599998 50.5997
      vertex -11.754 0.0599998 46.3874
      vertex -11.5896 0.0599998 46.4948
    endloop
  endfacet
  facet normal 0 -1 0
    outer loop
      vertex -15.5742 0.0599998 50.5997
      vertex -11.9107 0.0599998 46.2652
      vertex -11.754 0.0599998 46.3874
    endloop
  endfacet
  facet normal 0 -1 0
    outer loop
      vertex -15.5742 0.0599998 50.5997
      vertex -12.0587 0.0599998 46.1291
      vertex -11.9107 0.0599998 46.2652
    endloop
  endfacet
  facet normal 0 -1 0
    outer loop
      vertex -15.5742 0.0599998 50.5997
      vertex -12.1971 0.0599998 45.9799
      vertex -12.0587 0.0599998 46.1291
    endloop
  endfacet
  facet normal 0 -1 0
    outer loop
      vertex -15.5742 0.0599998 50.5997
      vertex -12.325 0.0599998 45.8185
      vertex -12.1971 0.0599998 45.9799
    endloop
  endfacet
  facet normal 0 -1 0
    outer loop
      vertex -15.5742 0.0599998 50.5997
      vertex -12.4416 0.0599998 45.6458
      vertex -12.325 0.0599998 45.8185
    endloop
  endfacet
  facet normal 0 -1 0
    outer loop
      vertex -15.5742 0.0599998 50.5997
      vertex -12.5463 0.0599998 45.463
      vertex -12.4416 0.0599998 45.6458
    endloop
  endfacet
  facet normal 0 -1 0
    outer loop
      vertex -15.5742 0.0599998 50.5997
      vertex -12.6384 0.0599998 45.2712
      vertex -12.5463 0.0599998 45.463
    endloop
  endfacet
  facet normal 0 -1 0
    outer loop
      vertex -15.5742 0.0599998 50.5997
      vertex -12.7173 0.0599998 45.0715
      vertex -12.6384 0.0599998 45.2712
    endloop
  endfacet
  facet normal 0 -1 0
    outer loop
      vertex -15.5742 0.0599998 50.5997
      vertex -12.7825 0.0599998 44.8652
      vertex -12.7173 0.0599998 45.0715
    endloop
  endfacet
  facet normal 0 -1 0
    outer loop
      vertex -15.5742 0.0599998 50.5997
      vertex -12.8337 0.0599998 44.6536
      vertex -12.7825 0.0599998 44.8652
    endloop
  endfacet
  facet normal 0 -1 0
    outer loop
      vertex -15.5742 0.0599998 50.5997
      vertex -12.8705 0.0599998 44.438
      vertex -12.8337 0.0599998 44.6536
    endloop
  endfacet
  facet normal 0 -1 0
    outer loop
      vertex -15.5742 0.0599998 50.5997
      vertex -12.8926 0.0599998 44.2197
      vertex -12.8705 0.0599998 44.438
    endloop
  endfacet
  facet normal 0 -1 0
    outer loop
      vertex -15.5742 0.0599998 50.5997
      vertex -12.9 0.0599998 44
      vertex -12.8926 0.0599998 44.2197
    endloop
  endfacet
  facet normal 0 -1 0
    outer loop
      vertex -20.0652 0.0599998 27.557
      vertex -12.9 0.0599998 44
      vertex -15.5742 0.0599998 50.5997
    endloop
  endfacet
  facet normal 0 -1 -0
    outer loop
      vertex -12.9 0.0599998 44
      vertex -20.0652 0.0599998 27.557
      vertex -12.9 0.0599998 33.5
    endloop
  endfacet
  facet normal 0 -1 -0
    outer loop
      vertex -12.9 0.0599998 33.5
      vertex -20.0652 0.0599998 27.557
      vertex -12.8926 0.0599998 33.2803
    endloop
  endfacet
  facet normal 0 -1 -0
    outer loop
      vertex -10.5 0.0599998 30.7
      vertex -20.0652 0.0599998 27.557
      vertex 10.5 0.0599998 30.7
    endloop
  endfacet
  facet normal 0 -1 -0
    outer loop
      vertex -10.6883 0.0599998 30.7086
      vertex -20.0652 0.0599998 27.557
      vertex -10.5 0.0599998 30.7
    endloop
  endfacet
  facet normal 0 -1 -0
    outer loop
      vertex -10.8754 0.0599998 30.7345
      vertex -20.0652 0.0599998 27.557
      vertex -10.6883 0.0599998 30.7086
    endloop
  endfacet
  facet normal 0 -1 -0
    outer loop
      vertex -11.0603 0.0599998 30.7774
      vertex -20.0652 0.0599998 27.557
      vertex -10.8754 0.0599998 30.7345
    endloop
  endfacet
  facet normal 0 -1 -0
    outer loop
      vertex -11.2416 0.0599998 30.837
      vertex -20.0652 0.0599998 27.557
      vertex -11.0603 0.0599998 30.7774
    endloop
  endfacet
  facet normal 0 -1 -0
    outer loop
      vertex -11.4184 0.0599998 30.9131
      vertex -20.0652 0.0599998 27.557
      vertex -11.2416 0.0599998 30.837
    endloop
  endfacet
  facet normal 0 -1 -0
    outer loop
      vertex -11.5896 0.0599998 31.0052
      vertex -20.0652 0.0599998 27.557
      vertex -11.4184 0.0599998 30.9131
    endloop
  endfacet
  facet normal 0 -1 -0
    outer loop
      vertex -11.754 0.0599998 31.1126
      vertex -20.0652 0.0599998 27.557
      vertex -11.5896 0.0599998 31.0052
    endloop
  endfacet
  facet normal 0 -1 -0
    outer loop
      vertex -11.9107 0.0599998 31.2348
      vertex -20.0652 0.0599998 27.557
      vertex -11.754 0.0599998 31.1126
    endloop
  endfacet
  facet normal 0 -1 -0
    outer loop
      vertex -12.0587 0.0599998 31.3709
      vertex -20.0652 0.0599998 27.557
      vertex -11.9107 0.0599998 31.2348
    endloop
  endfacet
  facet normal 0 -1 -0
    outer loop
      vertex -12.1971 0.0599998 31.5201
      vertex -20.0652 0.0599998 27.557
      vertex -12.0587 0.0599998 31.3709
    endloop
  endfacet
  facet normal 0 -1 -0
    outer loop
      vertex -12.325 0.0599998 31.6815
      vertex -20.0652 0.0599998 27.557
      vertex -12.1971 0.0599998 31.5201
    endloop
  endfacet
  facet normal 0 -1 -0
    outer loop
      vertex -12.4416 0.0599998 31.8542
      vertex -20.0652 0.0599998 27.557
      vertex -12.325 0.0599998 31.6815
    endloop
  endfacet
  facet normal 0 -1 -0
    outer loop
      vertex -12.5463 0.0599998 32.037
      vertex -20.0652 0.0599998 27.557
      vertex -12.4416 0.0599998 31.8542
    endloop
  endfacet
  facet normal 0 -1 -0
    outer loop
      vertex -12.6384 0.0599998 32.2288
      vertex -20.0652 0.0599998 27.557
      vertex -12.5463 0.0599998 32.037
    endloop
  endfacet
  facet normal 0 -1 -0
    outer loop
      vertex -12.7173 0.0599998 32.4285
      vertex -20.0652 0.0599998 27.557
      vertex -12.6384 0.0599998 32.2288
    endloop
  endfacet
  facet normal 0 -1 -0
    outer loop
      vertex -12.7825 0.0599998 32.6348
      vertex -20.0652 0.0599998 27.557
      vertex -12.7173 0.0599998 32.4285
    endloop
  endfacet
  facet normal 0 -1 -0
    outer loop
      vertex -12.8337 0.0599998 32.8464
      vertex -20.0652 0.0599998 27.557
      vertex -12.7825 0.0599998 32.6348
    endloop
  endfacet
  facet normal 0 -1 -0
    outer loop
      vertex -12.8705 0.0599998 33.062
      vertex -20.0652 0.0599998 27.557
      vertex -12.8337 0.0599998 32.8464
    endloop
  endfacet
  facet normal 0 -1 -0
    outer loop
      vertex -12.8926 0.0599998 33.2803
      vertex -20.0652 0.0599998 27.557
      vertex -12.8705 0.0599998 33.062
    endloop
  endfacet
  facet normal 0 -1 0
    outer loop
      vertex 10.5 0.0599998 46.8
      vertex 15.5742 0.0599998 50.5997
      vertex -10.5 0.0599998 46.8
    endloop
  endfacet
  facet normal 0 -1 0
    outer loop
      vertex 10.6883 0.0599998 46.7914
      vertex 15.5742 0.0599998 50.5997
      vertex 10.5 0.0599998 46.8
    endloop
  endfacet
  facet normal 0 -1 0
    outer loop
      vertex 10.8754 0.0599998 46.7655
      vertex 15.5742 0.0599998 50.5997
      vertex 10.6883 0.0599998 46.7914
    endloop
  endfacet
  facet normal 0 -1 0
    outer loop
      vertex 11.0603 0.0599998 46.7226
      vertex 15.5742 0.0599998 50.5997
      vertex 10.8754 0.0599998 46.7655
    endloop
  endfacet
  facet normal 0 -1 0
    outer loop
      vertex 11.2416 0.0599998 46.663
      vertex 15.5742 0.0599998 50.5997
      vertex 11.0603 0.0599998 46.7226
    endloop
  endfacet
  facet normal 0 -1 0
    outer loop
      vertex 11.4184 0.0599998 46.5869
      vertex 15.5742 0.0599998 50.5997
      vertex 11.2416 0.0599998 46.663
    endloop
  endfacet
  facet normal 0 -1 0
    outer loop
      vertex 11.5896 0.0599998 46.4948
      vertex 15.5742 0.0599998 50.5997
      vertex 11.4184 0.0599998 46.5869
    endloop
  endfacet
  facet normal 0 -1 0
    outer loop
      vertex 11.754 0.0599998 46.3874
      vertex 15.5742 0.0599998 50.5997
      vertex 11.5896 0.0599998 46.4948
    endloop
  endfacet
  facet normal 0 -1 0
    outer loop
      vertex 11.9107 0.0599998 46.2652
      vertex 15.5742 0.0599998 50.5997
      vertex 11.754 0.0599998 46.3874
    endloop
  endfacet
  facet normal 0 -1 0
    outer loop
      vertex 12.0587 0.0599998 46.1291
      vertex 15.5742 0.0599998 50.5997
      vertex 11.9107 0.0599998 46.2652
    endloop
  endfacet
  facet normal 0 -1 0
    outer loop
      vertex 12.1971 0.0599998 45.9799
      vertex 15.5742 0.0599998 50.5997
      vertex 12.0587 0.0599998 46.1291
    endloop
  endfacet
  facet normal 0 -1 0
    outer loop
      vertex 12.325 0.0599998 45.8185
      vertex 15.5742 0.0599998 50.5997
      vertex 12.1971 0.0599998 45.9799
    endloop
  endfacet
  facet normal 0 -1 0
    outer loop
      vertex 12.4416 0.0599998 45.6458
      vertex 15.5742 0.0599998 50.5997
      vertex 12.325 0.0599998 45.8185
    endloop
  endfacet
  facet normal 0 -1 0
    outer loop
      vertex 12.5463 0.0599998 45.463
      vertex 15.5742 0.0599998 50.5997
      vertex 12.4416 0.0599998 45.6458
    endloop
  endfacet
  facet normal 0 -1 0
    outer loop
      vertex 12.6384 0.0599998 45.2712
      vertex 15.5742 0.0599998 50.5997
      vertex 12.5463 0.0599998 45.463
    endloop
  endfacet
  facet normal 0 -1 0
    outer loop
      vertex 12.7173 0.0599998 45.0715
      vertex 15.5742 0.0599998 50.5997
      vertex 12.6384 0.0599998 45.2712
    endloop
  endfacet
  facet normal 0 -1 0
    outer loop
      vertex 12.7825 0.0599998 44.8652
      vertex 15.5742 0.0599998 50.5997
      vertex 12.7173 0.0599998 45.0715
    endloop
  endfacet
  facet normal 0 -1 0
    outer loop
      vertex 12.8337 0.0599998 44.6536
      vertex 15.5742 0.0599998 50.5997
      vertex 12.7825 0.0599998 44.8652
    endloop
  endfacet
  facet normal 0 -1 0
    outer loop
      vertex 12.8705 0.0599998 44.438
      vertex 15.5742 0.0599998 50.5997
      vertex 12.8337 0.0599998 44.6536
    endloop
  endfacet
  facet normal 0 -1 0
    outer loop
      vertex 12.8926 0.0599998 44.2197
      vertex 15.5742 0.0599998 50.5997
      vertex 12.8705 0.0599998 44.438
    endloop
  endfacet
  facet normal 0 -1 0
    outer loop
      vertex 12.9 0.0599998 44
      vertex 15.5742 0.0599998 50.5997
      vertex 12.8926 0.0599998 44.2197
    endloop
  endfacet
  facet normal 0 -1 0
    outer loop
      vertex 20.0652 0.0599998 27.557
      vertex 12.9 0.0599998 44
      vertex 12.9 0.0599998 33.5
    endloop
  endfacet
  facet normal 0 -1 0
    outer loop
      vertex 20.0652 0.0599998 27.557
      vertex 12.9 0.0599998 33.5
      vertex 12.8926 0.0599998 33.2803
    endloop
  endfacet
  facet normal 0 -1 0
    outer loop
      vertex 20.0652 0.0599998 27.557
      vertex 12.8926 0.0599998 33.2803
      vertex 12.8705 0.0599998 33.062
    endloop
  endfacet
  facet normal 0 -1 0
    outer loop
      vertex 20.0652 0.0599998 27.557
      vertex 10.5 0.0599998 30.7
      vertex -20.0652 0.0599998 27.557
    endloop
  endfacet
  facet normal 0 -1 0
    outer loop
      vertex 12.9 0.0599998 44
      vertex 20.0652 0.0599998 27.557
      vertex 15.5742 0.0599998 50.5997
    endloop
  endfacet
  facet normal 0 -1 0
    outer loop
      vertex 12.8337 0.0599998 32.8464
      vertex 20.0652 0.0599998 27.557
      vertex 12.8705 0.0599998 33.062
    endloop
  endfacet
  facet normal 0 -1 0
    outer loop
      vertex 12.7825 0.0599998 32.6348
      vertex 20.0652 0.0599998 27.557
      vertex 12.8337 0.0599998 32.8464
    endloop
  endfacet
  facet normal 0 -1 0
    outer loop
      vertex 12.7173 0.0599998 32.4285
      vertex 20.0652 0.0599998 27.557
      vertex 12.7825 0.0599998 32.6348
    endloop
  endfacet
  facet normal 0 -1 0
    outer loop
      vertex 12.6384 0.0599998 32.2288
      vertex 20.0652 0.0599998 27.557
      vertex 12.7173 0.0599998 32.4285
    endloop
  endfacet
  facet normal 0 -1 0
    outer loop
      vertex 12.5463 0.0599998 32.037
      vertex 20.0652 0.0599998 27.557
      vertex 12.6384 0.0599998 32.2288
    endloop
  endfacet
  facet normal 0 -1 0
    outer loop
      vertex 12.4416 0.0599998 31.8542
      vertex 20.0652 0.0599998 27.557
      vertex 12.5463 0.0599998 32.037
    endloop
  endfacet
  facet normal 0 -1 0
    outer loop
      vertex 12.325 0.0599998 31.6815
      vertex 20.0652 0.0599998 27.557
      vertex 12.4416 0.0599998 31.8542
    endloop
  endfacet
  facet normal 0 -1 0
    outer loop
      vertex 12.1971 0.0599998 31.5201
      vertex 20.0652 0.0599998 27.557
      vertex 12.325 0.0599998 31.6815
    endloop
  endfacet
  facet normal 0 -1 0
    outer loop
      vertex 12.0587 0.0599998 31.3709
      vertex 20.0652 0.0599998 27.557
      vertex 12.1971 0.0599998 31.5201
    endloop
  endfacet
  facet normal 0 -1 0
    outer loop
      vertex 11.9107 0.0599998 31.2348
      vertex 20.0652 0.0599998 27.557
      vertex 12.0587 0.0599998 31.3709
    endloop
  endfacet
  facet normal 0 -1 0
    outer loop
      vertex 11.754 0.0599998 31.1126
      vertex 20.0652 0.0599998 27.557
      vertex 11.9107 0.0599998 31.2348
    endloop
  endfacet
  facet normal 0 -1 0
    outer loop
      vertex 11.5896 0.0599998 31.0052
      vertex 20.0652 0.0599998 27.557
      vertex 11.754 0.0599998 31.1126
    endloop
  endfacet
  facet normal 0 -1 0
    outer loop
      vertex 11.4184 0.0599998 30.9131
      vertex 20.0652 0.0599998 27.557
      vertex 11.5896 0.0599998 31.0052
    endloop
  endfacet
  facet normal 0 -1 0
    outer loop
      vertex 11.2416 0.0599998 30.837
      vertex 20.0652 0.0599998 27.557
      vertex 11.4184 0.0599998 30.9131
    endloop
  endfacet
  facet normal 0 -1 0
    outer loop
      vertex 11.0603 0.0599998 30.7774
      vertex 20.0652 0.0599998 27.557
      vertex 11.2416 0.0599998 30.837
    endloop
  endfacet
  facet normal 0 -1 0
    outer loop
      vertex 10.8754 0.0599998 30.7345
      vertex 20.0652 0.0599998 27.557
      vertex 11.0603 0.0599998 30.7774
    endloop
  endfacet
  facet normal 0 -1 0
    outer loop
      vertex 10.6883 0.0599998 30.7086
      vertex 20.0652 0.0599998 27.557
      vertex 10.8754 0.0599998 30.7345
    endloop
  endfacet
  facet normal 0 -1 0
    outer loop
      vertex 10.5 0.0599998 30.7
      vertex 20.0652 0.0599998 27.557
      vertex 10.6883 0.0599998 30.7086
    endloop
  endfacet
  facet normal 0 0 -1
    outer loop
      vertex -20.0652 0.0599998 27.557
      vertex 20.0652 2.06 27.557
      vertex 20.0652 0.0599998 27.557
    endloop
  endfacet
  facet normal -0 0 -1
    outer loop
      vertex 20.0652 2.06 27.557
      vertex -20.0652 0.0599998 27.557
      vertex -20.0652 2.06 27.557
    endloop
  endfacet
  facet normal -0.981531 3.24612e-005 0.191302
    outer loop
      vertex -15.5742 0.0599998 50.5997
      vertex -15.6733 2.06 50.0908
      vertex -20.0652 2.06 27.557
    endloop
  endfacet
  facet normal -0.981532 0 0.191299
    outer loop
      vertex -15.5742 0.0599998 50.5997
      vertex -20.0652 2.06 27.557
      vertex -20.0652 0.0599998 27.557
    endloop
  endfacet
  facet normal 0 0.246592 0.969119
    outer loop
      vertex 15.6733 2.06 50.0908
      vertex -15.5742 0.0599998 50.5997
      vertex 15.5742 0.0599998 50.5997
    endloop
  endfacet
  facet normal 0 0.246592 0.969119
    outer loop
      vertex -15.5742 0.0599998 50.5997
      vertex 15.6733 2.06 50.0908
      vertex -15.6733 2.06 50.0908
    endloop
  endfacet
  facet normal 0.981531 -0 0.191302
    outer loop
      vertex 20.0652 0.0599998 27.557
      vertex 20.0652 2.06 27.557
      vertex 15.6733 2.06 50.0908
    endloop
  endfacet
  facet normal 0.981532 3.17443e-005 0.191299
    outer loop
      vertex 20.0652 0.0599998 27.557
      vertex 15.6733 2.06 50.0908
      vertex 15.5742 0.0599998 50.5997
    endloop
  endfacet
  facet normal 0 1 0
    outer loop
      vertex 15.6733 2.06 50.0908
      vertex 10.5 2.06 46.8
      vertex -15.6733 2.06 50.0908
    endloop
  endfacet
  facet normal 0 1 0
    outer loop
      vertex 15.6733 2.06 50.0908
      vertex 10.6883 2.06 46.7914
      vertex 10.5 2.06 46.8
    endloop
  endfacet
  facet normal 0 1 0
    outer loop
      vertex 15.6733 2.06 50.0908
      vertex 10.8754 2.06 46.7655
      vertex 10.6883 2.06 46.7914
    endloop
  endfacet
  facet normal 0 1 0
    outer loop
      vertex 15.6733 2.06 50.0908
      vertex 11.0603 2.06 46.7226
      vertex 10.8754 2.06 46.7655
    endloop
  endfacet
  facet normal 0 1 0
    outer loop
      vertex 15.6733 2.06 50.0908
      vertex 11.2416 2.06 46.663
      vertex 11.0603 2.06 46.7226
    endloop
  endfacet
  facet normal 0 1 0
    outer loop
      vertex 15.6733 2.06 50.0908
      vertex 11.4184 2.06 46.5869
      vertex 11.2416 2.06 46.663
    endloop
  endfacet
  facet normal 0 1 0
    outer loop
      vertex 15.6733 2.06 50.0908
      vertex 11.5896 2.06 46.4948
      vertex 11.4184 2.06 46.5869
    endloop
  endfacet
  facet normal 0 1 0
    outer loop
      vertex 15.6733 2.06 50.0908
      vertex 11.754 2.06 46.3874
      vertex 11.5896 2.06 46.4948
    endloop
  endfacet
  facet normal 0 1 0
    outer loop
      vertex 15.6733 2.06 50.0908
      vertex 11.9107 2.06 46.2652
      vertex 11.754 2.06 46.3874
    endloop
  endfacet
  facet normal 0 1 0
    outer loop
      vertex 15.6733 2.06 50.0908
      vertex 12.0587 2.06 46.1291
      vertex 11.9107 2.06 46.2652
    endloop
  endfacet
  facet normal 0 1 0
    outer loop
      vertex 15.6733 2.06 50.0908
      vertex 12.1971 2.06 45.9799
      vertex 12.0587 2.06 46.1291
    endloop
  endfacet
  facet normal 0 1 0
    outer loop
      vertex 15.6733 2.06 50.0908
      vertex 12.325 2.06 45.8185
      vertex 12.1971 2.06 45.9799
    endloop
  endfacet
  facet normal 0 1 0
    outer loop
      vertex 15.6733 2.06 50.0908
      vertex 12.4416 2.06 45.6458
      vertex 12.325 2.06 45.8185
    endloop
  endfacet
  facet normal 0 1 0
    outer loop
      vertex 15.6733 2.06 50.0908
      vertex 12.5463 2.06 45.463
      vertex 12.4416 2.06 45.6458
    endloop
  endfacet
  facet normal 0 1 0
    outer loop
      vertex 15.6733 2.06 50.0908
      vertex 12.6384 2.06 45.2712
      vertex 12.5463 2.06 45.463
    endloop
  endfacet
  facet normal 0 1 0
    outer loop
      vertex 15.6733 2.06 50.0908
      vertex 12.7173 2.06 45.0715
      vertex 12.6384 2.06 45.2712
    endloop
  endfacet
  facet normal 0 1 0
    outer loop
      vertex 15.6733 2.06 50.0908
      vertex 12.7825 2.06 44.8652
      vertex 12.7173 2.06 45.0715
    endloop
  endfacet
  facet normal 0 1 0
    outer loop
      vertex 15.6733 2.06 50.0908
      vertex 12.8337 2.06 44.6536
      vertex 12.7825 2.06 44.8652
    endloop
  endfacet
  facet normal 0 1 0
    outer loop
      vertex 15.6733 2.06 50.0908
      vertex 12.8705 2.06 44.438
      vertex 12.8337 2.06 44.6536
    endloop
  endfacet
  facet normal 0 1 0
    outer loop
      vertex 15.6733 2.06 50.0908
      vertex 12.8926 2.06 44.2197
      vertex 12.8705 2.06 44.438
    endloop
  endfacet
  facet normal 0 1 0
    outer loop
      vertex 15.6733 2.06 50.0908
      vertex 12.9 2.06 44
      vertex 12.8926 2.06 44.2197
    endloop
  endfacet
  facet normal 0 1 0
    outer loop
      vertex 20.0652 2.06 27.557
      vertex 12.9 2.06 44
      vertex 15.6733 2.06 50.0908
    endloop
  endfacet
  facet normal 0 1 0
    outer loop
      vertex 12.9 2.06 44
      vertex 20.0652 2.06 27.557
      vertex 12.9 2.06 33.5
    endloop
  endfacet
  facet normal 0 1 0
    outer loop
      vertex 12.9 2.06 33.5
      vertex 20.0652 2.06 27.557
      vertex 12.8926 2.06 33.2803
    endloop
  endfacet
  facet normal 0 1 0
    outer loop
      vertex 10.5 2.06 30.7
      vertex 20.0652 2.06 27.557
      vertex -10.5 2.06 30.7
    endloop
  endfacet
  facet normal 0 1 0
    outer loop
      vertex 10.6883 2.06 30.7086
      vertex 20.0652 2.06 27.557
      vertex 10.5 2.06 30.7
    endloop
  endfacet
  facet normal 0 1 0
    outer loop
      vertex 10.8754 2.06 30.7345
      vertex 20.0652 2.06 27.557
      vertex 10.6883 2.06 30.7086
    endloop
  endfacet
  facet normal 0 1 0
    outer loop
      vertex 11.0603 2.06 30.7774
      vertex 20.0652 2.06 27.557
      vertex 10.8754 2.06 30.7345
    endloop
  endfacet
  facet normal 0 1 0
    outer loop
      vertex 11.2416 2.06 30.837
      vertex 20.0652 2.06 27.557
      vertex 11.0603 2.06 30.7774
    endloop
  endfacet
  facet normal 0 1 0
    outer loop
      vertex 11.4184 2.06 30.9131
      vertex 20.0652 2.06 27.557
      vertex 11.2416 2.06 30.837
    endloop
  endfacet
  facet normal 0 1 0
    outer loop
      vertex 11.5896 2.06 31.0052
      vertex 20.0652 2.06 27.557
      vertex 11.4184 2.06 30.9131
    endloop
  endfacet
  facet normal 0 1 0
    outer loop
      vertex 11.754 2.06 31.1126
      vertex 20.0652 2.06 27.557
      vertex 11.5896 2.06 31.0052
    endloop
  endfacet
  facet normal 0 1 0
    outer loop
      vertex 11.9107 2.06 31.2348
      vertex 20.0652 2.06 27.557
      vertex 11.754 2.06 31.1126
    endloop
  endfacet
  facet normal 0 1 0
    outer loop
      vertex 12.0587 2.06 31.3709
      vertex 20.0652 2.06 27.557
      vertex 11.9107 2.06 31.2348
    endloop
  endfacet
  facet normal 0 1 0
    outer loop
      vertex 12.1971 2.06 31.5201
      vertex 20.0652 2.06 27.557
      vertex 12.0587 2.06 31.3709
    endloop
  endfacet
  facet normal 0 1 0
    outer loop
      vertex 12.325 2.06 31.6815
      vertex 20.0652 2.06 27.557
      vertex 12.1971 2.06 31.5201
    endloop
  endfacet
  facet normal 0 1 0
    outer loop
      vertex 12.4416 2.06 31.8542
      vertex 20.0652 2.06 27.557
      vertex 12.325 2.06 31.6815
    endloop
  endfacet
  facet normal 0 1 0
    outer loop
      vertex 12.5463 2.06 32.037
      vertex 20.0652 2.06 27.557
      vertex 12.4416 2.06 31.8542
    endloop
  endfacet
  facet normal 0 1 0
    outer loop
      vertex 12.6384 2.06 32.2288
      vertex 20.0652 2.06 27.557
      vertex 12.5463 2.06 32.037
    endloop
  endfacet
  facet normal 0 1 0
    outer loop
      vertex 12.7173 2.06 32.4285
      vertex 20.0652 2.06 27.557
      vertex 12.6384 2.06 32.2288
    endloop
  endfacet
  facet normal 0 1 0
    outer loop
      vertex 12.7825 2.06 32.6348
      vertex 20.0652 2.06 27.557
      vertex 12.7173 2.06 32.4285
    endloop
  endfacet
  facet normal 0 1 0
    outer loop
      vertex 12.8337 2.06 32.8464
      vertex 20.0652 2.06 27.557
      vertex 12.7825 2.06 32.6348
    endloop
  endfacet
  facet normal 0 1 0
    outer loop
      vertex 12.8705 2.06 33.062
      vertex 20.0652 2.06 27.557
      vertex 12.8337 2.06 32.8464
    endloop
  endfacet
  facet normal 0 1 0
    outer loop
      vertex 12.8926 2.06 33.2803
      vertex 20.0652 2.06 27.557
      vertex 12.8705 2.06 33.062
    endloop
  endfacet
  facet normal 0 1 -0
    outer loop
      vertex -10.5 2.06 46.8
      vertex -15.6733 2.06 50.0908
      vertex 10.5 2.06 46.8
    endloop
  endfacet
  facet normal 0 1 -0
    outer loop
      vertex -10.6883 2.06 46.7914
      vertex -15.6733 2.06 50.0908
      vertex -10.5 2.06 46.8
    endloop
  endfacet
  facet normal 0 1 -0
    outer loop
      vertex -10.8754 2.06 46.7655
      vertex -15.6733 2.06 50.0908
      vertex -10.6883 2.06 46.7914
    endloop
  endfacet
  facet normal 0 1 -0
    outer loop
      vertex -11.0603 2.06 46.7226
      vertex -15.6733 2.06 50.0908
      vertex -10.8754 2.06 46.7655
    endloop
  endfacet
  facet normal 0 1 -0
    outer loop
      vertex -11.2416 2.06 46.663
      vertex -15.6733 2.06 50.0908
      vertex -11.0603 2.06 46.7226
    endloop
  endfacet
  facet normal 0 1 -0
    outer loop
      vertex -11.4184 2.06 46.5869
      vertex -15.6733 2.06 50.0908
      vertex -11.2416 2.06 46.663
    endloop
  endfacet
  facet normal 0 1 -0
    outer loop
      vertex -11.5896 2.06 46.4948
      vertex -15.6733 2.06 50.0908
      vertex -11.4184 2.06 46.5869
    endloop
  endfacet
  facet normal 0 1 -0
    outer loop
      vertex -11.754 2.06 46.3874
      vertex -15.6733 2.06 50.0908
      vertex -11.5896 2.06 46.4948
    endloop
  endfacet
  facet normal 0 1 -0
    outer loop
      vertex -11.9107 2.06 46.2652
      vertex -15.6733 2.06 50.0908
      vertex -11.754 2.06 46.3874
    endloop
  endfacet
  facet normal 0 1 -0
    outer loop
      vertex -12.0587 2.06 46.1291
      vertex -15.6733 2.06 50.0908
      vertex -11.9107 2.06 46.2652
    endloop
  endfacet
  facet normal 0 1 -0
    outer loop
      vertex -12.1971 2.06 45.9799
      vertex -15.6733 2.06 50.0908
      vertex -12.0587 2.06 46.1291
    endloop
  endfacet
  facet normal 0 1 -0
    outer loop
      vertex -12.325 2.06 45.8185
      vertex -15.6733 2.06 50.0908
      vertex -12.1971 2.06 45.9799
    endloop
  endfacet
  facet normal 0 1 -0
    outer loop
      vertex -12.4416 2.06 45.6458
      vertex -15.6733 2.06 50.0908
      vertex -12.325 2.06 45.8185
    endloop
  endfacet
  facet normal 0 1 -0
    outer loop
      vertex -12.5463 2.06 45.463
      vertex -15.6733 2.06 50.0908
      vertex -12.4416 2.06 45.6458
    endloop
  endfacet
  facet normal 0 1 -0
    outer loop
      vertex -12.6384 2.06 45.2712
      vertex -15.6733 2.06 50.0908
      vertex -12.5463 2.06 45.463
    endloop
  endfacet
  facet normal 0 1 -0
    outer loop
      vertex -12.7173 2.06 45.0715
      vertex -15.6733 2.06 50.0908
      vertex -12.6384 2.06 45.2712
    endloop
  endfacet
  facet normal 0 1 -0
    outer loop
      vertex -12.7825 2.06 44.8652
      vertex -15.6733 2.06 50.0908
      vertex -12.7173 2.06 45.0715
    endloop
  endfacet
  facet normal 0 1 -0
    outer loop
      vertex -12.8337 2.06 44.6536
      vertex -15.6733 2.06 50.0908
      vertex -12.7825 2.06 44.8652
    endloop
  endfacet
  facet normal 0 1 -0
    outer loop
      vertex -12.8705 2.06 44.438
      vertex -15.6733 2.06 50.0908
      vertex -12.8337 2.06 44.6536
    endloop
  endfacet
  facet normal 0 1 -0
    outer loop
      vertex -12.8926 2.06 44.2197
      vertex -15.6733 2.06 50.0908
      vertex -12.8705 2.06 44.438
    endloop
  endfacet
  facet normal 0 1 -0
    outer loop
      vertex -12.9 2.06 44
      vertex -15.6733 2.06 50.0908
      vertex -12.8926 2.06 44.2197
    endloop
  endfacet
  facet normal 0 1 0
    outer loop
      vertex -20.0652 2.06 27.557
      vertex -12.9 2.06 44
      vertex -12.9 2.06 33.5
    endloop
  endfacet
  facet normal 0 1 0
    outer loop
      vertex -20.0652 2.06 27.557
      vertex -12.9 2.06 33.5
      vertex -12.8926 2.06 33.2803
    endloop
  endfacet
  facet normal 0 1 0
    outer loop
      vertex -20.0652 2.06 27.557
      vertex -12.8926 2.06 33.2803
      vertex -12.8705 2.06 33.062
    endloop
  endfacet
  facet normal 0 1 0
    outer loop
      vertex -20.0652 2.06 27.557
      vertex -10.5 2.06 30.7
      vertex 20.0652 2.06 27.557
    endloop
  endfacet
  facet normal 0 1 0
    outer loop
      vertex -12.9 2.06 44
      vertex -20.0652 2.06 27.557
      vertex -15.6733 2.06 50.0908
    endloop
  endfacet
  facet normal 0 1 0
    outer loop
      vertex -12.8337 2.06 32.8464
      vertex -20.0652 2.06 27.557
      vertex -12.8705 2.06 33.062
    endloop
  endfacet
  facet normal 0 1 0
    outer loop
      vertex -12.7825 2.06 32.6348
      vertex -20.0652 2.06 27.557
      vertex -12.8337 2.06 32.8464
    endloop
  endfacet
  facet normal 0 1 0
    outer loop
      vertex -12.7173 2.06 32.4285
      vertex -20.0652 2.06 27.557
      vertex -12.7825 2.06 32.6348
    endloop
  endfacet
  facet normal 0 1 0
    outer loop
      vertex -12.6384 2.06 32.2288
      vertex -20.0652 2.06 27.557
      vertex -12.7173 2.06 32.4285
    endloop
  endfacet
  facet normal 0 1 0
    outer loop
      vertex -12.5463 2.06 32.037
      vertex -20.0652 2.06 27.557
      vertex -12.6384 2.06 32.2288
    endloop
  endfacet
  facet normal 0 1 0
    outer loop
      vertex -12.4416 2.06 31.8542
      vertex -20.0652 2.06 27.557
      vertex -12.5463 2.06 32.037
    endloop
  endfacet
  facet normal 0 1 0
    outer loop
      vertex -12.325 2.06 31.6815
      vertex -20.0652 2.06 27.557
      vertex -12.4416 2.06 31.8542
    endloop
  endfacet
  facet normal 0 1 0
    outer loop
      vertex -12.1971 2.06 31.5201
      vertex -20.0652 2.06 27.557
      vertex -12.325 2.06 31.6815
    endloop
  endfacet
  facet normal 0 1 0
    outer loop
      vertex -12.0587 2.06 31.3709
      vertex -20.0652 2.06 27.557
      vertex -12.1971 2.06 31.5201
    endloop
  endfacet
  facet normal 0 1 0
    outer loop
      vertex -11.9107 2.06 31.2348
      vertex -20.0652 2.06 27.557
      vertex -12.0587 2.06 31.3709
    endloop
  endfacet
  facet normal 0 1 0
    outer loop
      vertex -11.754 2.06 31.1126
      vertex -20.0652 2.06 27.557
      vertex -11.9107 2.06 31.2348
    endloop
  endfacet
  facet normal 0 1 0
    outer loop
      vertex -11.5896 2.06 31.0052
      vertex -20.0652 2.06 27.557
      vertex -11.754 2.06 31.1126
    endloop
  endfacet
  facet normal 0 1 0
    outer loop
      vertex -11.4184 2.06 30.9131
      vertex -20.0652 2.06 27.557
      vertex -11.5896 2.06 31.0052
    endloop
  endfacet
  facet normal 0 1 0
    outer loop
      vertex -11.2416 2.06 30.837
      vertex -20.0652 2.06 27.557
      vertex -11.4184 2.06 30.9131
    endloop
  endfacet
  facet normal 0 1 0
    outer loop
      vertex -11.0603 2.06 30.7774
      vertex -20.0652 2.06 27.557
      vertex -11.2416 2.06 30.837
    endloop
  endfacet
  facet normal 0 1 0
    outer loop
      vertex -10.8754 2.06 30.7345
      vertex -20.0652 2.06 27.557
      vertex -11.0603 2.06 30.7774
    endloop
  endfacet
  facet normal 0 1 0
    outer loop
      vertex -10.6883 2.06 30.7086
      vertex -20.0652 2.06 27.557
      vertex -10.8754 2.06 30.7345
    endloop
  endfacet
  facet normal 0 1 0
    outer loop
      vertex -10.5 2.06 30.7
      vertex -20.0652 2.06 27.557
      vertex -10.6883 2.06 30.7086
    endloop
  endfacet
  facet normal -0.0457969 0 -0.998951
    outer loop
      vertex 10.5 0.0599998 46.8
      vertex 10.6883 2.06 46.7914
      vertex 10.6883 0.0599998 46.7914
    endloop
  endfacet
  facet normal -0.0457969 0 -0.998951
    outer loop
      vertex 10.6883 2.06 46.7914
      vertex 10.5 0.0599998 46.8
      vertex 10.5 2.06 46.8
    endloop
  endfacet
  facet normal 0 0 -1
    outer loop
      vertex -10.5 0.0599998 46.8
      vertex 10.5 2.06 46.8
      vertex 10.5 0.0599998 46.8
    endloop
  endfacet
  facet normal -0 0 -1
    outer loop
      vertex 10.5 2.06 46.8
      vertex -10.5 0.0599998 46.8
      vertex -10.5 2.06 46.8
    endloop
  endfacet
  facet normal 0.828574 0 -0.559879
    outer loop
      vertex -12.325 0.0599998 45.8185
      vertex -12.4416 2.06 45.6458
      vertex -12.325 2.06 45.8185
    endloop
  endfacet
  facet normal 0.828574 0 -0.559879
    outer loop
      vertex -12.4416 2.06 45.6458
      vertex -12.325 0.0599998 45.8185
      vertex -12.4416 0.0599998 45.6458
    endloop
  endfacet
  facet normal 0.312548 0 -0.949902
    outer loop
      vertex -11.2416 0.0599998 46.663
      vertex -11.0603 2.06 46.7226
      vertex -11.0603 0.0599998 46.7226
    endloop
  endfacet
  facet normal 0.312548 0 -0.949902
    outer loop
      vertex -11.0603 2.06 46.7226
      vertex -11.2416 0.0599998 46.663
      vertex -11.2416 2.06 46.663
    endloop
  endfacet
  facet normal 0.0457969 0 -0.998951
    outer loop
      vertex -10.6883 0.0599998 46.7914
      vertex -10.5 2.06 46.8
      vertex -10.5 0.0599998 46.8
    endloop
  endfacet
  facet normal 0.0457969 0 -0.998951
    outer loop
      vertex -10.5 2.06 46.8
      vertex -10.6883 0.0599998 46.7914
      vertex -10.6883 2.06 46.7914
    endloop
  endfacet
  facet normal -0.972003 0 -0.234967
    outer loop
      vertex 12.8337 0.0599998 44.6536
      vertex 12.7825 2.06 44.8652
      vertex 12.8337 2.06 44.6536
    endloop
  endfacet
  facet normal -0.972003 -0 -0.234967
    outer loop
      vertex 12.7825 2.06 44.8652
      vertex 12.8337 0.0599998 44.6536
      vertex 12.7825 0.0599998 44.8652
    endloop
  endfacet
  facet normal -0.614811 0 -0.788675
    outer loop
      vertex 11.754 0.0599998 46.3874
      vertex 11.9107 2.06 46.2652
      vertex 11.9107 0.0599998 46.2652
    endloop
  endfacet
  facet normal -0.614811 0 -0.788675
    outer loop
      vertex 11.9107 2.06 46.2652
      vertex 11.754 0.0599998 46.3874
      vertex 11.754 2.06 46.3874
    endloop
  endfacet
  facet normal -0.901515 0 -0.432749
    outer loop
      vertex 12.6384 0.0599998 45.2712
      vertex 12.5463 2.06 45.463
      vertex 12.6384 2.06 45.2712
    endloop
  endfacet
  facet normal -0.901515 -0 -0.432749
    outer loop
      vertex 12.5463 2.06 45.463
      vertex 12.6384 0.0599998 45.2712
      vertex 12.5463 0.0599998 45.463
    endloop
  endfacet
  facet normal -1 0 0
    outer loop
      vertex 12.9 0.0599998 33.5
      vertex 12.9 2.06 44
      vertex 12.9 2.06 33.5
    endloop
  endfacet
  facet normal -1 -0 0
    outer loop
      vertex 12.9 2.06 44
      vertex 12.9 0.0599998 33.5
      vertex 12.9 0.0599998 44
    endloop
  endfacet
  facet normal -0.312548 0 -0.949902
    outer loop
      vertex 11.0603 0.0599998 46.7226
      vertex 11.2416 2.06 46.663
      vertex 11.2416 0.0599998 46.663
    endloop
  endfacet
  facet normal -0.312548 0 -0.949902
    outer loop
      vertex 11.2416 2.06 46.663
      vertex 11.0603 0.0599998 46.7226
      vertex 11.0603 2.06 46.7226
    endloop
  endfacet
  facet normal -0 0 1
    outer loop
      vertex -10.5 2.06 30.7
      vertex 10.5 0.0599998 30.7
      vertex 10.5 2.06 30.7
    endloop
  endfacet
  facet normal 0 0 1
    outer loop
      vertex 10.5 0.0599998 30.7
      vertex -10.5 2.06 30.7
      vertex -10.5 0.0599998 30.7
    endloop
  endfacet
  facet normal -0.395342 0 -0.918534
    outer loop
      vertex 11.2416 0.0599998 46.663
      vertex 11.4184 2.06 46.5869
      vertex 11.4184 0.0599998 46.5869
    endloop
  endfacet
  facet normal -0.395342 0 -0.918534
    outer loop
      vertex 11.4184 2.06 46.5869
      vertex 11.2416 0.0599998 46.663
      vertex 11.2416 2.06 46.663
    endloop
  endfacet
  facet normal -0.867759 0 -0.496986
    outer loop
      vertex 12.5463 0.0599998 45.463
      vertex 12.4416 2.06 45.6458
      vertex 12.5463 2.06 45.463
    endloop
  endfacet
  facet normal -0.867759 -0 -0.496986
    outer loop
      vertex 12.4416 2.06 45.6458
      vertex 12.5463 0.0599998 45.463
      vertex 12.4416 0.0599998 45.6458
    endloop
  endfacet
  facet normal 0.312548 0 0.949902
    outer loop
      vertex -11.2416 2.06 30.837
      vertex -11.0603 0.0599998 30.7774
      vertex -11.0603 2.06 30.7774
    endloop
  endfacet
  facet normal 0.312548 0 0.949902
    outer loop
      vertex -11.0603 0.0599998 30.7774
      vertex -11.2416 2.06 30.837
      vertex -11.2416 0.0599998 30.837
    endloop
  endfacet
  facet normal -0.614805 0 0.788679
    outer loop
      vertex 11.754 2.06 31.1126
      vertex 11.9107 0.0599998 31.2348
      vertex 11.9107 2.06 31.2348
    endloop
  endfacet
  facet normal -0.614805 0 0.788679
    outer loop
      vertex 11.9107 0.0599998 31.2348
      vertex 11.754 2.06 31.1126
      vertex 11.754 0.0599998 31.1126
    endloop
  endfacet
  facet normal -0.312548 0 0.949902
    outer loop
      vertex 11.0603 2.06 30.7774
      vertex 11.2416 0.0599998 30.837
      vertex 11.2416 2.06 30.837
    endloop
  endfacet
  facet normal -0.312548 0 0.949902
    outer loop
      vertex 11.2416 0.0599998 30.837
      vertex 11.0603 2.06 30.7774
      vertex 11.0603 0.0599998 30.7774
    endloop
  endfacet
  facet normal 0.546967 0 -0.837154
    outer loop
      vertex -11.754 0.0599998 46.3874
      vertex -11.5896 2.06 46.4948
      vertex -11.5896 0.0599998 46.4948
    endloop
  endfacet
  facet normal 0.546967 0 -0.837154
    outer loop
      vertex -11.5896 2.06 46.4948
      vertex -11.754 0.0599998 46.3874
      vertex -11.754 2.06 46.3874
    endloop
  endfacet
  facet normal -0.136784 0 -0.990601
    outer loop
      vertex 10.6883 0.0599998 46.7914
      vertex 10.8754 2.06 46.7655
      vertex 10.8754 0.0599998 46.7655
    endloop
  endfacet
  facet normal -0.136784 0 -0.990601
    outer loop
      vertex 10.8754 2.06 46.7655
      vertex 10.6883 0.0599998 46.7914
      vertex 10.6883 2.06 46.7914
    endloop
  endfacet
  facet normal -0.546967 0 -0.837154
    outer loop
      vertex 11.5896 0.0599998 46.4948
      vertex 11.754 2.06 46.3874
      vertex 11.754 0.0599998 46.3874
    endloop
  endfacet
  facet normal -0.546967 0 -0.837154
    outer loop
      vertex 11.754 2.06 46.3874
      vertex 11.5896 0.0599998 46.4948
      vertex 11.5896 2.06 46.4948
    endloop
  endfacet
  facet normal -0.473663 0 -0.880706
    outer loop
      vertex 11.4184 0.0599998 46.5869
      vertex 11.5896 2.06 46.4948
      vertex 11.5896 0.0599998 46.4948
    endloop
  endfacet
  facet normal -0.473663 0 -0.880706
    outer loop
      vertex 11.5896 2.06 46.4948
      vertex 11.4184 0.0599998 46.5869
      vertex 11.4184 2.06 46.5869
    endloop
  endfacet
  facet normal -0.676952 0 -0.736027
    outer loop
      vertex 11.9107 0.0599998 46.2652
      vertex 12.0587 2.06 46.1291
      vertex 12.0587 0.0599998 46.1291
    endloop
  endfacet
  facet normal -0.676952 0 -0.736027
    outer loop
      vertex 12.0587 2.06 46.1291
      vertex 11.9107 0.0599998 46.2652
      vertex 11.9107 2.06 46.2652
    endloop
  endfacet
  facet normal -0.783788 0 -0.621029
    outer loop
      vertex 12.325 0.0599998 45.8185
      vertex 12.1971 2.06 45.9799
      vertex 12.325 2.06 45.8185
    endloop
  endfacet
  facet normal -0.783788 -0 -0.621029
    outer loop
      vertex 12.1971 2.06 45.9799
      vertex 12.325 0.0599998 45.8185
      vertex 12.1971 0.0599998 45.9799
    endloop
  endfacet
  facet normal -0.828574 0 -0.559879
    outer loop
      vertex 12.4416 0.0599998 45.6458
      vertex 12.325 2.06 45.8185
      vertex 12.4416 2.06 45.6458
    endloop
  endfacet
  facet normal -0.828574 -0 -0.559879
    outer loop
      vertex 12.325 2.06 45.8185
      vertex 12.4416 0.0599998 45.6458
      vertex 12.325 0.0599998 45.8185
    endloop
  endfacet
  facet normal -0.901515 0 0.432749
    outer loop
      vertex 12.5463 0.0599998 32.037
      vertex 12.6384 2.06 32.2288
      vertex 12.5463 2.06 32.037
    endloop
  endfacet
  facet normal -0.901515 0 0.432749
    outer loop
      vertex 12.6384 2.06 32.2288
      vertex 12.5463 0.0599998 32.037
      vertex 12.6384 0.0599998 32.2288
    endloop
  endfacet
  facet normal -0.985775 0 -0.168071
    outer loop
      vertex 12.8705 0.0599998 44.438
      vertex 12.8337 2.06 44.6536
      vertex 12.8705 2.06 44.438
    endloop
  endfacet
  facet normal -0.985775 -0 -0.168071
    outer loop
      vertex 12.8337 2.06 44.6536
      vertex 12.8705 0.0599998 44.438
      vertex 12.8337 0.0599998 44.6536
    endloop
  endfacet
  facet normal -0.0457868 0 0.998951
    outer loop
      vertex 10.5 2.06 30.7
      vertex 10.6883 0.0599998 30.7086
      vertex 10.6883 2.06 30.7086
    endloop
  endfacet
  facet normal -0.0457868 0 0.998951
    outer loop
      vertex 10.6883 0.0599998 30.7086
      vertex 10.5 2.06 30.7
      vertex 10.5 0.0599998 30.7
    endloop
  endfacet
  facet normal -0.136794 0 0.990599
    outer loop
      vertex 10.6883 2.06 30.7086
      vertex 10.8754 0.0599998 30.7345
      vertex 10.8754 2.06 30.7345
    endloop
  endfacet
  facet normal -0.136794 0 0.990599
    outer loop
      vertex 10.8754 0.0599998 30.7345
      vertex 10.6883 2.06 30.7086
      vertex 10.6883 0.0599998 30.7086
    endloop
  endfacet
  facet normal -0.395342 0 0.918534
    outer loop
      vertex 11.2416 2.06 30.837
      vertex 11.4184 0.0599998 30.9131
      vertex 11.4184 2.06 30.9131
    endloop
  endfacet
  facet normal -0.395342 0 0.918534
    outer loop
      vertex 11.4184 0.0599998 30.9131
      vertex 11.2416 2.06 30.837
      vertex 11.2416 0.0599998 30.837
    endloop
  endfacet
  facet normal -0.546967 0 0.837154
    outer loop
      vertex 11.5896 2.06 31.0052
      vertex 11.754 0.0599998 31.1126
      vertex 11.754 2.06 31.1126
    endloop
  endfacet
  facet normal -0.546967 0 0.837154
    outer loop
      vertex 11.754 0.0599998 31.1126
      vertex 11.5896 2.06 31.0052
      vertex 11.5896 0.0599998 31.0052
    endloop
  endfacet
  facet normal -0.473678 0 0.880698
    outer loop
      vertex 11.4184 2.06 30.9131
      vertex 11.5896 0.0599998 31.0052
      vertex 11.5896 2.06 31.0052
    endloop
  endfacet
  facet normal -0.473678 0 0.880698
    outer loop
      vertex 11.5896 0.0599998 31.0052
      vertex 11.4184 2.06 30.9131
      vertex 11.4184 0.0599998 30.9131
    endloop
  endfacet
  facet normal 1 -0 0
    outer loop
      vertex -12.9 0.0599998 44
      vertex -12.9 2.06 33.5
      vertex -12.9 2.06 44
    endloop
  endfacet
  facet normal 1 0 0
    outer loop
      vertex -12.9 2.06 33.5
      vertex -12.9 0.0599998 44
      vertex -12.9 0.0599998 33.5
    endloop
  endfacet
  facet normal 0.999433 -0 0.0336592
    outer loop
      vertex -12.9 0.0599998 33.5
      vertex -12.8926 2.06 33.2803
      vertex -12.9 2.06 33.5
    endloop
  endfacet
  facet normal 0.999433 0 0.0336592
    outer loop
      vertex -12.8926 2.06 33.2803
      vertex -12.9 0.0599998 33.5
      vertex -12.8926 0.0599998 33.2803
    endloop
  endfacet
  facet normal 0.473663 0 -0.880706
    outer loop
      vertex -11.5896 0.0599998 46.4948
      vertex -11.4184 2.06 46.5869
      vertex -11.4184 0.0599998 46.5869
    endloop
  endfacet
  facet normal 0.473663 0 -0.880706
    outer loop
      vertex -11.4184 2.06 46.5869
      vertex -11.5896 0.0599998 46.4948
      vertex -11.5896 2.06 46.4948
    endloop
  endfacet
  facet normal 0.395342 0 -0.918534
    outer loop
      vertex -11.4184 0.0599998 46.5869
      vertex -11.2416 2.06 46.663
      vertex -11.2416 0.0599998 46.663
    endloop
  endfacet
  facet normal 0.395342 0 -0.918534
    outer loop
      vertex -11.2416 2.06 46.663
      vertex -11.4184 0.0599998 46.5869
      vertex -11.4184 2.06 46.5869
    endloop
  endfacet
  facet normal 0.614811 0 -0.788675
    outer loop
      vertex -11.9107 0.0599998 46.2652
      vertex -11.754 2.06 46.3874
      vertex -11.754 0.0599998 46.3874
    endloop
  endfacet
  facet normal 0.614811 0 -0.788675
    outer loop
      vertex -11.754 2.06 46.3874
      vertex -11.9107 0.0599998 46.2652
      vertex -11.9107 2.06 46.2652
    endloop
  endfacet
  facet normal 0.733278 0 -0.679929
    outer loop
      vertex -12.0587 0.0599998 46.1291
      vertex -12.1971 2.06 45.9799
      vertex -12.0587 2.06 46.1291
    endloop
  endfacet
  facet normal 0.733278 0 -0.679929
    outer loop
      vertex -12.1971 2.06 45.9799
      vertex -12.0587 0.0599998 46.1291
      vertex -12.1971 0.0599998 45.9799
    endloop
  endfacet
  facet normal 0.676952 0 -0.736027
    outer loop
      vertex -12.0587 0.0599998 46.1291
      vertex -11.9107 2.06 46.2652
      vertex -11.9107 0.0599998 46.2652
    endloop
  endfacet
  facet normal 0.676952 0 -0.736027
    outer loop
      vertex -11.9107 2.06 46.2652
      vertex -12.0587 0.0599998 46.1291
      vertex -12.0587 2.06 46.1291
    endloop
  endfacet
  facet normal 0.930024 0 -0.367499
    outer loop
      vertex -12.6384 0.0599998 45.2712
      vertex -12.7173 2.06 45.0715
      vertex -12.6384 2.06 45.2712
    endloop
  endfacet
  facet normal 0.930024 0 -0.367499
    outer loop
      vertex -12.7173 2.06 45.0715
      vertex -12.6384 0.0599998 45.2712
      vertex -12.7173 0.0599998 45.0715
    endloop
  endfacet
  facet normal 0.953465 0 -0.301502
    outer loop
      vertex -12.7173 0.0599998 45.0715
      vertex -12.7825 2.06 44.8652
      vertex -12.7173 2.06 45.0715
    endloop
  endfacet
  facet normal 0.953465 0 -0.301502
    outer loop
      vertex -12.7825 2.06 44.8652
      vertex -12.7173 0.0599998 45.0715
      vertex -12.7825 0.0599998 44.8652
    endloop
  endfacet
  facet normal 0.901515 0 -0.432749
    outer loop
      vertex -12.5463 0.0599998 45.463
      vertex -12.6384 2.06 45.2712
      vertex -12.5463 2.06 45.463
    endloop
  endfacet
  facet normal 0.901515 0 -0.432749
    outer loop
      vertex -12.6384 2.06 45.2712
      vertex -12.5463 0.0599998 45.463
      vertex -12.6384 0.0599998 45.2712
    endloop
  endfacet
  facet normal -0.930024 0 -0.367499
    outer loop
      vertex 12.7173 0.0599998 45.0715
      vertex 12.6384 2.06 45.2712
      vertex 12.7173 2.06 45.0715
    endloop
  endfacet
  facet normal -0.930024 -0 -0.367499
    outer loop
      vertex 12.6384 2.06 45.2712
      vertex 12.7173 0.0599998 45.0715
      vertex 12.6384 0.0599998 45.2712
    endloop
  endfacet
  facet normal -0.953465 0 -0.301502
    outer loop
      vertex 12.7825 0.0599998 44.8652
      vertex 12.7173 2.06 45.0715
      vertex 12.7825 2.06 44.8652
    endloop
  endfacet
  facet normal -0.953465 -0 -0.301502
    outer loop
      vertex 12.7173 2.06 45.0715
      vertex 12.7825 0.0599998 44.8652
      vertex 12.7173 0.0599998 45.0715
    endloop
  endfacet
  facet normal -0.733278 0 -0.679929
    outer loop
      vertex 12.1971 0.0599998 45.9799
      vertex 12.0587 2.06 46.1291
      vertex 12.1971 2.06 45.9799
    endloop
  endfacet
  facet normal -0.733278 -0 -0.679929
    outer loop
      vertex 12.0587 2.06 46.1291
      vertex 12.1971 0.0599998 45.9799
      vertex 12.0587 0.0599998 46.1291
    endloop
  endfacet
  facet normal -0.972002 0 0.234971
    outer loop
      vertex 12.7825 0.0599998 32.6348
      vertex 12.8337 2.06 32.8464
      vertex 12.7825 2.06 32.6348
    endloop
  endfacet
  facet normal -0.972002 0 0.234971
    outer loop
      vertex 12.8337 2.06 32.8464
      vertex 12.7825 0.0599998 32.6348
      vertex 12.8337 0.0599998 32.8464
    endloop
  endfacet
  facet normal -0.999433 0 0.0336592
    outer loop
      vertex 12.8926 0.0599998 33.2803
      vertex 12.9 2.06 33.5
      vertex 12.8926 2.06 33.2803
    endloop
  endfacet
  facet normal -0.999433 0 0.0336592
    outer loop
      vertex 12.9 2.06 33.5
      vertex 12.8926 0.0599998 33.2803
      vertex 12.9 0.0599998 33.5
    endloop
  endfacet
  facet normal -0.994893 0 -0.100934
    outer loop
      vertex 12.8926 0.0599998 44.2197
      vertex 12.8705 2.06 44.438
      vertex 12.8926 2.06 44.2197
    endloop
  endfacet
  facet normal -0.994893 -0 -0.100934
    outer loop
      vertex 12.8705 2.06 44.438
      vertex 12.8926 0.0599998 44.2197
      vertex 12.8705 0.0599998 44.438
    endloop
  endfacet
  facet normal -0.999433 0 -0.0336592
    outer loop
      vertex 12.9 0.0599998 44
      vertex 12.8926 2.06 44.2197
      vertex 12.9 2.06 44
    endloop
  endfacet
  facet normal -0.999433 -0 -0.0336592
    outer loop
      vertex 12.8926 2.06 44.2197
      vertex 12.9 0.0599998 44
      vertex 12.8926 0.0599998 44.2197
    endloop
  endfacet
  facet normal 0.0457868 0 0.998951
    outer loop
      vertex -10.6883 2.06 30.7086
      vertex -10.5 0.0599998 30.7
      vertex -10.5 2.06 30.7
    endloop
  endfacet
  facet normal 0.0457868 0 0.998951
    outer loop
      vertex -10.5 0.0599998 30.7
      vertex -10.6883 2.06 30.7086
      vertex -10.6883 0.0599998 30.7086
    endloop
  endfacet
  facet normal 0.546967 0 0.837154
    outer loop
      vertex -11.754 2.06 31.1126
      vertex -11.5896 0.0599998 31.0052
      vertex -11.5896 2.06 31.0052
    endloop
  endfacet
  facet normal 0.546967 0 0.837154
    outer loop
      vertex -11.5896 0.0599998 31.0052
      vertex -11.754 2.06 31.1126
      vertex -11.754 0.0599998 31.1126
    endloop
  endfacet
  facet normal 0.473678 0 0.880698
    outer loop
      vertex -11.5896 2.06 31.0052
      vertex -11.4184 0.0599998 30.9131
      vertex -11.4184 2.06 30.9131
    endloop
  endfacet
  facet normal 0.473678 0 0.880698
    outer loop
      vertex -11.4184 0.0599998 30.9131
      vertex -11.5896 2.06 31.0052
      vertex -11.5896 0.0599998 31.0052
    endloop
  endfacet
  facet normal -0.226051 0 0.974115
    outer loop
      vertex 10.8754 2.06 30.7345
      vertex 11.0603 0.0599998 30.7774
      vertex 11.0603 2.06 30.7774
    endloop
  endfacet
  facet normal -0.226051 0 0.974115
    outer loop
      vertex 11.0603 0.0599998 30.7774
      vertex 10.8754 2.06 30.7345
      vertex 10.8754 0.0599998 30.7345
    endloop
  endfacet
  facet normal -0.733273 0 0.679934
    outer loop
      vertex 12.0587 0.0599998 31.3709
      vertex 12.1971 2.06 31.5201
      vertex 12.0587 2.06 31.3709
    endloop
  endfacet
  facet normal -0.733273 0 0.679934
    outer loop
      vertex 12.1971 2.06 31.5201
      vertex 12.0587 0.0599998 31.3709
      vertex 12.1971 0.0599998 31.5201
    endloop
  endfacet
  facet normal -0.676952 0 0.736027
    outer loop
      vertex 11.9107 2.06 31.2348
      vertex 12.0587 0.0599998 31.3709
      vertex 12.0587 2.06 31.3709
    endloop
  endfacet
  facet normal -0.676952 0 0.736027
    outer loop
      vertex 12.0587 0.0599998 31.3709
      vertex 11.9107 2.06 31.2348
      vertex 11.9107 0.0599998 31.2348
    endloop
  endfacet
  facet normal 0.226061 0 -0.974113
    outer loop
      vertex -11.0603 0.0599998 46.7226
      vertex -10.8754 2.06 46.7655
      vertex -10.8754 0.0599998 46.7655
    endloop
  endfacet
  facet normal 0.226061 0 -0.974113
    outer loop
      vertex -10.8754 2.06 46.7655
      vertex -11.0603 0.0599998 46.7226
      vertex -11.0603 2.06 46.7226
    endloop
  endfacet
  facet normal 0.136784 0 -0.990601
    outer loop
      vertex -10.8754 0.0599998 46.7655
      vertex -10.6883 2.06 46.7914
      vertex -10.6883 0.0599998 46.7914
    endloop
  endfacet
  facet normal 0.136784 0 -0.990601
    outer loop
      vertex -10.6883 2.06 46.7914
      vertex -10.8754 0.0599998 46.7655
      vertex -10.8754 2.06 46.7655
    endloop
  endfacet
  facet normal 0.999433 0 -0.0336592
    outer loop
      vertex -12.8926 0.0599998 44.2197
      vertex -12.9 2.06 44
      vertex -12.8926 2.06 44.2197
    endloop
  endfacet
  facet normal 0.999433 0 -0.0336592
    outer loop
      vertex -12.9 2.06 44
      vertex -12.8926 0.0599998 44.2197
      vertex -12.9 0.0599998 44
    endloop
  endfacet
  facet normal 0.994893 0 -0.100934
    outer loop
      vertex -12.8705 0.0599998 44.438
      vertex -12.8926 2.06 44.2197
      vertex -12.8705 2.06 44.438
    endloop
  endfacet
  facet normal 0.994893 0 -0.100934
    outer loop
      vertex -12.8926 2.06 44.2197
      vertex -12.8705 0.0599998 44.438
      vertex -12.8926 0.0599998 44.2197
    endloop
  endfacet
  facet normal 0.972003 0 -0.234967
    outer loop
      vertex -12.7825 0.0599998 44.8652
      vertex -12.8337 2.06 44.6536
      vertex -12.7825 2.06 44.8652
    endloop
  endfacet
  facet normal 0.972003 0 -0.234967
    outer loop
      vertex -12.8337 2.06 44.6536
      vertex -12.7825 0.0599998 44.8652
      vertex -12.8337 0.0599998 44.6536
    endloop
  endfacet
  facet normal -0.226061 0 -0.974113
    outer loop
      vertex 10.8754 0.0599998 46.7655
      vertex 11.0603 2.06 46.7226
      vertex 11.0603 0.0599998 46.7226
    endloop
  endfacet
  facet normal -0.226061 0 -0.974113
    outer loop
      vertex 11.0603 2.06 46.7226
      vertex 10.8754 0.0599998 46.7655
      vertex 10.8754 2.06 46.7655
    endloop
  endfacet
  facet normal -0.930024 0 0.367499
    outer loop
      vertex 12.6384 0.0599998 32.2288
      vertex 12.7173 2.06 32.4285
      vertex 12.6384 2.06 32.2288
    endloop
  endfacet
  facet normal -0.930024 0 0.367499
    outer loop
      vertex 12.7173 2.06 32.4285
      vertex 12.6384 0.0599998 32.2288
      vertex 12.7173 0.0599998 32.4285
    endloop
  endfacet
  facet normal -0.867761 0 0.496982
    outer loop
      vertex 12.4416 0.0599998 31.8542
      vertex 12.5463 2.06 32.037
      vertex 12.4416 2.06 31.8542
    endloop
  endfacet
  facet normal -0.867761 0 0.496982
    outer loop
      vertex 12.5463 2.06 32.037
      vertex 12.4416 0.0599998 31.8542
      vertex 12.5463 0.0599998 32.037
    endloop
  endfacet
  facet normal -0.985775 0 0.168069
    outer loop
      vertex 12.8337 0.0599998 32.8464
      vertex 12.8705 2.06 33.062
      vertex 12.8337 2.06 32.8464
    endloop
  endfacet
  facet normal -0.985775 0 0.168069
    outer loop
      vertex 12.8705 2.06 33.062
      vertex 12.8337 0.0599998 32.8464
      vertex 12.8705 0.0599998 33.062
    endloop
  endfacet
  facet normal -0.953465 0 0.301502
    outer loop
      vertex 12.7173 0.0599998 32.4285
      vertex 12.7825 2.06 32.6348
      vertex 12.7173 2.06 32.4285
    endloop
  endfacet
  facet normal -0.953465 0 0.301502
    outer loop
      vertex 12.7825 2.06 32.6348
      vertex 12.7173 0.0599998 32.4285
      vertex 12.7825 0.0599998 32.6348
    endloop
  endfacet
  facet normal -0.994893 0 0.100934
    outer loop
      vertex 12.8705 0.0599998 33.062
      vertex 12.8926 2.06 33.2803
      vertex 12.8705 2.06 33.062
    endloop
  endfacet
  facet normal -0.994893 0 0.100934
    outer loop
      vertex 12.8926 2.06 33.2803
      vertex 12.8705 0.0599998 33.062
      vertex 12.8926 0.0599998 33.2803
    endloop
  endfacet
  facet normal 0.985775 -0 0.168069
    outer loop
      vertex -12.8705 0.0599998 33.062
      vertex -12.8337 2.06 32.8464
      vertex -12.8705 2.06 33.062
    endloop
  endfacet
  facet normal 0.985775 0 0.168069
    outer loop
      vertex -12.8337 2.06 32.8464
      vertex -12.8705 0.0599998 33.062
      vertex -12.8337 0.0599998 32.8464
    endloop
  endfacet
  facet normal 0.972002 -0 0.234971
    outer loop
      vertex -12.8337 0.0599998 32.8464
      vertex -12.7825 2.06 32.6348
      vertex -12.8337 2.06 32.8464
    endloop
  endfacet
  facet normal 0.972002 0 0.234971
    outer loop
      vertex -12.7825 2.06 32.6348
      vertex -12.8337 0.0599998 32.8464
      vertex -12.7825 0.0599998 32.6348
    endloop
  endfacet
  facet normal 0.953465 -0 0.301502
    outer loop
      vertex -12.7825 0.0599998 32.6348
      vertex -12.7173 2.06 32.4285
      vertex -12.7825 2.06 32.6348
    endloop
  endfacet
  facet normal 0.953465 0 0.301502
    outer loop
      vertex -12.7173 2.06 32.4285
      vertex -12.7825 0.0599998 32.6348
      vertex -12.7173 0.0599998 32.4285
    endloop
  endfacet
  facet normal 0.614805 0 0.788679
    outer loop
      vertex -11.9107 2.06 31.2348
      vertex -11.754 0.0599998 31.1126
      vertex -11.754 2.06 31.1126
    endloop
  endfacet
  facet normal 0.614805 0 0.788679
    outer loop
      vertex -11.754 0.0599998 31.1126
      vertex -11.9107 2.06 31.2348
      vertex -11.9107 0.0599998 31.2348
    endloop
  endfacet
  facet normal 0.867761 -0 0.496982
    outer loop
      vertex -12.5463 0.0599998 32.037
      vertex -12.4416 2.06 31.8542
      vertex -12.5463 2.06 32.037
    endloop
  endfacet
  facet normal 0.867761 0 0.496982
    outer loop
      vertex -12.4416 2.06 31.8542
      vertex -12.5463 0.0599998 32.037
      vertex -12.4416 0.0599998 31.8542
    endloop
  endfacet
  facet normal 0.395342 0 0.918534
    outer loop
      vertex -11.4184 2.06 30.9131
      vertex -11.2416 0.0599998 30.837
      vertex -11.2416 2.06 30.837
    endloop
  endfacet
  facet normal 0.395342 0 0.918534
    outer loop
      vertex -11.2416 0.0599998 30.837
      vertex -11.4184 2.06 30.9131
      vertex -11.4184 0.0599998 30.9131
    endloop
  endfacet
  facet normal 0.867759 0 -0.496986
    outer loop
      vertex -12.4416 0.0599998 45.6458
      vertex -12.5463 2.06 45.463
      vertex -12.4416 2.06 45.6458
    endloop
  endfacet
  facet normal 0.867759 0 -0.496986
    outer loop
      vertex -12.5463 2.06 45.463
      vertex -12.4416 0.0599998 45.6458
      vertex -12.5463 0.0599998 45.463
    endloop
  endfacet
  facet normal 0.783788 0 -0.621029
    outer loop
      vertex -12.1971 0.0599998 45.9799
      vertex -12.325 2.06 45.8185
      vertex -12.1971 2.06 45.9799
    endloop
  endfacet
  facet normal 0.783788 0 -0.621029
    outer loop
      vertex -12.325 2.06 45.8185
      vertex -12.1971 0.0599998 45.9799
      vertex -12.325 0.0599998 45.8185
    endloop
  endfacet
  facet normal 0.985775 0 -0.168071
    outer loop
      vertex -12.8337 0.0599998 44.6536
      vertex -12.8705 2.06 44.438
      vertex -12.8337 2.06 44.6536
    endloop
  endfacet
  facet normal 0.985775 0 -0.168071
    outer loop
      vertex -12.8705 2.06 44.438
      vertex -12.8337 0.0599998 44.6536
      vertex -12.8705 0.0599998 44.438
    endloop
  endfacet
  facet normal -0.783791 0 0.621024
    outer loop
      vertex 12.1971 0.0599998 31.5201
      vertex 12.325 2.06 31.6815
      vertex 12.1971 2.06 31.5201
    endloop
  endfacet
  facet normal -0.783791 0 0.621024
    outer loop
      vertex 12.325 2.06 31.6815
      vertex 12.1971 0.0599998 31.5201
      vertex 12.325 0.0599998 31.6815
    endloop
  endfacet
  facet normal -0.828571 0 0.559884
    outer loop
      vertex 12.325 0.0599998 31.6815
      vertex 12.4416 2.06 31.8542
      vertex 12.325 2.06 31.6815
    endloop
  endfacet
  facet normal -0.828571 0 0.559884
    outer loop
      vertex 12.4416 2.06 31.8542
      vertex 12.325 0.0599998 31.6815
      vertex 12.4416 0.0599998 31.8542
    endloop
  endfacet
  facet normal 0.136794 0 0.990599
    outer loop
      vertex -10.8754 2.06 30.7345
      vertex -10.6883 0.0599998 30.7086
      vertex -10.6883 2.06 30.7086
    endloop
  endfacet
  facet normal 0.136794 0 0.990599
    outer loop
      vertex -10.6883 0.0599998 30.7086
      vertex -10.8754 2.06 30.7345
      vertex -10.8754 0.0599998 30.7345
    endloop
  endfacet
  facet normal 0.994893 -0 0.100934
    outer loop
      vertex -12.8926 0.0599998 33.2803
      vertex -12.8705 2.06 33.062
      vertex -12.8926 2.06 33.2803
    endloop
  endfacet
  facet normal 0.994893 0 0.100934
    outer loop
      vertex -12.8705 2.06 33.062
      vertex -12.8926 0.0599998 33.2803
      vertex -12.8705 0.0599998 33.062
    endloop
  endfacet
  facet normal 0.733273 -0 0.679934
    outer loop
      vertex -12.1971 0.0599998 31.5201
      vertex -12.0587 2.06 31.3709
      vertex -12.1971 2.06 31.5201
    endloop
  endfacet
  facet normal 0.733273 0 0.679934
    outer loop
      vertex -12.0587 2.06 31.3709
      vertex -12.1971 0.0599998 31.5201
      vertex -12.0587 0.0599998 31.3709
    endloop
  endfacet
  facet normal 0.828571 -0 0.559884
    outer loop
      vertex -12.4416 0.0599998 31.8542
      vertex -12.325 2.06 31.6815
      vertex -12.4416 2.06 31.8542
    endloop
  endfacet
  facet normal 0.828571 0 0.559884
    outer loop
      vertex -12.325 2.06 31.6815
      vertex -12.4416 0.0599998 31.8542
      vertex -12.325 0.0599998 31.6815
    endloop
  endfacet
  facet normal 0.783791 -0 0.621024
    outer loop
      vertex -12.325 0.0599998 31.6815
      vertex -12.1971 2.06 31.5201
      vertex -12.325 2.06 31.6815
    endloop
  endfacet
  facet normal 0.783791 0 0.621024
    outer loop
      vertex -12.1971 2.06 31.5201
      vertex -12.325 0.0599998 31.6815
      vertex -12.1971 0.0599998 31.5201
    endloop
  endfacet
  facet normal 0.226051 0 0.974115
    outer loop
      vertex -11.0603 2.06 30.7774
      vertex -10.8754 0.0599998 30.7345
      vertex -10.8754 2.06 30.7345
    endloop
  endfacet
  facet normal 0.226051 0 0.974115
    outer loop
      vertex -10.8754 0.0599998 30.7345
      vertex -11.0603 2.06 30.7774
      vertex -11.0603 0.0599998 30.7774
    endloop
  endfacet
  facet normal 0.901515 -0 0.432749
    outer loop
      vertex -12.6384 0.0599998 32.2288
      vertex -12.5463 2.06 32.037
      vertex -12.6384 2.06 32.2288
    endloop
  endfacet
  facet normal 0.901515 0 0.432749
    outer loop
      vertex -12.5463 2.06 32.037
      vertex -12.6384 0.0599998 32.2288
      vertex -12.5463 0.0599998 32.037
    endloop
  endfacet
  facet normal 0.676952 0 0.736027
    outer loop
      vertex -12.0587 2.06 31.3709
      vertex -11.9107 0.0599998 31.2348
      vertex -11.9107 2.06 31.2348
    endloop
  endfacet
  facet normal 0.676952 0 0.736027
    outer loop
      vertex -11.9107 0.0599998 31.2348
      vertex -12.0587 2.06 31.3709
      vertex -12.0587 0.0599998 31.3709
    endloop
  endfacet
  facet normal 0.930024 -0 0.367499
    outer loop
      vertex -12.7173 0.0599998 32.4285
      vertex -12.6384 2.06 32.2288
      vertex -12.7173 2.06 32.4285
    endloop
  endfacet
  facet normal 0.930024 0 0.367499
    outer loop
      vertex -12.6384 2.06 32.2288
      vertex -12.7173 0.0599998 32.4285
      vertex -12.6384 0.0599998 32.2288
    endloop
  endfacet
endsolid OpenSCAD_Model
